<?xml version="1.0" encoding="utf-8" standalone="no"?>
<!DOCTYPE svg PUBLIC "-//W3C//DTD SVG 1.1//EN"
  "http://www.w3.org/Graphics/SVG/1.1/DTD/svg11.dtd">
<svg xmlns:xlink="http://www.w3.org/1999/xlink" width="377.1pt" height="222.646312pt" viewBox="0 0 377.1 222.646312" xmlns="http://www.w3.org/2000/svg" version="1.1">
 <metadata>
  <rdf:RDF xmlns:dc="http://purl.org/dc/elements/1.1/" xmlns:cc="http://creativecommons.org/ns#" xmlns:rdf="http://www.w3.org/1999/02/22-rdf-syntax-ns#">
   <cc:Work>
    <dc:type rdf:resource="http://purl.org/dc/dcmitype/StillImage"/>
    <dc:date>2026-06-16T23:22:11.163032</dc:date>
    <dc:format>image/svg+xml</dc:format>
    <dc:creator>
     <cc:Agent>
      <dc:title>Matplotlib v3.9.4, https://matplotlib.org/</dc:title>
     </cc:Agent>
    </dc:creator>
   </cc:Work>
  </rdf:RDF>
 </metadata>
 <defs>
  <style type="text/css">*{stroke-linejoin: round; stroke-linecap: butt}</style>
 </defs>
 <g id="figure_1">
  <g id="patch_1">
   <path d="M 0 222.646312 
L 377.1 222.646312 
L 377.1 0 
L 0 0 
z
" style="fill: #ffffff"/>
  </g>
  <g id="axes_1">
   <g id="patch_2">
    <path d="M 20.2572 109.694512 
L 81.1908 109.694512 
Q 84.0924 109.694512 84.0924 105.813712 
L 84.0924 67.975912 
Q 84.0924 64.095112 81.1908 64.095112 
L 20.2572 64.095112 
Q 17.3556 64.095112 17.3556 67.975912 
L 17.3556 105.813712 
Q 17.3556 109.694512 20.2572 109.694512 
z
" clip-path="url(#p0b35546192)" style="fill: #e3f2fd; stroke: #333333; stroke-width: 1.2; stroke-linejoin: miter"/>
   </g>
   <g id="patch_3">
    <path d="M 110.9322 80.588512 
L 164.6118 80.588512 
Q 167.5134 80.588512 167.5134 76.707712 
L 167.5134 48.571912 
Q 167.5134 44.691112 164.6118 44.691112 
L 110.9322 44.691112 
Q 108.0306 44.691112 108.0306 48.571912 
L 108.0306 76.707712 
Q 108.0306 80.588512 110.9322 80.588512 
z
" clip-path="url(#p0b35546192)" style="fill: #fff59d; stroke: #333333; stroke-width: 1.2; stroke-linejoin: miter"/>
   </g>
   <g id="patch_4">
    <path d="M 110.9322 133.949512 
L 164.6118 133.949512 
Q 167.5134 133.949512 167.5134 130.068712 
L 167.5134 101.932912 
Q 167.5134 98.052112 164.6118 98.052112 
L 110.9322 98.052112 
Q 108.0306 98.052112 108.0306 101.932912 
L 108.0306 130.068712 
Q 108.0306 133.949512 110.9322 133.949512 
z
" clip-path="url(#p0b35546192)" style="fill: #fff59d; stroke: #333333; stroke-width: 1.2; stroke-linejoin: miter"/>
   </g>
   <g id="patch_5">
    <path d="M 110.9322 187.310512 
L 164.6118 187.310512 
Q 167.5134 187.310512 167.5134 183.429712 
L 167.5134 155.293912 
Q 167.5134 151.413112 164.6118 151.413112 
L 110.9322 151.413112 
Q 108.0306 151.413112 108.0306 155.293912 
L 108.0306 183.429712 
Q 108.0306 187.310512 110.9322 187.310512 
z
" clip-path="url(#p0b35546192)" style="fill: #fff59d; stroke: #333333; stroke-width: 1.2; stroke-linejoin: miter"/>
   </g>
   <g id="patch_6">
    <path d="M 197.9802 80.588512 
L 248.0328 80.588512 
Q 250.9344 80.588512 250.9344 76.707712 
L 250.9344 48.571912 
Q 250.9344 44.691112 248.0328 44.691112 
L 197.9802 44.691112 
Q 195.0786 44.691112 195.0786 48.571912 
L 195.0786 76.707712 
Q 195.0786 80.588512 197.9802 80.588512 
z
" clip-path="url(#p0b35546192)" style="fill: #c8e6c9; stroke: #333333; stroke-width: 1.2; stroke-linejoin: miter"/>
   </g>
   <g id="patch_7">
    <path d="M 197.9802 133.949512 
L 248.0328 133.949512 
Q 250.9344 133.949512 250.9344 130.068712 
L 250.9344 101.932912 
Q 250.9344 98.052112 248.0328 98.052112 
L 197.9802 98.052112 
Q 195.0786 98.052112 195.0786 101.932912 
L 195.0786 130.068712 
Q 195.0786 133.949512 197.9802 133.949512 
z
" clip-path="url(#p0b35546192)" style="fill: #c8e6c9; stroke: #333333; stroke-width: 1.2; stroke-linejoin: miter"/>
   </g>
   <g id="patch_8">
    <path d="M 197.9802 187.310512 
L 248.0328 187.310512 
Q 250.9344 187.310512 250.9344 183.429712 
L 250.9344 155.293912 
Q 250.9344 151.413112 248.0328 151.413112 
L 197.9802 151.413112 
Q 195.0786 151.413112 195.0786 155.293912 
L 195.0786 183.429712 
Q 195.0786 187.310512 197.9802 187.310512 
z
" clip-path="url(#p0b35546192)" style="fill: #c8e6c9; stroke: #333333; stroke-width: 1.2; stroke-linejoin: miter"/>
   </g>
   <g id="patch_9">
    <path d="M 281.4012 109.694512 
L 342.3348 109.694512 
Q 345.2364 109.694512 345.2364 105.813712 
L 345.2364 67.975912 
Q 345.2364 64.095112 342.3348 64.095112 
L 281.4012 64.095112 
Q 278.4996 64.095112 278.4996 67.975912 
L 278.4996 105.813712 
Q 278.4996 109.694512 281.4012 109.694512 
z
" clip-path="url(#p0b35546192)" style="fill: #ffcdd2; stroke: #333333; stroke-width: 1.2; stroke-linejoin: miter"/>
   </g>
   <g id="text_1">
    <!-- Optional -->
    <g transform="translate(33.8115 84.623187) scale(0.08 -0.08)">
     <defs>
      <path id="DejaVuSans-4f" d="M 2522 4238 
Q 1834 4238 1429 3725 
Q 1025 3213 1025 2328 
Q 1025 1447 1429 934 
Q 1834 422 2522 422 
Q 3209 422 3611 934 
Q 4013 1447 4013 2328 
Q 4013 3213 3611 3725 
Q 3209 4238 2522 4238 
z
M 2522 4750 
Q 3503 4750 4090 4092 
Q 4678 3434 4678 2328 
Q 4678 1225 4090 567 
Q 3503 -91 2522 -91 
Q 1538 -91 948 565 
Q 359 1222 359 2328 
Q 359 3434 948 4092 
Q 1538 4750 2522 4750 
z
" transform="scale(0.015625)"/>
      <path id="DejaVuSans-70" d="M 1159 525 
L 1159 -1331 
L 581 -1331 
L 581 3500 
L 1159 3500 
L 1159 2969 
Q 1341 3281 1617 3432 
Q 1894 3584 2278 3584 
Q 2916 3584 3314 3078 
Q 3713 2572 3713 1747 
Q 3713 922 3314 415 
Q 2916 -91 2278 -91 
Q 1894 -91 1617 61 
Q 1341 213 1159 525 
z
M 3116 1747 
Q 3116 2381 2855 2742 
Q 2594 3103 2138 3103 
Q 1681 3103 1420 2742 
Q 1159 2381 1159 1747 
Q 1159 1113 1420 752 
Q 1681 391 2138 391 
Q 2594 391 2855 752 
Q 3116 1113 3116 1747 
z
" transform="scale(0.015625)"/>
      <path id="DejaVuSans-74" d="M 1172 4494 
L 1172 3500 
L 2356 3500 
L 2356 3053 
L 1172 3053 
L 1172 1153 
Q 1172 725 1289 603 
Q 1406 481 1766 481 
L 2356 481 
L 2356 0 
L 1766 0 
Q 1100 0 847 248 
Q 594 497 594 1153 
L 594 3053 
L 172 3053 
L 172 3500 
L 594 3500 
L 594 4494 
L 1172 4494 
z
" transform="scale(0.015625)"/>
      <path id="DejaVuSans-69" d="M 603 3500 
L 1178 3500 
L 1178 0 
L 603 0 
L 603 3500 
z
M 603 4863 
L 1178 4863 
L 1178 4134 
L 603 4134 
L 603 4863 
z
" transform="scale(0.015625)"/>
      <path id="DejaVuSans-6f" d="M 1959 3097 
Q 1497 3097 1228 2736 
Q 959 2375 959 1747 
Q 959 1119 1226 758 
Q 1494 397 1959 397 
Q 2419 397 2687 759 
Q 2956 1122 2956 1747 
Q 2956 2369 2687 2733 
Q 2419 3097 1959 3097 
z
M 1959 3584 
Q 2709 3584 3137 3096 
Q 3566 2609 3566 1747 
Q 3566 888 3137 398 
Q 2709 -91 1959 -91 
Q 1206 -91 779 398 
Q 353 888 353 1747 
Q 353 2609 779 3096 
Q 1206 3584 1959 3584 
z
" transform="scale(0.015625)"/>
      <path id="DejaVuSans-6e" d="M 3513 2113 
L 3513 0 
L 2938 0 
L 2938 2094 
Q 2938 2591 2744 2837 
Q 2550 3084 2163 3084 
Q 1697 3084 1428 2787 
Q 1159 2491 1159 1978 
L 1159 0 
L 581 0 
L 581 3500 
L 1159 3500 
L 1159 2956 
Q 1366 3272 1645 3428 
Q 1925 3584 2291 3584 
Q 2894 3584 3203 3211 
Q 3513 2838 3513 2113 
z
" transform="scale(0.015625)"/>
      <path id="DejaVuSans-61" d="M 2194 1759 
Q 1497 1759 1228 1600 
Q 959 1441 959 1056 
Q 959 750 1161 570 
Q 1363 391 1709 391 
Q 2188 391 2477 730 
Q 2766 1069 2766 1631 
L 2766 1759 
L 2194 1759 
z
M 3341 1997 
L 3341 0 
L 2766 0 
L 2766 531 
Q 2569 213 2275 61 
Q 1981 -91 1556 -91 
Q 1019 -91 701 211 
Q 384 513 384 1019 
Q 384 1609 779 1909 
Q 1175 2209 1959 2209 
L 2766 2209 
L 2766 2266 
Q 2766 2663 2505 2880 
Q 2244 3097 1772 3097 
Q 1472 3097 1187 3025 
Q 903 2953 641 2809 
L 641 3341 
Q 956 3463 1253 3523 
Q 1550 3584 1831 3584 
Q 2591 3584 2966 3190 
Q 3341 2797 3341 1997 
z
" transform="scale(0.015625)"/>
      <path id="DejaVuSans-6c" d="M 603 4863 
L 1178 4863 
L 1178 0 
L 603 0 
L 603 4863 
z
" transform="scale(0.015625)"/>
     </defs>
     <use xlink:href="#DejaVuSans-4f"/>
     <use xlink:href="#DejaVuSans-70" x="78.710938"/>
     <use xlink:href="#DejaVuSans-74" x="142.1875"/>
     <use xlink:href="#DejaVuSans-69" x="181.396484"/>
     <use xlink:href="#DejaVuSans-6f" x="209.179688"/>
     <use xlink:href="#DejaVuSans-6e" x="270.361328"/>
     <use xlink:href="#DejaVuSans-61" x="333.740234"/>
     <use xlink:href="#DejaVuSans-6c" x="395.019531"/>
    </g>
    <!-- String? -->
    <g transform="translate(36.663375 93.581437) scale(0.08 -0.08)">
     <defs>
      <path id="DejaVuSans-53" d="M 3425 4513 
L 3425 3897 
Q 3066 4069 2747 4153 
Q 2428 4238 2131 4238 
Q 1616 4238 1336 4038 
Q 1056 3838 1056 3469 
Q 1056 3159 1242 3001 
Q 1428 2844 1947 2747 
L 2328 2669 
Q 3034 2534 3370 2195 
Q 3706 1856 3706 1288 
Q 3706 609 3251 259 
Q 2797 -91 1919 -91 
Q 1588 -91 1214 -16 
Q 841 59 441 206 
L 441 856 
Q 825 641 1194 531 
Q 1563 422 1919 422 
Q 2459 422 2753 634 
Q 3047 847 3047 1241 
Q 3047 1584 2836 1778 
Q 2625 1972 2144 2069 
L 1759 2144 
Q 1053 2284 737 2584 
Q 422 2884 422 3419 
Q 422 4038 858 4394 
Q 1294 4750 2059 4750 
Q 2388 4750 2728 4690 
Q 3069 4631 3425 4513 
z
" transform="scale(0.015625)"/>
      <path id="DejaVuSans-72" d="M 2631 2963 
Q 2534 3019 2420 3045 
Q 2306 3072 2169 3072 
Q 1681 3072 1420 2755 
Q 1159 2438 1159 1844 
L 1159 0 
L 581 0 
L 581 3500 
L 1159 3500 
L 1159 2956 
Q 1341 3275 1631 3429 
Q 1922 3584 2338 3584 
Q 2397 3584 2469 3576 
Q 2541 3569 2628 3553 
L 2631 2963 
z
" transform="scale(0.015625)"/>
      <path id="DejaVuSans-67" d="M 2906 1791 
Q 2906 2416 2648 2759 
Q 2391 3103 1925 3103 
Q 1463 3103 1205 2759 
Q 947 2416 947 1791 
Q 947 1169 1205 825 
Q 1463 481 1925 481 
Q 2391 481 2648 825 
Q 2906 1169 2906 1791 
z
M 3481 434 
Q 3481 -459 3084 -895 
Q 2688 -1331 1869 -1331 
Q 1566 -1331 1297 -1286 
Q 1028 -1241 775 -1147 
L 775 -588 
Q 1028 -725 1275 -790 
Q 1522 -856 1778 -856 
Q 2344 -856 2625 -561 
Q 2906 -266 2906 331 
L 2906 616 
Q 2728 306 2450 153 
Q 2172 0 1784 0 
Q 1141 0 747 490 
Q 353 981 353 1791 
Q 353 2603 747 3093 
Q 1141 3584 1784 3584 
Q 2172 3584 2450 3431 
Q 2728 3278 2906 2969 
L 2906 3500 
L 3481 3500 
L 3481 434 
z
" transform="scale(0.015625)"/>
      <path id="DejaVuSans-3f" d="M 1222 794 
L 1856 794 
L 1856 0 
L 1222 0 
L 1222 794 
z
M 1838 1253 
L 1241 1253 
L 1241 1734 
Q 1241 2050 1328 2253 
Q 1416 2456 1697 2725 
L 1978 3003 
Q 2156 3169 2236 3316 
Q 2316 3463 2316 3616 
Q 2316 3894 2111 4066 
Q 1906 4238 1569 4238 
Q 1322 4238 1042 4128 
Q 763 4019 459 3809 
L 459 4397 
Q 753 4575 1054 4662 
Q 1356 4750 1678 4750 
Q 2253 4750 2601 4447 
Q 2950 4144 2950 3647 
Q 2950 3409 2837 3195 
Q 2725 2981 2444 2713 
L 2169 2444 
Q 2022 2297 1961 2214 
Q 1900 2131 1875 2053 
Q 1856 1988 1847 1894 
Q 1838 1800 1838 1638 
L 1838 1253 
z
" transform="scale(0.015625)"/>
     </defs>
     <use xlink:href="#DejaVuSans-53"/>
     <use xlink:href="#DejaVuSans-74" x="63.476562"/>
     <use xlink:href="#DejaVuSans-72" x="102.685547"/>
     <use xlink:href="#DejaVuSans-69" x="143.798828"/>
     <use xlink:href="#DejaVuSans-6e" x="171.582031"/>
     <use xlink:href="#DejaVuSans-67" x="234.960938"/>
     <use xlink:href="#DejaVuSans-3f" x="298.4375"/>
    </g>
   </g>
   <g id="text_2">
    <!-- if let -->
    <g transform="translate(128.84075 64.847312) scale(0.08 -0.08)">
     <defs>
      <path id="DejaVuSans-66" d="M 2375 4863 
L 2375 4384 
L 1825 4384 
Q 1516 4384 1395 4259 
Q 1275 4134 1275 3809 
L 1275 3500 
L 2222 3500 
L 2222 3053 
L 1275 3053 
L 1275 0 
L 697 0 
L 697 3053 
L 147 3053 
L 147 3500 
L 697 3500 
L 697 3744 
Q 697 4328 969 4595 
Q 1241 4863 1831 4863 
L 2375 4863 
z
" transform="scale(0.015625)"/>
      <path id="DejaVuSans-20" transform="scale(0.015625)"/>
      <path id="DejaVuSans-65" d="M 3597 1894 
L 3597 1613 
L 953 1613 
Q 991 1019 1311 708 
Q 1631 397 2203 397 
Q 2534 397 2845 478 
Q 3156 559 3463 722 
L 3463 178 
Q 3153 47 2828 -22 
Q 2503 -91 2169 -91 
Q 1331 -91 842 396 
Q 353 884 353 1716 
Q 353 2575 817 3079 
Q 1281 3584 2069 3584 
Q 2775 3584 3186 3129 
Q 3597 2675 3597 1894 
z
M 3022 2063 
Q 3016 2534 2758 2815 
Q 2500 3097 2075 3097 
Q 1594 3097 1305 2825 
Q 1016 2553 972 2059 
L 3022 2063 
z
" transform="scale(0.015625)"/>
     </defs>
     <use xlink:href="#DejaVuSans-69"/>
     <use xlink:href="#DejaVuSans-66" x="27.783203"/>
     <use xlink:href="#DejaVuSans-20" x="62.988281"/>
     <use xlink:href="#DejaVuSans-6c" x="94.775391"/>
     <use xlink:href="#DejaVuSans-65" x="122.558594"/>
     <use xlink:href="#DejaVuSans-74" x="184.082031"/>
    </g>
   </g>
   <g id="text_3">
    <!-- guard let -->
    <g transform="translate(119.72075 118.208312) scale(0.08 -0.08)">
     <defs>
      <path id="DejaVuSans-75" d="M 544 1381 
L 544 3500 
L 1119 3500 
L 1119 1403 
Q 1119 906 1312 657 
Q 1506 409 1894 409 
Q 2359 409 2629 706 
Q 2900 1003 2900 1516 
L 2900 3500 
L 3475 3500 
L 3475 0 
L 2900 0 
L 2900 538 
Q 2691 219 2414 64 
Q 2138 -91 1772 -91 
Q 1169 -91 856 284 
Q 544 659 544 1381 
z
M 1991 3584 
L 1991 3584 
z
" transform="scale(0.015625)"/>
      <path id="DejaVuSans-64" d="M 2906 2969 
L 2906 4863 
L 3481 4863 
L 3481 0 
L 2906 0 
L 2906 525 
Q 2725 213 2448 61 
Q 2172 -91 1784 -91 
Q 1150 -91 751 415 
Q 353 922 353 1747 
Q 353 2572 751 3078 
Q 1150 3584 1784 3584 
Q 2172 3584 2448 3432 
Q 2725 3281 2906 2969 
z
M 947 1747 
Q 947 1113 1208 752 
Q 1469 391 1925 391 
Q 2381 391 2643 752 
Q 2906 1113 2906 1747 
Q 2906 2381 2643 2742 
Q 2381 3103 1925 3103 
Q 1469 3103 1208 2742 
Q 947 2381 947 1747 
z
" transform="scale(0.015625)"/>
     </defs>
     <use xlink:href="#DejaVuSans-67"/>
     <use xlink:href="#DejaVuSans-75" x="63.476562"/>
     <use xlink:href="#DejaVuSans-61" x="126.855469"/>
     <use xlink:href="#DejaVuSans-72" x="188.134766"/>
     <use xlink:href="#DejaVuSans-64" x="227.498047"/>
     <use xlink:href="#DejaVuSans-20" x="290.974609"/>
     <use xlink:href="#DejaVuSans-6c" x="322.761719"/>
     <use xlink:href="#DejaVuSans-65" x="350.544922"/>
     <use xlink:href="#DejaVuSans-74" x="412.068359"/>
    </g>
   </g>
   <g id="text_4">
    <!-- ?? default -->
    <g transform="translate(118.180125 171.569312) scale(0.08 -0.08)">
     <use xlink:href="#DejaVuSans-3f"/>
     <use xlink:href="#DejaVuSans-3f" x="53.076172"/>
     <use xlink:href="#DejaVuSans-20" x="106.152344"/>
     <use xlink:href="#DejaVuSans-64" x="137.939453"/>
     <use xlink:href="#DejaVuSans-65" x="201.416016"/>
     <use xlink:href="#DejaVuSans-66" x="262.939453"/>
     <use xlink:href="#DejaVuSans-61" x="298.144531"/>
     <use xlink:href="#DejaVuSans-75" x="359.423828"/>
     <use xlink:href="#DejaVuSans-6c" x="422.802734"/>
     <use xlink:href="#DejaVuSans-74" x="450.585938"/>
    </g>
   </g>
   <g id="text_5">
    <!-- String -->
    <g transform="translate(211.069 64.847312) scale(0.08 -0.08)">
     <use xlink:href="#DejaVuSans-53"/>
     <use xlink:href="#DejaVuSans-74" x="63.476562"/>
     <use xlink:href="#DejaVuSans-72" x="102.685547"/>
     <use xlink:href="#DejaVuSans-69" x="143.798828"/>
     <use xlink:href="#DejaVuSans-6e" x="171.582031"/>
     <use xlink:href="#DejaVuSans-67" x="234.960938"/>
    </g>
   </g>
   <g id="text_6">
    <!-- String -->
    <g transform="translate(211.069 113.729187) scale(0.08 -0.08)">
     <use xlink:href="#DejaVuSans-53"/>
     <use xlink:href="#DejaVuSans-74" x="63.476562"/>
     <use xlink:href="#DejaVuSans-72" x="102.685547"/>
     <use xlink:href="#DejaVuSans-69" x="143.798828"/>
     <use xlink:href="#DejaVuSans-6e" x="171.582031"/>
     <use xlink:href="#DejaVuSans-67" x="234.960938"/>
    </g>
    <!-- or early return -->
    <g transform="translate(194.108375 122.687437) scale(0.08 -0.08)">
     <defs>
      <path id="DejaVuSans-79" d="M 2059 -325 
Q 1816 -950 1584 -1140 
Q 1353 -1331 966 -1331 
L 506 -1331 
L 506 -850 
L 844 -850 
Q 1081 -850 1212 -737 
Q 1344 -625 1503 -206 
L 1606 56 
L 191 3500 
L 800 3500 
L 1894 763 
L 2988 3500 
L 3597 3500 
L 2059 -325 
z
" transform="scale(0.015625)"/>
     </defs>
     <use xlink:href="#DejaVuSans-6f"/>
     <use xlink:href="#DejaVuSans-72" x="61.181641"/>
     <use xlink:href="#DejaVuSans-20" x="102.294922"/>
     <use xlink:href="#DejaVuSans-65" x="134.082031"/>
     <use xlink:href="#DejaVuSans-61" x="195.605469"/>
     <use xlink:href="#DejaVuSans-72" x="256.884766"/>
     <use xlink:href="#DejaVuSans-6c" x="297.998047"/>
     <use xlink:href="#DejaVuSans-79" x="325.78125"/>
     <use xlink:href="#DejaVuSans-20" x="384.960938"/>
     <use xlink:href="#DejaVuSans-72" x="416.748047"/>
     <use xlink:href="#DejaVuSans-65" x="455.611328"/>
     <use xlink:href="#DejaVuSans-74" x="517.134766"/>
     <use xlink:href="#DejaVuSans-75" x="556.34375"/>
     <use xlink:href="#DejaVuSans-72" x="619.722656"/>
     <use xlink:href="#DejaVuSans-6e" x="659.085938"/>
    </g>
   </g>
   <g id="text_7">
    <!-- String -->
    <g transform="translate(211.069 171.569312) scale(0.08 -0.08)">
     <use xlink:href="#DejaVuSans-53"/>
     <use xlink:href="#DejaVuSans-74" x="63.476562"/>
     <use xlink:href="#DejaVuSans-72" x="102.685547"/>
     <use xlink:href="#DejaVuSans-69" x="143.798828"/>
     <use xlink:href="#DejaVuSans-6e" x="171.582031"/>
     <use xlink:href="#DejaVuSans-67" x="234.960938"/>
    </g>
   </g>
   <g id="text_8">
    <!-- nil branch -->
    <g transform="translate(291.934875 84.623187) scale(0.08 -0.08)">
     <defs>
      <path id="DejaVuSans-62" d="M 3116 1747 
Q 3116 2381 2855 2742 
Q 2594 3103 2138 3103 
Q 1681 3103 1420 2742 
Q 1159 2381 1159 1747 
Q 1159 1113 1420 752 
Q 1681 391 2138 391 
Q 2594 391 2855 752 
Q 3116 1113 3116 1747 
z
M 1159 2969 
Q 1341 3281 1617 3432 
Q 1894 3584 2278 3584 
Q 2916 3584 3314 3078 
Q 3713 2572 3713 1747 
Q 3713 922 3314 415 
Q 2916 -91 2278 -91 
Q 1894 -91 1617 61 
Q 1341 213 1159 525 
L 1159 0 
L 581 0 
L 581 4863 
L 1159 4863 
L 1159 2969 
z
" transform="scale(0.015625)"/>
      <path id="DejaVuSans-63" d="M 3122 3366 
L 3122 2828 
Q 2878 2963 2633 3030 
Q 2388 3097 2138 3097 
Q 1578 3097 1268 2742 
Q 959 2388 959 1747 
Q 959 1106 1268 751 
Q 1578 397 2138 397 
Q 2388 397 2633 464 
Q 2878 531 3122 666 
L 3122 134 
Q 2881 22 2623 -34 
Q 2366 -91 2075 -91 
Q 1284 -91 818 406 
Q 353 903 353 1747 
Q 353 2603 823 3093 
Q 1294 3584 2113 3584 
Q 2378 3584 2631 3529 
Q 2884 3475 3122 3366 
z
" transform="scale(0.015625)"/>
      <path id="DejaVuSans-68" d="M 3513 2113 
L 3513 0 
L 2938 0 
L 2938 2094 
Q 2938 2591 2744 2837 
Q 2550 3084 2163 3084 
Q 1697 3084 1428 2787 
Q 1159 2491 1159 1978 
L 1159 0 
L 581 0 
L 581 4863 
L 1159 4863 
L 1159 2956 
Q 1366 3272 1645 3428 
Q 1925 3584 2291 3584 
Q 2894 3584 3203 3211 
Q 3513 2838 3513 2113 
z
" transform="scale(0.015625)"/>
     </defs>
     <use xlink:href="#DejaVuSans-6e"/>
     <use xlink:href="#DejaVuSans-69" x="63.378906"/>
     <use xlink:href="#DejaVuSans-6c" x="91.162109"/>
     <use xlink:href="#DejaVuSans-20" x="118.945312"/>
     <use xlink:href="#DejaVuSans-62" x="150.732422"/>
     <use xlink:href="#DejaVuSans-72" x="214.208984"/>
     <use xlink:href="#DejaVuSans-61" x="255.322266"/>
     <use xlink:href="#DejaVuSans-6e" x="316.601562"/>
     <use xlink:href="#DejaVuSans-63" x="379.980469"/>
     <use xlink:href="#DejaVuSans-68" x="434.960938"/>
    </g>
    <!-- skipped / handled -->
    <g transform="translate(276.214875 93.581437) scale(0.08 -0.08)">
     <defs>
      <path id="DejaVuSans-73" d="M 2834 3397 
L 2834 2853 
Q 2591 2978 2328 3040 
Q 2066 3103 1784 3103 
Q 1356 3103 1142 2972 
Q 928 2841 928 2578 
Q 928 2378 1081 2264 
Q 1234 2150 1697 2047 
L 1894 2003 
Q 2506 1872 2764 1633 
Q 3022 1394 3022 966 
Q 3022 478 2636 193 
Q 2250 -91 1575 -91 
Q 1294 -91 989 -36 
Q 684 19 347 128 
L 347 722 
Q 666 556 975 473 
Q 1284 391 1588 391 
Q 1994 391 2212 530 
Q 2431 669 2431 922 
Q 2431 1156 2273 1281 
Q 2116 1406 1581 1522 
L 1381 1569 
Q 847 1681 609 1914 
Q 372 2147 372 2553 
Q 372 3047 722 3315 
Q 1072 3584 1716 3584 
Q 2034 3584 2315 3537 
Q 2597 3491 2834 3397 
z
" transform="scale(0.015625)"/>
      <path id="DejaVuSans-6b" d="M 581 4863 
L 1159 4863 
L 1159 1991 
L 2875 3500 
L 3609 3500 
L 1753 1863 
L 3688 0 
L 2938 0 
L 1159 1709 
L 1159 0 
L 581 0 
L 581 4863 
z
" transform="scale(0.015625)"/>
      <path id="DejaVuSans-2f" d="M 1625 4666 
L 2156 4666 
L 531 -594 
L 0 -594 
L 1625 4666 
z
" transform="scale(0.015625)"/>
     </defs>
     <use xlink:href="#DejaVuSans-73"/>
     <use xlink:href="#DejaVuSans-6b" x="52.099609"/>
     <use xlink:href="#DejaVuSans-69" x="110.009766"/>
     <use xlink:href="#DejaVuSans-70" x="137.792969"/>
     <use xlink:href="#DejaVuSans-70" x="201.269531"/>
     <use xlink:href="#DejaVuSans-65" x="264.746094"/>
     <use xlink:href="#DejaVuSans-64" x="326.269531"/>
     <use xlink:href="#DejaVuSans-20" x="389.746094"/>
     <use xlink:href="#DejaVuSans-2f" x="421.533203"/>
     <use xlink:href="#DejaVuSans-20" x="455.224609"/>
     <use xlink:href="#DejaVuSans-68" x="487.011719"/>
     <use xlink:href="#DejaVuSans-61" x="550.390625"/>
     <use xlink:href="#DejaVuSans-6e" x="611.669922"/>
     <use xlink:href="#DejaVuSans-64" x="675.048828"/>
     <use xlink:href="#DejaVuSans-6c" x="738.525391"/>
     <use xlink:href="#DejaVuSans-65" x="766.308594"/>
     <use xlink:href="#DejaVuSans-64" x="827.832031"/>
    </g>
   </g>
   <g id="patch_10">
    <path d="M 84.814347 85.512112 
Q 96.061838 74.766989 106.177546 65.1031 
" style="fill: none; stroke: #1565c0; stroke-width: 1.4; stroke-linecap: round"/>
    <path d="M 102.331099 66.288361 
L 106.177546 65.1031 
L 104.817887 68.891414 
" style="fill: none; stroke: #1565c0; stroke-width: 1.4; stroke-linecap: round"/>
   </g>
   <g id="patch_11">
    <path d="M 84.684178 88.404828 
Q 96.063345 101.449927 106.413597 113.315477 
" style="fill: none; stroke: #1565c0; stroke-width: 1.4; stroke-linecap: round"/>
    <path d="M 105.403595 109.419338 
L 106.413597 113.315477 
L 102.690685 111.785794 
" style="fill: none; stroke: #1565c0; stroke-width: 1.4; stroke-linecap: round"/>
   </g>
   <g id="patch_12">
    <path d="M 83.955081 88.804983 
Q 96.061499 128.128309 107.707359 165.95568 
" style="fill: none; stroke: #1565c0; stroke-width: 1.4; stroke-linecap: round"/>
    <path d="M 108.368412 161.985414 
L 107.707359 165.95568 
L 104.927779 163.044677 
" style="fill: none; stroke: #1565c0; stroke-width: 1.4; stroke-linecap: round"/>
   </g>
   <g id="patch_13">
    <path d="M 168.789226 62.639812 
Q 181.29576 62.639812 192.237047 62.639812 
" style="fill: none; stroke: #1565c0; stroke-width: 1.4; stroke-linecap: round"/>
    <path d="M 188.637047 60.839812 
L 192.237047 62.639812 
L 188.637047 64.439812 
" style="fill: none; stroke: #1565c0; stroke-width: 1.4; stroke-linecap: round"/>
   </g>
   <g id="patch_14">
    <path d="M 168.789226 116.000812 
Q 181.29576 116.000812 192.237047 116.000812 
" style="fill: none; stroke: #1565c0; stroke-width: 1.4; stroke-linecap: round"/>
    <path d="M 188.637047 114.200812 
L 192.237047 116.000812 
L 188.637047 117.800812 
" style="fill: none; stroke: #1565c0; stroke-width: 1.4; stroke-linecap: round"/>
   </g>
   <g id="patch_15">
    <path d="M 168.789226 169.361812 
Q 181.29576 169.361812 192.237047 169.361812 
" style="fill: none; stroke: #1565c0; stroke-width: 1.4; stroke-linecap: round"/>
    <path d="M 188.637047 167.561812 
L 192.237047 169.361812 
L 188.637047 171.161812 
" style="fill: none; stroke: #1565c0; stroke-width: 1.4; stroke-linecap: round"/>
   </g>
   <g id="patch_16">
    <path d="M 252.210226 86.894812 
Q 264.71676 86.894812 275.658047 86.894812 
" style="fill: none; stroke: #1565c0; stroke-width: 1.4; stroke-linecap: round"/>
    <path d="M 272.058047 85.094812 
L 275.658047 86.894812 
L 272.058047 88.694812 
" style="fill: none; stroke: #1565c0; stroke-width: 1.4; stroke-linecap: round"/>
   </g>
   <g id="text_9">
    <!-- Optional unwrapping paths -->
    <g transform="translate(105.428812 15.406312) scale(0.108 -0.108)">
     <defs>
      <path id="DejaVuSans-Bold-4f" d="M 2719 3878 
Q 2169 3878 1866 3472 
Q 1563 3066 1563 2328 
Q 1563 1594 1866 1187 
Q 2169 781 2719 781 
Q 3272 781 3575 1187 
Q 3878 1594 3878 2328 
Q 3878 3066 3575 3472 
Q 3272 3878 2719 3878 
z
M 2719 4750 
Q 3844 4750 4481 4106 
Q 5119 3463 5119 2328 
Q 5119 1197 4481 553 
Q 3844 -91 2719 -91 
Q 1597 -91 958 553 
Q 319 1197 319 2328 
Q 319 3463 958 4106 
Q 1597 4750 2719 4750 
z
" transform="scale(0.015625)"/>
      <path id="DejaVuSans-Bold-70" d="M 1656 506 
L 1656 -1331 
L 538 -1331 
L 538 3500 
L 1656 3500 
L 1656 2988 
Q 1888 3294 2169 3439 
Q 2450 3584 2816 3584 
Q 3463 3584 3878 3070 
Q 4294 2556 4294 1747 
Q 4294 938 3878 423 
Q 3463 -91 2816 -91 
Q 2450 -91 2169 54 
Q 1888 200 1656 506 
z
M 2400 2772 
Q 2041 2772 1848 2508 
Q 1656 2244 1656 1747 
Q 1656 1250 1848 986 
Q 2041 722 2400 722 
Q 2759 722 2948 984 
Q 3138 1247 3138 1747 
Q 3138 2247 2948 2509 
Q 2759 2772 2400 2772 
z
" transform="scale(0.015625)"/>
      <path id="DejaVuSans-Bold-74" d="M 1759 4494 
L 1759 3500 
L 2913 3500 
L 2913 2700 
L 1759 2700 
L 1759 1216 
Q 1759 972 1856 886 
Q 1953 800 2241 800 
L 2816 800 
L 2816 0 
L 1856 0 
Q 1194 0 917 276 
Q 641 553 641 1216 
L 641 2700 
L 84 2700 
L 84 3500 
L 641 3500 
L 641 4494 
L 1759 4494 
z
" transform="scale(0.015625)"/>
      <path id="DejaVuSans-Bold-69" d="M 538 3500 
L 1656 3500 
L 1656 0 
L 538 0 
L 538 3500 
z
M 538 4863 
L 1656 4863 
L 1656 3950 
L 538 3950 
L 538 4863 
z
" transform="scale(0.015625)"/>
      <path id="DejaVuSans-Bold-6f" d="M 2203 2784 
Q 1831 2784 1636 2517 
Q 1441 2250 1441 1747 
Q 1441 1244 1636 976 
Q 1831 709 2203 709 
Q 2569 709 2762 976 
Q 2956 1244 2956 1747 
Q 2956 2250 2762 2517 
Q 2569 2784 2203 2784 
z
M 2203 3584 
Q 3106 3584 3614 3096 
Q 4122 2609 4122 1747 
Q 4122 884 3614 396 
Q 3106 -91 2203 -91 
Q 1297 -91 786 396 
Q 275 884 275 1747 
Q 275 2609 786 3096 
Q 1297 3584 2203 3584 
z
" transform="scale(0.015625)"/>
      <path id="DejaVuSans-Bold-6e" d="M 4056 2131 
L 4056 0 
L 2931 0 
L 2931 347 
L 2931 1631 
Q 2931 2084 2911 2256 
Q 2891 2428 2841 2509 
Q 2775 2619 2662 2680 
Q 2550 2741 2406 2741 
Q 2056 2741 1856 2470 
Q 1656 2200 1656 1722 
L 1656 0 
L 538 0 
L 538 3500 
L 1656 3500 
L 1656 2988 
Q 1909 3294 2193 3439 
Q 2478 3584 2822 3584 
Q 3428 3584 3742 3212 
Q 4056 2841 4056 2131 
z
" transform="scale(0.015625)"/>
      <path id="DejaVuSans-Bold-61" d="M 2106 1575 
Q 1756 1575 1579 1456 
Q 1403 1338 1403 1106 
Q 1403 894 1545 773 
Q 1688 653 1941 653 
Q 2256 653 2472 879 
Q 2688 1106 2688 1447 
L 2688 1575 
L 2106 1575 
z
M 3816 1997 
L 3816 0 
L 2688 0 
L 2688 519 
Q 2463 200 2181 54 
Q 1900 -91 1497 -91 
Q 953 -91 614 226 
Q 275 544 275 1050 
Q 275 1666 698 1953 
Q 1122 2241 2028 2241 
L 2688 2241 
L 2688 2328 
Q 2688 2594 2478 2717 
Q 2269 2841 1825 2841 
Q 1466 2841 1156 2769 
Q 847 2697 581 2553 
L 581 3406 
Q 941 3494 1303 3539 
Q 1666 3584 2028 3584 
Q 2975 3584 3395 3211 
Q 3816 2838 3816 1997 
z
" transform="scale(0.015625)"/>
      <path id="DejaVuSans-Bold-6c" d="M 538 4863 
L 1656 4863 
L 1656 0 
L 538 0 
L 538 4863 
z
" transform="scale(0.015625)"/>
      <path id="DejaVuSans-Bold-20" transform="scale(0.015625)"/>
      <path id="DejaVuSans-Bold-75" d="M 500 1363 
L 500 3500 
L 1625 3500 
L 1625 3150 
Q 1625 2866 1622 2436 
Q 1619 2006 1619 1863 
Q 1619 1441 1641 1255 
Q 1663 1069 1716 984 
Q 1784 875 1895 815 
Q 2006 756 2150 756 
Q 2500 756 2700 1025 
Q 2900 1294 2900 1772 
L 2900 3500 
L 4019 3500 
L 4019 0 
L 2900 0 
L 2900 506 
Q 2647 200 2364 54 
Q 2081 -91 1741 -91 
Q 1134 -91 817 281 
Q 500 653 500 1363 
z
" transform="scale(0.015625)"/>
      <path id="DejaVuSans-Bold-77" d="M 225 3500 
L 1313 3500 
L 1900 1088 
L 2491 3500 
L 3425 3500 
L 4013 1113 
L 4603 3500 
L 5691 3500 
L 4769 0 
L 3547 0 
L 2956 2406 
L 2369 0 
L 1147 0 
L 225 3500 
z
" transform="scale(0.015625)"/>
      <path id="DejaVuSans-Bold-72" d="M 3138 2547 
Q 2991 2616 2845 2648 
Q 2700 2681 2553 2681 
Q 2122 2681 1889 2404 
Q 1656 2128 1656 1613 
L 1656 0 
L 538 0 
L 538 3500 
L 1656 3500 
L 1656 2925 
Q 1872 3269 2151 3426 
Q 2431 3584 2822 3584 
Q 2878 3584 2943 3579 
Q 3009 3575 3134 3559 
L 3138 2547 
z
" transform="scale(0.015625)"/>
      <path id="DejaVuSans-Bold-67" d="M 2919 594 
Q 2688 288 2409 144 
Q 2131 0 1766 0 
Q 1125 0 706 504 
Q 288 1009 288 1791 
Q 288 2575 706 3076 
Q 1125 3578 1766 3578 
Q 2131 3578 2409 3434 
Q 2688 3291 2919 2981 
L 2919 3500 
L 4044 3500 
L 4044 353 
Q 4044 -491 3511 -936 
Q 2978 -1381 1966 -1381 
Q 1638 -1381 1331 -1331 
Q 1025 -1281 716 -1178 
L 716 -306 
Q 1009 -475 1290 -558 
Q 1572 -641 1856 -641 
Q 2406 -641 2662 -400 
Q 2919 -159 2919 353 
L 2919 594 
z
M 2181 2772 
Q 1834 2772 1640 2515 
Q 1447 2259 1447 1791 
Q 1447 1309 1634 1061 
Q 1822 813 2181 813 
Q 2531 813 2725 1069 
Q 2919 1325 2919 1791 
Q 2919 2259 2725 2515 
Q 2531 2772 2181 2772 
z
" transform="scale(0.015625)"/>
      <path id="DejaVuSans-Bold-68" d="M 4056 2131 
L 4056 0 
L 2931 0 
L 2931 347 
L 2931 1625 
Q 2931 2084 2911 2256 
Q 2891 2428 2841 2509 
Q 2775 2619 2662 2680 
Q 2550 2741 2406 2741 
Q 2056 2741 1856 2470 
Q 1656 2200 1656 1722 
L 1656 0 
L 538 0 
L 538 4863 
L 1656 4863 
L 1656 2988 
Q 1909 3294 2193 3439 
Q 2478 3584 2822 3584 
Q 3428 3584 3742 3212 
Q 4056 2841 4056 2131 
z
" transform="scale(0.015625)"/>
      <path id="DejaVuSans-Bold-73" d="M 3272 3391 
L 3272 2541 
Q 2913 2691 2578 2766 
Q 2244 2841 1947 2841 
Q 1628 2841 1473 2761 
Q 1319 2681 1319 2516 
Q 1319 2381 1436 2309 
Q 1553 2238 1856 2203 
L 2053 2175 
Q 2913 2066 3209 1816 
Q 3506 1566 3506 1031 
Q 3506 472 3093 190 
Q 2681 -91 1863 -91 
Q 1516 -91 1145 -36 
Q 775 19 384 128 
L 384 978 
Q 719 816 1070 734 
Q 1422 653 1784 653 
Q 2113 653 2278 743 
Q 2444 834 2444 1013 
Q 2444 1163 2330 1236 
Q 2216 1309 1875 1350 
L 1678 1375 
Q 931 1469 631 1722 
Q 331 1975 331 2491 
Q 331 3047 712 3315 
Q 1094 3584 1881 3584 
Q 2191 3584 2531 3537 
Q 2872 3491 3272 3391 
z
" transform="scale(0.015625)"/>
     </defs>
     <use xlink:href="#DejaVuSans-Bold-4f"/>
     <use xlink:href="#DejaVuSans-Bold-70" x="85.009766"/>
     <use xlink:href="#DejaVuSans-Bold-74" x="156.591797"/>
     <use xlink:href="#DejaVuSans-Bold-69" x="204.394531"/>
     <use xlink:href="#DejaVuSans-Bold-6f" x="238.671875"/>
     <use xlink:href="#DejaVuSans-Bold-6e" x="307.373047"/>
     <use xlink:href="#DejaVuSans-Bold-61" x="378.564453"/>
     <use xlink:href="#DejaVuSans-Bold-6c" x="446.044922"/>
     <use xlink:href="#DejaVuSans-Bold-20" x="480.322266"/>
     <use xlink:href="#DejaVuSans-Bold-75" x="515.136719"/>
     <use xlink:href="#DejaVuSans-Bold-6e" x="586.328125"/>
     <use xlink:href="#DejaVuSans-Bold-77" x="657.519531"/>
     <use xlink:href="#DejaVuSans-Bold-72" x="749.902344"/>
     <use xlink:href="#DejaVuSans-Bold-61" x="799.21875"/>
     <use xlink:href="#DejaVuSans-Bold-70" x="866.699219"/>
     <use xlink:href="#DejaVuSans-Bold-70" x="938.28125"/>
     <use xlink:href="#DejaVuSans-Bold-69" x="1009.863281"/>
     <use xlink:href="#DejaVuSans-Bold-6e" x="1044.140625"/>
     <use xlink:href="#DejaVuSans-Bold-67" x="1115.332031"/>
     <use xlink:href="#DejaVuSans-Bold-20" x="1186.914062"/>
     <use xlink:href="#DejaVuSans-Bold-70" x="1221.728516"/>
     <use xlink:href="#DejaVuSans-Bold-61" x="1293.310547"/>
     <use xlink:href="#DejaVuSans-Bold-74" x="1360.791016"/>
     <use xlink:href="#DejaVuSans-Bold-68" x="1408.59375"/>
     <use xlink:href="#DejaVuSans-Bold-73" x="1479.785156"/>
    </g>
   </g>
  </g>
 </g>
 <defs>
  <clipPath id="p0b35546192">
   <rect x="7.2" y="21.406312" width="362.7" height="194.04"/>
  </clipPath>
 </defs>
</svg>
