<?xml version="1.0" encoding="utf-8" standalone="no"?>
<!DOCTYPE svg PUBLIC "-//W3C//DTD SVG 1.1//EN"
  "http://www.w3.org/Graphics/SVG/1.1/DTD/svg11.dtd">
<svg xmlns:xlink="http://www.w3.org/1999/xlink" width="349.2pt" height="250.366313pt" viewBox="0 0 349.2 250.366313" xmlns="http://www.w3.org/2000/svg" version="1.1">
 <metadata>
  <rdf:RDF xmlns:dc="http://purl.org/dc/elements/1.1/" xmlns:cc="http://creativecommons.org/ns#" xmlns:rdf="http://www.w3.org/1999/02/22-rdf-syntax-ns#">
   <cc:Work>
    <dc:type rdf:resource="http://purl.org/dc/dcmitype/StillImage"/>
    <dc:date>2026-06-16T23:22:11.197066</dc:date>
    <dc:format>image/svg+xml</dc:format>
    <dc:creator>
     <cc:Agent>
      <dc:title>Matplotlib v3.9.4, https://matplotlib.org/</dc:title>
     </cc:Agent>
    </dc:creator>
   </cc:Work>
  </rdf:RDF>
 </metadata>
 <defs>
  <style type="text/css">*{stroke-linejoin: round; stroke-linecap: butt}</style>
 </defs>
 <g id="figure_1">
  <g id="patch_1">
   <path d="M 0 250.366313 
L 349.2 250.366313 
L 349.2 0 
L 0 0 
z
" style="fill: #ffffff"/>
  </g>
  <g id="axes_1">
   <g id="patch_2">
    <path d="M 25.9488 66.497513 
L 323.2512 66.497513 
Q 325.9296 66.497513 325.9296 63.540713 
L 325.9296 34.711913 
Q 325.9296 31.755112 323.2512 31.755112 
L 25.9488 31.755112 
Q 23.2704 31.755112 23.2704 34.711913 
L 23.2704 63.540713 
Q 23.2704 66.497513 25.9488 66.497513 
z
" clip-path="url(#pee12840010)" style="fill: #e8f5e9; stroke: #333333; stroke-width: 1.2; stroke-linejoin: miter"/>
   </g>
   <g id="patch_3">
    <path d="M 25.9488 110.849513 
L 323.2512 110.849513 
Q 325.9296 110.849513 325.9296 107.892713 
L 325.9296 79.063913 
Q 325.9296 76.107112 323.2512 76.107112 
L 25.9488 76.107112 
Q 23.2704 76.107112 23.2704 79.063913 
L 23.2704 107.892713 
Q 23.2704 110.849513 25.9488 110.849513 
z
" clip-path="url(#pee12840010)" style="fill: #fff9c4; stroke: #333333; stroke-width: 1.2; stroke-linejoin: miter"/>
   </g>
   <g id="patch_4">
    <path d="M 25.9488 155.201513 
L 323.2512 155.201513 
Q 325.9296 155.201513 325.9296 152.244713 
L 325.9296 123.415913 
Q 325.9296 120.459113 323.2512 120.459113 
L 25.9488 120.459113 
Q 23.2704 120.459113 23.2704 123.415913 
L 23.2704 152.244713 
Q 23.2704 155.201513 25.9488 155.201513 
z
" clip-path="url(#pee12840010)" style="fill: #ffe0b2; stroke: #333333; stroke-width: 1.2; stroke-linejoin: miter"/>
   </g>
   <g id="patch_5">
    <path d="M 25.9488 199.553513 
L 323.2512 199.553513 
Q 325.9296 199.553513 325.9296 196.596713 
L 325.9296 167.767913 
Q 325.9296 164.811113 323.2512 164.811113 
L 25.9488 164.811113 
Q 23.2704 164.811113 23.2704 167.767913 
L 23.2704 196.596713 
Q 23.2704 199.553513 25.9488 199.553513 
z
" clip-path="url(#pee12840010)" style="fill: #ffcdd2; stroke: #333333; stroke-width: 1.2; stroke-linejoin: miter"/>
   </g>
   <g id="text_1">
    <!-- Compile-time type safety (no implicit unsafe casts) -->
    <g transform="translate(72.24375 51.333813) scale(0.08 -0.08)">
     <defs>
      <path id="DejaVuSans-43" d="M 4122 4306 
L 4122 3641 
Q 3803 3938 3442 4084 
Q 3081 4231 2675 4231 
Q 1875 4231 1450 3742 
Q 1025 3253 1025 2328 
Q 1025 1406 1450 917 
Q 1875 428 2675 428 
Q 3081 428 3442 575 
Q 3803 722 4122 1019 
L 4122 359 
Q 3791 134 3420 21 
Q 3050 -91 2638 -91 
Q 1578 -91 968 557 
Q 359 1206 359 2328 
Q 359 3453 968 4101 
Q 1578 4750 2638 4750 
Q 3056 4750 3426 4639 
Q 3797 4528 4122 4306 
z
" transform="scale(0.015625)"/>
      <path id="DejaVuSans-6f" d="M 1959 3097 
Q 1497 3097 1228 2736 
Q 959 2375 959 1747 
Q 959 1119 1226 758 
Q 1494 397 1959 397 
Q 2419 397 2687 759 
Q 2956 1122 2956 1747 
Q 2956 2369 2687 2733 
Q 2419 3097 1959 3097 
z
M 1959 3584 
Q 2709 3584 3137 3096 
Q 3566 2609 3566 1747 
Q 3566 888 3137 398 
Q 2709 -91 1959 -91 
Q 1206 -91 779 398 
Q 353 888 353 1747 
Q 353 2609 779 3096 
Q 1206 3584 1959 3584 
z
" transform="scale(0.015625)"/>
      <path id="DejaVuSans-6d" d="M 3328 2828 
Q 3544 3216 3844 3400 
Q 4144 3584 4550 3584 
Q 5097 3584 5394 3201 
Q 5691 2819 5691 2113 
L 5691 0 
L 5113 0 
L 5113 2094 
Q 5113 2597 4934 2840 
Q 4756 3084 4391 3084 
Q 3944 3084 3684 2787 
Q 3425 2491 3425 1978 
L 3425 0 
L 2847 0 
L 2847 2094 
Q 2847 2600 2669 2842 
Q 2491 3084 2119 3084 
Q 1678 3084 1418 2786 
Q 1159 2488 1159 1978 
L 1159 0 
L 581 0 
L 581 3500 
L 1159 3500 
L 1159 2956 
Q 1356 3278 1631 3431 
Q 1906 3584 2284 3584 
Q 2666 3584 2933 3390 
Q 3200 3197 3328 2828 
z
" transform="scale(0.015625)"/>
      <path id="DejaVuSans-70" d="M 1159 525 
L 1159 -1331 
L 581 -1331 
L 581 3500 
L 1159 3500 
L 1159 2969 
Q 1341 3281 1617 3432 
Q 1894 3584 2278 3584 
Q 2916 3584 3314 3078 
Q 3713 2572 3713 1747 
Q 3713 922 3314 415 
Q 2916 -91 2278 -91 
Q 1894 -91 1617 61 
Q 1341 213 1159 525 
z
M 3116 1747 
Q 3116 2381 2855 2742 
Q 2594 3103 2138 3103 
Q 1681 3103 1420 2742 
Q 1159 2381 1159 1747 
Q 1159 1113 1420 752 
Q 1681 391 2138 391 
Q 2594 391 2855 752 
Q 3116 1113 3116 1747 
z
" transform="scale(0.015625)"/>
      <path id="DejaVuSans-69" d="M 603 3500 
L 1178 3500 
L 1178 0 
L 603 0 
L 603 3500 
z
M 603 4863 
L 1178 4863 
L 1178 4134 
L 603 4134 
L 603 4863 
z
" transform="scale(0.015625)"/>
      <path id="DejaVuSans-6c" d="M 603 4863 
L 1178 4863 
L 1178 0 
L 603 0 
L 603 4863 
z
" transform="scale(0.015625)"/>
      <path id="DejaVuSans-65" d="M 3597 1894 
L 3597 1613 
L 953 1613 
Q 991 1019 1311 708 
Q 1631 397 2203 397 
Q 2534 397 2845 478 
Q 3156 559 3463 722 
L 3463 178 
Q 3153 47 2828 -22 
Q 2503 -91 2169 -91 
Q 1331 -91 842 396 
Q 353 884 353 1716 
Q 353 2575 817 3079 
Q 1281 3584 2069 3584 
Q 2775 3584 3186 3129 
Q 3597 2675 3597 1894 
z
M 3022 2063 
Q 3016 2534 2758 2815 
Q 2500 3097 2075 3097 
Q 1594 3097 1305 2825 
Q 1016 2553 972 2059 
L 3022 2063 
z
" transform="scale(0.015625)"/>
      <path id="DejaVuSans-2d" d="M 313 2009 
L 1997 2009 
L 1997 1497 
L 313 1497 
L 313 2009 
z
" transform="scale(0.015625)"/>
      <path id="DejaVuSans-74" d="M 1172 4494 
L 1172 3500 
L 2356 3500 
L 2356 3053 
L 1172 3053 
L 1172 1153 
Q 1172 725 1289 603 
Q 1406 481 1766 481 
L 2356 481 
L 2356 0 
L 1766 0 
Q 1100 0 847 248 
Q 594 497 594 1153 
L 594 3053 
L 172 3053 
L 172 3500 
L 594 3500 
L 594 4494 
L 1172 4494 
z
" transform="scale(0.015625)"/>
      <path id="DejaVuSans-20" transform="scale(0.015625)"/>
      <path id="DejaVuSans-79" d="M 2059 -325 
Q 1816 -950 1584 -1140 
Q 1353 -1331 966 -1331 
L 506 -1331 
L 506 -850 
L 844 -850 
Q 1081 -850 1212 -737 
Q 1344 -625 1503 -206 
L 1606 56 
L 191 3500 
L 800 3500 
L 1894 763 
L 2988 3500 
L 3597 3500 
L 2059 -325 
z
" transform="scale(0.015625)"/>
      <path id="DejaVuSans-73" d="M 2834 3397 
L 2834 2853 
Q 2591 2978 2328 3040 
Q 2066 3103 1784 3103 
Q 1356 3103 1142 2972 
Q 928 2841 928 2578 
Q 928 2378 1081 2264 
Q 1234 2150 1697 2047 
L 1894 2003 
Q 2506 1872 2764 1633 
Q 3022 1394 3022 966 
Q 3022 478 2636 193 
Q 2250 -91 1575 -91 
Q 1294 -91 989 -36 
Q 684 19 347 128 
L 347 722 
Q 666 556 975 473 
Q 1284 391 1588 391 
Q 1994 391 2212 530 
Q 2431 669 2431 922 
Q 2431 1156 2273 1281 
Q 2116 1406 1581 1522 
L 1381 1569 
Q 847 1681 609 1914 
Q 372 2147 372 2553 
Q 372 3047 722 3315 
Q 1072 3584 1716 3584 
Q 2034 3584 2315 3537 
Q 2597 3491 2834 3397 
z
" transform="scale(0.015625)"/>
      <path id="DejaVuSans-61" d="M 2194 1759 
Q 1497 1759 1228 1600 
Q 959 1441 959 1056 
Q 959 750 1161 570 
Q 1363 391 1709 391 
Q 2188 391 2477 730 
Q 2766 1069 2766 1631 
L 2766 1759 
L 2194 1759 
z
M 3341 1997 
L 3341 0 
L 2766 0 
L 2766 531 
Q 2569 213 2275 61 
Q 1981 -91 1556 -91 
Q 1019 -91 701 211 
Q 384 513 384 1019 
Q 384 1609 779 1909 
Q 1175 2209 1959 2209 
L 2766 2209 
L 2766 2266 
Q 2766 2663 2505 2880 
Q 2244 3097 1772 3097 
Q 1472 3097 1187 3025 
Q 903 2953 641 2809 
L 641 3341 
Q 956 3463 1253 3523 
Q 1550 3584 1831 3584 
Q 2591 3584 2966 3190 
Q 3341 2797 3341 1997 
z
" transform="scale(0.015625)"/>
      <path id="DejaVuSans-66" d="M 2375 4863 
L 2375 4384 
L 1825 4384 
Q 1516 4384 1395 4259 
Q 1275 4134 1275 3809 
L 1275 3500 
L 2222 3500 
L 2222 3053 
L 1275 3053 
L 1275 0 
L 697 0 
L 697 3053 
L 147 3053 
L 147 3500 
L 697 3500 
L 697 3744 
Q 697 4328 969 4595 
Q 1241 4863 1831 4863 
L 2375 4863 
z
" transform="scale(0.015625)"/>
      <path id="DejaVuSans-28" d="M 1984 4856 
Q 1566 4138 1362 3434 
Q 1159 2731 1159 2009 
Q 1159 1288 1364 580 
Q 1569 -128 1984 -844 
L 1484 -844 
Q 1016 -109 783 600 
Q 550 1309 550 2009 
Q 550 2706 781 3412 
Q 1013 4119 1484 4856 
L 1984 4856 
z
" transform="scale(0.015625)"/>
      <path id="DejaVuSans-6e" d="M 3513 2113 
L 3513 0 
L 2938 0 
L 2938 2094 
Q 2938 2591 2744 2837 
Q 2550 3084 2163 3084 
Q 1697 3084 1428 2787 
Q 1159 2491 1159 1978 
L 1159 0 
L 581 0 
L 581 3500 
L 1159 3500 
L 1159 2956 
Q 1366 3272 1645 3428 
Q 1925 3584 2291 3584 
Q 2894 3584 3203 3211 
Q 3513 2838 3513 2113 
z
" transform="scale(0.015625)"/>
      <path id="DejaVuSans-63" d="M 3122 3366 
L 3122 2828 
Q 2878 2963 2633 3030 
Q 2388 3097 2138 3097 
Q 1578 3097 1268 2742 
Q 959 2388 959 1747 
Q 959 1106 1268 751 
Q 1578 397 2138 397 
Q 2388 397 2633 464 
Q 2878 531 3122 666 
L 3122 134 
Q 2881 22 2623 -34 
Q 2366 -91 2075 -91 
Q 1284 -91 818 406 
Q 353 903 353 1747 
Q 353 2603 823 3093 
Q 1294 3584 2113 3584 
Q 2378 3584 2631 3529 
Q 2884 3475 3122 3366 
z
" transform="scale(0.015625)"/>
      <path id="DejaVuSans-75" d="M 544 1381 
L 544 3500 
L 1119 3500 
L 1119 1403 
Q 1119 906 1312 657 
Q 1506 409 1894 409 
Q 2359 409 2629 706 
Q 2900 1003 2900 1516 
L 2900 3500 
L 3475 3500 
L 3475 0 
L 2900 0 
L 2900 538 
Q 2691 219 2414 64 
Q 2138 -91 1772 -91 
Q 1169 -91 856 284 
Q 544 659 544 1381 
z
M 1991 3584 
L 1991 3584 
z
" transform="scale(0.015625)"/>
      <path id="DejaVuSans-29" d="M 513 4856 
L 1013 4856 
Q 1481 4119 1714 3412 
Q 1947 2706 1947 2009 
Q 1947 1309 1714 600 
Q 1481 -109 1013 -844 
L 513 -844 
Q 928 -128 1133 580 
Q 1338 1288 1338 2009 
Q 1338 2731 1133 3434 
Q 928 4138 513 4856 
z
" transform="scale(0.015625)"/>
     </defs>
     <use xlink:href="#DejaVuSans-43"/>
     <use xlink:href="#DejaVuSans-6f" x="69.824219"/>
     <use xlink:href="#DejaVuSans-6d" x="131.005859"/>
     <use xlink:href="#DejaVuSans-70" x="228.417969"/>
     <use xlink:href="#DejaVuSans-69" x="291.894531"/>
     <use xlink:href="#DejaVuSans-6c" x="319.677734"/>
     <use xlink:href="#DejaVuSans-65" x="347.460938"/>
     <use xlink:href="#DejaVuSans-2d" x="408.984375"/>
     <use xlink:href="#DejaVuSans-74" x="445.068359"/>
     <use xlink:href="#DejaVuSans-69" x="484.277344"/>
     <use xlink:href="#DejaVuSans-6d" x="512.060547"/>
     <use xlink:href="#DejaVuSans-65" x="609.472656"/>
     <use xlink:href="#DejaVuSans-20" x="670.996094"/>
     <use xlink:href="#DejaVuSans-74" x="702.783203"/>
     <use xlink:href="#DejaVuSans-79" x="741.992188"/>
     <use xlink:href="#DejaVuSans-70" x="801.171875"/>
     <use xlink:href="#DejaVuSans-65" x="864.648438"/>
     <use xlink:href="#DejaVuSans-20" x="926.171875"/>
     <use xlink:href="#DejaVuSans-73" x="957.958984"/>
     <use xlink:href="#DejaVuSans-61" x="1010.058594"/>
     <use xlink:href="#DejaVuSans-66" x="1071.337891"/>
     <use xlink:href="#DejaVuSans-65" x="1106.542969"/>
     <use xlink:href="#DejaVuSans-74" x="1168.066406"/>
     <use xlink:href="#DejaVuSans-79" x="1207.275391"/>
     <use xlink:href="#DejaVuSans-20" x="1266.455078"/>
     <use xlink:href="#DejaVuSans-28" x="1298.242188"/>
     <use xlink:href="#DejaVuSans-6e" x="1337.255859"/>
     <use xlink:href="#DejaVuSans-6f" x="1400.634766"/>
     <use xlink:href="#DejaVuSans-20" x="1461.816406"/>
     <use xlink:href="#DejaVuSans-69" x="1493.603516"/>
     <use xlink:href="#DejaVuSans-6d" x="1521.386719"/>
     <use xlink:href="#DejaVuSans-70" x="1618.798828"/>
     <use xlink:href="#DejaVuSans-6c" x="1682.275391"/>
     <use xlink:href="#DejaVuSans-69" x="1710.058594"/>
     <use xlink:href="#DejaVuSans-63" x="1737.841797"/>
     <use xlink:href="#DejaVuSans-69" x="1792.822266"/>
     <use xlink:href="#DejaVuSans-74" x="1820.605469"/>
     <use xlink:href="#DejaVuSans-20" x="1859.814453"/>
     <use xlink:href="#DejaVuSans-75" x="1891.601562"/>
     <use xlink:href="#DejaVuSans-6e" x="1954.980469"/>
     <use xlink:href="#DejaVuSans-73" x="2018.359375"/>
     <use xlink:href="#DejaVuSans-61" x="2070.458984"/>
     <use xlink:href="#DejaVuSans-66" x="2131.738281"/>
     <use xlink:href="#DejaVuSans-65" x="2166.943359"/>
     <use xlink:href="#DejaVuSans-20" x="2228.466797"/>
     <use xlink:href="#DejaVuSans-63" x="2260.253906"/>
     <use xlink:href="#DejaVuSans-61" x="2315.234375"/>
     <use xlink:href="#DejaVuSans-73" x="2376.513672"/>
     <use xlink:href="#DejaVuSans-74" x="2428.613281"/>
     <use xlink:href="#DejaVuSans-73" x="2467.822266"/>
     <use xlink:href="#DejaVuSans-29" x="2519.921875"/>
    </g>
   </g>
   <g id="text_2">
    <!-- Type inference (`let x = 42` → Int) -->
    <g transform="translate(106.081875 95.845813) scale(0.08 -0.08)">
     <defs>
      <path id="DejaVuSans-54" d="M -19 4666 
L 3928 4666 
L 3928 4134 
L 2272 4134 
L 2272 0 
L 1638 0 
L 1638 4134 
L -19 4134 
L -19 4666 
z
" transform="scale(0.015625)"/>
      <path id="DejaVuSans-72" d="M 2631 2963 
Q 2534 3019 2420 3045 
Q 2306 3072 2169 3072 
Q 1681 3072 1420 2755 
Q 1159 2438 1159 1844 
L 1159 0 
L 581 0 
L 581 3500 
L 1159 3500 
L 1159 2956 
Q 1341 3275 1631 3429 
Q 1922 3584 2338 3584 
Q 2397 3584 2469 3576 
Q 2541 3569 2628 3553 
L 2631 2963 
z
" transform="scale(0.015625)"/>
      <path id="DejaVuSans-60" d="M 1147 5119 
L 2028 3950 
L 1550 3950 
L 531 5119 
L 1147 5119 
z
" transform="scale(0.015625)"/>
      <path id="DejaVuSans-78" d="M 3513 3500 
L 2247 1797 
L 3578 0 
L 2900 0 
L 1881 1375 
L 863 0 
L 184 0 
L 1544 1831 
L 300 3500 
L 978 3500 
L 1906 2253 
L 2834 3500 
L 3513 3500 
z
" transform="scale(0.015625)"/>
      <path id="DejaVuSans-3d" d="M 678 2906 
L 4684 2906 
L 4684 2381 
L 678 2381 
L 678 2906 
z
M 678 1631 
L 4684 1631 
L 4684 1100 
L 678 1100 
L 678 1631 
z
" transform="scale(0.015625)"/>
      <path id="DejaVuSans-34" d="M 2419 4116 
L 825 1625 
L 2419 1625 
L 2419 4116 
z
M 2253 4666 
L 3047 4666 
L 3047 1625 
L 3713 1625 
L 3713 1100 
L 3047 1100 
L 3047 0 
L 2419 0 
L 2419 1100 
L 313 1100 
L 313 1709 
L 2253 4666 
z
" transform="scale(0.015625)"/>
      <path id="DejaVuSans-32" d="M 1228 531 
L 3431 531 
L 3431 0 
L 469 0 
L 469 531 
Q 828 903 1448 1529 
Q 2069 2156 2228 2338 
Q 2531 2678 2651 2914 
Q 2772 3150 2772 3378 
Q 2772 3750 2511 3984 
Q 2250 4219 1831 4219 
Q 1534 4219 1204 4116 
Q 875 4013 500 3803 
L 500 4441 
Q 881 4594 1212 4672 
Q 1544 4750 1819 4750 
Q 2544 4750 2975 4387 
Q 3406 4025 3406 3419 
Q 3406 3131 3298 2873 
Q 3191 2616 2906 2266 
Q 2828 2175 2409 1742 
Q 1991 1309 1228 531 
z
" transform="scale(0.015625)"/>
      <path id="DejaVuSans-2192" d="M 5050 2147 
L 5050 1866 
L 3822 638 
L 3447 1013 
L 4175 1741 
L 366 1741 
L 366 2272 
L 4175 2272 
L 3447 3000 
L 3822 3375 
L 5050 2147 
z
" transform="scale(0.015625)"/>
      <path id="DejaVuSans-49" d="M 628 4666 
L 1259 4666 
L 1259 0 
L 628 0 
L 628 4666 
z
" transform="scale(0.015625)"/>
     </defs>
     <use xlink:href="#DejaVuSans-54"/>
     <use xlink:href="#DejaVuSans-79" x="45.458984"/>
     <use xlink:href="#DejaVuSans-70" x="104.638672"/>
     <use xlink:href="#DejaVuSans-65" x="168.115234"/>
     <use xlink:href="#DejaVuSans-20" x="229.638672"/>
     <use xlink:href="#DejaVuSans-69" x="261.425781"/>
     <use xlink:href="#DejaVuSans-6e" x="289.208984"/>
     <use xlink:href="#DejaVuSans-66" x="352.587891"/>
     <use xlink:href="#DejaVuSans-65" x="387.792969"/>
     <use xlink:href="#DejaVuSans-72" x="449.316406"/>
     <use xlink:href="#DejaVuSans-65" x="488.179688"/>
     <use xlink:href="#DejaVuSans-6e" x="549.703125"/>
     <use xlink:href="#DejaVuSans-63" x="613.082031"/>
     <use xlink:href="#DejaVuSans-65" x="668.0625"/>
     <use xlink:href="#DejaVuSans-20" x="729.585938"/>
     <use xlink:href="#DejaVuSans-28" x="761.373047"/>
     <use xlink:href="#DejaVuSans-60" x="800.386719"/>
     <use xlink:href="#DejaVuSans-6c" x="850.386719"/>
     <use xlink:href="#DejaVuSans-65" x="878.169922"/>
     <use xlink:href="#DejaVuSans-74" x="939.693359"/>
     <use xlink:href="#DejaVuSans-20" x="978.902344"/>
     <use xlink:href="#DejaVuSans-78" x="1010.689453"/>
     <use xlink:href="#DejaVuSans-20" x="1069.869141"/>
     <use xlink:href="#DejaVuSans-3d" x="1101.65625"/>
     <use xlink:href="#DejaVuSans-20" x="1185.445312"/>
     <use xlink:href="#DejaVuSans-34" x="1217.232422"/>
     <use xlink:href="#DejaVuSans-32" x="1280.855469"/>
     <use xlink:href="#DejaVuSans-60" x="1344.478516"/>
     <use xlink:href="#DejaVuSans-20" x="1394.478516"/>
     <use xlink:href="#DejaVuSans-2192" x="1426.265625"/>
     <use xlink:href="#DejaVuSans-20" x="1510.054688"/>
     <use xlink:href="#DejaVuSans-49" x="1541.841797"/>
     <use xlink:href="#DejaVuSans-6e" x="1571.333984"/>
     <use xlink:href="#DejaVuSans-74" x="1634.712891"/>
     <use xlink:href="#DejaVuSans-29" x="1673.921875"/>
    </g>
   </g>
   <g id="text_3">
    <!-- Runtime casting (`as?`, `as!`, `is`) -->
    <g transform="translate(104.665 140.197812) scale(0.08 -0.08)">
     <defs>
      <path id="DejaVuSans-52" d="M 2841 2188 
Q 3044 2119 3236 1894 
Q 3428 1669 3622 1275 
L 4263 0 
L 3584 0 
L 2988 1197 
Q 2756 1666 2539 1819 
Q 2322 1972 1947 1972 
L 1259 1972 
L 1259 0 
L 628 0 
L 628 4666 
L 2053 4666 
Q 2853 4666 3247 4331 
Q 3641 3997 3641 3322 
Q 3641 2881 3436 2590 
Q 3231 2300 2841 2188 
z
M 1259 4147 
L 1259 2491 
L 2053 2491 
Q 2509 2491 2742 2702 
Q 2975 2913 2975 3322 
Q 2975 3731 2742 3939 
Q 2509 4147 2053 4147 
L 1259 4147 
z
" transform="scale(0.015625)"/>
      <path id="DejaVuSans-67" d="M 2906 1791 
Q 2906 2416 2648 2759 
Q 2391 3103 1925 3103 
Q 1463 3103 1205 2759 
Q 947 2416 947 1791 
Q 947 1169 1205 825 
Q 1463 481 1925 481 
Q 2391 481 2648 825 
Q 2906 1169 2906 1791 
z
M 3481 434 
Q 3481 -459 3084 -895 
Q 2688 -1331 1869 -1331 
Q 1566 -1331 1297 -1286 
Q 1028 -1241 775 -1147 
L 775 -588 
Q 1028 -725 1275 -790 
Q 1522 -856 1778 -856 
Q 2344 -856 2625 -561 
Q 2906 -266 2906 331 
L 2906 616 
Q 2728 306 2450 153 
Q 2172 0 1784 0 
Q 1141 0 747 490 
Q 353 981 353 1791 
Q 353 2603 747 3093 
Q 1141 3584 1784 3584 
Q 2172 3584 2450 3431 
Q 2728 3278 2906 2969 
L 2906 3500 
L 3481 3500 
L 3481 434 
z
" transform="scale(0.015625)"/>
      <path id="DejaVuSans-3f" d="M 1222 794 
L 1856 794 
L 1856 0 
L 1222 0 
L 1222 794 
z
M 1838 1253 
L 1241 1253 
L 1241 1734 
Q 1241 2050 1328 2253 
Q 1416 2456 1697 2725 
L 1978 3003 
Q 2156 3169 2236 3316 
Q 2316 3463 2316 3616 
Q 2316 3894 2111 4066 
Q 1906 4238 1569 4238 
Q 1322 4238 1042 4128 
Q 763 4019 459 3809 
L 459 4397 
Q 753 4575 1054 4662 
Q 1356 4750 1678 4750 
Q 2253 4750 2601 4447 
Q 2950 4144 2950 3647 
Q 2950 3409 2837 3195 
Q 2725 2981 2444 2713 
L 2169 2444 
Q 2022 2297 1961 2214 
Q 1900 2131 1875 2053 
Q 1856 1988 1847 1894 
Q 1838 1800 1838 1638 
L 1838 1253 
z
" transform="scale(0.015625)"/>
      <path id="DejaVuSans-2c" d="M 750 794 
L 1409 794 
L 1409 256 
L 897 -744 
L 494 -744 
L 750 256 
L 750 794 
z
" transform="scale(0.015625)"/>
      <path id="DejaVuSans-21" d="M 966 794 
L 1600 794 
L 1600 0 
L 966 0 
L 966 794 
z
M 966 4666 
L 1600 4666 
L 1600 2619 
L 1538 1503 
L 1031 1503 
L 966 2619 
L 966 4666 
z
" transform="scale(0.015625)"/>
     </defs>
     <use xlink:href="#DejaVuSans-52"/>
     <use xlink:href="#DejaVuSans-75" x="64.982422"/>
     <use xlink:href="#DejaVuSans-6e" x="128.361328"/>
     <use xlink:href="#DejaVuSans-74" x="191.740234"/>
     <use xlink:href="#DejaVuSans-69" x="230.949219"/>
     <use xlink:href="#DejaVuSans-6d" x="258.732422"/>
     <use xlink:href="#DejaVuSans-65" x="356.144531"/>
     <use xlink:href="#DejaVuSans-20" x="417.667969"/>
     <use xlink:href="#DejaVuSans-63" x="449.455078"/>
     <use xlink:href="#DejaVuSans-61" x="504.435547"/>
     <use xlink:href="#DejaVuSans-73" x="565.714844"/>
     <use xlink:href="#DejaVuSans-74" x="617.814453"/>
     <use xlink:href="#DejaVuSans-69" x="657.023438"/>
     <use xlink:href="#DejaVuSans-6e" x="684.806641"/>
     <use xlink:href="#DejaVuSans-67" x="748.185547"/>
     <use xlink:href="#DejaVuSans-20" x="811.662109"/>
     <use xlink:href="#DejaVuSans-28" x="843.449219"/>
     <use xlink:href="#DejaVuSans-60" x="882.462891"/>
     <use xlink:href="#DejaVuSans-61" x="932.462891"/>
     <use xlink:href="#DejaVuSans-73" x="993.742188"/>
     <use xlink:href="#DejaVuSans-3f" x="1045.841797"/>
     <use xlink:href="#DejaVuSans-60" x="1098.917969"/>
     <use xlink:href="#DejaVuSans-2c" x="1148.917969"/>
     <use xlink:href="#DejaVuSans-20" x="1180.705078"/>
     <use xlink:href="#DejaVuSans-60" x="1212.492188"/>
     <use xlink:href="#DejaVuSans-61" x="1262.492188"/>
     <use xlink:href="#DejaVuSans-73" x="1323.771484"/>
     <use xlink:href="#DejaVuSans-21" x="1375.871094"/>
     <use xlink:href="#DejaVuSans-60" x="1415.958984"/>
     <use xlink:href="#DejaVuSans-2c" x="1465.958984"/>
     <use xlink:href="#DejaVuSans-20" x="1497.746094"/>
     <use xlink:href="#DejaVuSans-60" x="1529.533203"/>
     <use xlink:href="#DejaVuSans-69" x="1579.533203"/>
     <use xlink:href="#DejaVuSans-73" x="1607.316406"/>
     <use xlink:href="#DejaVuSans-60" x="1659.416016"/>
     <use xlink:href="#DejaVuSans-29" x="1709.416016"/>
    </g>
   </g>
   <g id="text_4">
    <!-- Memory safety (ARC, bounds checks, optionals) -->
    <g transform="translate(79.093125 184.389813) scale(0.08 -0.08)">
     <defs>
      <path id="DejaVuSans-4d" d="M 628 4666 
L 1569 4666 
L 2759 1491 
L 3956 4666 
L 4897 4666 
L 4897 0 
L 4281 0 
L 4281 4097 
L 3078 897 
L 2444 897 
L 1241 4097 
L 1241 0 
L 628 0 
L 628 4666 
z
" transform="scale(0.015625)"/>
      <path id="DejaVuSans-41" d="M 2188 4044 
L 1331 1722 
L 3047 1722 
L 2188 4044 
z
M 1831 4666 
L 2547 4666 
L 4325 0 
L 3669 0 
L 3244 1197 
L 1141 1197 
L 716 0 
L 50 0 
L 1831 4666 
z
" transform="scale(0.015625)"/>
      <path id="DejaVuSans-62" d="M 3116 1747 
Q 3116 2381 2855 2742 
Q 2594 3103 2138 3103 
Q 1681 3103 1420 2742 
Q 1159 2381 1159 1747 
Q 1159 1113 1420 752 
Q 1681 391 2138 391 
Q 2594 391 2855 752 
Q 3116 1113 3116 1747 
z
M 1159 2969 
Q 1341 3281 1617 3432 
Q 1894 3584 2278 3584 
Q 2916 3584 3314 3078 
Q 3713 2572 3713 1747 
Q 3713 922 3314 415 
Q 2916 -91 2278 -91 
Q 1894 -91 1617 61 
Q 1341 213 1159 525 
L 1159 0 
L 581 0 
L 581 4863 
L 1159 4863 
L 1159 2969 
z
" transform="scale(0.015625)"/>
      <path id="DejaVuSans-64" d="M 2906 2969 
L 2906 4863 
L 3481 4863 
L 3481 0 
L 2906 0 
L 2906 525 
Q 2725 213 2448 61 
Q 2172 -91 1784 -91 
Q 1150 -91 751 415 
Q 353 922 353 1747 
Q 353 2572 751 3078 
Q 1150 3584 1784 3584 
Q 2172 3584 2448 3432 
Q 2725 3281 2906 2969 
z
M 947 1747 
Q 947 1113 1208 752 
Q 1469 391 1925 391 
Q 2381 391 2643 752 
Q 2906 1113 2906 1747 
Q 2906 2381 2643 2742 
Q 2381 3103 1925 3103 
Q 1469 3103 1208 2742 
Q 947 2381 947 1747 
z
" transform="scale(0.015625)"/>
      <path id="DejaVuSans-68" d="M 3513 2113 
L 3513 0 
L 2938 0 
L 2938 2094 
Q 2938 2591 2744 2837 
Q 2550 3084 2163 3084 
Q 1697 3084 1428 2787 
Q 1159 2491 1159 1978 
L 1159 0 
L 581 0 
L 581 4863 
L 1159 4863 
L 1159 2956 
Q 1366 3272 1645 3428 
Q 1925 3584 2291 3584 
Q 2894 3584 3203 3211 
Q 3513 2838 3513 2113 
z
" transform="scale(0.015625)"/>
      <path id="DejaVuSans-6b" d="M 581 4863 
L 1159 4863 
L 1159 1991 
L 2875 3500 
L 3609 3500 
L 1753 1863 
L 3688 0 
L 2938 0 
L 1159 1709 
L 1159 0 
L 581 0 
L 581 4863 
z
" transform="scale(0.015625)"/>
     </defs>
     <use xlink:href="#DejaVuSans-4d"/>
     <use xlink:href="#DejaVuSans-65" x="86.279297"/>
     <use xlink:href="#DejaVuSans-6d" x="147.802734"/>
     <use xlink:href="#DejaVuSans-6f" x="245.214844"/>
     <use xlink:href="#DejaVuSans-72" x="306.396484"/>
     <use xlink:href="#DejaVuSans-79" x="347.509766"/>
     <use xlink:href="#DejaVuSans-20" x="406.689453"/>
     <use xlink:href="#DejaVuSans-73" x="438.476562"/>
     <use xlink:href="#DejaVuSans-61" x="490.576172"/>
     <use xlink:href="#DejaVuSans-66" x="551.855469"/>
     <use xlink:href="#DejaVuSans-65" x="587.060547"/>
     <use xlink:href="#DejaVuSans-74" x="648.583984"/>
     <use xlink:href="#DejaVuSans-79" x="687.792969"/>
     <use xlink:href="#DejaVuSans-20" x="746.972656"/>
     <use xlink:href="#DejaVuSans-28" x="778.759766"/>
     <use xlink:href="#DejaVuSans-41" x="817.773438"/>
     <use xlink:href="#DejaVuSans-52" x="886.181641"/>
     <use xlink:href="#DejaVuSans-43" x="950.664062"/>
     <use xlink:href="#DejaVuSans-2c" x="1020.488281"/>
     <use xlink:href="#DejaVuSans-20" x="1052.275391"/>
     <use xlink:href="#DejaVuSans-62" x="1084.0625"/>
     <use xlink:href="#DejaVuSans-6f" x="1147.539062"/>
     <use xlink:href="#DejaVuSans-75" x="1208.720703"/>
     <use xlink:href="#DejaVuSans-6e" x="1272.099609"/>
     <use xlink:href="#DejaVuSans-64" x="1335.478516"/>
     <use xlink:href="#DejaVuSans-73" x="1398.955078"/>
     <use xlink:href="#DejaVuSans-20" x="1451.054688"/>
     <use xlink:href="#DejaVuSans-63" x="1482.841797"/>
     <use xlink:href="#DejaVuSans-68" x="1537.822266"/>
     <use xlink:href="#DejaVuSans-65" x="1601.201172"/>
     <use xlink:href="#DejaVuSans-63" x="1662.724609"/>
     <use xlink:href="#DejaVuSans-6b" x="1717.705078"/>
     <use xlink:href="#DejaVuSans-73" x="1775.615234"/>
     <use xlink:href="#DejaVuSans-2c" x="1827.714844"/>
     <use xlink:href="#DejaVuSans-20" x="1859.501953"/>
     <use xlink:href="#DejaVuSans-6f" x="1891.289062"/>
     <use xlink:href="#DejaVuSans-70" x="1952.470703"/>
     <use xlink:href="#DejaVuSans-74" x="2015.947266"/>
     <use xlink:href="#DejaVuSans-69" x="2055.15625"/>
     <use xlink:href="#DejaVuSans-6f" x="2082.939453"/>
     <use xlink:href="#DejaVuSans-6e" x="2144.121094"/>
     <use xlink:href="#DejaVuSans-61" x="2207.5"/>
     <use xlink:href="#DejaVuSans-6c" x="2268.779297"/>
     <use xlink:href="#DejaVuSans-73" x="2296.5625"/>
     <use xlink:href="#DejaVuSans-29" x="2348.662109"/>
    </g>
   </g>
   <g id="text_5">
    <!-- Swift type system layers -->
    <g transform="translate(99.467438 15.406313) scale(0.108 -0.108)">
     <defs>
      <path id="DejaVuSans-Bold-53" d="M 3834 4519 
L 3834 3531 
Q 3450 3703 3084 3790 
Q 2719 3878 2394 3878 
Q 1963 3878 1756 3759 
Q 1550 3641 1550 3391 
Q 1550 3203 1689 3098 
Q 1828 2994 2194 2919 
L 2706 2816 
Q 3484 2659 3812 2340 
Q 4141 2022 4141 1434 
Q 4141 663 3683 286 
Q 3225 -91 2284 -91 
Q 1841 -91 1394 -6 
Q 947 78 500 244 
L 500 1259 
Q 947 1022 1364 901 
Q 1781 781 2169 781 
Q 2563 781 2772 912 
Q 2981 1044 2981 1288 
Q 2981 1506 2839 1625 
Q 2697 1744 2272 1838 
L 1806 1941 
Q 1106 2091 782 2419 
Q 459 2747 459 3303 
Q 459 4000 909 4375 
Q 1359 4750 2203 4750 
Q 2588 4750 2994 4692 
Q 3400 4634 3834 4519 
z
" transform="scale(0.015625)"/>
      <path id="DejaVuSans-Bold-77" d="M 225 3500 
L 1313 3500 
L 1900 1088 
L 2491 3500 
L 3425 3500 
L 4013 1113 
L 4603 3500 
L 5691 3500 
L 4769 0 
L 3547 0 
L 2956 2406 
L 2369 0 
L 1147 0 
L 225 3500 
z
" transform="scale(0.015625)"/>
      <path id="DejaVuSans-Bold-69" d="M 538 3500 
L 1656 3500 
L 1656 0 
L 538 0 
L 538 3500 
z
M 538 4863 
L 1656 4863 
L 1656 3950 
L 538 3950 
L 538 4863 
z
" transform="scale(0.015625)"/>
      <path id="DejaVuSans-Bold-66" d="M 2841 4863 
L 2841 4128 
L 2222 4128 
Q 1984 4128 1890 4042 
Q 1797 3956 1797 3744 
L 1797 3500 
L 2753 3500 
L 2753 2700 
L 1797 2700 
L 1797 0 
L 678 0 
L 678 2700 
L 122 2700 
L 122 3500 
L 678 3500 
L 678 3744 
Q 678 4316 997 4589 
Q 1316 4863 1984 4863 
L 2841 4863 
z
" transform="scale(0.015625)"/>
      <path id="DejaVuSans-Bold-74" d="M 1759 4494 
L 1759 3500 
L 2913 3500 
L 2913 2700 
L 1759 2700 
L 1759 1216 
Q 1759 972 1856 886 
Q 1953 800 2241 800 
L 2816 800 
L 2816 0 
L 1856 0 
Q 1194 0 917 276 
Q 641 553 641 1216 
L 641 2700 
L 84 2700 
L 84 3500 
L 641 3500 
L 641 4494 
L 1759 4494 
z
" transform="scale(0.015625)"/>
      <path id="DejaVuSans-Bold-20" transform="scale(0.015625)"/>
      <path id="DejaVuSans-Bold-79" d="M 78 3500 
L 1197 3500 
L 2138 1125 
L 2938 3500 
L 4056 3500 
L 2584 -331 
Q 2363 -916 2067 -1148 
Q 1772 -1381 1288 -1381 
L 641 -1381 
L 641 -647 
L 991 -647 
Q 1275 -647 1404 -556 
Q 1534 -466 1606 -231 
L 1638 -134 
L 78 3500 
z
" transform="scale(0.015625)"/>
      <path id="DejaVuSans-Bold-70" d="M 1656 506 
L 1656 -1331 
L 538 -1331 
L 538 3500 
L 1656 3500 
L 1656 2988 
Q 1888 3294 2169 3439 
Q 2450 3584 2816 3584 
Q 3463 3584 3878 3070 
Q 4294 2556 4294 1747 
Q 4294 938 3878 423 
Q 3463 -91 2816 -91 
Q 2450 -91 2169 54 
Q 1888 200 1656 506 
z
M 2400 2772 
Q 2041 2772 1848 2508 
Q 1656 2244 1656 1747 
Q 1656 1250 1848 986 
Q 2041 722 2400 722 
Q 2759 722 2948 984 
Q 3138 1247 3138 1747 
Q 3138 2247 2948 2509 
Q 2759 2772 2400 2772 
z
" transform="scale(0.015625)"/>
      <path id="DejaVuSans-Bold-65" d="M 4031 1759 
L 4031 1441 
L 1416 1441 
Q 1456 1047 1700 850 
Q 1944 653 2381 653 
Q 2734 653 3104 758 
Q 3475 863 3866 1075 
L 3866 213 
Q 3469 63 3072 -14 
Q 2675 -91 2278 -91 
Q 1328 -91 801 392 
Q 275 875 275 1747 
Q 275 2603 792 3093 
Q 1309 3584 2216 3584 
Q 3041 3584 3536 3087 
Q 4031 2591 4031 1759 
z
M 2881 2131 
Q 2881 2450 2695 2645 
Q 2509 2841 2209 2841 
Q 1884 2841 1681 2658 
Q 1478 2475 1428 2131 
L 2881 2131 
z
" transform="scale(0.015625)"/>
      <path id="DejaVuSans-Bold-73" d="M 3272 3391 
L 3272 2541 
Q 2913 2691 2578 2766 
Q 2244 2841 1947 2841 
Q 1628 2841 1473 2761 
Q 1319 2681 1319 2516 
Q 1319 2381 1436 2309 
Q 1553 2238 1856 2203 
L 2053 2175 
Q 2913 2066 3209 1816 
Q 3506 1566 3506 1031 
Q 3506 472 3093 190 
Q 2681 -91 1863 -91 
Q 1516 -91 1145 -36 
Q 775 19 384 128 
L 384 978 
Q 719 816 1070 734 
Q 1422 653 1784 653 
Q 2113 653 2278 743 
Q 2444 834 2444 1013 
Q 2444 1163 2330 1236 
Q 2216 1309 1875 1350 
L 1678 1375 
Q 931 1469 631 1722 
Q 331 1975 331 2491 
Q 331 3047 712 3315 
Q 1094 3584 1881 3584 
Q 2191 3584 2531 3537 
Q 2872 3491 3272 3391 
z
" transform="scale(0.015625)"/>
      <path id="DejaVuSans-Bold-6d" d="M 3781 2919 
Q 3994 3244 4286 3414 
Q 4578 3584 4928 3584 
Q 5531 3584 5847 3212 
Q 6163 2841 6163 2131 
L 6163 0 
L 5038 0 
L 5038 1825 
Q 5041 1866 5042 1909 
Q 5044 1953 5044 2034 
Q 5044 2406 4934 2573 
Q 4825 2741 4581 2741 
Q 4263 2741 4089 2478 
Q 3916 2216 3909 1719 
L 3909 0 
L 2784 0 
L 2784 1825 
Q 2784 2406 2684 2573 
Q 2584 2741 2328 2741 
Q 2006 2741 1831 2477 
Q 1656 2213 1656 1722 
L 1656 0 
L 531 0 
L 531 3500 
L 1656 3500 
L 1656 2988 
Q 1863 3284 2130 3434 
Q 2397 3584 2719 3584 
Q 3081 3584 3359 3409 
Q 3638 3234 3781 2919 
z
" transform="scale(0.015625)"/>
      <path id="DejaVuSans-Bold-6c" d="M 538 4863 
L 1656 4863 
L 1656 0 
L 538 0 
L 538 4863 
z
" transform="scale(0.015625)"/>
      <path id="DejaVuSans-Bold-61" d="M 2106 1575 
Q 1756 1575 1579 1456 
Q 1403 1338 1403 1106 
Q 1403 894 1545 773 
Q 1688 653 1941 653 
Q 2256 653 2472 879 
Q 2688 1106 2688 1447 
L 2688 1575 
L 2106 1575 
z
M 3816 1997 
L 3816 0 
L 2688 0 
L 2688 519 
Q 2463 200 2181 54 
Q 1900 -91 1497 -91 
Q 953 -91 614 226 
Q 275 544 275 1050 
Q 275 1666 698 1953 
Q 1122 2241 2028 2241 
L 2688 2241 
L 2688 2328 
Q 2688 2594 2478 2717 
Q 2269 2841 1825 2841 
Q 1466 2841 1156 2769 
Q 847 2697 581 2553 
L 581 3406 
Q 941 3494 1303 3539 
Q 1666 3584 2028 3584 
Q 2975 3584 3395 3211 
Q 3816 2838 3816 1997 
z
" transform="scale(0.015625)"/>
      <path id="DejaVuSans-Bold-72" d="M 3138 2547 
Q 2991 2616 2845 2648 
Q 2700 2681 2553 2681 
Q 2122 2681 1889 2404 
Q 1656 2128 1656 1613 
L 1656 0 
L 538 0 
L 538 3500 
L 1656 3500 
L 1656 2925 
Q 1872 3269 2151 3426 
Q 2431 3584 2822 3584 
Q 2878 3584 2943 3579 
Q 3009 3575 3134 3559 
L 3138 2547 
z
" transform="scale(0.015625)"/>
     </defs>
     <use xlink:href="#DejaVuSans-Bold-53"/>
     <use xlink:href="#DejaVuSans-Bold-77" x="72.021484"/>
     <use xlink:href="#DejaVuSans-Bold-69" x="164.404297"/>
     <use xlink:href="#DejaVuSans-Bold-66" x="198.681641"/>
     <use xlink:href="#DejaVuSans-Bold-74" x="242.1875"/>
     <use xlink:href="#DejaVuSans-Bold-20" x="289.990234"/>
     <use xlink:href="#DejaVuSans-Bold-74" x="324.804688"/>
     <use xlink:href="#DejaVuSans-Bold-79" x="372.607422"/>
     <use xlink:href="#DejaVuSans-Bold-70" x="437.792969"/>
     <use xlink:href="#DejaVuSans-Bold-65" x="509.375"/>
     <use xlink:href="#DejaVuSans-Bold-20" x="577.197266"/>
     <use xlink:href="#DejaVuSans-Bold-73" x="612.011719"/>
     <use xlink:href="#DejaVuSans-Bold-79" x="671.533203"/>
     <use xlink:href="#DejaVuSans-Bold-73" x="736.71875"/>
     <use xlink:href="#DejaVuSans-Bold-74" x="796.240234"/>
     <use xlink:href="#DejaVuSans-Bold-65" x="844.042969"/>
     <use xlink:href="#DejaVuSans-Bold-6d" x="911.865234"/>
     <use xlink:href="#DejaVuSans-Bold-20" x="1016.064453"/>
     <use xlink:href="#DejaVuSans-Bold-6c" x="1050.878906"/>
     <use xlink:href="#DejaVuSans-Bold-61" x="1085.15625"/>
     <use xlink:href="#DejaVuSans-Bold-79" x="1149.511719"/>
     <use xlink:href="#DejaVuSans-Bold-65" x="1214.697266"/>
     <use xlink:href="#DejaVuSans-Bold-72" x="1282.519531"/>
     <use xlink:href="#DejaVuSans-Bold-73" x="1331.835938"/>
    </g>
   </g>
  </g>
 </g>
 <defs>
  <clipPath id="pee12840010">
   <rect x="7.2" y="21.406313" width="334.8" height="221.76"/>
  </clipPath>
 </defs>
</svg>
