<?xml version="1.0" encoding="UTF-8"?>
<svg xmlns="http://www.w3.org/2000/svg" width="960" height="540" viewBox="0 0 960 540" role="img" aria-labelledby="title desc">
  <title id="title">Golang - Interface Design Principles</title>
  <desc id="desc">Visual study diagram for the Interface Design Principles section in 5 - Interfaces and Type Assertions.</desc>
  <defs>
    <marker id="arrow" viewBox="0 0 10 10" refX="8" refY="5" markerWidth="8" markerHeight="8" orient="auto-start-reverse">
      <path d="M 0 0 L 10 5 L 0 10 z" fill="#0891b2"/>
    </marker>
    <filter id="shadow" x="-10%" y="-10%" width="120%" height="120%">
      <feDropShadow dx="0" dy="8" stdDeviation="10" flood-color="#0f172a" flood-opacity="0.10"/>
    </filter>
  </defs>
  <rect width="960" height="540" fill="#f7feff"/>
  <rect x="28" y="28" width="904" height="484" rx="28" fill="#ffffff" stroke="#e2e8f0" filter="url(#shadow)"/>
  <rect x="28" y="28" width="904" height="82" rx="28" fill="#cffafe"/>
  <rect x="28" y="82" width="904" height="28" fill="#cffafe"/>
  <text x="60" y="66" font-size="18" font-weight="800" fill="#0891b2">Golang visual model</text>
  <text x="60" y="96" text-anchor="start" font-size="28" font-weight="850" fill="#0f172a"><tspan x="60" dy="0">Interface Design Principles</tspan></text>
  <text x="900" y="66" text-anchor="end" font-size="14" font-weight="700" fill="#475569">type</text>
  <rect x="80" y="260" width="210" height="100" rx="18" fill="#cffafe" stroke="#0891b2" stroke-width="2"/><rect x="375" y="205" width="210" height="100" rx="18" fill="#ffffff" stroke="#cbd5e1" stroke-width="2"/><rect x="375" y="365" width="210" height="100" rx="18" fill="#ffffff" stroke="#cbd5e1" stroke-width="2"/><rect x="670" y="260" width="210" height="100" rx="18" fill="#ecfdf5" stroke="#0f766e" stroke-width="2"/><text x="185" y="317" text-anchor="middle" font-size="22" font-weight="800" fill="#111827"><tspan x="185" dy="0">Case input</tspan></text><text x="480" y="263" text-anchor="middle" font-size="20" font-weight="800" fill="#111827"><tspan x="480" dy="0">Checker</tspan></text><text x="480" y="423" text-anchor="middle" font-size="20" font-weight="800" fill="#111827"><tspan x="480" dy="0">Signal</tspan></text><text x="775" y="317" text-anchor="middle" font-size="22" font-weight="800" fill="#111827"><tspan x="775" dy="0">Gate</tspan></text><path d="M 292 310 C 328.5 310, 328.5 255, 365 255" fill="none" stroke="#0891b2" stroke-width="3" marker-end="url(#arrow)"/><path d="M 292 310 C 328.5 310, 328.5 415, 365 415" fill="none" stroke="#0891b2" stroke-width="3" marker-end="url(#arrow)"/><path d="M 590 255 C 629 255, 629 310, 668 310" fill="none" stroke="#0f766e" stroke-width="3" marker-end="url(#arrow)"/><path d="M 590 415 C 629 415, 629 310, 668 310" fill="none" stroke="#0f766e" stroke-width="3" marker-end="url(#arrow)"/><text x="480" y="505" text-anchor="middle" font-size="17" font-weight="650" fill="#334155"><tspan x="480" dy="0">Syntax defines a shape, and valid use preserves the invariant.</tspan></text>
</svg>
