<?xml version="1.0" encoding="UTF-8"?>
<svg xmlns="http://www.w3.org/2000/svg" width="960" height="540" viewBox="0 0 960 540" role="img" aria-labelledby="title desc">
  <title id="title">Swift - Exercises</title>
  <desc id="desc">Visual study diagram for the Exercises section in 09 - Apple App Architecture, Signing, TestFlight, and App Store Release.</desc>
  <defs>
    <marker id="arrow" viewBox="0 0 10 10" refX="8" refY="5" markerWidth="8" markerHeight="8" orient="auto-start-reverse">
      <path d="M 0 0 L 10 5 L 0 10 z" fill="#f97316"/>
    </marker>
    <filter id="shadow" x="-10%" y="-10%" width="120%" height="120%">
      <feDropShadow dx="0" dy="8" stdDeviation="10" flood-color="#0f172a" flood-opacity="0.10"/>
    </filter>
  </defs>
  <rect width="960" height="540" fill="#fffaf5"/>
  <rect x="28" y="28" width="904" height="484" rx="28" fill="#ffffff" stroke="#e2e8f0" filter="url(#shadow)"/>
  <rect x="28" y="28" width="904" height="82" rx="28" fill="#ffedd5"/>
  <rect x="28" y="82" width="904" height="28" fill="#ffedd5"/>
  <text x="60" y="66" font-size="18" font-weight="800" fill="#f97316">Swift visual model</text>
  <text x="60" y="96" text-anchor="start" font-size="28" font-weight="850" fill="#111827"><tspan x="60" dy="0">Exercises</tspan></text>
  <text x="900" y="66" text-anchor="end" font-size="14" font-weight="700" fill="#475569">practice</text>
  <circle cx="480" cy="215" r="72" fill="#ffedd5" stroke="#f97316" stroke-width="3"/><text x="480" y="221" text-anchor="middle" font-size="19" font-weight="800" fill="#111827"><tspan x="480" dy="0">Case input</tspan></text><path d="M 538 255 C 585 255, 585 290, 632 290" fill="none" stroke="#f97316" stroke-width="3" marker-end="url(#arrow)"/><circle cx="690" cy="330" r="72" fill="#ffffff" stroke="#f97316" stroke-width="3"/><text x="690" y="336" text-anchor="middle" font-size="19" font-weight="800" fill="#111827"><tspan x="690" dy="0">Checker</tspan></text><path d="M 632 370 C 585 370, 585 405, 538 405" fill="none" stroke="#f97316" stroke-width="3" marker-end="url(#arrow)"/><circle cx="480" cy="445" r="72" fill="#ffffff" stroke="#f97316" stroke-width="3"/><text x="480" y="451" text-anchor="middle" font-size="19" font-weight="800" fill="#111827"><tspan x="480" dy="0">Signal</tspan></text><path d="M 422 405 C 375 405, 375 370, 328 370" fill="none" stroke="#f97316" stroke-width="3" marker-end="url(#arrow)"/><circle cx="270" cy="330" r="72" fill="#ffffff" stroke="#4f46e5" stroke-width="3"/><text x="270" y="336" text-anchor="middle" font-size="19" font-weight="800" fill="#111827"><tspan x="270" dy="0">Gate</tspan></text><path d="M 328 290 C 375 290, 375 255, 422 255" fill="none" stroke="#f97316" stroke-width="3" marker-end="url(#arrow)"/><text x="480" y="520" text-anchor="middle" font-size="17" font-weight="650" fill="#334155"><tspan x="480" dy="0">Build a tiny proof, run it, inspect the signal, then tighten the model.</tspan></text>
</svg>
