<?xml version="1.0" encoding="UTF-8"?>
<svg xmlns="http://www.w3.org/2000/svg" width="960" height="540" viewBox="0 0 960 540" role="img" aria-labelledby="title desc">
  <title id="title">Swift - TestFlight</title>
  <desc id="desc">Visual study diagram for the TestFlight section in 09 - Apple App Architecture, Signing, TestFlight, and App Store Release.</desc>
  <defs>
    <marker id="arrow" viewBox="0 0 10 10" refX="8" refY="5" markerWidth="8" markerHeight="8" orient="auto-start-reverse">
      <path d="M 0 0 L 10 5 L 0 10 z" fill="#f97316"/>
    </marker>
    <filter id="shadow" x="-10%" y="-10%" width="120%" height="120%">
      <feDropShadow dx="0" dy="8" stdDeviation="10" flood-color="#0f172a" flood-opacity="0.10"/>
    </filter>
  </defs>
  <rect width="960" height="540" fill="#fffaf5"/>
  <rect x="28" y="28" width="904" height="484" rx="28" fill="#ffffff" stroke="#e2e8f0" filter="url(#shadow)"/>
  <rect x="28" y="28" width="904" height="82" rx="28" fill="#ffedd5"/>
  <rect x="28" y="82" width="904" height="28" fill="#ffedd5"/>
  <text x="60" y="66" font-size="18" font-weight="800" fill="#f97316">Swift visual model</text>
  <text x="60" y="96" text-anchor="start" font-size="28" font-weight="850" fill="#111827"><tspan x="60" dy="0">TestFlight</tspan></text>
  <text x="900" y="66" text-anchor="end" font-size="14" font-weight="700" fill="#475569">memory</text>
  <rect x="70" y="235" width="210" height="176" rx="18" fill="#eff6ff" stroke="#f97316" stroke-width="2"/><text x="175" y="270" text-anchor="middle" font-size="22" font-weight="800" fill="#111827"><tspan x="175" dy="0">Case input</tspan></text><rect x="105" y="300" width="140" height="34" rx="10" fill="#ffffff" stroke="#bfdbfe" stroke-width="2"/><rect x="105" y="345" width="140" height="34" rx="10" fill="#ffffff" stroke="#bfdbfe" stroke-width="2"/><text x="175" y="322" text-anchor="middle" font-size="15" font-weight="700" fill="#1e3a8a"><tspan x="175" dy="0">local names</tspan></text><text x="175" y="367" text-anchor="middle" font-size="15" font-weight="700" fill="#1e3a8a"><tspan x="175" dy="0">call frame</tspan></text><rect x="375" y="250" width="210" height="126" rx="18" fill="#ffffff" stroke="#cbd5e1" stroke-width="2"/><text x="480" y="294" text-anchor="middle" font-size="22" font-weight="800" fill="#111827"><tspan x="480" dy="0">Checker</tspan></text><text x="480" y="334" text-anchor="middle" font-size="16" font-weight="600" fill="#475569"><tspan x="480" dy="0">points, shares, or owns</tspan></text><rect x="680" y="225" width="210" height="206" rx="18" fill="#ecfdf5" stroke="#4f46e5" stroke-width="2"/><text x="785" y="265" text-anchor="middle" font-size="22" font-weight="800" fill="#111827"><tspan x="785" dy="0">Signal</tspan></text><rect x="715" y="305" width="140" height="34" rx="10" fill="#ffffff" stroke="#bbf7d0" stroke-width="2"/><rect x="715" y="350" width="140" height="34" rx="10" fill="#ffffff" stroke="#bbf7d0" stroke-width="2"/><text x="785" y="327" text-anchor="middle" font-size="15" font-weight="700" fill="#166534"><tspan x="785" dy="0">payload</tspan></text><text x="785" y="372" text-anchor="middle" font-size="14" font-weight="700" fill="#166534"><tspan x="785" dy="0">Gate</tspan></text><path d="M 285 318 C 325 318, 325 318, 365 318" fill="none" stroke="#f97316" stroke-width="3" marker-end="url(#arrow)"/><path d="M 590 318 C 630 318, 630 318, 670 318" fill="none" stroke="#4f46e5" stroke-width="3" marker-end="url(#arrow)"/><text x="480" y="470" text-anchor="middle" font-size="18" font-weight="650" fill="#334155"><tspan x="480" dy="0">Follow names to storage, then ask who controls lifetime.</tspan></text>
</svg>
