<?xml version="1.0" encoding="UTF-8"?>
<svg xmlns="http://www.w3.org/2000/svg" width="960" height="540" viewBox="0 0 960 540" role="img" aria-labelledby="title desc">
  <title id="title">Swift - Arrays</title>
  <desc id="desc">Visual study diagram for the Arrays section in 11 - Standard Library, Strings, Collections, and Algorithms.</desc>
  <defs>
    <marker id="arrow" viewBox="0 0 10 10" refX="8" refY="5" markerWidth="8" markerHeight="8" orient="auto-start-reverse">
      <path d="M 0 0 L 10 5 L 0 10 z" fill="#f97316"/>
    </marker>
    <filter id="shadow" x="-10%" y="-10%" width="120%" height="120%">
      <feDropShadow dx="0" dy="8" stdDeviation="10" flood-color="#0f172a" flood-opacity="0.10"/>
    </filter>
  </defs>
  <rect width="960" height="540" fill="#fffaf5"/>
  <rect x="28" y="28" width="904" height="484" rx="28" fill="#ffffff" stroke="#e2e8f0" filter="url(#shadow)"/>
  <rect x="28" y="28" width="904" height="82" rx="28" fill="#ffedd5"/>
  <rect x="28" y="82" width="904" height="28" fill="#ffedd5"/>
  <text x="60" y="66" font-size="18" font-weight="800" fill="#f97316">Swift visual model</text>
  <text x="60" y="96" text-anchor="start" font-size="28" font-weight="850" fill="#111827"><tspan x="60" dy="0">Arrays</tspan></text>
  <text x="900" y="66" text-anchor="end" font-size="14" font-weight="700" fill="#475569">dataflow</text>
  <rect x="58" y="270" width="172" height="96" rx="18" fill="#ffedd5" stroke="#f97316" stroke-width="2"/><text x="144" y="309" text-anchor="middle" font-size="20" font-weight="700" fill="#111827"><tspan x="144" dy="0">Input iterable</tspan></text><text x="82" y="292" text-anchor="start" font-size="14" font-weight="800" fill="#f97316"><tspan x="82" dy="0">1</tspan></text><path d="M 232 318 C 253 318, 253 318, 274 318" fill="none" stroke="#f97316" stroke-width="3" marker-end="url(#arrow)"/><rect x="282" y="270" width="172" height="96" rx="18" fill="#ffffff" stroke="#cbd5e1" stroke-width="2"/><text x="368" y="309" text-anchor="middle" font-size="20" font-weight="700" fill="#111827"><tspan x="368" dy="0">Transform step</tspan></text><text x="306" y="292" text-anchor="start" font-size="14" font-weight="800" fill="#f97316"><tspan x="306" dy="0">2</tspan></text><path d="M 456 318 C 477 318, 477 318, 498 318" fill="none" stroke="#f97316" stroke-width="3" marker-end="url(#arrow)"/><rect x="506" y="270" width="172" height="96" rx="18" fill="#ffffff" stroke="#cbd5e1" stroke-width="2"/><text x="592" y="309" text-anchor="middle" font-size="20" font-weight="700" fill="#111827"><tspan x="592" dy="0">Stream or store</tspan></text><text x="530" y="292" text-anchor="start" font-size="14" font-weight="800" fill="#f97316"><tspan x="530" dy="0">3</tspan></text><path d="M 680 318 C 701 318, 701 318, 722 318" fill="none" stroke="#f97316" stroke-width="3" marker-end="url(#arrow)"/><rect x="730" y="270" width="172" height="96" rx="18" fill="#ecfdf5" stroke="#cbd5e1" stroke-width="2"/><text x="816" y="309" text-anchor="middle" font-size="20" font-weight="700" fill="#111827"><tspan x="816" dy="0">Result</tspan></text><text x="754" y="292" text-anchor="start" font-size="14" font-weight="800" fill="#f97316"><tspan x="754" dy="0">4</tspan></text><rect x="120" y="410" width="720" height="62" rx="16" fill="#ffffff" stroke="#cbd5e1" stroke-width="2"/><text x="480" y="448" text-anchor="middle" font-size="18" font-weight="600" fill="#334155"><tspan x="480" dy="0">Trace Arrays from left to right, then map each box back to the code in this</tspan><tspan x="480" dy="24">section.</tspan></text>
</svg>
