<?xml version="1.0" encoding="utf-8" standalone="no"?>
<!DOCTYPE svg PUBLIC "-//W3C//DTD SVG 1.1//EN"
  "http://www.w3.org/Graphics/SVG/1.1/DTD/svg11.dtd">
<svg xmlns:xlink="http://www.w3.org/1999/xlink" width="396pt" height="244.8pt" viewBox="0 0 396 244.8" xmlns="http://www.w3.org/2000/svg" version="1.1">
 <metadata>
  <rdf:RDF xmlns:dc="http://purl.org/dc/elements/1.1/" xmlns:cc="http://creativecommons.org/ns#" xmlns:rdf="http://www.w3.org/1999/02/22-rdf-syntax-ns#">
   <cc:Work>
    <dc:type rdf:resource="http://purl.org/dc/dcmitype/StillImage"/>
    <dc:date>2026-06-14T16:20:47.097151</dc:date>
    <dc:format>image/svg+xml</dc:format>
    <dc:creator>
     <cc:Agent>
      <dc:title>Matplotlib v3.9.4, https://matplotlib.org/</dc:title>
     </cc:Agent>
    </dc:creator>
   </cc:Work>
  </rdf:RDF>
 </metadata>
 <defs>
  <style type="text/css">*{stroke-linejoin: round; stroke-linecap: butt}</style>
 </defs>
 <g id="figure_1">
  <g id="patch_1">
   <path d="M 0 244.8 
L 396 244.8 
L 396 0 
L 0 0 
z
" style="fill: #ffffff"/>
  </g>
  <g id="axes_1">
   <g id="patch_2">
    <path d="M 48.24 204.984 
L 347.76 204.984 
Q 355.248 204.984 355.248 200.52 
L 355.248 160.344 
Q 355.248 155.88 347.76 155.88 
L 48.24 155.88 
Q 40.752 155.88 40.752 160.344 
L 40.752 200.52 
Q 40.752 204.984 48.24 204.984 
z
" clip-path="url(#p7b98f79490)" style="fill: #d8f5d0; stroke: #333333; stroke-linejoin: miter"/>
   </g>
   <g id="patch_3">
    <path d="M 78.192 155.88 
L 317.808 155.88 
Q 325.296 155.88 325.296 151.416 
L 325.296 111.24 
Q 325.296 106.776 317.808 106.776 
L 78.192 106.776 
Q 70.704 106.776 70.704 111.24 
L 70.704 151.416 
Q 70.704 155.88 78.192 155.88 
z
" clip-path="url(#p7b98f79490)" style="fill: #ffe8b0; stroke: #333333; stroke-linejoin: miter"/>
   </g>
   <g id="patch_4">
    <path d="M 108.144 106.776 
L 287.856 106.776 
Q 295.344 106.776 295.344 102.312 
L 295.344 62.136 
Q 295.344 57.672 287.856 57.672 
L 108.144 57.672 
Q 100.656 57.672 100.656 62.136 
L 100.656 102.312 
Q 100.656 106.776 108.144 106.776 
z
" clip-path="url(#p7b98f79490)" style="fill: #ffd0d0; stroke: #333333; stroke-linejoin: miter"/>
   </g>
   <g id="text_1">
    <!-- public  api -->
    <g transform="translate(174.735 182.915437) scale(0.09 -0.09)">
     <defs>
      <path id="DejaVuSans-70" d="M 1159 525 
L 1159 -1331 
L 581 -1331 
L 581 3500 
L 1159 3500 
L 1159 2969 
Q 1341 3281 1617 3432 
Q 1894 3584 2278 3584 
Q 2916 3584 3314 3078 
Q 3713 2572 3713 1747 
Q 3713 922 3314 415 
Q 2916 -91 2278 -91 
Q 1894 -91 1617 61 
Q 1341 213 1159 525 
z
M 3116 1747 
Q 3116 2381 2855 2742 
Q 2594 3103 2138 3103 
Q 1681 3103 1420 2742 
Q 1159 2381 1159 1747 
Q 1159 1113 1420 752 
Q 1681 391 2138 391 
Q 2594 391 2855 752 
Q 3116 1113 3116 1747 
z
" transform="scale(0.015625)"/>
      <path id="DejaVuSans-75" d="M 544 1381 
L 544 3500 
L 1119 3500 
L 1119 1403 
Q 1119 906 1312 657 
Q 1506 409 1894 409 
Q 2359 409 2629 706 
Q 2900 1003 2900 1516 
L 2900 3500 
L 3475 3500 
L 3475 0 
L 2900 0 
L 2900 538 
Q 2691 219 2414 64 
Q 2138 -91 1772 -91 
Q 1169 -91 856 284 
Q 544 659 544 1381 
z
M 1991 3584 
L 1991 3584 
z
" transform="scale(0.015625)"/>
      <path id="DejaVuSans-62" d="M 3116 1747 
Q 3116 2381 2855 2742 
Q 2594 3103 2138 3103 
Q 1681 3103 1420 2742 
Q 1159 2381 1159 1747 
Q 1159 1113 1420 752 
Q 1681 391 2138 391 
Q 2594 391 2855 752 
Q 3116 1113 3116 1747 
z
M 1159 2969 
Q 1341 3281 1617 3432 
Q 1894 3584 2278 3584 
Q 2916 3584 3314 3078 
Q 3713 2572 3713 1747 
Q 3713 922 3314 415 
Q 2916 -91 2278 -91 
Q 1894 -91 1617 61 
Q 1341 213 1159 525 
L 1159 0 
L 581 0 
L 581 4863 
L 1159 4863 
L 1159 2969 
z
" transform="scale(0.015625)"/>
      <path id="DejaVuSans-6c" d="M 603 4863 
L 1178 4863 
L 1178 0 
L 603 0 
L 603 4863 
z
" transform="scale(0.015625)"/>
      <path id="DejaVuSans-69" d="M 603 3500 
L 1178 3500 
L 1178 0 
L 603 0 
L 603 3500 
z
M 603 4863 
L 1178 4863 
L 1178 4134 
L 603 4134 
L 603 4863 
z
" transform="scale(0.015625)"/>
      <path id="DejaVuSans-63" d="M 3122 3366 
L 3122 2828 
Q 2878 2963 2633 3030 
Q 2388 3097 2138 3097 
Q 1578 3097 1268 2742 
Q 959 2388 959 1747 
Q 959 1106 1268 751 
Q 1578 397 2138 397 
Q 2388 397 2633 464 
Q 2878 531 3122 666 
L 3122 134 
Q 2881 22 2623 -34 
Q 2366 -91 2075 -91 
Q 1284 -91 818 406 
Q 353 903 353 1747 
Q 353 2603 823 3093 
Q 1294 3584 2113 3584 
Q 2378 3584 2631 3529 
Q 2884 3475 3122 3366 
z
" transform="scale(0.015625)"/>
      <path id="DejaVuSans-20" transform="scale(0.015625)"/>
      <path id="DejaVuSans-61" d="M 2194 1759 
Q 1497 1759 1228 1600 
Q 959 1441 959 1056 
Q 959 750 1161 570 
Q 1363 391 1709 391 
Q 2188 391 2477 730 
Q 2766 1069 2766 1631 
L 2766 1759 
L 2194 1759 
z
M 3341 1997 
L 3341 0 
L 2766 0 
L 2766 531 
Q 2569 213 2275 61 
Q 1981 -91 1556 -91 
Q 1019 -91 701 211 
Q 384 513 384 1019 
Q 384 1609 779 1909 
Q 1175 2209 1959 2209 
L 2766 2209 
L 2766 2266 
Q 2766 2663 2505 2880 
Q 2244 3097 1772 3097 
Q 1472 3097 1187 3025 
Q 903 2953 641 2809 
L 641 3341 
Q 956 3463 1253 3523 
Q 1550 3584 1831 3584 
Q 2591 3584 2966 3190 
Q 3341 2797 3341 1997 
z
" transform="scale(0.015625)"/>
     </defs>
     <use xlink:href="#DejaVuSans-70"/>
     <use xlink:href="#DejaVuSans-75" x="63.476562"/>
     <use xlink:href="#DejaVuSans-62" x="126.855469"/>
     <use xlink:href="#DejaVuSans-6c" x="190.332031"/>
     <use xlink:href="#DejaVuSans-69" x="218.115234"/>
     <use xlink:href="#DejaVuSans-63" x="245.898438"/>
     <use xlink:href="#DejaVuSans-20" x="300.878906"/>
     <use xlink:href="#DejaVuSans-20" x="332.666016"/>
     <use xlink:href="#DejaVuSans-61" x="364.453125"/>
     <use xlink:href="#DejaVuSans-70" x="425.732422"/>
     <use xlink:href="#DejaVuSans-69" x="489.208984"/>
    </g>
   </g>
   <g id="text_2">
    <!-- _protected  (convention) -->
    <g transform="translate(142.63875 133.686281) scale(0.09 -0.09)">
     <defs>
      <path id="DejaVuSans-5f" d="M 3263 -1063 
L 3263 -1509 
L -63 -1509 
L -63 -1063 
L 3263 -1063 
z
" transform="scale(0.015625)"/>
      <path id="DejaVuSans-72" d="M 2631 2963 
Q 2534 3019 2420 3045 
Q 2306 3072 2169 3072 
Q 1681 3072 1420 2755 
Q 1159 2438 1159 1844 
L 1159 0 
L 581 0 
L 581 3500 
L 1159 3500 
L 1159 2956 
Q 1341 3275 1631 3429 
Q 1922 3584 2338 3584 
Q 2397 3584 2469 3576 
Q 2541 3569 2628 3553 
L 2631 2963 
z
" transform="scale(0.015625)"/>
      <path id="DejaVuSans-6f" d="M 1959 3097 
Q 1497 3097 1228 2736 
Q 959 2375 959 1747 
Q 959 1119 1226 758 
Q 1494 397 1959 397 
Q 2419 397 2687 759 
Q 2956 1122 2956 1747 
Q 2956 2369 2687 2733 
Q 2419 3097 1959 3097 
z
M 1959 3584 
Q 2709 3584 3137 3096 
Q 3566 2609 3566 1747 
Q 3566 888 3137 398 
Q 2709 -91 1959 -91 
Q 1206 -91 779 398 
Q 353 888 353 1747 
Q 353 2609 779 3096 
Q 1206 3584 1959 3584 
z
" transform="scale(0.015625)"/>
      <path id="DejaVuSans-74" d="M 1172 4494 
L 1172 3500 
L 2356 3500 
L 2356 3053 
L 1172 3053 
L 1172 1153 
Q 1172 725 1289 603 
Q 1406 481 1766 481 
L 2356 481 
L 2356 0 
L 1766 0 
Q 1100 0 847 248 
Q 594 497 594 1153 
L 594 3053 
L 172 3053 
L 172 3500 
L 594 3500 
L 594 4494 
L 1172 4494 
z
" transform="scale(0.015625)"/>
      <path id="DejaVuSans-65" d="M 3597 1894 
L 3597 1613 
L 953 1613 
Q 991 1019 1311 708 
Q 1631 397 2203 397 
Q 2534 397 2845 478 
Q 3156 559 3463 722 
L 3463 178 
Q 3153 47 2828 -22 
Q 2503 -91 2169 -91 
Q 1331 -91 842 396 
Q 353 884 353 1716 
Q 353 2575 817 3079 
Q 1281 3584 2069 3584 
Q 2775 3584 3186 3129 
Q 3597 2675 3597 1894 
z
M 3022 2063 
Q 3016 2534 2758 2815 
Q 2500 3097 2075 3097 
Q 1594 3097 1305 2825 
Q 1016 2553 972 2059 
L 3022 2063 
z
" transform="scale(0.015625)"/>
      <path id="DejaVuSans-64" d="M 2906 2969 
L 2906 4863 
L 3481 4863 
L 3481 0 
L 2906 0 
L 2906 525 
Q 2725 213 2448 61 
Q 2172 -91 1784 -91 
Q 1150 -91 751 415 
Q 353 922 353 1747 
Q 353 2572 751 3078 
Q 1150 3584 1784 3584 
Q 2172 3584 2448 3432 
Q 2725 3281 2906 2969 
z
M 947 1747 
Q 947 1113 1208 752 
Q 1469 391 1925 391 
Q 2381 391 2643 752 
Q 2906 1113 2906 1747 
Q 2906 2381 2643 2742 
Q 2381 3103 1925 3103 
Q 1469 3103 1208 2742 
Q 947 2381 947 1747 
z
" transform="scale(0.015625)"/>
      <path id="DejaVuSans-28" d="M 1984 4856 
Q 1566 4138 1362 3434 
Q 1159 2731 1159 2009 
Q 1159 1288 1364 580 
Q 1569 -128 1984 -844 
L 1484 -844 
Q 1016 -109 783 600 
Q 550 1309 550 2009 
Q 550 2706 781 3412 
Q 1013 4119 1484 4856 
L 1984 4856 
z
" transform="scale(0.015625)"/>
      <path id="DejaVuSans-6e" d="M 3513 2113 
L 3513 0 
L 2938 0 
L 2938 2094 
Q 2938 2591 2744 2837 
Q 2550 3084 2163 3084 
Q 1697 3084 1428 2787 
Q 1159 2491 1159 1978 
L 1159 0 
L 581 0 
L 581 3500 
L 1159 3500 
L 1159 2956 
Q 1366 3272 1645 3428 
Q 1925 3584 2291 3584 
Q 2894 3584 3203 3211 
Q 3513 2838 3513 2113 
z
" transform="scale(0.015625)"/>
      <path id="DejaVuSans-76" d="M 191 3500 
L 800 3500 
L 1894 563 
L 2988 3500 
L 3597 3500 
L 2284 0 
L 1503 0 
L 191 3500 
z
" transform="scale(0.015625)"/>
      <path id="DejaVuSans-29" d="M 513 4856 
L 1013 4856 
Q 1481 4119 1714 3412 
Q 1947 2706 1947 2009 
Q 1947 1309 1714 600 
Q 1481 -109 1013 -844 
L 513 -844 
Q 928 -128 1133 580 
Q 1338 1288 1338 2009 
Q 1338 2731 1133 3434 
Q 928 4138 513 4856 
z
" transform="scale(0.015625)"/>
     </defs>
     <use xlink:href="#DejaVuSans-5f"/>
     <use xlink:href="#DejaVuSans-70" x="50"/>
     <use xlink:href="#DejaVuSans-72" x="113.476562"/>
     <use xlink:href="#DejaVuSans-6f" x="152.339844"/>
     <use xlink:href="#DejaVuSans-74" x="213.521484"/>
     <use xlink:href="#DejaVuSans-65" x="252.730469"/>
     <use xlink:href="#DejaVuSans-63" x="314.253906"/>
     <use xlink:href="#DejaVuSans-74" x="369.234375"/>
     <use xlink:href="#DejaVuSans-65" x="408.443359"/>
     <use xlink:href="#DejaVuSans-64" x="469.966797"/>
     <use xlink:href="#DejaVuSans-20" x="533.443359"/>
     <use xlink:href="#DejaVuSans-20" x="565.230469"/>
     <use xlink:href="#DejaVuSans-28" x="597.017578"/>
     <use xlink:href="#DejaVuSans-63" x="636.03125"/>
     <use xlink:href="#DejaVuSans-6f" x="691.011719"/>
     <use xlink:href="#DejaVuSans-6e" x="752.193359"/>
     <use xlink:href="#DejaVuSans-76" x="815.572266"/>
     <use xlink:href="#DejaVuSans-65" x="874.751953"/>
     <use xlink:href="#DejaVuSans-6e" x="936.275391"/>
     <use xlink:href="#DejaVuSans-74" x="999.654297"/>
     <use xlink:href="#DejaVuSans-69" x="1038.863281"/>
     <use xlink:href="#DejaVuSans-6f" x="1066.646484"/>
     <use xlink:href="#DejaVuSans-6e" x="1127.828125"/>
     <use xlink:href="#DejaVuSans-29" x="1191.207031"/>
    </g>
   </g>
   <g id="text_3">
    <!-- __private  (name-mangled _Cls__x) -->
    <g transform="translate(119.526328 84.582281) scale(0.09 -0.09)">
     <defs>
      <path id="DejaVuSans-6d" d="M 3328 2828 
Q 3544 3216 3844 3400 
Q 4144 3584 4550 3584 
Q 5097 3584 5394 3201 
Q 5691 2819 5691 2113 
L 5691 0 
L 5113 0 
L 5113 2094 
Q 5113 2597 4934 2840 
Q 4756 3084 4391 3084 
Q 3944 3084 3684 2787 
Q 3425 2491 3425 1978 
L 3425 0 
L 2847 0 
L 2847 2094 
Q 2847 2600 2669 2842 
Q 2491 3084 2119 3084 
Q 1678 3084 1418 2786 
Q 1159 2488 1159 1978 
L 1159 0 
L 581 0 
L 581 3500 
L 1159 3500 
L 1159 2956 
Q 1356 3278 1631 3431 
Q 1906 3584 2284 3584 
Q 2666 3584 2933 3390 
Q 3200 3197 3328 2828 
z
" transform="scale(0.015625)"/>
      <path id="DejaVuSans-2d" d="M 313 2009 
L 1997 2009 
L 1997 1497 
L 313 1497 
L 313 2009 
z
" transform="scale(0.015625)"/>
      <path id="DejaVuSans-67" d="M 2906 1791 
Q 2906 2416 2648 2759 
Q 2391 3103 1925 3103 
Q 1463 3103 1205 2759 
Q 947 2416 947 1791 
Q 947 1169 1205 825 
Q 1463 481 1925 481 
Q 2391 481 2648 825 
Q 2906 1169 2906 1791 
z
M 3481 434 
Q 3481 -459 3084 -895 
Q 2688 -1331 1869 -1331 
Q 1566 -1331 1297 -1286 
Q 1028 -1241 775 -1147 
L 775 -588 
Q 1028 -725 1275 -790 
Q 1522 -856 1778 -856 
Q 2344 -856 2625 -561 
Q 2906 -266 2906 331 
L 2906 616 
Q 2728 306 2450 153 
Q 2172 0 1784 0 
Q 1141 0 747 490 
Q 353 981 353 1791 
Q 353 2603 747 3093 
Q 1141 3584 1784 3584 
Q 2172 3584 2450 3431 
Q 2728 3278 2906 2969 
L 2906 3500 
L 3481 3500 
L 3481 434 
z
" transform="scale(0.015625)"/>
      <path id="DejaVuSans-43" d="M 4122 4306 
L 4122 3641 
Q 3803 3938 3442 4084 
Q 3081 4231 2675 4231 
Q 1875 4231 1450 3742 
Q 1025 3253 1025 2328 
Q 1025 1406 1450 917 
Q 1875 428 2675 428 
Q 3081 428 3442 575 
Q 3803 722 4122 1019 
L 4122 359 
Q 3791 134 3420 21 
Q 3050 -91 2638 -91 
Q 1578 -91 968 557 
Q 359 1206 359 2328 
Q 359 3453 968 4101 
Q 1578 4750 2638 4750 
Q 3056 4750 3426 4639 
Q 3797 4528 4122 4306 
z
" transform="scale(0.015625)"/>
      <path id="DejaVuSans-73" d="M 2834 3397 
L 2834 2853 
Q 2591 2978 2328 3040 
Q 2066 3103 1784 3103 
Q 1356 3103 1142 2972 
Q 928 2841 928 2578 
Q 928 2378 1081 2264 
Q 1234 2150 1697 2047 
L 1894 2003 
Q 2506 1872 2764 1633 
Q 3022 1394 3022 966 
Q 3022 478 2636 193 
Q 2250 -91 1575 -91 
Q 1294 -91 989 -36 
Q 684 19 347 128 
L 347 722 
Q 666 556 975 473 
Q 1284 391 1588 391 
Q 1994 391 2212 530 
Q 2431 669 2431 922 
Q 2431 1156 2273 1281 
Q 2116 1406 1581 1522 
L 1381 1569 
Q 847 1681 609 1914 
Q 372 2147 372 2553 
Q 372 3047 722 3315 
Q 1072 3584 1716 3584 
Q 2034 3584 2315 3537 
Q 2597 3491 2834 3397 
z
" transform="scale(0.015625)"/>
      <path id="DejaVuSans-78" d="M 3513 3500 
L 2247 1797 
L 3578 0 
L 2900 0 
L 1881 1375 
L 863 0 
L 184 0 
L 1544 1831 
L 300 3500 
L 978 3500 
L 1906 2253 
L 2834 3500 
L 3513 3500 
z
" transform="scale(0.015625)"/>
     </defs>
     <use xlink:href="#DejaVuSans-5f"/>
     <use xlink:href="#DejaVuSans-5f" x="50"/>
     <use xlink:href="#DejaVuSans-70" x="100"/>
     <use xlink:href="#DejaVuSans-72" x="163.476562"/>
     <use xlink:href="#DejaVuSans-69" x="204.589844"/>
     <use xlink:href="#DejaVuSans-76" x="232.373047"/>
     <use xlink:href="#DejaVuSans-61" x="291.552734"/>
     <use xlink:href="#DejaVuSans-74" x="352.832031"/>
     <use xlink:href="#DejaVuSans-65" x="392.041016"/>
     <use xlink:href="#DejaVuSans-20" x="453.564453"/>
     <use xlink:href="#DejaVuSans-20" x="485.351562"/>
     <use xlink:href="#DejaVuSans-28" x="517.138672"/>
     <use xlink:href="#DejaVuSans-6e" x="556.152344"/>
     <use xlink:href="#DejaVuSans-61" x="619.53125"/>
     <use xlink:href="#DejaVuSans-6d" x="680.810547"/>
     <use xlink:href="#DejaVuSans-65" x="778.222656"/>
     <use xlink:href="#DejaVuSans-2d" x="839.746094"/>
     <use xlink:href="#DejaVuSans-6d" x="875.830078"/>
     <use xlink:href="#DejaVuSans-61" x="973.242188"/>
     <use xlink:href="#DejaVuSans-6e" x="1034.521484"/>
     <use xlink:href="#DejaVuSans-67" x="1097.900391"/>
     <use xlink:href="#DejaVuSans-6c" x="1161.376953"/>
     <use xlink:href="#DejaVuSans-65" x="1189.160156"/>
     <use xlink:href="#DejaVuSans-64" x="1250.683594"/>
     <use xlink:href="#DejaVuSans-20" x="1314.160156"/>
     <use xlink:href="#DejaVuSans-5f" x="1345.947266"/>
     <use xlink:href="#DejaVuSans-43" x="1395.947266"/>
     <use xlink:href="#DejaVuSans-6c" x="1465.771484"/>
     <use xlink:href="#DejaVuSans-73" x="1493.554688"/>
     <use xlink:href="#DejaVuSans-5f" x="1545.654297"/>
     <use xlink:href="#DejaVuSans-5f" x="1595.654297"/>
     <use xlink:href="#DejaVuSans-78" x="1645.654297"/>
     <use xlink:href="#DejaVuSans-29" x="1704.833984"/>
    </g>
   </g>
   <g id="text_4">
    <!-- Encapsulation by convention + name mangling -->
    <g transform="translate(103.019375 28.656) scale(0.08 -0.08)">
     <defs>
      <path id="DejaVuSans-45" d="M 628 4666 
L 3578 4666 
L 3578 4134 
L 1259 4134 
L 1259 2753 
L 3481 2753 
L 3481 2222 
L 1259 2222 
L 1259 531 
L 3634 531 
L 3634 0 
L 628 0 
L 628 4666 
z
" transform="scale(0.015625)"/>
      <path id="DejaVuSans-79" d="M 2059 -325 
Q 1816 -950 1584 -1140 
Q 1353 -1331 966 -1331 
L 506 -1331 
L 506 -850 
L 844 -850 
Q 1081 -850 1212 -737 
Q 1344 -625 1503 -206 
L 1606 56 
L 191 3500 
L 800 3500 
L 1894 763 
L 2988 3500 
L 3597 3500 
L 2059 -325 
z
" transform="scale(0.015625)"/>
      <path id="DejaVuSans-2b" d="M 2944 4013 
L 2944 2272 
L 4684 2272 
L 4684 1741 
L 2944 1741 
L 2944 0 
L 2419 0 
L 2419 1741 
L 678 1741 
L 678 2272 
L 2419 2272 
L 2419 4013 
L 2944 4013 
z
" transform="scale(0.015625)"/>
     </defs>
     <use xlink:href="#DejaVuSans-45"/>
     <use xlink:href="#DejaVuSans-6e" x="63.183594"/>
     <use xlink:href="#DejaVuSans-63" x="126.5625"/>
     <use xlink:href="#DejaVuSans-61" x="181.542969"/>
     <use xlink:href="#DejaVuSans-70" x="242.822266"/>
     <use xlink:href="#DejaVuSans-73" x="306.298828"/>
     <use xlink:href="#DejaVuSans-75" x="358.398438"/>
     <use xlink:href="#DejaVuSans-6c" x="421.777344"/>
     <use xlink:href="#DejaVuSans-61" x="449.560547"/>
     <use xlink:href="#DejaVuSans-74" x="510.839844"/>
     <use xlink:href="#DejaVuSans-69" x="550.048828"/>
     <use xlink:href="#DejaVuSans-6f" x="577.832031"/>
     <use xlink:href="#DejaVuSans-6e" x="639.013672"/>
     <use xlink:href="#DejaVuSans-20" x="702.392578"/>
     <use xlink:href="#DejaVuSans-62" x="734.179688"/>
     <use xlink:href="#DejaVuSans-79" x="797.65625"/>
     <use xlink:href="#DejaVuSans-20" x="856.835938"/>
     <use xlink:href="#DejaVuSans-63" x="888.623047"/>
     <use xlink:href="#DejaVuSans-6f" x="943.603516"/>
     <use xlink:href="#DejaVuSans-6e" x="1004.785156"/>
     <use xlink:href="#DejaVuSans-76" x="1068.164062"/>
     <use xlink:href="#DejaVuSans-65" x="1127.34375"/>
     <use xlink:href="#DejaVuSans-6e" x="1188.867188"/>
     <use xlink:href="#DejaVuSans-74" x="1252.246094"/>
     <use xlink:href="#DejaVuSans-69" x="1291.455078"/>
     <use xlink:href="#DejaVuSans-6f" x="1319.238281"/>
     <use xlink:href="#DejaVuSans-6e" x="1380.419922"/>
     <use xlink:href="#DejaVuSans-20" x="1443.798828"/>
     <use xlink:href="#DejaVuSans-2b" x="1475.585938"/>
     <use xlink:href="#DejaVuSans-20" x="1559.375"/>
     <use xlink:href="#DejaVuSans-6e" x="1591.162109"/>
     <use xlink:href="#DejaVuSans-61" x="1654.541016"/>
     <use xlink:href="#DejaVuSans-6d" x="1715.820312"/>
     <use xlink:href="#DejaVuSans-65" x="1813.232422"/>
     <use xlink:href="#DejaVuSans-20" x="1874.755859"/>
     <use xlink:href="#DejaVuSans-6d" x="1906.542969"/>
     <use xlink:href="#DejaVuSans-61" x="2003.955078"/>
     <use xlink:href="#DejaVuSans-6e" x="2065.234375"/>
     <use xlink:href="#DejaVuSans-67" x="2128.613281"/>
     <use xlink:href="#DejaVuSans-6c" x="2192.089844"/>
     <use xlink:href="#DejaVuSans-69" x="2219.873047"/>
     <use xlink:href="#DejaVuSans-6e" x="2247.65625"/>
     <use xlink:href="#DejaVuSans-67" x="2311.035156"/>
    </g>
   </g>
  </g>
 </g>
 <defs>
  <clipPath id="p7b98f79490">
   <rect x="10.8" y="10.8" width="374.4" height="223.2"/>
  </clipPath>
 </defs>
</svg>
