<?xml version="1.0" encoding="utf-8" standalone="no"?>
<!DOCTYPE svg PUBLIC "-//W3C//DTD SVG 1.1//EN"
  "http://www.w3.org/Graphics/SVG/1.1/DTD/svg11.dtd">
<svg xmlns:xlink="http://www.w3.org/1999/xlink" width="784.8pt" height="223.2pt" viewBox="0 0 784.8 223.2" xmlns="http://www.w3.org/2000/svg" version="1.1">
 <metadata>
  <rdf:RDF xmlns:dc="http://purl.org/dc/elements/1.1/" xmlns:cc="http://creativecommons.org/ns#" xmlns:rdf="http://www.w3.org/1999/02/22-rdf-syntax-ns#">
   <cc:Work>
    <dc:type rdf:resource="http://purl.org/dc/dcmitype/StillImage"/>
    <dc:date>2026-06-14T16:21:46.662134</dc:date>
    <dc:format>image/svg+xml</dc:format>
    <dc:creator>
     <cc:Agent>
      <dc:title>Matplotlib v3.9.4, https://matplotlib.org/</dc:title>
     </cc:Agent>
    </dc:creator>
   </cc:Work>
  </rdf:RDF>
 </metadata>
 <defs>
  <style type="text/css">*{stroke-linejoin: round; stroke-linecap: butt}</style>
 </defs>
 <g id="figure_1">
  <g id="patch_1">
   <path d="M 0 223.2 
L 784.8 223.2 
L 784.8 0 
L 0 0 
z
" style="fill: #ffffff"/>
  </g>
  <g id="axes_1">
   <g id="patch_2">
    <path d="M 32.813299 127.26 
L 126.662026 127.26 
Q 135.06639 127.26 135.06639 119.43 
L 135.06639 58.095 
Q 135.06639 50.265 126.662026 50.265 
L 32.813299 50.265 
Q 24.408935 50.265 24.408935 58.095 
L 24.408935 119.43 
Q 24.408935 127.26 32.813299 127.26 
z
" clip-path="url(#pe21ac2a565)" style="fill: #dbeafe; stroke: #1e3a8a; stroke-width: 1.2; stroke-linejoin: miter"/>
   </g>
   <g id="patch_3">
    <path d="M 157.878234 127.26 
L 251.726961 127.26 
Q 260.131325 127.26 260.131325 119.43 
L 260.131325 58.095 
Q 260.131325 50.265 251.726961 50.265 
L 157.878234 50.265 
Q 149.47387 50.265 149.47387 58.095 
L 149.47387 119.43 
Q 149.47387 127.26 157.878234 127.26 
z
" clip-path="url(#pe21ac2a565)" style="fill: #bfdbfe; stroke: #1e3a8a; stroke-width: 1.2; stroke-linejoin: miter"/>
   </g>
   <g id="patch_4">
    <path d="M 282.943169 127.26 
L 376.791896 127.26 
Q 385.19626 127.26 385.19626 119.43 
L 385.19626 58.095 
Q 385.19626 50.265 376.791896 50.265 
L 282.943169 50.265 
Q 274.538805 50.265 274.538805 58.095 
L 274.538805 119.43 
Q 274.538805 127.26 282.943169 127.26 
z
" clip-path="url(#pe21ac2a565)" style="fill: #93c5fd; stroke: #1e3a8a; stroke-width: 1.2; stroke-linejoin: miter"/>
   </g>
   <g id="patch_5">
    <path d="M 408.008104 127.26 
L 501.856831 127.26 
Q 510.261195 127.26 510.261195 119.43 
L 510.261195 58.095 
Q 510.261195 50.265 501.856831 50.265 
L 408.008104 50.265 
Q 399.60374 50.265 399.60374 58.095 
L 399.60374 119.43 
Q 399.60374 127.26 408.008104 127.26 
z
" clip-path="url(#pe21ac2a565)" style="fill: #60a5fa; stroke: #1e3a8a; stroke-width: 1.2; stroke-linejoin: miter"/>
   </g>
   <g id="patch_6">
    <path d="M 533.073039 127.26 
L 626.921766 127.26 
Q 635.32613 127.26 635.32613 119.43 
L 635.32613 58.095 
Q 635.32613 50.265 626.921766 50.265 
L 533.073039 50.265 
Q 524.668675 50.265 524.668675 58.095 
L 524.668675 119.43 
Q 524.668675 127.26 533.073039 127.26 
z
" clip-path="url(#pe21ac2a565)" style="fill: #3b82f6; stroke: #1e3a8a; stroke-width: 1.2; stroke-linejoin: miter"/>
   </g>
   <g id="patch_7">
    <path d="M 658.137974 127.26 
L 751.986701 127.26 
Q 760.391065 127.26 760.391065 119.43 
L 760.391065 58.095 
Q 760.391065 50.265 751.986701 50.265 
L 658.137974 50.265 
Q 649.73361 50.265 649.73361 58.095 
L 649.73361 119.43 
Q 649.73361 127.26 658.137974 127.26 
z
" clip-path="url(#pe21ac2a565)" style="fill: #fca5a5; stroke: #1e3a8a; stroke-width: 1.2; stroke-linejoin: miter"/>
   </g>
   <g id="patch_8">
    <path d="M 134.263043 88.7625 
Q 142.268746 88.7625 148.709201 88.7625 
" clip-path="url(#pe21ac2a565)" style="fill: none; stroke: #475569; stroke-width: 1.4; stroke-linecap: round"/>
    <path d="M 142.309201 85.5625 
L 148.709201 88.7625 
L 142.309201 91.9625 
z
" clip-path="url(#pe21ac2a565)" style="fill: #475569; stroke: #475569; stroke-width: 1.4; stroke-linecap: round"/>
   </g>
   <g id="patch_9">
    <path d="M 259.327978 88.7625 
Q 267.333681 88.7625 273.774136 88.7625 
" clip-path="url(#pe21ac2a565)" style="fill: none; stroke: #475569; stroke-width: 1.4; stroke-linecap: round"/>
    <path d="M 267.374136 85.5625 
L 273.774136 88.7625 
L 267.374136 91.9625 
z
" clip-path="url(#pe21ac2a565)" style="fill: #475569; stroke: #475569; stroke-width: 1.4; stroke-linecap: round"/>
   </g>
   <g id="patch_10">
    <path d="M 384.392913 88.7625 
Q 392.398616 88.7625 398.839071 88.7625 
" clip-path="url(#pe21ac2a565)" style="fill: none; stroke: #475569; stroke-width: 1.4; stroke-linecap: round"/>
    <path d="M 392.439071 85.5625 
L 398.839071 88.7625 
L 392.439071 91.9625 
z
" clip-path="url(#pe21ac2a565)" style="fill: #475569; stroke: #475569; stroke-width: 1.4; stroke-linecap: round"/>
   </g>
   <g id="patch_11">
    <path d="M 509.457848 88.7625 
Q 517.463551 88.7625 523.904006 88.7625 
" clip-path="url(#pe21ac2a565)" style="fill: none; stroke: #475569; stroke-width: 1.4; stroke-linecap: round"/>
    <path d="M 517.504006 85.5625 
L 523.904006 88.7625 
L 517.504006 91.9625 
z
" clip-path="url(#pe21ac2a565)" style="fill: #475569; stroke: #475569; stroke-width: 1.4; stroke-linecap: round"/>
   </g>
   <g id="patch_12">
    <path d="M 634.522783 88.7625 
Q 642.528486 88.7625 648.968941 88.7625 
" clip-path="url(#pe21ac2a565)" style="fill: none; stroke: #475569; stroke-width: 1.4; stroke-linecap: round"/>
    <path d="M 642.568941 85.5625 
L 648.968941 88.7625 
L 642.568941 91.9625 
z
" clip-path="url(#pe21ac2a565)" style="fill: #475569; stroke: #475569; stroke-width: 1.4; stroke-linecap: round"/>
   </g>
   <g id="text_1">
    <!-- Source -->
    <g style="fill: #0f172a" transform="translate(61.292076 86.027836) scale(0.095 -0.095)">
     <defs>
      <path id="DejaVuSans-Bold-53" d="M 3834 4519 
L 3834 3531 
Q 3450 3703 3084 3790 
Q 2719 3878 2394 3878 
Q 1963 3878 1756 3759 
Q 1550 3641 1550 3391 
Q 1550 3203 1689 3098 
Q 1828 2994 2194 2919 
L 2706 2816 
Q 3484 2659 3812 2340 
Q 4141 2022 4141 1434 
Q 4141 663 3683 286 
Q 3225 -91 2284 -91 
Q 1841 -91 1394 -6 
Q 947 78 500 244 
L 500 1259 
Q 947 1022 1364 901 
Q 1781 781 2169 781 
Q 2563 781 2772 912 
Q 2981 1044 2981 1288 
Q 2981 1506 2839 1625 
Q 2697 1744 2272 1838 
L 1806 1941 
Q 1106 2091 782 2419 
Q 459 2747 459 3303 
Q 459 4000 909 4375 
Q 1359 4750 2203 4750 
Q 2588 4750 2994 4692 
Q 3400 4634 3834 4519 
z
" transform="scale(0.015625)"/>
      <path id="DejaVuSans-Bold-6f" d="M 2203 2784 
Q 1831 2784 1636 2517 
Q 1441 2250 1441 1747 
Q 1441 1244 1636 976 
Q 1831 709 2203 709 
Q 2569 709 2762 976 
Q 2956 1244 2956 1747 
Q 2956 2250 2762 2517 
Q 2569 2784 2203 2784 
z
M 2203 3584 
Q 3106 3584 3614 3096 
Q 4122 2609 4122 1747 
Q 4122 884 3614 396 
Q 3106 -91 2203 -91 
Q 1297 -91 786 396 
Q 275 884 275 1747 
Q 275 2609 786 3096 
Q 1297 3584 2203 3584 
z
" transform="scale(0.015625)"/>
      <path id="DejaVuSans-Bold-75" d="M 500 1363 
L 500 3500 
L 1625 3500 
L 1625 3150 
Q 1625 2866 1622 2436 
Q 1619 2006 1619 1863 
Q 1619 1441 1641 1255 
Q 1663 1069 1716 984 
Q 1784 875 1895 815 
Q 2006 756 2150 756 
Q 2500 756 2700 1025 
Q 2900 1294 2900 1772 
L 2900 3500 
L 4019 3500 
L 4019 0 
L 2900 0 
L 2900 506 
Q 2647 200 2364 54 
Q 2081 -91 1741 -91 
Q 1134 -91 817 281 
Q 500 653 500 1363 
z
" transform="scale(0.015625)"/>
      <path id="DejaVuSans-Bold-72" d="M 3138 2547 
Q 2991 2616 2845 2648 
Q 2700 2681 2553 2681 
Q 2122 2681 1889 2404 
Q 1656 2128 1656 1613 
L 1656 0 
L 538 0 
L 538 3500 
L 1656 3500 
L 1656 2925 
Q 1872 3269 2151 3426 
Q 2431 3584 2822 3584 
Q 2878 3584 2943 3579 
Q 3009 3575 3134 3559 
L 3138 2547 
z
" transform="scale(0.015625)"/>
      <path id="DejaVuSans-Bold-63" d="M 3366 3391 
L 3366 2478 
Q 3138 2634 2908 2709 
Q 2678 2784 2431 2784 
Q 1963 2784 1702 2511 
Q 1441 2238 1441 1747 
Q 1441 1256 1702 982 
Q 1963 709 2431 709 
Q 2694 709 2930 787 
Q 3166 866 3366 1019 
L 3366 103 
Q 3103 6 2833 -42 
Q 2563 -91 2291 -91 
Q 1344 -91 809 395 
Q 275 881 275 1747 
Q 275 2613 809 3098 
Q 1344 3584 2291 3584 
Q 2566 3584 2833 3536 
Q 3100 3488 3366 3391 
z
" transform="scale(0.015625)"/>
      <path id="DejaVuSans-Bold-65" d="M 4031 1759 
L 4031 1441 
L 1416 1441 
Q 1456 1047 1700 850 
Q 1944 653 2381 653 
Q 2734 653 3104 758 
Q 3475 863 3866 1075 
L 3866 213 
Q 3469 63 3072 -14 
Q 2675 -91 2278 -91 
Q 1328 -91 801 392 
Q 275 875 275 1747 
Q 275 2603 792 3093 
Q 1309 3584 2216 3584 
Q 3041 3584 3536 3087 
Q 4031 2591 4031 1759 
z
M 2881 2131 
Q 2881 2450 2695 2645 
Q 2509 2841 2209 2841 
Q 1884 2841 1681 2658 
Q 1478 2475 1428 2131 
L 2881 2131 
z
" transform="scale(0.015625)"/>
     </defs>
     <use xlink:href="#DejaVuSans-Bold-53"/>
     <use xlink:href="#DejaVuSans-Bold-6f" x="72.021484"/>
     <use xlink:href="#DejaVuSans-Bold-75" x="140.722656"/>
     <use xlink:href="#DejaVuSans-Bold-72" x="211.914062"/>
     <use xlink:href="#DejaVuSans-Bold-63" x="261.230469"/>
     <use xlink:href="#DejaVuSans-Bold-65" x="320.507812"/>
    </g>
    <!-- .py / .pyi -->
    <g style="fill: #0f172a" transform="translate(56.465631 96.665758) scale(0.095 -0.095)">
     <defs>
      <path id="DejaVuSans-Bold-2e" d="M 653 1209 
L 1778 1209 
L 1778 0 
L 653 0 
L 653 1209 
z
" transform="scale(0.015625)"/>
      <path id="DejaVuSans-Bold-70" d="M 1656 506 
L 1656 -1331 
L 538 -1331 
L 538 3500 
L 1656 3500 
L 1656 2988 
Q 1888 3294 2169 3439 
Q 2450 3584 2816 3584 
Q 3463 3584 3878 3070 
Q 4294 2556 4294 1747 
Q 4294 938 3878 423 
Q 3463 -91 2816 -91 
Q 2450 -91 2169 54 
Q 1888 200 1656 506 
z
M 2400 2772 
Q 2041 2772 1848 2508 
Q 1656 2244 1656 1747 
Q 1656 1250 1848 986 
Q 2041 722 2400 722 
Q 2759 722 2948 984 
Q 3138 1247 3138 1747 
Q 3138 2247 2948 2509 
Q 2759 2772 2400 2772 
z
" transform="scale(0.015625)"/>
      <path id="DejaVuSans-Bold-79" d="M 78 3500 
L 1197 3500 
L 2138 1125 
L 2938 3500 
L 4056 3500 
L 2584 -331 
Q 2363 -916 2067 -1148 
Q 1772 -1381 1288 -1381 
L 641 -1381 
L 641 -647 
L 991 -647 
Q 1275 -647 1404 -556 
Q 1534 -466 1606 -231 
L 1638 -134 
L 78 3500 
z
" transform="scale(0.015625)"/>
      <path id="DejaVuSans-Bold-20" transform="scale(0.015625)"/>
      <path id="DejaVuSans-Bold-2f" d="M 1644 4666 
L 2338 4666 
L 691 -594 
L 0 -594 
L 1644 4666 
z
" transform="scale(0.015625)"/>
      <path id="DejaVuSans-Bold-69" d="M 538 3500 
L 1656 3500 
L 1656 0 
L 538 0 
L 538 3500 
z
M 538 4863 
L 1656 4863 
L 1656 3950 
L 538 3950 
L 538 4863 
z
" transform="scale(0.015625)"/>
     </defs>
     <use xlink:href="#DejaVuSans-Bold-2e"/>
     <use xlink:href="#DejaVuSans-Bold-70" x="37.988281"/>
     <use xlink:href="#DejaVuSans-Bold-79" x="109.570312"/>
     <use xlink:href="#DejaVuSans-Bold-20" x="174.755859"/>
     <use xlink:href="#DejaVuSans-Bold-2f" x="209.570312"/>
     <use xlink:href="#DejaVuSans-Bold-20" x="246.09375"/>
     <use xlink:href="#DejaVuSans-Bold-2e" x="280.908203"/>
     <use xlink:href="#DejaVuSans-Bold-70" x="318.896484"/>
     <use xlink:href="#DejaVuSans-Bold-79" x="390.478516"/>
     <use xlink:href="#DejaVuSans-Bold-69" x="455.664062"/>
    </g>
   </g>
   <g id="text_2">
    <!-- Parse -->
    <g style="fill: #0f172a" transform="translate(189.849004 86.064945) scale(0.095 -0.095)">
     <defs>
      <path id="DejaVuSans-Bold-50" d="M 588 4666 
L 2584 4666 
Q 3475 4666 3951 4270 
Q 4428 3875 4428 3144 
Q 4428 2409 3951 2014 
Q 3475 1619 2584 1619 
L 1791 1619 
L 1791 0 
L 588 0 
L 588 4666 
z
M 1791 3794 
L 1791 2491 
L 2456 2491 
Q 2806 2491 2997 2661 
Q 3188 2831 3188 3144 
Q 3188 3456 2997 3625 
Q 2806 3794 2456 3794 
L 1791 3794 
z
" transform="scale(0.015625)"/>
      <path id="DejaVuSans-Bold-61" d="M 2106 1575 
Q 1756 1575 1579 1456 
Q 1403 1338 1403 1106 
Q 1403 894 1545 773 
Q 1688 653 1941 653 
Q 2256 653 2472 879 
Q 2688 1106 2688 1447 
L 2688 1575 
L 2106 1575 
z
M 3816 1997 
L 3816 0 
L 2688 0 
L 2688 519 
Q 2463 200 2181 54 
Q 1900 -91 1497 -91 
Q 953 -91 614 226 
Q 275 544 275 1050 
Q 275 1666 698 1953 
Q 1122 2241 2028 2241 
L 2688 2241 
L 2688 2328 
Q 2688 2594 2478 2717 
Q 2269 2841 1825 2841 
Q 1466 2841 1156 2769 
Q 847 2697 581 2553 
L 581 3406 
Q 941 3494 1303 3539 
Q 1666 3584 2028 3584 
Q 2975 3584 3395 3211 
Q 3816 2838 3816 1997 
z
" transform="scale(0.015625)"/>
      <path id="DejaVuSans-Bold-73" d="M 3272 3391 
L 3272 2541 
Q 2913 2691 2578 2766 
Q 2244 2841 1947 2841 
Q 1628 2841 1473 2761 
Q 1319 2681 1319 2516 
Q 1319 2381 1436 2309 
Q 1553 2238 1856 2203 
L 2053 2175 
Q 2913 2066 3209 1816 
Q 3506 1566 3506 1031 
Q 3506 472 3093 190 
Q 2681 -91 1863 -91 
Q 1516 -91 1145 -36 
Q 775 19 384 128 
L 384 978 
Q 719 816 1070 734 
Q 1422 653 1784 653 
Q 2113 653 2278 743 
Q 2444 834 2444 1013 
Q 2444 1163 2330 1236 
Q 2216 1309 1875 1350 
L 1678 1375 
Q 931 1469 631 1722 
Q 331 1975 331 2491 
Q 331 3047 712 3315 
Q 1094 3584 1881 3584 
Q 2191 3584 2531 3537 
Q 2872 3491 3272 3391 
z
" transform="scale(0.015625)"/>
     </defs>
     <use xlink:href="#DejaVuSans-Bold-50"/>
     <use xlink:href="#DejaVuSans-Bold-61" x="70.666016"/>
     <use xlink:href="#DejaVuSans-Bold-72" x="138.146484"/>
     <use xlink:href="#DejaVuSans-Bold-73" x="187.462891"/>
     <use xlink:href="#DejaVuSans-Bold-65" x="246.984375"/>
    </g>
    <!-- -&gt; AST -->
    <g style="fill: #0f172a" transform="translate(186.860215 96.702867) scale(0.095 -0.095)">
     <defs>
      <path id="DejaVuSans-Bold-2d" d="M 347 2297 
L 2309 2297 
L 2309 1388 
L 347 1388 
L 347 2297 
z
" transform="scale(0.015625)"/>
      <path id="DejaVuSans-Bold-3e" d="M 678 3041 
L 678 3822 
L 4684 2375 
L 4684 1638 
L 678 191 
L 678 972 
L 3694 2003 
L 678 3041 
z
" transform="scale(0.015625)"/>
      <path id="DejaVuSans-Bold-41" d="M 3419 850 
L 1538 850 
L 1241 0 
L 31 0 
L 1759 4666 
L 3194 4666 
L 4922 0 
L 3713 0 
L 3419 850 
z
M 1838 1716 
L 3116 1716 
L 2478 3572 
L 1838 1716 
z
" transform="scale(0.015625)"/>
      <path id="DejaVuSans-Bold-54" d="M 31 4666 
L 4331 4666 
L 4331 3756 
L 2784 3756 
L 2784 0 
L 1581 0 
L 1581 3756 
L 31 3756 
L 31 4666 
z
" transform="scale(0.015625)"/>
     </defs>
     <use xlink:href="#DejaVuSans-Bold-2d"/>
     <use xlink:href="#DejaVuSans-Bold-3e" x="41.503906"/>
     <use xlink:href="#DejaVuSans-Bold-20" x="125.292969"/>
     <use xlink:href="#DejaVuSans-Bold-41" x="160.107422"/>
     <use xlink:href="#DejaVuSans-Bold-53" x="237.5"/>
     <use xlink:href="#DejaVuSans-Bold-54" x="309.521484"/>
    </g>
   </g>
   <g id="text_3">
    <!-- Semantic -->
    <g style="fill: #0f172a" transform="translate(304.973822 86.027836) scale(0.095 -0.095)">
     <defs>
      <path id="DejaVuSans-Bold-6d" d="M 3781 2919 
Q 3994 3244 4286 3414 
Q 4578 3584 4928 3584 
Q 5531 3584 5847 3212 
Q 6163 2841 6163 2131 
L 6163 0 
L 5038 0 
L 5038 1825 
Q 5041 1866 5042 1909 
Q 5044 1953 5044 2034 
Q 5044 2406 4934 2573 
Q 4825 2741 4581 2741 
Q 4263 2741 4089 2478 
Q 3916 2216 3909 1719 
L 3909 0 
L 2784 0 
L 2784 1825 
Q 2784 2406 2684 2573 
Q 2584 2741 2328 2741 
Q 2006 2741 1831 2477 
Q 1656 2213 1656 1722 
L 1656 0 
L 531 0 
L 531 3500 
L 1656 3500 
L 1656 2988 
Q 1863 3284 2130 3434 
Q 2397 3584 2719 3584 
Q 3081 3584 3359 3409 
Q 3638 3234 3781 2919 
z
" transform="scale(0.015625)"/>
      <path id="DejaVuSans-Bold-6e" d="M 4056 2131 
L 4056 0 
L 2931 0 
L 2931 347 
L 2931 1631 
Q 2931 2084 2911 2256 
Q 2891 2428 2841 2509 
Q 2775 2619 2662 2680 
Q 2550 2741 2406 2741 
Q 2056 2741 1856 2470 
Q 1656 2200 1656 1722 
L 1656 0 
L 538 0 
L 538 3500 
L 1656 3500 
L 1656 2988 
Q 1909 3294 2193 3439 
Q 2478 3584 2822 3584 
Q 3428 3584 3742 3212 
Q 4056 2841 4056 2131 
z
" transform="scale(0.015625)"/>
      <path id="DejaVuSans-Bold-74" d="M 1759 4494 
L 1759 3500 
L 2913 3500 
L 2913 2700 
L 1759 2700 
L 1759 1216 
Q 1759 972 1856 886 
Q 1953 800 2241 800 
L 2816 800 
L 2816 0 
L 1856 0 
Q 1194 0 917 276 
Q 641 553 641 1216 
L 641 2700 
L 84 2700 
L 84 3500 
L 641 3500 
L 641 4494 
L 1759 4494 
z
" transform="scale(0.015625)"/>
     </defs>
     <use xlink:href="#DejaVuSans-Bold-53"/>
     <use xlink:href="#DejaVuSans-Bold-65" x="72.021484"/>
     <use xlink:href="#DejaVuSans-Bold-6d" x="139.84375"/>
     <use xlink:href="#DejaVuSans-Bold-61" x="244.042969"/>
     <use xlink:href="#DejaVuSans-Bold-6e" x="311.523438"/>
     <use xlink:href="#DejaVuSans-Bold-74" x="382.714844"/>
     <use xlink:href="#DejaVuSans-Bold-69" x="430.517578"/>
     <use xlink:href="#DejaVuSans-Bold-63" x="464.794922"/>
    </g>
    <!-- Analysis -->
    <g style="fill: #0f172a" transform="translate(307.597454 96.665758) scale(0.095 -0.095)">
     <defs>
      <path id="DejaVuSans-Bold-6c" d="M 538 4863 
L 1656 4863 
L 1656 0 
L 538 0 
L 538 4863 
z
" transform="scale(0.015625)"/>
     </defs>
     <use xlink:href="#DejaVuSans-Bold-41"/>
     <use xlink:href="#DejaVuSans-Bold-6e" x="77.392578"/>
     <use xlink:href="#DejaVuSans-Bold-61" x="148.583984"/>
     <use xlink:href="#DejaVuSans-Bold-6c" x="216.064453"/>
     <use xlink:href="#DejaVuSans-Bold-79" x="250.341797"/>
     <use xlink:href="#DejaVuSans-Bold-73" x="315.527344"/>
     <use xlink:href="#DejaVuSans-Bold-69" x="375.048828"/>
     <use xlink:href="#DejaVuSans-Bold-73" x="409.326172"/>
    </g>
   </g>
   <g id="text_4">
    <!-- Type -->
    <g style="fill: #0f172a" transform="translate(442.537936 85.990727) scale(0.095 -0.095)">
     <use xlink:href="#DejaVuSans-Bold-54"/>
     <use xlink:href="#DejaVuSans-Bold-79" x="56.337891"/>
     <use xlink:href="#DejaVuSans-Bold-70" x="121.523438"/>
     <use xlink:href="#DejaVuSans-Bold-65" x="193.105469"/>
    </g>
    <!-- Inference -->
    <g style="fill: #0f172a" transform="translate(429.512546 96.702867) scale(0.095 -0.095)">
     <defs>
      <path id="DejaVuSans-Bold-49" d="M 588 4666 
L 1791 4666 
L 1791 0 
L 588 0 
L 588 4666 
z
" transform="scale(0.015625)"/>
      <path id="DejaVuSans-Bold-66" d="M 2841 4863 
L 2841 4128 
L 2222 4128 
Q 1984 4128 1890 4042 
Q 1797 3956 1797 3744 
L 1797 3500 
L 2753 3500 
L 2753 2700 
L 1797 2700 
L 1797 0 
L 678 0 
L 678 2700 
L 122 2700 
L 122 3500 
L 678 3500 
L 678 3744 
Q 678 4316 997 4589 
Q 1316 4863 1984 4863 
L 2841 4863 
z
" transform="scale(0.015625)"/>
     </defs>
     <use xlink:href="#DejaVuSans-Bold-49"/>
     <use xlink:href="#DejaVuSans-Bold-6e" x="37.207031"/>
     <use xlink:href="#DejaVuSans-Bold-66" x="108.398438"/>
     <use xlink:href="#DejaVuSans-Bold-65" x="151.904297"/>
     <use xlink:href="#DejaVuSans-Bold-72" x="219.726562"/>
     <use xlink:href="#DejaVuSans-Bold-65" x="269.042969"/>
     <use xlink:href="#DejaVuSans-Bold-6e" x="336.865234"/>
     <use xlink:href="#DejaVuSans-Bold-63" x="408.056641"/>
     <use xlink:href="#DejaVuSans-Bold-65" x="467.333984"/>
    </g>
   </g>
   <g id="text_5">
    <!-- Type -->
    <g style="fill: #0f172a" transform="translate(567.602871 85.953617) scale(0.095 -0.095)">
     <use xlink:href="#DejaVuSans-Bold-54"/>
     <use xlink:href="#DejaVuSans-Bold-79" x="56.337891"/>
     <use xlink:href="#DejaVuSans-Bold-70" x="121.523438"/>
     <use xlink:href="#DejaVuSans-Bold-65" x="193.105469"/>
    </g>
    <!-- Checking -->
    <g style="fill: #0f172a" transform="translate(555.52377 96.665758) scale(0.095 -0.095)">
     <defs>
      <path id="DejaVuSans-Bold-43" d="M 4288 256 
Q 3956 84 3597 -3 
Q 3238 -91 2847 -91 
Q 1681 -91 1000 561 
Q 319 1213 319 2328 
Q 319 3447 1000 4098 
Q 1681 4750 2847 4750 
Q 3238 4750 3597 4662 
Q 3956 4575 4288 4403 
L 4288 3438 
Q 3953 3666 3628 3772 
Q 3303 3878 2944 3878 
Q 2300 3878 1931 3465 
Q 1563 3053 1563 2328 
Q 1563 1606 1931 1193 
Q 2300 781 2944 781 
Q 3303 781 3628 887 
Q 3953 994 4288 1222 
L 4288 256 
z
" transform="scale(0.015625)"/>
      <path id="DejaVuSans-Bold-68" d="M 4056 2131 
L 4056 0 
L 2931 0 
L 2931 347 
L 2931 1625 
Q 2931 2084 2911 2256 
Q 2891 2428 2841 2509 
Q 2775 2619 2662 2680 
Q 2550 2741 2406 2741 
Q 2056 2741 1856 2470 
Q 1656 2200 1656 1722 
L 1656 0 
L 538 0 
L 538 4863 
L 1656 4863 
L 1656 2988 
Q 1909 3294 2193 3439 
Q 2478 3584 2822 3584 
Q 3428 3584 3742 3212 
Q 4056 2841 4056 2131 
z
" transform="scale(0.015625)"/>
      <path id="DejaVuSans-Bold-6b" d="M 538 4863 
L 1656 4863 
L 1656 2216 
L 2944 3500 
L 4244 3500 
L 2534 1894 
L 4378 0 
L 3022 0 
L 1656 1459 
L 1656 0 
L 538 0 
L 538 4863 
z
" transform="scale(0.015625)"/>
      <path id="DejaVuSans-Bold-67" d="M 2919 594 
Q 2688 288 2409 144 
Q 2131 0 1766 0 
Q 1125 0 706 504 
Q 288 1009 288 1791 
Q 288 2575 706 3076 
Q 1125 3578 1766 3578 
Q 2131 3578 2409 3434 
Q 2688 3291 2919 2981 
L 2919 3500 
L 4044 3500 
L 4044 353 
Q 4044 -491 3511 -936 
Q 2978 -1381 1966 -1381 
Q 1638 -1381 1331 -1331 
Q 1025 -1281 716 -1178 
L 716 -306 
Q 1009 -475 1290 -558 
Q 1572 -641 1856 -641 
Q 2406 -641 2662 -400 
Q 2919 -159 2919 353 
L 2919 594 
z
M 2181 2772 
Q 1834 2772 1640 2515 
Q 1447 2259 1447 1791 
Q 1447 1309 1634 1061 
Q 1822 813 2181 813 
Q 2531 813 2725 1069 
Q 2919 1325 2919 1791 
Q 2919 2259 2725 2515 
Q 2531 2772 2181 2772 
z
" transform="scale(0.015625)"/>
     </defs>
     <use xlink:href="#DejaVuSans-Bold-43"/>
     <use xlink:href="#DejaVuSans-Bold-68" x="73.388672"/>
     <use xlink:href="#DejaVuSans-Bold-65" x="144.580078"/>
     <use xlink:href="#DejaVuSans-Bold-63" x="212.402344"/>
     <use xlink:href="#DejaVuSans-Bold-6b" x="271.679688"/>
     <use xlink:href="#DejaVuSans-Bold-69" x="338.183594"/>
     <use xlink:href="#DejaVuSans-Bold-6e" x="372.460938"/>
     <use xlink:href="#DejaVuSans-Bold-67" x="443.652344"/>
    </g>
   </g>
   <g id="text_6">
    <!-- Errors / -->
    <g style="fill: #0f172a" transform="translate(685.311244 86.064945) scale(0.095 -0.095)">
     <defs>
      <path id="DejaVuSans-Bold-45" d="M 588 4666 
L 3834 4666 
L 3834 3756 
L 1791 3756 
L 1791 2888 
L 3713 2888 
L 3713 1978 
L 1791 1978 
L 1791 909 
L 3903 909 
L 3903 0 
L 588 0 
L 588 4666 
z
" transform="scale(0.015625)"/>
     </defs>
     <use xlink:href="#DejaVuSans-Bold-45"/>
     <use xlink:href="#DejaVuSans-Bold-72" x="68.310547"/>
     <use xlink:href="#DejaVuSans-Bold-72" x="117.626953"/>
     <use xlink:href="#DejaVuSans-Bold-6f" x="166.943359"/>
     <use xlink:href="#DejaVuSans-Bold-72" x="235.644531"/>
     <use xlink:href="#DejaVuSans-Bold-73" x="284.960938"/>
     <use xlink:href="#DejaVuSans-Bold-20" x="344.482422"/>
     <use xlink:href="#DejaVuSans-Bold-2f" x="379.296875"/>
    </g>
    <!-- Exit code -->
    <g style="fill: #0f172a" transform="translate(680.500385 96.702867) scale(0.095 -0.095)">
     <defs>
      <path id="DejaVuSans-Bold-78" d="M 1422 1791 
L 159 3500 
L 1344 3500 
L 2059 2463 
L 2784 3500 
L 3969 3500 
L 2706 1797 
L 4031 0 
L 2847 0 
L 2059 1106 
L 1281 0 
L 97 0 
L 1422 1791 
z
" transform="scale(0.015625)"/>
      <path id="DejaVuSans-Bold-64" d="M 2919 2988 
L 2919 4863 
L 4044 4863 
L 4044 0 
L 2919 0 
L 2919 506 
Q 2688 197 2409 53 
Q 2131 -91 1766 -91 
Q 1119 -91 703 423 
Q 288 938 288 1747 
Q 288 2556 703 3070 
Q 1119 3584 1766 3584 
Q 2128 3584 2408 3439 
Q 2688 3294 2919 2988 
z
M 2181 722 
Q 2541 722 2730 984 
Q 2919 1247 2919 1747 
Q 2919 2247 2730 2509 
Q 2541 2772 2181 2772 
Q 1825 2772 1636 2509 
Q 1447 2247 1447 1747 
Q 1447 1247 1636 984 
Q 1825 722 2181 722 
z
" transform="scale(0.015625)"/>
     </defs>
     <use xlink:href="#DejaVuSans-Bold-45"/>
     <use xlink:href="#DejaVuSans-Bold-78" x="68.310547"/>
     <use xlink:href="#DejaVuSans-Bold-69" x="132.8125"/>
     <use xlink:href="#DejaVuSans-Bold-74" x="167.089844"/>
     <use xlink:href="#DejaVuSans-Bold-20" x="214.892578"/>
     <use xlink:href="#DejaVuSans-Bold-63" x="249.707031"/>
     <use xlink:href="#DejaVuSans-Bold-6f" x="308.984375"/>
     <use xlink:href="#DejaVuSans-Bold-64" x="377.685547"/>
     <use xlink:href="#DejaVuSans-Bold-65" x="449.267578"/>
    </g>
   </g>
   <g id="patch_13">
    <path d="M 375.391169 173.905334 
Q 375.391169 150.277264 375.391169 126.649194 
" style="fill: none; stroke-dasharray: 3.7,1.6; stroke-dashoffset: 0; stroke: #94a3b8; stroke-linecap: round"/>
   </g>
   <g id="text_7">
    <!-- .mypy_cache -->
    <g style="fill: #64748b" transform="translate(349.103044 183.98175) scale(0.08 -0.08)">
     <defs>
      <path id="DejaVuSans-2e" d="M 684 794 
L 1344 794 
L 1344 0 
L 684 0 
L 684 794 
z
" transform="scale(0.015625)"/>
      <path id="DejaVuSans-6d" d="M 3328 2828 
Q 3544 3216 3844 3400 
Q 4144 3584 4550 3584 
Q 5097 3584 5394 3201 
Q 5691 2819 5691 2113 
L 5691 0 
L 5113 0 
L 5113 2094 
Q 5113 2597 4934 2840 
Q 4756 3084 4391 3084 
Q 3944 3084 3684 2787 
Q 3425 2491 3425 1978 
L 3425 0 
L 2847 0 
L 2847 2094 
Q 2847 2600 2669 2842 
Q 2491 3084 2119 3084 
Q 1678 3084 1418 2786 
Q 1159 2488 1159 1978 
L 1159 0 
L 581 0 
L 581 3500 
L 1159 3500 
L 1159 2956 
Q 1356 3278 1631 3431 
Q 1906 3584 2284 3584 
Q 2666 3584 2933 3390 
Q 3200 3197 3328 2828 
z
" transform="scale(0.015625)"/>
      <path id="DejaVuSans-79" d="M 2059 -325 
Q 1816 -950 1584 -1140 
Q 1353 -1331 966 -1331 
L 506 -1331 
L 506 -850 
L 844 -850 
Q 1081 -850 1212 -737 
Q 1344 -625 1503 -206 
L 1606 56 
L 191 3500 
L 800 3500 
L 1894 763 
L 2988 3500 
L 3597 3500 
L 2059 -325 
z
" transform="scale(0.015625)"/>
      <path id="DejaVuSans-70" d="M 1159 525 
L 1159 -1331 
L 581 -1331 
L 581 3500 
L 1159 3500 
L 1159 2969 
Q 1341 3281 1617 3432 
Q 1894 3584 2278 3584 
Q 2916 3584 3314 3078 
Q 3713 2572 3713 1747 
Q 3713 922 3314 415 
Q 2916 -91 2278 -91 
Q 1894 -91 1617 61 
Q 1341 213 1159 525 
z
M 3116 1747 
Q 3116 2381 2855 2742 
Q 2594 3103 2138 3103 
Q 1681 3103 1420 2742 
Q 1159 2381 1159 1747 
Q 1159 1113 1420 752 
Q 1681 391 2138 391 
Q 2594 391 2855 752 
Q 3116 1113 3116 1747 
z
" transform="scale(0.015625)"/>
      <path id="DejaVuSans-5f" d="M 3263 -1063 
L 3263 -1509 
L -63 -1509 
L -63 -1063 
L 3263 -1063 
z
" transform="scale(0.015625)"/>
      <path id="DejaVuSans-63" d="M 3122 3366 
L 3122 2828 
Q 2878 2963 2633 3030 
Q 2388 3097 2138 3097 
Q 1578 3097 1268 2742 
Q 959 2388 959 1747 
Q 959 1106 1268 751 
Q 1578 397 2138 397 
Q 2388 397 2633 464 
Q 2878 531 3122 666 
L 3122 134 
Q 2881 22 2623 -34 
Q 2366 -91 2075 -91 
Q 1284 -91 818 406 
Q 353 903 353 1747 
Q 353 2603 823 3093 
Q 1294 3584 2113 3584 
Q 2378 3584 2631 3529 
Q 2884 3475 3122 3366 
z
" transform="scale(0.015625)"/>
      <path id="DejaVuSans-61" d="M 2194 1759 
Q 1497 1759 1228 1600 
Q 959 1441 959 1056 
Q 959 750 1161 570 
Q 1363 391 1709 391 
Q 2188 391 2477 730 
Q 2766 1069 2766 1631 
L 2766 1759 
L 2194 1759 
z
M 3341 1997 
L 3341 0 
L 2766 0 
L 2766 531 
Q 2569 213 2275 61 
Q 1981 -91 1556 -91 
Q 1019 -91 701 211 
Q 384 513 384 1019 
Q 384 1609 779 1909 
Q 1175 2209 1959 2209 
L 2766 2209 
L 2766 2266 
Q 2766 2663 2505 2880 
Q 2244 3097 1772 3097 
Q 1472 3097 1187 3025 
Q 903 2953 641 2809 
L 641 3341 
Q 956 3463 1253 3523 
Q 1550 3584 1831 3584 
Q 2591 3584 2966 3190 
Q 3341 2797 3341 1997 
z
" transform="scale(0.015625)"/>
      <path id="DejaVuSans-68" d="M 3513 2113 
L 3513 0 
L 2938 0 
L 2938 2094 
Q 2938 2591 2744 2837 
Q 2550 3084 2163 3084 
Q 1697 3084 1428 2787 
Q 1159 2491 1159 1978 
L 1159 0 
L 581 0 
L 581 4863 
L 1159 4863 
L 1159 2956 
Q 1366 3272 1645 3428 
Q 1925 3584 2291 3584 
Q 2894 3584 3203 3211 
Q 3513 2838 3513 2113 
z
" transform="scale(0.015625)"/>
      <path id="DejaVuSans-65" d="M 3597 1894 
L 3597 1613 
L 953 1613 
Q 991 1019 1311 708 
Q 1631 397 2203 397 
Q 2534 397 2845 478 
Q 3156 559 3463 722 
L 3463 178 
Q 3153 47 2828 -22 
Q 2503 -91 2169 -91 
Q 1331 -91 842 396 
Q 353 884 353 1716 
Q 353 2575 817 3079 
Q 1281 3584 2069 3584 
Q 2775 3584 3186 3129 
Q 3597 2675 3597 1894 
z
M 3022 2063 
Q 3016 2534 2758 2815 
Q 2500 3097 2075 3097 
Q 1594 3097 1305 2825 
Q 1016 2553 972 2059 
L 3022 2063 
z
" transform="scale(0.015625)"/>
     </defs>
     <use xlink:href="#DejaVuSans-2e"/>
     <use xlink:href="#DejaVuSans-6d" x="31.787109"/>
     <use xlink:href="#DejaVuSans-79" x="129.199219"/>
     <use xlink:href="#DejaVuSans-70" x="188.378906"/>
     <use xlink:href="#DejaVuSans-79" x="251.855469"/>
     <use xlink:href="#DejaVuSans-5f" x="311.035156"/>
     <use xlink:href="#DejaVuSans-63" x="361.035156"/>
     <use xlink:href="#DejaVuSans-61" x="416.015625"/>
     <use xlink:href="#DejaVuSans-63" x="477.294922"/>
     <use xlink:href="#DejaVuSans-68" x="532.275391"/>
     <use xlink:href="#DejaVuSans-65" x="595.654297"/>
    </g>
    <!-- (incremental) -->
    <g style="fill: #64748b" transform="translate(348.385544 193.1625) scale(0.08 -0.08)">
     <defs>
      <path id="DejaVuSans-28" d="M 1984 4856 
Q 1566 4138 1362 3434 
Q 1159 2731 1159 2009 
Q 1159 1288 1364 580 
Q 1569 -128 1984 -844 
L 1484 -844 
Q 1016 -109 783 600 
Q 550 1309 550 2009 
Q 550 2706 781 3412 
Q 1013 4119 1484 4856 
L 1984 4856 
z
" transform="scale(0.015625)"/>
      <path id="DejaVuSans-69" d="M 603 3500 
L 1178 3500 
L 1178 0 
L 603 0 
L 603 3500 
z
M 603 4863 
L 1178 4863 
L 1178 4134 
L 603 4134 
L 603 4863 
z
" transform="scale(0.015625)"/>
      <path id="DejaVuSans-6e" d="M 3513 2113 
L 3513 0 
L 2938 0 
L 2938 2094 
Q 2938 2591 2744 2837 
Q 2550 3084 2163 3084 
Q 1697 3084 1428 2787 
Q 1159 2491 1159 1978 
L 1159 0 
L 581 0 
L 581 3500 
L 1159 3500 
L 1159 2956 
Q 1366 3272 1645 3428 
Q 1925 3584 2291 3584 
Q 2894 3584 3203 3211 
Q 3513 2838 3513 2113 
z
" transform="scale(0.015625)"/>
      <path id="DejaVuSans-72" d="M 2631 2963 
Q 2534 3019 2420 3045 
Q 2306 3072 2169 3072 
Q 1681 3072 1420 2755 
Q 1159 2438 1159 1844 
L 1159 0 
L 581 0 
L 581 3500 
L 1159 3500 
L 1159 2956 
Q 1341 3275 1631 3429 
Q 1922 3584 2338 3584 
Q 2397 3584 2469 3576 
Q 2541 3569 2628 3553 
L 2631 2963 
z
" transform="scale(0.015625)"/>
      <path id="DejaVuSans-74" d="M 1172 4494 
L 1172 3500 
L 2356 3500 
L 2356 3053 
L 1172 3053 
L 1172 1153 
Q 1172 725 1289 603 
Q 1406 481 1766 481 
L 2356 481 
L 2356 0 
L 1766 0 
Q 1100 0 847 248 
Q 594 497 594 1153 
L 594 3053 
L 172 3053 
L 172 3500 
L 594 3500 
L 594 4494 
L 1172 4494 
z
" transform="scale(0.015625)"/>
      <path id="DejaVuSans-6c" d="M 603 4863 
L 1178 4863 
L 1178 0 
L 603 0 
L 603 4863 
z
" transform="scale(0.015625)"/>
      <path id="DejaVuSans-29" d="M 513 4856 
L 1013 4856 
Q 1481 4119 1714 3412 
Q 1947 2706 1947 2009 
Q 1947 1309 1714 600 
Q 1481 -109 1013 -844 
L 513 -844 
Q 928 -128 1133 580 
Q 1338 1288 1338 2009 
Q 1338 2731 1133 3434 
Q 928 4138 513 4856 
z
" transform="scale(0.015625)"/>
     </defs>
     <use xlink:href="#DejaVuSans-28"/>
     <use xlink:href="#DejaVuSans-69" x="39.013672"/>
     <use xlink:href="#DejaVuSans-6e" x="66.796875"/>
     <use xlink:href="#DejaVuSans-63" x="130.175781"/>
     <use xlink:href="#DejaVuSans-72" x="185.15625"/>
     <use xlink:href="#DejaVuSans-65" x="224.019531"/>
     <use xlink:href="#DejaVuSans-6d" x="285.542969"/>
     <use xlink:href="#DejaVuSans-65" x="382.955078"/>
     <use xlink:href="#DejaVuSans-6e" x="444.478516"/>
     <use xlink:href="#DejaVuSans-74" x="507.857422"/>
     <use xlink:href="#DejaVuSans-61" x="547.066406"/>
     <use xlink:href="#DejaVuSans-6c" x="608.345703"/>
     <use xlink:href="#DejaVuSans-29" x="636.128906"/>
    </g>
   </g>
   <g id="text_8">
    <!-- mypy static analysis pipeline (ahead-of-execution, no runtime effect) -->
    <g style="fill: #1e293b" transform="translate(186.904336 23.5125) scale(0.105 -0.105)">
     <defs>
      <path id="DejaVuSans-Bold-28" d="M 2413 -844 
L 1484 -844 
Q 1006 -72 778 623 
Q 550 1319 550 2003 
Q 550 2688 779 3389 
Q 1009 4091 1484 4856 
L 2413 4856 
Q 2013 4116 1813 3408 
Q 1613 2700 1613 2009 
Q 1613 1319 1811 609 
Q 2009 -100 2413 -844 
z
" transform="scale(0.015625)"/>
      <path id="DejaVuSans-Bold-2c" d="M 653 1209 
L 1778 1209 
L 1778 256 
L 1006 -909 
L 341 -909 
L 653 256 
L 653 1209 
z
" transform="scale(0.015625)"/>
      <path id="DejaVuSans-Bold-29" d="M 513 -844 
Q 913 -100 1113 609 
Q 1313 1319 1313 2009 
Q 1313 2700 1113 3408 
Q 913 4116 513 4856 
L 1441 4856 
Q 1916 4091 2145 3389 
Q 2375 2688 2375 2003 
Q 2375 1319 2147 623 
Q 1919 -72 1441 -844 
L 513 -844 
z
" transform="scale(0.015625)"/>
     </defs>
     <use xlink:href="#DejaVuSans-Bold-6d"/>
     <use xlink:href="#DejaVuSans-Bold-79" x="104.199219"/>
     <use xlink:href="#DejaVuSans-Bold-70" x="169.384766"/>
     <use xlink:href="#DejaVuSans-Bold-79" x="240.966797"/>
     <use xlink:href="#DejaVuSans-Bold-20" x="306.152344"/>
     <use xlink:href="#DejaVuSans-Bold-73" x="340.966797"/>
     <use xlink:href="#DejaVuSans-Bold-74" x="400.488281"/>
     <use xlink:href="#DejaVuSans-Bold-61" x="448.291016"/>
     <use xlink:href="#DejaVuSans-Bold-74" x="515.771484"/>
     <use xlink:href="#DejaVuSans-Bold-69" x="563.574219"/>
     <use xlink:href="#DejaVuSans-Bold-63" x="597.851562"/>
     <use xlink:href="#DejaVuSans-Bold-20" x="657.128906"/>
     <use xlink:href="#DejaVuSans-Bold-61" x="691.943359"/>
     <use xlink:href="#DejaVuSans-Bold-6e" x="759.423828"/>
     <use xlink:href="#DejaVuSans-Bold-61" x="830.615234"/>
     <use xlink:href="#DejaVuSans-Bold-6c" x="898.095703"/>
     <use xlink:href="#DejaVuSans-Bold-79" x="932.373047"/>
     <use xlink:href="#DejaVuSans-Bold-73" x="997.558594"/>
     <use xlink:href="#DejaVuSans-Bold-69" x="1057.080078"/>
     <use xlink:href="#DejaVuSans-Bold-73" x="1091.357422"/>
     <use xlink:href="#DejaVuSans-Bold-20" x="1150.878906"/>
     <use xlink:href="#DejaVuSans-Bold-70" x="1185.693359"/>
     <use xlink:href="#DejaVuSans-Bold-69" x="1257.275391"/>
     <use xlink:href="#DejaVuSans-Bold-70" x="1291.552734"/>
     <use xlink:href="#DejaVuSans-Bold-65" x="1363.134766"/>
     <use xlink:href="#DejaVuSans-Bold-6c" x="1430.957031"/>
     <use xlink:href="#DejaVuSans-Bold-69" x="1465.234375"/>
     <use xlink:href="#DejaVuSans-Bold-6e" x="1499.511719"/>
     <use xlink:href="#DejaVuSans-Bold-65" x="1570.703125"/>
     <use xlink:href="#DejaVuSans-Bold-20" x="1638.525391"/>
     <use xlink:href="#DejaVuSans-Bold-28" x="1673.339844"/>
     <use xlink:href="#DejaVuSans-Bold-61" x="1719.042969"/>
     <use xlink:href="#DejaVuSans-Bold-68" x="1786.523438"/>
     <use xlink:href="#DejaVuSans-Bold-65" x="1857.714844"/>
     <use xlink:href="#DejaVuSans-Bold-61" x="1925.537109"/>
     <use xlink:href="#DejaVuSans-Bold-64" x="1993.017578"/>
     <use xlink:href="#DejaVuSans-Bold-2d" x="2064.599609"/>
     <use xlink:href="#DejaVuSans-Bold-6f" x="2106.103516"/>
     <use xlink:href="#DejaVuSans-Bold-66" x="2174.804688"/>
     <use xlink:href="#DejaVuSans-Bold-2d" x="2216.560547"/>
     <use xlink:href="#DejaVuSans-Bold-65" x="2258.064453"/>
     <use xlink:href="#DejaVuSans-Bold-78" x="2325.886719"/>
     <use xlink:href="#DejaVuSans-Bold-65" x="2390.388672"/>
     <use xlink:href="#DejaVuSans-Bold-63" x="2458.210938"/>
     <use xlink:href="#DejaVuSans-Bold-75" x="2517.488281"/>
     <use xlink:href="#DejaVuSans-Bold-74" x="2588.679688"/>
     <use xlink:href="#DejaVuSans-Bold-69" x="2636.482422"/>
     <use xlink:href="#DejaVuSans-Bold-6f" x="2670.759766"/>
     <use xlink:href="#DejaVuSans-Bold-6e" x="2739.460938"/>
     <use xlink:href="#DejaVuSans-Bold-2c" x="2810.652344"/>
     <use xlink:href="#DejaVuSans-Bold-20" x="2848.640625"/>
     <use xlink:href="#DejaVuSans-Bold-6e" x="2883.455078"/>
     <use xlink:href="#DejaVuSans-Bold-6f" x="2954.646484"/>
     <use xlink:href="#DejaVuSans-Bold-20" x="3023.347656"/>
     <use xlink:href="#DejaVuSans-Bold-72" x="3058.162109"/>
     <use xlink:href="#DejaVuSans-Bold-75" x="3107.478516"/>
     <use xlink:href="#DejaVuSans-Bold-6e" x="3178.669922"/>
     <use xlink:href="#DejaVuSans-Bold-74" x="3249.861328"/>
     <use xlink:href="#DejaVuSans-Bold-69" x="3297.664062"/>
     <use xlink:href="#DejaVuSans-Bold-6d" x="3331.941406"/>
     <use xlink:href="#DejaVuSans-Bold-65" x="3436.140625"/>
     <use xlink:href="#DejaVuSans-Bold-20" x="3503.962891"/>
     <use xlink:href="#DejaVuSans-Bold-65" x="3538.777344"/>
     <use xlink:href="#DejaVuSans-Bold-66" x="3606.599609"/>
     <use xlink:href="#DejaVuSans-Bold-66" x="3650.105469"/>
     <use xlink:href="#DejaVuSans-Bold-65" x="3693.611328"/>
     <use xlink:href="#DejaVuSans-Bold-63" x="3761.433594"/>
     <use xlink:href="#DejaVuSans-Bold-74" x="3820.710938"/>
     <use xlink:href="#DejaVuSans-Bold-29" x="3868.513672"/>
    </g>
   </g>
  </g>
 </g>
 <defs>
  <clipPath id="pe21ac2a565">
   <rect x="7.2" y="7.2" width="770.4" height="208.8"/>
  </clipPath>
 </defs>
</svg>
