<?xml version="1.0" encoding="utf-8" standalone="no"?>
<!DOCTYPE svg PUBLIC "-//W3C//DTD SVG 1.1//EN"
  "http://www.w3.org/Graphics/SVG/1.1/DTD/svg11.dtd">
<svg xmlns:xlink="http://www.w3.org/1999/xlink" width="460.8pt" height="205.406438pt" viewBox="0 0 460.8 205.406438" xmlns="http://www.w3.org/2000/svg" version="1.1">
 <metadata>
  <rdf:RDF xmlns:dc="http://purl.org/dc/elements/1.1/" xmlns:cc="http://creativecommons.org/ns#" xmlns:rdf="http://www.w3.org/1999/02/22-rdf-syntax-ns#">
   <cc:Work>
    <dc:type rdf:resource="http://purl.org/dc/dcmitype/StillImage"/>
    <dc:date>2026-06-14T16:20:28.160253</dc:date>
    <dc:format>image/svg+xml</dc:format>
    <dc:creator>
     <cc:Agent>
      <dc:title>Matplotlib v3.9.4, https://matplotlib.org/</dc:title>
     </cc:Agent>
    </dc:creator>
   </cc:Work>
  </rdf:RDF>
 </metadata>
 <defs>
  <style type="text/css">*{stroke-linejoin: round; stroke-linecap: butt}</style>
 </defs>
 <g id="figure_1">
  <g id="patch_1">
   <path d="M 0 205.406438 
L 460.8 205.406438 
L 460.8 -0 
L 0 -0 
z
" style="fill: #ffffff"/>
  </g>
  <g id="axes_1">
   <g id="patch_2">
    <path d="M 18.646154 162.724837 
L 93.046154 162.724837 
L 93.046154 74.020837 
L 18.646154 74.020837 
z
" clip-path="url(#pe69c2d74c3)" style="fill: #cfe8ff; stroke: #000000; stroke-linejoin: miter"/>
   </g>
   <g id="patch_3">
    <path d="M 107.353846 162.724837 
L 181.753846 162.724837 
L 181.753846 74.020837 
L 107.353846 74.020837 
z
" clip-path="url(#pe69c2d74c3)" style="fill: #ffe0b3; stroke: #000000; stroke-linejoin: miter"/>
   </g>
   <g id="patch_4">
    <path d="M 196.061538 162.724837 
L 270.461538 162.724837 
L 270.461538 74.020837 
L 196.061538 74.020837 
z
" clip-path="url(#pe69c2d74c3)" style="fill: #ffe0b3; stroke: #000000; stroke-linejoin: miter"/>
   </g>
   <g id="patch_5">
    <path d="M 284.769231 162.724837 
L 359.169231 162.724837 
L 359.169231 74.020837 
L 284.769231 74.020837 
z
" clip-path="url(#pe69c2d74c3)" style="fill: #d8f5d0; stroke: #000000; stroke-linejoin: miter"/>
   </g>
   <g id="patch_6">
    <path d="M 373.476923 162.724837 
L 447.876923 162.724837 
L 447.876923 74.020837 
L 373.476923 74.020837 
z
" clip-path="url(#pe69c2d74c3)" style="fill: #d8f5d0; stroke: #000000; stroke-linejoin: miter"/>
   </g>
   <g id="text_1">
    <!-- import foo -->
    <g transform="translate(35.064904 120.580337) scale(0.08 -0.08)">
     <defs>
      <path id="DejaVuSans-69" d="M 603 3500 
L 1178 3500 
L 1178 0 
L 603 0 
L 603 3500 
z
M 603 4863 
L 1178 4863 
L 1178 4134 
L 603 4134 
L 603 4863 
z
" transform="scale(0.015625)"/>
      <path id="DejaVuSans-6d" d="M 3328 2828 
Q 3544 3216 3844 3400 
Q 4144 3584 4550 3584 
Q 5097 3584 5394 3201 
Q 5691 2819 5691 2113 
L 5691 0 
L 5113 0 
L 5113 2094 
Q 5113 2597 4934 2840 
Q 4756 3084 4391 3084 
Q 3944 3084 3684 2787 
Q 3425 2491 3425 1978 
L 3425 0 
L 2847 0 
L 2847 2094 
Q 2847 2600 2669 2842 
Q 2491 3084 2119 3084 
Q 1678 3084 1418 2786 
Q 1159 2488 1159 1978 
L 1159 0 
L 581 0 
L 581 3500 
L 1159 3500 
L 1159 2956 
Q 1356 3278 1631 3431 
Q 1906 3584 2284 3584 
Q 2666 3584 2933 3390 
Q 3200 3197 3328 2828 
z
" transform="scale(0.015625)"/>
      <path id="DejaVuSans-70" d="M 1159 525 
L 1159 -1331 
L 581 -1331 
L 581 3500 
L 1159 3500 
L 1159 2969 
Q 1341 3281 1617 3432 
Q 1894 3584 2278 3584 
Q 2916 3584 3314 3078 
Q 3713 2572 3713 1747 
Q 3713 922 3314 415 
Q 2916 -91 2278 -91 
Q 1894 -91 1617 61 
Q 1341 213 1159 525 
z
M 3116 1747 
Q 3116 2381 2855 2742 
Q 2594 3103 2138 3103 
Q 1681 3103 1420 2742 
Q 1159 2381 1159 1747 
Q 1159 1113 1420 752 
Q 1681 391 2138 391 
Q 2594 391 2855 752 
Q 3116 1113 3116 1747 
z
" transform="scale(0.015625)"/>
      <path id="DejaVuSans-6f" d="M 1959 3097 
Q 1497 3097 1228 2736 
Q 959 2375 959 1747 
Q 959 1119 1226 758 
Q 1494 397 1959 397 
Q 2419 397 2687 759 
Q 2956 1122 2956 1747 
Q 2956 2369 2687 2733 
Q 2419 3097 1959 3097 
z
M 1959 3584 
Q 2709 3584 3137 3096 
Q 3566 2609 3566 1747 
Q 3566 888 3137 398 
Q 2709 -91 1959 -91 
Q 1206 -91 779 398 
Q 353 888 353 1747 
Q 353 2609 779 3096 
Q 1206 3584 1959 3584 
z
" transform="scale(0.015625)"/>
      <path id="DejaVuSans-72" d="M 2631 2963 
Q 2534 3019 2420 3045 
Q 2306 3072 2169 3072 
Q 1681 3072 1420 2755 
Q 1159 2438 1159 1844 
L 1159 0 
L 581 0 
L 581 3500 
L 1159 3500 
L 1159 2956 
Q 1341 3275 1631 3429 
Q 1922 3584 2338 3584 
Q 2397 3584 2469 3576 
Q 2541 3569 2628 3553 
L 2631 2963 
z
" transform="scale(0.015625)"/>
      <path id="DejaVuSans-74" d="M 1172 4494 
L 1172 3500 
L 2356 3500 
L 2356 3053 
L 1172 3053 
L 1172 1153 
Q 1172 725 1289 603 
Q 1406 481 1766 481 
L 2356 481 
L 2356 0 
L 1766 0 
Q 1100 0 847 248 
Q 594 497 594 1153 
L 594 3053 
L 172 3053 
L 172 3500 
L 594 3500 
L 594 4494 
L 1172 4494 
z
" transform="scale(0.015625)"/>
      <path id="DejaVuSans-20" transform="scale(0.015625)"/>
      <path id="DejaVuSans-66" d="M 2375 4863 
L 2375 4384 
L 1825 4384 
Q 1516 4384 1395 4259 
Q 1275 4134 1275 3809 
L 1275 3500 
L 2222 3500 
L 2222 3053 
L 1275 3053 
L 1275 0 
L 697 0 
L 697 3053 
L 147 3053 
L 147 3500 
L 697 3500 
L 697 3744 
Q 697 4328 969 4595 
Q 1241 4863 1831 4863 
L 2375 4863 
z
" transform="scale(0.015625)"/>
     </defs>
     <use xlink:href="#DejaVuSans-69"/>
     <use xlink:href="#DejaVuSans-6d" x="27.783203"/>
     <use xlink:href="#DejaVuSans-70" x="125.195312"/>
     <use xlink:href="#DejaVuSans-6f" x="188.671875"/>
     <use xlink:href="#DejaVuSans-72" x="249.853516"/>
     <use xlink:href="#DejaVuSans-74" x="290.966797"/>
     <use xlink:href="#DejaVuSans-20" x="330.175781"/>
     <use xlink:href="#DejaVuSans-66" x="361.962891"/>
     <use xlink:href="#DejaVuSans-6f" x="397.167969"/>
     <use xlink:href="#DejaVuSans-6f" x="458.349609"/>
    </g>
   </g>
   <g id="patch_7">
    <path d="M 95.047694 118.372837 
Q 100.201796 118.372837 104.237865 118.372837 
" style="fill: none; stroke: #000000; stroke-linecap: round"/>
    <path d="M 100.237865 116.372837 
L 104.237865 118.372837 
L 100.237865 120.372837 
" style="fill: none; stroke: #000000; stroke-linecap: round"/>
   </g>
   <g id="text_2">
    <!-- sys.modules -->
    <g transform="translate(119.673221 116.101212) scale(0.08 -0.08)">
     <defs>
      <path id="DejaVuSans-73" d="M 2834 3397 
L 2834 2853 
Q 2591 2978 2328 3040 
Q 2066 3103 1784 3103 
Q 1356 3103 1142 2972 
Q 928 2841 928 2578 
Q 928 2378 1081 2264 
Q 1234 2150 1697 2047 
L 1894 2003 
Q 2506 1872 2764 1633 
Q 3022 1394 3022 966 
Q 3022 478 2636 193 
Q 2250 -91 1575 -91 
Q 1294 -91 989 -36 
Q 684 19 347 128 
L 347 722 
Q 666 556 975 473 
Q 1284 391 1588 391 
Q 1994 391 2212 530 
Q 2431 669 2431 922 
Q 2431 1156 2273 1281 
Q 2116 1406 1581 1522 
L 1381 1569 
Q 847 1681 609 1914 
Q 372 2147 372 2553 
Q 372 3047 722 3315 
Q 1072 3584 1716 3584 
Q 2034 3584 2315 3537 
Q 2597 3491 2834 3397 
z
" transform="scale(0.015625)"/>
      <path id="DejaVuSans-79" d="M 2059 -325 
Q 1816 -950 1584 -1140 
Q 1353 -1331 966 -1331 
L 506 -1331 
L 506 -850 
L 844 -850 
Q 1081 -850 1212 -737 
Q 1344 -625 1503 -206 
L 1606 56 
L 191 3500 
L 800 3500 
L 1894 763 
L 2988 3500 
L 3597 3500 
L 2059 -325 
z
" transform="scale(0.015625)"/>
      <path id="DejaVuSans-2e" d="M 684 794 
L 1344 794 
L 1344 0 
L 684 0 
L 684 794 
z
" transform="scale(0.015625)"/>
      <path id="DejaVuSans-64" d="M 2906 2969 
L 2906 4863 
L 3481 4863 
L 3481 0 
L 2906 0 
L 2906 525 
Q 2725 213 2448 61 
Q 2172 -91 1784 -91 
Q 1150 -91 751 415 
Q 353 922 353 1747 
Q 353 2572 751 3078 
Q 1150 3584 1784 3584 
Q 2172 3584 2448 3432 
Q 2725 3281 2906 2969 
z
M 947 1747 
Q 947 1113 1208 752 
Q 1469 391 1925 391 
Q 2381 391 2643 752 
Q 2906 1113 2906 1747 
Q 2906 2381 2643 2742 
Q 2381 3103 1925 3103 
Q 1469 3103 1208 2742 
Q 947 2381 947 1747 
z
" transform="scale(0.015625)"/>
      <path id="DejaVuSans-75" d="M 544 1381 
L 544 3500 
L 1119 3500 
L 1119 1403 
Q 1119 906 1312 657 
Q 1506 409 1894 409 
Q 2359 409 2629 706 
Q 2900 1003 2900 1516 
L 2900 3500 
L 3475 3500 
L 3475 0 
L 2900 0 
L 2900 538 
Q 2691 219 2414 64 
Q 2138 -91 1772 -91 
Q 1169 -91 856 284 
Q 544 659 544 1381 
z
M 1991 3584 
L 1991 3584 
z
" transform="scale(0.015625)"/>
      <path id="DejaVuSans-6c" d="M 603 4863 
L 1178 4863 
L 1178 0 
L 603 0 
L 603 4863 
z
" transform="scale(0.015625)"/>
      <path id="DejaVuSans-65" d="M 3597 1894 
L 3597 1613 
L 953 1613 
Q 991 1019 1311 708 
Q 1631 397 2203 397 
Q 2534 397 2845 478 
Q 3156 559 3463 722 
L 3463 178 
Q 3153 47 2828 -22 
Q 2503 -91 2169 -91 
Q 1331 -91 842 396 
Q 353 884 353 1716 
Q 353 2575 817 3079 
Q 1281 3584 2069 3584 
Q 2775 3584 3186 3129 
Q 3597 2675 3597 1894 
z
M 3022 2063 
Q 3016 2534 2758 2815 
Q 2500 3097 2075 3097 
Q 1594 3097 1305 2825 
Q 1016 2553 972 2059 
L 3022 2063 
z
" transform="scale(0.015625)"/>
     </defs>
     <use xlink:href="#DejaVuSans-73"/>
     <use xlink:href="#DejaVuSans-79" x="52.099609"/>
     <use xlink:href="#DejaVuSans-73" x="111.279297"/>
     <use xlink:href="#DejaVuSans-2e" x="163.378906"/>
     <use xlink:href="#DejaVuSans-6d" x="195.166016"/>
     <use xlink:href="#DejaVuSans-6f" x="292.578125"/>
     <use xlink:href="#DejaVuSans-64" x="353.759766"/>
     <use xlink:href="#DejaVuSans-75" x="417.236328"/>
     <use xlink:href="#DejaVuSans-6c" x="480.615234"/>
     <use xlink:href="#DejaVuSans-65" x="508.398438"/>
     <use xlink:href="#DejaVuSans-73" x="569.921875"/>
    </g>
    <!-- cache? -->
    <g transform="translate(130.584471 125.059462) scale(0.08 -0.08)">
     <defs>
      <path id="DejaVuSans-63" d="M 3122 3366 
L 3122 2828 
Q 2878 2963 2633 3030 
Q 2388 3097 2138 3097 
Q 1578 3097 1268 2742 
Q 959 2388 959 1747 
Q 959 1106 1268 751 
Q 1578 397 2138 397 
Q 2388 397 2633 464 
Q 2878 531 3122 666 
L 3122 134 
Q 2881 22 2623 -34 
Q 2366 -91 2075 -91 
Q 1284 -91 818 406 
Q 353 903 353 1747 
Q 353 2603 823 3093 
Q 1294 3584 2113 3584 
Q 2378 3584 2631 3529 
Q 2884 3475 3122 3366 
z
" transform="scale(0.015625)"/>
      <path id="DejaVuSans-61" d="M 2194 1759 
Q 1497 1759 1228 1600 
Q 959 1441 959 1056 
Q 959 750 1161 570 
Q 1363 391 1709 391 
Q 2188 391 2477 730 
Q 2766 1069 2766 1631 
L 2766 1759 
L 2194 1759 
z
M 3341 1997 
L 3341 0 
L 2766 0 
L 2766 531 
Q 2569 213 2275 61 
Q 1981 -91 1556 -91 
Q 1019 -91 701 211 
Q 384 513 384 1019 
Q 384 1609 779 1909 
Q 1175 2209 1959 2209 
L 2766 2209 
L 2766 2266 
Q 2766 2663 2505 2880 
Q 2244 3097 1772 3097 
Q 1472 3097 1187 3025 
Q 903 2953 641 2809 
L 641 3341 
Q 956 3463 1253 3523 
Q 1550 3584 1831 3584 
Q 2591 3584 2966 3190 
Q 3341 2797 3341 1997 
z
" transform="scale(0.015625)"/>
      <path id="DejaVuSans-68" d="M 3513 2113 
L 3513 0 
L 2938 0 
L 2938 2094 
Q 2938 2591 2744 2837 
Q 2550 3084 2163 3084 
Q 1697 3084 1428 2787 
Q 1159 2491 1159 1978 
L 1159 0 
L 581 0 
L 581 4863 
L 1159 4863 
L 1159 2956 
Q 1366 3272 1645 3428 
Q 1925 3584 2291 3584 
Q 2894 3584 3203 3211 
Q 3513 2838 3513 2113 
z
" transform="scale(0.015625)"/>
      <path id="DejaVuSans-3f" d="M 1222 794 
L 1856 794 
L 1856 0 
L 1222 0 
L 1222 794 
z
M 1838 1253 
L 1241 1253 
L 1241 1734 
Q 1241 2050 1328 2253 
Q 1416 2456 1697 2725 
L 1978 3003 
Q 2156 3169 2236 3316 
Q 2316 3463 2316 3616 
Q 2316 3894 2111 4066 
Q 1906 4238 1569 4238 
Q 1322 4238 1042 4128 
Q 763 4019 459 3809 
L 459 4397 
Q 753 4575 1054 4662 
Q 1356 4750 1678 4750 
Q 2253 4750 2601 4447 
Q 2950 4144 2950 3647 
Q 2950 3409 2837 3195 
Q 2725 2981 2444 2713 
L 2169 2444 
Q 2022 2297 1961 2214 
Q 1900 2131 1875 2053 
Q 1856 1988 1847 1894 
Q 1838 1800 1838 1638 
L 1838 1253 
z
" transform="scale(0.015625)"/>
     </defs>
     <use xlink:href="#DejaVuSans-63"/>
     <use xlink:href="#DejaVuSans-61" x="54.980469"/>
     <use xlink:href="#DejaVuSans-63" x="116.259766"/>
     <use xlink:href="#DejaVuSans-68" x="171.240234"/>
     <use xlink:href="#DejaVuSans-65" x="234.619141"/>
     <use xlink:href="#DejaVuSans-3f" x="296.142578"/>
    </g>
   </g>
   <g id="patch_8">
    <path d="M 183.755386 118.372837 
Q 188.909489 118.372837 192.945557 118.372837 
" style="fill: none; stroke: #000000; stroke-linecap: round"/>
    <path d="M 188.945557 116.372837 
L 192.945557 118.372837 
L 188.945557 120.372837 
" style="fill: none; stroke: #000000; stroke-linecap: round"/>
   </g>
   <g id="text_3">
    <!-- sys.path -->
    <g transform="translate(216.361538 116.101212) scale(0.08 -0.08)">
     <use xlink:href="#DejaVuSans-73"/>
     <use xlink:href="#DejaVuSans-79" x="52.099609"/>
     <use xlink:href="#DejaVuSans-73" x="111.279297"/>
     <use xlink:href="#DejaVuSans-2e" x="163.378906"/>
     <use xlink:href="#DejaVuSans-70" x="195.166016"/>
     <use xlink:href="#DejaVuSans-61" x="258.642578"/>
     <use xlink:href="#DejaVuSans-74" x="319.921875"/>
     <use xlink:href="#DejaVuSans-68" x="359.130859"/>
    </g>
    <!-- search -->
    <g transform="translate(219.976538 125.059462) scale(0.08 -0.08)">
     <use xlink:href="#DejaVuSans-73"/>
     <use xlink:href="#DejaVuSans-65" x="52.099609"/>
     <use xlink:href="#DejaVuSans-61" x="113.623047"/>
     <use xlink:href="#DejaVuSans-72" x="174.902344"/>
     <use xlink:href="#DejaVuSans-63" x="213.765625"/>
     <use xlink:href="#DejaVuSans-68" x="268.746094"/>
    </g>
   </g>
   <g id="patch_9">
    <path d="M 272.463078 118.372837 
Q 277.617181 118.372837 281.65325 118.372837 
" style="fill: none; stroke: #000000; stroke-linecap: round"/>
    <path d="M 277.65325 116.372837 
L 281.65325 118.372837 
L 277.65325 120.372837 
" style="fill: none; stroke: #000000; stroke-linecap: round"/>
   </g>
   <g id="text_4">
    <!-- compile -->
    <g transform="translate(306.202981 116.101212) scale(0.08 -0.08)">
     <use xlink:href="#DejaVuSans-63"/>
     <use xlink:href="#DejaVuSans-6f" x="54.980469"/>
     <use xlink:href="#DejaVuSans-6d" x="116.162109"/>
     <use xlink:href="#DejaVuSans-70" x="213.574219"/>
     <use xlink:href="#DejaVuSans-69" x="277.050781"/>
     <use xlink:href="#DejaVuSans-6c" x="304.833984"/>
     <use xlink:href="#DejaVuSans-65" x="332.617188"/>
    </g>
    <!-- .pyc -->
    <g transform="translate(313.591731 125.059462) scale(0.08 -0.08)">
     <use xlink:href="#DejaVuSans-2e"/>
     <use xlink:href="#DejaVuSans-70" x="31.787109"/>
     <use xlink:href="#DejaVuSans-79" x="95.263672"/>
     <use xlink:href="#DejaVuSans-63" x="154.443359"/>
    </g>
   </g>
   <g id="patch_10">
    <path d="M 361.170771 118.372837 
Q 366.324873 118.372837 370.360942 118.372837 
" style="fill: none; stroke: #000000; stroke-linecap: round"/>
    <path d="M 366.360942 116.372837 
L 370.360942 118.372837 
L 366.360942 120.372837 
" style="fill: none; stroke: #000000; stroke-linecap: round"/>
   </g>
   <g id="text_5">
    <!-- bind name -->
    <g transform="translate(389.336923 120.580337) scale(0.08 -0.08)">
     <defs>
      <path id="DejaVuSans-62" d="M 3116 1747 
Q 3116 2381 2855 2742 
Q 2594 3103 2138 3103 
Q 1681 3103 1420 2742 
Q 1159 2381 1159 1747 
Q 1159 1113 1420 752 
Q 1681 391 2138 391 
Q 2594 391 2855 752 
Q 3116 1113 3116 1747 
z
M 1159 2969 
Q 1341 3281 1617 3432 
Q 1894 3584 2278 3584 
Q 2916 3584 3314 3078 
Q 3713 2572 3713 1747 
Q 3713 922 3314 415 
Q 2916 -91 2278 -91 
Q 1894 -91 1617 61 
Q 1341 213 1159 525 
L 1159 0 
L 581 0 
L 581 4863 
L 1159 4863 
L 1159 2969 
z
" transform="scale(0.015625)"/>
      <path id="DejaVuSans-6e" d="M 3513 2113 
L 3513 0 
L 2938 0 
L 2938 2094 
Q 2938 2591 2744 2837 
Q 2550 3084 2163 3084 
Q 1697 3084 1428 2787 
Q 1159 2491 1159 1978 
L 1159 0 
L 581 0 
L 581 3500 
L 1159 3500 
L 1159 2956 
Q 1366 3272 1645 3428 
Q 1925 3584 2291 3584 
Q 2894 3584 3203 3211 
Q 3513 2838 3513 2113 
z
" transform="scale(0.015625)"/>
     </defs>
     <use xlink:href="#DejaVuSans-62"/>
     <use xlink:href="#DejaVuSans-69" x="63.476562"/>
     <use xlink:href="#DejaVuSans-6e" x="91.259766"/>
     <use xlink:href="#DejaVuSans-64" x="154.638672"/>
     <use xlink:href="#DejaVuSans-20" x="218.115234"/>
     <use xlink:href="#DejaVuSans-6e" x="249.902344"/>
     <use xlink:href="#DejaVuSans-61" x="313.28125"/>
     <use xlink:href="#DejaVuSans-6d" x="374.560547"/>
     <use xlink:href="#DejaVuSans-65" x="471.972656"/>
    </g>
   </g>
   <g id="text_6">
    <!-- hit -&gt; return cached -->
    <g style="fill: #008000" transform="translate(20.463888 47.409637) scale(0.07 -0.07)">
     <defs>
      <path id="DejaVuSans-2d" d="M 313 2009 
L 1997 2009 
L 1997 1497 
L 313 1497 
L 313 2009 
z
" transform="scale(0.015625)"/>
      <path id="DejaVuSans-3e" d="M 678 3150 
L 678 3719 
L 4684 2266 
L 4684 1747 
L 678 294 
L 678 863 
L 3897 2003 
L 678 3150 
z
" transform="scale(0.015625)"/>
     </defs>
     <use xlink:href="#DejaVuSans-68"/>
     <use xlink:href="#DejaVuSans-69" x="63.378906"/>
     <use xlink:href="#DejaVuSans-74" x="91.162109"/>
     <use xlink:href="#DejaVuSans-20" x="130.371094"/>
     <use xlink:href="#DejaVuSans-2d" x="162.158203"/>
     <use xlink:href="#DejaVuSans-3e" x="198.242188"/>
     <use xlink:href="#DejaVuSans-20" x="282.03125"/>
     <use xlink:href="#DejaVuSans-72" x="313.818359"/>
     <use xlink:href="#DejaVuSans-65" x="352.681641"/>
     <use xlink:href="#DejaVuSans-74" x="414.205078"/>
     <use xlink:href="#DejaVuSans-75" x="453.414062"/>
     <use xlink:href="#DejaVuSans-72" x="516.792969"/>
     <use xlink:href="#DejaVuSans-6e" x="556.15625"/>
     <use xlink:href="#DejaVuSans-20" x="619.535156"/>
     <use xlink:href="#DejaVuSans-63" x="651.322266"/>
     <use xlink:href="#DejaVuSans-61" x="706.302734"/>
     <use xlink:href="#DejaVuSans-63" x="767.582031"/>
     <use xlink:href="#DejaVuSans-68" x="822.5625"/>
     <use xlink:href="#DejaVuSans-65" x="885.941406"/>
     <use xlink:href="#DejaVuSans-64" x="947.464844"/>
    </g>
   </g>
   <g id="text_7">
    <!-- Import resolution pipeline -->
    <g transform="translate(165.971094 14.798437) scale(0.1 -0.1)">
     <defs>
      <path id="DejaVuSans-49" d="M 628 4666 
L 1259 4666 
L 1259 0 
L 628 0 
L 628 4666 
z
" transform="scale(0.015625)"/>
     </defs>
     <use xlink:href="#DejaVuSans-49"/>
     <use xlink:href="#DejaVuSans-6d" x="29.492188"/>
     <use xlink:href="#DejaVuSans-70" x="126.904297"/>
     <use xlink:href="#DejaVuSans-6f" x="190.380859"/>
     <use xlink:href="#DejaVuSans-72" x="251.5625"/>
     <use xlink:href="#DejaVuSans-74" x="292.675781"/>
     <use xlink:href="#DejaVuSans-20" x="331.884766"/>
     <use xlink:href="#DejaVuSans-72" x="363.671875"/>
     <use xlink:href="#DejaVuSans-65" x="402.535156"/>
     <use xlink:href="#DejaVuSans-73" x="464.058594"/>
     <use xlink:href="#DejaVuSans-6f" x="516.158203"/>
     <use xlink:href="#DejaVuSans-6c" x="577.339844"/>
     <use xlink:href="#DejaVuSans-75" x="605.123047"/>
     <use xlink:href="#DejaVuSans-74" x="668.501953"/>
     <use xlink:href="#DejaVuSans-69" x="707.710938"/>
     <use xlink:href="#DejaVuSans-6f" x="735.494141"/>
     <use xlink:href="#DejaVuSans-6e" x="796.675781"/>
     <use xlink:href="#DejaVuSans-20" x="860.054688"/>
     <use xlink:href="#DejaVuSans-70" x="891.841797"/>
     <use xlink:href="#DejaVuSans-69" x="955.318359"/>
     <use xlink:href="#DejaVuSans-70" x="983.101562"/>
     <use xlink:href="#DejaVuSans-65" x="1046.578125"/>
     <use xlink:href="#DejaVuSans-6c" x="1108.101562"/>
     <use xlink:href="#DejaVuSans-69" x="1135.884766"/>
     <use xlink:href="#DejaVuSans-6e" x="1163.667969"/>
     <use xlink:href="#DejaVuSans-65" x="1227.046875"/>
    </g>
   </g>
  </g>
 </g>
 <defs>
  <clipPath id="pe69c2d74c3">
   <rect x="7.2" y="20.798437" width="446.4" height="177.408"/>
  </clipPath>
 </defs>
</svg>
