<?xml version="1.0" encoding="utf-8" standalone="no"?>
<!DOCTYPE svg PUBLIC "-//W3C//DTD SVG 1.1//EN"
  "http://www.w3.org/Graphics/SVG/1.1/DTD/svg11.dtd">
<svg xmlns:xlink="http://www.w3.org/1999/xlink" width="405pt" height="250.366313pt" viewBox="0 0 405 250.366313" xmlns="http://www.w3.org/2000/svg" version="1.1">
 <metadata>
  <rdf:RDF xmlns:dc="http://purl.org/dc/elements/1.1/" xmlns:cc="http://creativecommons.org/ns#" xmlns:rdf="http://www.w3.org/1999/02/22-rdf-syntax-ns#">
   <cc:Work>
    <dc:type rdf:resource="http://purl.org/dc/dcmitype/StillImage"/>
    <dc:date>2026-06-16T23:22:11.522365</dc:date>
    <dc:format>image/svg+xml</dc:format>
    <dc:creator>
     <cc:Agent>
      <dc:title>Matplotlib v3.9.4, https://matplotlib.org/</dc:title>
     </cc:Agent>
    </dc:creator>
   </cc:Work>
  </rdf:RDF>
 </metadata>
 <defs>
  <style type="text/css">*{stroke-linejoin: round; stroke-linecap: butt}</style>
 </defs>
 <g id="figure_1">
  <g id="patch_1">
   <path d="M 0 250.366313 
L 405 250.366313 
L 405 0 
L 0 0 
z
" style="fill: #ffffff"/>
  </g>
  <g id="axes_1">
   <g id="patch_2">
    <path d="M 29.0736 66.497513 
L 200.1564 66.497513 
Q 203.2812 66.497513 203.2812 63.540713 
L 203.2812 34.711913 
Q 203.2812 31.755112 200.1564 31.755112 
L 29.0736 31.755112 
Q 25.9488 31.755112 25.9488 34.711913 
L 25.9488 63.540713 
Q 25.9488 66.497513 29.0736 66.497513 
z
" clip-path="url(#p7b4c53dc0f)" style="fill: #c8e6c9; stroke: #333333; stroke-width: 1.2; stroke-linejoin: miter"/>
   </g>
   <g id="patch_3">
    <path d="M 224.3736 66.497513 
L 375.9264 66.497513 
Q 379.0512 66.497513 379.0512 63.540713 
L 379.0512 34.711913 
Q 379.0512 31.755112 375.9264 31.755112 
L 224.3736 31.755112 
Q 221.2488 31.755112 221.2488 34.711913 
L 221.2488 63.540713 
Q 221.2488 66.497513 224.3736 66.497513 
z
" clip-path="url(#p7b4c53dc0f)" style="fill: #eceff1; stroke: #333333; stroke-width: 1.2; stroke-linejoin: miter"/>
   </g>
   <g id="patch_4">
    <path d="M 29.0736 114.545513 
L 200.1564 114.545513 
Q 203.2812 114.545513 203.2812 111.588713 
L 203.2812 82.759913 
Q 203.2812 79.803113 200.1564 79.803113 
L 29.0736 79.803113 
Q 25.9488 79.803113 25.9488 82.759913 
L 25.9488 111.588713 
Q 25.9488 114.545513 29.0736 114.545513 
z
" clip-path="url(#p7b4c53dc0f)" style="fill: #fff9c4; stroke: #333333; stroke-width: 1.2; stroke-linejoin: miter"/>
   </g>
   <g id="patch_5">
    <path d="M 224.3736 114.545513 
L 375.9264 114.545513 
Q 379.0512 114.545513 379.0512 111.588713 
L 379.0512 82.759913 
Q 379.0512 79.803113 375.9264 79.803113 
L 224.3736 79.803113 
Q 221.2488 79.803113 221.2488 82.759913 
L 221.2488 111.588713 
Q 221.2488 114.545513 224.3736 114.545513 
z
" clip-path="url(#p7b4c53dc0f)" style="fill: #eceff1; stroke: #333333; stroke-width: 1.2; stroke-linejoin: miter"/>
   </g>
   <g id="patch_6">
    <path d="M 29.0736 162.593513 
L 200.1564 162.593513 
Q 203.2812 162.593513 203.2812 159.636713 
L 203.2812 130.807913 
Q 203.2812 127.851113 200.1564 127.851113 
L 29.0736 127.851113 
Q 25.9488 127.851113 25.9488 130.807913 
L 25.9488 159.636713 
Q 25.9488 162.593513 29.0736 162.593513 
z
" clip-path="url(#p7b4c53dc0f)" style="fill: #ffe0b2; stroke: #333333; stroke-width: 1.2; stroke-linejoin: miter"/>
   </g>
   <g id="patch_7">
    <path d="M 224.3736 162.593513 
L 375.9264 162.593513 
Q 379.0512 162.593513 379.0512 159.636713 
L 379.0512 130.807913 
Q 379.0512 127.851113 375.9264 127.851113 
L 224.3736 127.851113 
Q 221.2488 127.851113 221.2488 130.807913 
L 221.2488 159.636713 
Q 221.2488 162.593513 224.3736 162.593513 
z
" clip-path="url(#p7b4c53dc0f)" style="fill: #eceff1; stroke: #333333; stroke-width: 1.2; stroke-linejoin: miter"/>
   </g>
   <g id="patch_8">
    <path d="M 29.0736 210.641513 
L 200.1564 210.641513 
Q 203.2812 210.641513 203.2812 207.684713 
L 203.2812 178.855913 
Q 203.2812 175.899113 200.1564 175.899113 
L 29.0736 175.899113 
Q 25.9488 175.899113 25.9488 178.855913 
L 25.9488 207.684713 
Q 25.9488 210.641513 29.0736 210.641513 
z
" clip-path="url(#p7b4c53dc0f)" style="fill: #ffccbc; stroke: #333333; stroke-width: 1.2; stroke-linejoin: miter"/>
   </g>
   <g id="patch_9">
    <path d="M 224.3736 210.641513 
L 375.9264 210.641513 
Q 379.0512 210.641513 379.0512 207.684713 
L 379.0512 178.855913 
Q 379.0512 175.899113 375.9264 175.899113 
L 224.3736 175.899113 
Q 221.2488 175.899113 221.2488 178.855913 
L 221.2488 207.684713 
Q 221.2488 210.641513 224.3736 210.641513 
z
" clip-path="url(#p7b4c53dc0f)" style="fill: #eceff1; stroke: #333333; stroke-width: 1.2; stroke-linejoin: miter"/>
   </g>
   <g id="text_1">
    <!-- UserDefaults / @AppStorage -->
    <g transform="translate(57.443125 51.333813) scale(0.08 -0.08)">
     <defs>
      <path id="DejaVuSans-55" d="M 556 4666 
L 1191 4666 
L 1191 1831 
Q 1191 1081 1462 751 
Q 1734 422 2344 422 
Q 2950 422 3222 751 
Q 3494 1081 3494 1831 
L 3494 4666 
L 4128 4666 
L 4128 1753 
Q 4128 841 3676 375 
Q 3225 -91 2344 -91 
Q 1459 -91 1007 375 
Q 556 841 556 1753 
L 556 4666 
z
" transform="scale(0.015625)"/>
      <path id="DejaVuSans-73" d="M 2834 3397 
L 2834 2853 
Q 2591 2978 2328 3040 
Q 2066 3103 1784 3103 
Q 1356 3103 1142 2972 
Q 928 2841 928 2578 
Q 928 2378 1081 2264 
Q 1234 2150 1697 2047 
L 1894 2003 
Q 2506 1872 2764 1633 
Q 3022 1394 3022 966 
Q 3022 478 2636 193 
Q 2250 -91 1575 -91 
Q 1294 -91 989 -36 
Q 684 19 347 128 
L 347 722 
Q 666 556 975 473 
Q 1284 391 1588 391 
Q 1994 391 2212 530 
Q 2431 669 2431 922 
Q 2431 1156 2273 1281 
Q 2116 1406 1581 1522 
L 1381 1569 
Q 847 1681 609 1914 
Q 372 2147 372 2553 
Q 372 3047 722 3315 
Q 1072 3584 1716 3584 
Q 2034 3584 2315 3537 
Q 2597 3491 2834 3397 
z
" transform="scale(0.015625)"/>
      <path id="DejaVuSans-65" d="M 3597 1894 
L 3597 1613 
L 953 1613 
Q 991 1019 1311 708 
Q 1631 397 2203 397 
Q 2534 397 2845 478 
Q 3156 559 3463 722 
L 3463 178 
Q 3153 47 2828 -22 
Q 2503 -91 2169 -91 
Q 1331 -91 842 396 
Q 353 884 353 1716 
Q 353 2575 817 3079 
Q 1281 3584 2069 3584 
Q 2775 3584 3186 3129 
Q 3597 2675 3597 1894 
z
M 3022 2063 
Q 3016 2534 2758 2815 
Q 2500 3097 2075 3097 
Q 1594 3097 1305 2825 
Q 1016 2553 972 2059 
L 3022 2063 
z
" transform="scale(0.015625)"/>
      <path id="DejaVuSans-72" d="M 2631 2963 
Q 2534 3019 2420 3045 
Q 2306 3072 2169 3072 
Q 1681 3072 1420 2755 
Q 1159 2438 1159 1844 
L 1159 0 
L 581 0 
L 581 3500 
L 1159 3500 
L 1159 2956 
Q 1341 3275 1631 3429 
Q 1922 3584 2338 3584 
Q 2397 3584 2469 3576 
Q 2541 3569 2628 3553 
L 2631 2963 
z
" transform="scale(0.015625)"/>
      <path id="DejaVuSans-44" d="M 1259 4147 
L 1259 519 
L 2022 519 
Q 2988 519 3436 956 
Q 3884 1394 3884 2338 
Q 3884 3275 3436 3711 
Q 2988 4147 2022 4147 
L 1259 4147 
z
M 628 4666 
L 1925 4666 
Q 3281 4666 3915 4102 
Q 4550 3538 4550 2338 
Q 4550 1131 3912 565 
Q 3275 0 1925 0 
L 628 0 
L 628 4666 
z
" transform="scale(0.015625)"/>
      <path id="DejaVuSans-66" d="M 2375 4863 
L 2375 4384 
L 1825 4384 
Q 1516 4384 1395 4259 
Q 1275 4134 1275 3809 
L 1275 3500 
L 2222 3500 
L 2222 3053 
L 1275 3053 
L 1275 0 
L 697 0 
L 697 3053 
L 147 3053 
L 147 3500 
L 697 3500 
L 697 3744 
Q 697 4328 969 4595 
Q 1241 4863 1831 4863 
L 2375 4863 
z
" transform="scale(0.015625)"/>
      <path id="DejaVuSans-61" d="M 2194 1759 
Q 1497 1759 1228 1600 
Q 959 1441 959 1056 
Q 959 750 1161 570 
Q 1363 391 1709 391 
Q 2188 391 2477 730 
Q 2766 1069 2766 1631 
L 2766 1759 
L 2194 1759 
z
M 3341 1997 
L 3341 0 
L 2766 0 
L 2766 531 
Q 2569 213 2275 61 
Q 1981 -91 1556 -91 
Q 1019 -91 701 211 
Q 384 513 384 1019 
Q 384 1609 779 1909 
Q 1175 2209 1959 2209 
L 2766 2209 
L 2766 2266 
Q 2766 2663 2505 2880 
Q 2244 3097 1772 3097 
Q 1472 3097 1187 3025 
Q 903 2953 641 2809 
L 641 3341 
Q 956 3463 1253 3523 
Q 1550 3584 1831 3584 
Q 2591 3584 2966 3190 
Q 3341 2797 3341 1997 
z
" transform="scale(0.015625)"/>
      <path id="DejaVuSans-75" d="M 544 1381 
L 544 3500 
L 1119 3500 
L 1119 1403 
Q 1119 906 1312 657 
Q 1506 409 1894 409 
Q 2359 409 2629 706 
Q 2900 1003 2900 1516 
L 2900 3500 
L 3475 3500 
L 3475 0 
L 2900 0 
L 2900 538 
Q 2691 219 2414 64 
Q 2138 -91 1772 -91 
Q 1169 -91 856 284 
Q 544 659 544 1381 
z
M 1991 3584 
L 1991 3584 
z
" transform="scale(0.015625)"/>
      <path id="DejaVuSans-6c" d="M 603 4863 
L 1178 4863 
L 1178 0 
L 603 0 
L 603 4863 
z
" transform="scale(0.015625)"/>
      <path id="DejaVuSans-74" d="M 1172 4494 
L 1172 3500 
L 2356 3500 
L 2356 3053 
L 1172 3053 
L 1172 1153 
Q 1172 725 1289 603 
Q 1406 481 1766 481 
L 2356 481 
L 2356 0 
L 1766 0 
Q 1100 0 847 248 
Q 594 497 594 1153 
L 594 3053 
L 172 3053 
L 172 3500 
L 594 3500 
L 594 4494 
L 1172 4494 
z
" transform="scale(0.015625)"/>
      <path id="DejaVuSans-20" transform="scale(0.015625)"/>
      <path id="DejaVuSans-2f" d="M 1625 4666 
L 2156 4666 
L 531 -594 
L 0 -594 
L 1625 4666 
z
" transform="scale(0.015625)"/>
      <path id="DejaVuSans-40" d="M 2381 1678 
Q 2381 1231 2603 976 
Q 2825 722 3213 722 
Q 3597 722 3817 978 
Q 4038 1234 4038 1678 
Q 4038 2116 3813 2373 
Q 3588 2631 3206 2631 
Q 2828 2631 2604 2375 
Q 2381 2119 2381 1678 
z
M 4084 744 
Q 3897 503 3655 389 
Q 3413 275 3091 275 
Q 2553 275 2217 664 
Q 1881 1053 1881 1678 
Q 1881 2303 2218 2693 
Q 2556 3084 3091 3084 
Q 3413 3084 3656 2967 
Q 3900 2850 4084 2613 
L 4084 3022 
L 4531 3022 
L 4531 722 
Q 4988 791 5245 1139 
Q 5503 1488 5503 2041 
Q 5503 2375 5404 2669 
Q 5306 2963 5106 3213 
Q 4781 3622 4314 3839 
Q 3847 4056 3297 4056 
Q 2913 4056 2559 3954 
Q 2206 3853 1906 3653 
Q 1416 3334 1139 2817 
Q 863 2300 863 1697 
Q 863 1200 1042 765 
Q 1222 331 1563 0 
Q 1891 -325 2322 -495 
Q 2753 -666 3244 -666 
Q 3647 -666 4036 -530 
Q 4425 -394 4750 -141 
L 5031 -488 
Q 4641 -791 4180 -952 
Q 3719 -1113 3244 -1113 
Q 2666 -1113 2153 -908 
Q 1641 -703 1241 -313 
Q 841 78 631 592 
Q 422 1106 422 1697 
Q 422 2266 634 2781 
Q 847 3297 1241 3688 
Q 1644 4084 2172 4295 
Q 2700 4506 3291 4506 
Q 3953 4506 4520 4234 
Q 5088 3963 5472 3463 
Q 5706 3156 5829 2797 
Q 5953 2438 5953 2053 
Q 5953 1231 5456 756 
Q 4959 281 4084 263 
L 4084 744 
z
" transform="scale(0.015625)"/>
      <path id="DejaVuSans-41" d="M 2188 4044 
L 1331 1722 
L 3047 1722 
L 2188 4044 
z
M 1831 4666 
L 2547 4666 
L 4325 0 
L 3669 0 
L 3244 1197 
L 1141 1197 
L 716 0 
L 50 0 
L 1831 4666 
z
" transform="scale(0.015625)"/>
      <path id="DejaVuSans-70" d="M 1159 525 
L 1159 -1331 
L 581 -1331 
L 581 3500 
L 1159 3500 
L 1159 2969 
Q 1341 3281 1617 3432 
Q 1894 3584 2278 3584 
Q 2916 3584 3314 3078 
Q 3713 2572 3713 1747 
Q 3713 922 3314 415 
Q 2916 -91 2278 -91 
Q 1894 -91 1617 61 
Q 1341 213 1159 525 
z
M 3116 1747 
Q 3116 2381 2855 2742 
Q 2594 3103 2138 3103 
Q 1681 3103 1420 2742 
Q 1159 2381 1159 1747 
Q 1159 1113 1420 752 
Q 1681 391 2138 391 
Q 2594 391 2855 752 
Q 3116 1113 3116 1747 
z
" transform="scale(0.015625)"/>
      <path id="DejaVuSans-53" d="M 3425 4513 
L 3425 3897 
Q 3066 4069 2747 4153 
Q 2428 4238 2131 4238 
Q 1616 4238 1336 4038 
Q 1056 3838 1056 3469 
Q 1056 3159 1242 3001 
Q 1428 2844 1947 2747 
L 2328 2669 
Q 3034 2534 3370 2195 
Q 3706 1856 3706 1288 
Q 3706 609 3251 259 
Q 2797 -91 1919 -91 
Q 1588 -91 1214 -16 
Q 841 59 441 206 
L 441 856 
Q 825 641 1194 531 
Q 1563 422 1919 422 
Q 2459 422 2753 634 
Q 3047 847 3047 1241 
Q 3047 1584 2836 1778 
Q 2625 1972 2144 2069 
L 1759 2144 
Q 1053 2284 737 2584 
Q 422 2884 422 3419 
Q 422 4038 858 4394 
Q 1294 4750 2059 4750 
Q 2388 4750 2728 4690 
Q 3069 4631 3425 4513 
z
" transform="scale(0.015625)"/>
      <path id="DejaVuSans-6f" d="M 1959 3097 
Q 1497 3097 1228 2736 
Q 959 2375 959 1747 
Q 959 1119 1226 758 
Q 1494 397 1959 397 
Q 2419 397 2687 759 
Q 2956 1122 2956 1747 
Q 2956 2369 2687 2733 
Q 2419 3097 1959 3097 
z
M 1959 3584 
Q 2709 3584 3137 3096 
Q 3566 2609 3566 1747 
Q 3566 888 3137 398 
Q 2709 -91 1959 -91 
Q 1206 -91 779 398 
Q 353 888 353 1747 
Q 353 2609 779 3096 
Q 1206 3584 1959 3584 
z
" transform="scale(0.015625)"/>
      <path id="DejaVuSans-67" d="M 2906 1791 
Q 2906 2416 2648 2759 
Q 2391 3103 1925 3103 
Q 1463 3103 1205 2759 
Q 947 2416 947 1791 
Q 947 1169 1205 825 
Q 1463 481 1925 481 
Q 2391 481 2648 825 
Q 2906 1169 2906 1791 
z
M 3481 434 
Q 3481 -459 3084 -895 
Q 2688 -1331 1869 -1331 
Q 1566 -1331 1297 -1286 
Q 1028 -1241 775 -1147 
L 775 -588 
Q 1028 -725 1275 -790 
Q 1522 -856 1778 -856 
Q 2344 -856 2625 -561 
Q 2906 -266 2906 331 
L 2906 616 
Q 2728 306 2450 153 
Q 2172 0 1784 0 
Q 1141 0 747 490 
Q 353 981 353 1791 
Q 353 2603 747 3093 
Q 1141 3584 1784 3584 
Q 2172 3584 2450 3431 
Q 2728 3278 2906 2969 
L 2906 3500 
L 3481 3500 
L 3481 434 
z
" transform="scale(0.015625)"/>
     </defs>
     <use xlink:href="#DejaVuSans-55"/>
     <use xlink:href="#DejaVuSans-73" x="73.193359"/>
     <use xlink:href="#DejaVuSans-65" x="125.292969"/>
     <use xlink:href="#DejaVuSans-72" x="186.816406"/>
     <use xlink:href="#DejaVuSans-44" x="227.929688"/>
     <use xlink:href="#DejaVuSans-65" x="304.931641"/>
     <use xlink:href="#DejaVuSans-66" x="366.455078"/>
     <use xlink:href="#DejaVuSans-61" x="401.660156"/>
     <use xlink:href="#DejaVuSans-75" x="462.939453"/>
     <use xlink:href="#DejaVuSans-6c" x="526.318359"/>
     <use xlink:href="#DejaVuSans-74" x="554.101562"/>
     <use xlink:href="#DejaVuSans-73" x="593.310547"/>
     <use xlink:href="#DejaVuSans-20" x="645.410156"/>
     <use xlink:href="#DejaVuSans-2f" x="677.197266"/>
     <use xlink:href="#DejaVuSans-20" x="710.888672"/>
     <use xlink:href="#DejaVuSans-40" x="742.675781"/>
     <use xlink:href="#DejaVuSans-41" x="842.675781"/>
     <use xlink:href="#DejaVuSans-70" x="911.083984"/>
     <use xlink:href="#DejaVuSans-70" x="974.560547"/>
     <use xlink:href="#DejaVuSans-53" x="1038.037109"/>
     <use xlink:href="#DejaVuSans-74" x="1101.513672"/>
     <use xlink:href="#DejaVuSans-6f" x="1140.722656"/>
     <use xlink:href="#DejaVuSans-72" x="1201.904297"/>
     <use xlink:href="#DejaVuSans-61" x="1243.017578"/>
     <use xlink:href="#DejaVuSans-67" x="1304.296875"/>
     <use xlink:href="#DejaVuSans-65" x="1367.773438"/>
    </g>
   </g>
   <g id="text_2">
    <!-- Settings, flags -->
    <g transform="translate(271.6075 51.333813) scale(0.08 -0.08)">
     <defs>
      <path id="DejaVuSans-69" d="M 603 3500 
L 1178 3500 
L 1178 0 
L 603 0 
L 603 3500 
z
M 603 4863 
L 1178 4863 
L 1178 4134 
L 603 4134 
L 603 4863 
z
" transform="scale(0.015625)"/>
      <path id="DejaVuSans-6e" d="M 3513 2113 
L 3513 0 
L 2938 0 
L 2938 2094 
Q 2938 2591 2744 2837 
Q 2550 3084 2163 3084 
Q 1697 3084 1428 2787 
Q 1159 2491 1159 1978 
L 1159 0 
L 581 0 
L 581 3500 
L 1159 3500 
L 1159 2956 
Q 1366 3272 1645 3428 
Q 1925 3584 2291 3584 
Q 2894 3584 3203 3211 
Q 3513 2838 3513 2113 
z
" transform="scale(0.015625)"/>
      <path id="DejaVuSans-2c" d="M 750 794 
L 1409 794 
L 1409 256 
L 897 -744 
L 494 -744 
L 750 256 
L 750 794 
z
" transform="scale(0.015625)"/>
     </defs>
     <use xlink:href="#DejaVuSans-53"/>
     <use xlink:href="#DejaVuSans-65" x="63.476562"/>
     <use xlink:href="#DejaVuSans-74" x="125"/>
     <use xlink:href="#DejaVuSans-74" x="164.208984"/>
     <use xlink:href="#DejaVuSans-69" x="203.417969"/>
     <use xlink:href="#DejaVuSans-6e" x="231.201172"/>
     <use xlink:href="#DejaVuSans-67" x="294.580078"/>
     <use xlink:href="#DejaVuSans-73" x="358.056641"/>
     <use xlink:href="#DejaVuSans-2c" x="410.15625"/>
     <use xlink:href="#DejaVuSans-20" x="441.943359"/>
     <use xlink:href="#DejaVuSans-66" x="473.730469"/>
     <use xlink:href="#DejaVuSans-6c" x="508.935547"/>
     <use xlink:href="#DejaVuSans-61" x="536.71875"/>
     <use xlink:href="#DejaVuSans-67" x="597.998047"/>
     <use xlink:href="#DejaVuSans-73" x="661.474609"/>
    </g>
   </g>
   <g id="text_3">
    <!-- FileManager / Codable files -->
    <g transform="translate(60.706875 99.381813) scale(0.08 -0.08)">
     <defs>
      <path id="DejaVuSans-46" d="M 628 4666 
L 3309 4666 
L 3309 4134 
L 1259 4134 
L 1259 2759 
L 3109 2759 
L 3109 2228 
L 1259 2228 
L 1259 0 
L 628 0 
L 628 4666 
z
" transform="scale(0.015625)"/>
      <path id="DejaVuSans-4d" d="M 628 4666 
L 1569 4666 
L 2759 1491 
L 3956 4666 
L 4897 4666 
L 4897 0 
L 4281 0 
L 4281 4097 
L 3078 897 
L 2444 897 
L 1241 4097 
L 1241 0 
L 628 0 
L 628 4666 
z
" transform="scale(0.015625)"/>
      <path id="DejaVuSans-43" d="M 4122 4306 
L 4122 3641 
Q 3803 3938 3442 4084 
Q 3081 4231 2675 4231 
Q 1875 4231 1450 3742 
Q 1025 3253 1025 2328 
Q 1025 1406 1450 917 
Q 1875 428 2675 428 
Q 3081 428 3442 575 
Q 3803 722 4122 1019 
L 4122 359 
Q 3791 134 3420 21 
Q 3050 -91 2638 -91 
Q 1578 -91 968 557 
Q 359 1206 359 2328 
Q 359 3453 968 4101 
Q 1578 4750 2638 4750 
Q 3056 4750 3426 4639 
Q 3797 4528 4122 4306 
z
" transform="scale(0.015625)"/>
      <path id="DejaVuSans-64" d="M 2906 2969 
L 2906 4863 
L 3481 4863 
L 3481 0 
L 2906 0 
L 2906 525 
Q 2725 213 2448 61 
Q 2172 -91 1784 -91 
Q 1150 -91 751 415 
Q 353 922 353 1747 
Q 353 2572 751 3078 
Q 1150 3584 1784 3584 
Q 2172 3584 2448 3432 
Q 2725 3281 2906 2969 
z
M 947 1747 
Q 947 1113 1208 752 
Q 1469 391 1925 391 
Q 2381 391 2643 752 
Q 2906 1113 2906 1747 
Q 2906 2381 2643 2742 
Q 2381 3103 1925 3103 
Q 1469 3103 1208 2742 
Q 947 2381 947 1747 
z
" transform="scale(0.015625)"/>
      <path id="DejaVuSans-62" d="M 3116 1747 
Q 3116 2381 2855 2742 
Q 2594 3103 2138 3103 
Q 1681 3103 1420 2742 
Q 1159 2381 1159 1747 
Q 1159 1113 1420 752 
Q 1681 391 2138 391 
Q 2594 391 2855 752 
Q 3116 1113 3116 1747 
z
M 1159 2969 
Q 1341 3281 1617 3432 
Q 1894 3584 2278 3584 
Q 2916 3584 3314 3078 
Q 3713 2572 3713 1747 
Q 3713 922 3314 415 
Q 2916 -91 2278 -91 
Q 1894 -91 1617 61 
Q 1341 213 1159 525 
L 1159 0 
L 581 0 
L 581 4863 
L 1159 4863 
L 1159 2969 
z
" transform="scale(0.015625)"/>
     </defs>
     <use xlink:href="#DejaVuSans-46"/>
     <use xlink:href="#DejaVuSans-69" x="50.269531"/>
     <use xlink:href="#DejaVuSans-6c" x="78.052734"/>
     <use xlink:href="#DejaVuSans-65" x="105.835938"/>
     <use xlink:href="#DejaVuSans-4d" x="167.359375"/>
     <use xlink:href="#DejaVuSans-61" x="253.638672"/>
     <use xlink:href="#DejaVuSans-6e" x="314.917969"/>
     <use xlink:href="#DejaVuSans-61" x="378.296875"/>
     <use xlink:href="#DejaVuSans-67" x="439.576172"/>
     <use xlink:href="#DejaVuSans-65" x="503.052734"/>
     <use xlink:href="#DejaVuSans-72" x="564.576172"/>
     <use xlink:href="#DejaVuSans-20" x="605.689453"/>
     <use xlink:href="#DejaVuSans-2f" x="637.476562"/>
     <use xlink:href="#DejaVuSans-20" x="671.167969"/>
     <use xlink:href="#DejaVuSans-43" x="702.955078"/>
     <use xlink:href="#DejaVuSans-6f" x="772.779297"/>
     <use xlink:href="#DejaVuSans-64" x="833.960938"/>
     <use xlink:href="#DejaVuSans-61" x="897.4375"/>
     <use xlink:href="#DejaVuSans-62" x="958.716797"/>
     <use xlink:href="#DejaVuSans-6c" x="1022.193359"/>
     <use xlink:href="#DejaVuSans-65" x="1049.976562"/>
     <use xlink:href="#DejaVuSans-20" x="1111.5"/>
     <use xlink:href="#DejaVuSans-66" x="1143.287109"/>
     <use xlink:href="#DejaVuSans-69" x="1178.492188"/>
     <use xlink:href="#DejaVuSans-6c" x="1206.275391"/>
     <use xlink:href="#DejaVuSans-65" x="1234.058594"/>
     <use xlink:href="#DejaVuSans-73" x="1295.582031"/>
    </g>
   </g>
   <g id="text_4">
    <!-- Documents, caches -->
    <g transform="translate(260.87125 99.381813) scale(0.08 -0.08)">
     <defs>
      <path id="DejaVuSans-63" d="M 3122 3366 
L 3122 2828 
Q 2878 2963 2633 3030 
Q 2388 3097 2138 3097 
Q 1578 3097 1268 2742 
Q 959 2388 959 1747 
Q 959 1106 1268 751 
Q 1578 397 2138 397 
Q 2388 397 2633 464 
Q 2878 531 3122 666 
L 3122 134 
Q 2881 22 2623 -34 
Q 2366 -91 2075 -91 
Q 1284 -91 818 406 
Q 353 903 353 1747 
Q 353 2603 823 3093 
Q 1294 3584 2113 3584 
Q 2378 3584 2631 3529 
Q 2884 3475 3122 3366 
z
" transform="scale(0.015625)"/>
      <path id="DejaVuSans-6d" d="M 3328 2828 
Q 3544 3216 3844 3400 
Q 4144 3584 4550 3584 
Q 5097 3584 5394 3201 
Q 5691 2819 5691 2113 
L 5691 0 
L 5113 0 
L 5113 2094 
Q 5113 2597 4934 2840 
Q 4756 3084 4391 3084 
Q 3944 3084 3684 2787 
Q 3425 2491 3425 1978 
L 3425 0 
L 2847 0 
L 2847 2094 
Q 2847 2600 2669 2842 
Q 2491 3084 2119 3084 
Q 1678 3084 1418 2786 
Q 1159 2488 1159 1978 
L 1159 0 
L 581 0 
L 581 3500 
L 1159 3500 
L 1159 2956 
Q 1356 3278 1631 3431 
Q 1906 3584 2284 3584 
Q 2666 3584 2933 3390 
Q 3200 3197 3328 2828 
z
" transform="scale(0.015625)"/>
      <path id="DejaVuSans-68" d="M 3513 2113 
L 3513 0 
L 2938 0 
L 2938 2094 
Q 2938 2591 2744 2837 
Q 2550 3084 2163 3084 
Q 1697 3084 1428 2787 
Q 1159 2491 1159 1978 
L 1159 0 
L 581 0 
L 581 4863 
L 1159 4863 
L 1159 2956 
Q 1366 3272 1645 3428 
Q 1925 3584 2291 3584 
Q 2894 3584 3203 3211 
Q 3513 2838 3513 2113 
z
" transform="scale(0.015625)"/>
     </defs>
     <use xlink:href="#DejaVuSans-44"/>
     <use xlink:href="#DejaVuSans-6f" x="77.001953"/>
     <use xlink:href="#DejaVuSans-63" x="138.183594"/>
     <use xlink:href="#DejaVuSans-75" x="193.164062"/>
     <use xlink:href="#DejaVuSans-6d" x="256.542969"/>
     <use xlink:href="#DejaVuSans-65" x="353.955078"/>
     <use xlink:href="#DejaVuSans-6e" x="415.478516"/>
     <use xlink:href="#DejaVuSans-74" x="478.857422"/>
     <use xlink:href="#DejaVuSans-73" x="518.066406"/>
     <use xlink:href="#DejaVuSans-2c" x="570.166016"/>
     <use xlink:href="#DejaVuSans-20" x="601.953125"/>
     <use xlink:href="#DejaVuSans-63" x="633.740234"/>
     <use xlink:href="#DejaVuSans-61" x="688.720703"/>
     <use xlink:href="#DejaVuSans-63" x="750"/>
     <use xlink:href="#DejaVuSans-68" x="804.980469"/>
     <use xlink:href="#DejaVuSans-65" x="868.359375"/>
     <use xlink:href="#DejaVuSans-73" x="929.882812"/>
    </g>
   </g>
   <g id="text_5">
    <!-- SwiftData / Core Data -->
    <g transform="translate(71.268125 147.429812) scale(0.08 -0.08)">
     <defs>
      <path id="DejaVuSans-77" d="M 269 3500 
L 844 3500 
L 1563 769 
L 2278 3500 
L 2956 3500 
L 3675 769 
L 4391 3500 
L 4966 3500 
L 4050 0 
L 3372 0 
L 2619 2869 
L 1863 0 
L 1184 0 
L 269 3500 
z
" transform="scale(0.015625)"/>
     </defs>
     <use xlink:href="#DejaVuSans-53"/>
     <use xlink:href="#DejaVuSans-77" x="63.476562"/>
     <use xlink:href="#DejaVuSans-69" x="145.263672"/>
     <use xlink:href="#DejaVuSans-66" x="173.046875"/>
     <use xlink:href="#DejaVuSans-74" x="206.501953"/>
     <use xlink:href="#DejaVuSans-44" x="245.710938"/>
     <use xlink:href="#DejaVuSans-61" x="322.712891"/>
     <use xlink:href="#DejaVuSans-74" x="383.992188"/>
     <use xlink:href="#DejaVuSans-61" x="423.201172"/>
     <use xlink:href="#DejaVuSans-20" x="484.480469"/>
     <use xlink:href="#DejaVuSans-2f" x="516.267578"/>
     <use xlink:href="#DejaVuSans-20" x="549.958984"/>
     <use xlink:href="#DejaVuSans-43" x="581.746094"/>
     <use xlink:href="#DejaVuSans-6f" x="651.570312"/>
     <use xlink:href="#DejaVuSans-72" x="712.751953"/>
     <use xlink:href="#DejaVuSans-65" x="751.615234"/>
     <use xlink:href="#DejaVuSans-20" x="813.138672"/>
     <use xlink:href="#DejaVuSans-44" x="844.925781"/>
     <use xlink:href="#DejaVuSans-61" x="921.927734"/>
     <use xlink:href="#DejaVuSans-74" x="983.207031"/>
     <use xlink:href="#DejaVuSans-61" x="1022.416016"/>
    </g>
   </g>
   <g id="text_6">
    <!-- Relational models -->
    <g transform="translate(264.491875 147.429812) scale(0.08 -0.08)">
     <defs>
      <path id="DejaVuSans-52" d="M 2841 2188 
Q 3044 2119 3236 1894 
Q 3428 1669 3622 1275 
L 4263 0 
L 3584 0 
L 2988 1197 
Q 2756 1666 2539 1819 
Q 2322 1972 1947 1972 
L 1259 1972 
L 1259 0 
L 628 0 
L 628 4666 
L 2053 4666 
Q 2853 4666 3247 4331 
Q 3641 3997 3641 3322 
Q 3641 2881 3436 2590 
Q 3231 2300 2841 2188 
z
M 1259 4147 
L 1259 2491 
L 2053 2491 
Q 2509 2491 2742 2702 
Q 2975 2913 2975 3322 
Q 2975 3731 2742 3939 
Q 2509 4147 2053 4147 
L 1259 4147 
z
" transform="scale(0.015625)"/>
     </defs>
     <use xlink:href="#DejaVuSans-52"/>
     <use xlink:href="#DejaVuSans-65" x="64.982422"/>
     <use xlink:href="#DejaVuSans-6c" x="126.505859"/>
     <use xlink:href="#DejaVuSans-61" x="154.289062"/>
     <use xlink:href="#DejaVuSans-74" x="215.568359"/>
     <use xlink:href="#DejaVuSans-69" x="254.777344"/>
     <use xlink:href="#DejaVuSans-6f" x="282.560547"/>
     <use xlink:href="#DejaVuSans-6e" x="343.742188"/>
     <use xlink:href="#DejaVuSans-61" x="407.121094"/>
     <use xlink:href="#DejaVuSans-6c" x="468.400391"/>
     <use xlink:href="#DejaVuSans-20" x="496.183594"/>
     <use xlink:href="#DejaVuSans-6d" x="527.970703"/>
     <use xlink:href="#DejaVuSans-6f" x="625.382812"/>
     <use xlink:href="#DejaVuSans-64" x="686.564453"/>
     <use xlink:href="#DejaVuSans-65" x="750.041016"/>
     <use xlink:href="#DejaVuSans-6c" x="811.564453"/>
     <use xlink:href="#DejaVuSans-73" x="839.347656"/>
    </g>
   </g>
   <g id="text_7">
    <!-- CloudKit / Firebase / Realm -->
    <g transform="translate(60.91375 195.477813) scale(0.08 -0.08)">
     <defs>
      <path id="DejaVuSans-4b" d="M 628 4666 
L 1259 4666 
L 1259 2694 
L 3353 4666 
L 4166 4666 
L 1850 2491 
L 4331 0 
L 3500 0 
L 1259 2247 
L 1259 0 
L 628 0 
L 628 4666 
z
" transform="scale(0.015625)"/>
     </defs>
     <use xlink:href="#DejaVuSans-43"/>
     <use xlink:href="#DejaVuSans-6c" x="69.824219"/>
     <use xlink:href="#DejaVuSans-6f" x="97.607422"/>
     <use xlink:href="#DejaVuSans-75" x="158.789062"/>
     <use xlink:href="#DejaVuSans-64" x="222.167969"/>
     <use xlink:href="#DejaVuSans-4b" x="285.644531"/>
     <use xlink:href="#DejaVuSans-69" x="351.220703"/>
     <use xlink:href="#DejaVuSans-74" x="379.003906"/>
     <use xlink:href="#DejaVuSans-20" x="418.212891"/>
     <use xlink:href="#DejaVuSans-2f" x="450"/>
     <use xlink:href="#DejaVuSans-20" x="483.691406"/>
     <use xlink:href="#DejaVuSans-46" x="515.478516"/>
     <use xlink:href="#DejaVuSans-69" x="565.748047"/>
     <use xlink:href="#DejaVuSans-72" x="593.53125"/>
     <use xlink:href="#DejaVuSans-65" x="632.394531"/>
     <use xlink:href="#DejaVuSans-62" x="693.917969"/>
     <use xlink:href="#DejaVuSans-61" x="757.394531"/>
     <use xlink:href="#DejaVuSans-73" x="818.673828"/>
     <use xlink:href="#DejaVuSans-65" x="870.773438"/>
     <use xlink:href="#DejaVuSans-20" x="932.296875"/>
     <use xlink:href="#DejaVuSans-2f" x="964.083984"/>
     <use xlink:href="#DejaVuSans-20" x="997.775391"/>
     <use xlink:href="#DejaVuSans-52" x="1029.5625"/>
     <use xlink:href="#DejaVuSans-65" x="1094.544922"/>
     <use xlink:href="#DejaVuSans-61" x="1156.068359"/>
     <use xlink:href="#DejaVuSans-6c" x="1217.347656"/>
     <use xlink:href="#DejaVuSans-6d" x="1245.130859"/>
    </g>
   </g>
   <g id="text_8">
    <!-- Sync &amp; cloud -->
    <g transform="translate(274.014375 195.477813) scale(0.08 -0.08)">
     <defs>
      <path id="DejaVuSans-79" d="M 2059 -325 
Q 1816 -950 1584 -1140 
Q 1353 -1331 966 -1331 
L 506 -1331 
L 506 -850 
L 844 -850 
Q 1081 -850 1212 -737 
Q 1344 -625 1503 -206 
L 1606 56 
L 191 3500 
L 800 3500 
L 1894 763 
L 2988 3500 
L 3597 3500 
L 2059 -325 
z
" transform="scale(0.015625)"/>
      <path id="DejaVuSans-26" d="M 1556 2509 
Q 1272 2256 1139 2004 
Q 1006 1753 1006 1478 
Q 1006 1022 1337 719 
Q 1669 416 2169 416 
Q 2466 416 2725 514 
Q 2984 613 3213 813 
L 1556 2509 
z
M 1997 2859 
L 3584 1234 
Q 3769 1513 3872 1830 
Q 3975 2147 3994 2503 
L 4575 2503 
Q 4538 2091 4375 1687 
Q 4213 1284 3922 891 
L 4794 0 
L 4006 0 
L 3559 459 
Q 3234 181 2878 45 
Q 2522 -91 2113 -91 
Q 1359 -91 881 339 
Q 403 769 403 1441 
Q 403 1841 612 2192 
Q 822 2544 1241 2853 
Q 1091 3050 1012 3245 
Q 934 3441 934 3628 
Q 934 4134 1281 4442 
Q 1628 4750 2203 4750 
Q 2463 4750 2720 4694 
Q 2978 4638 3244 4525 
L 3244 3956 
Q 2972 4103 2725 4179 
Q 2478 4256 2266 4256 
Q 1938 4256 1733 4082 
Q 1528 3909 1528 3634 
Q 1528 3475 1620 3314 
Q 1713 3153 1997 2859 
z
" transform="scale(0.015625)"/>
     </defs>
     <use xlink:href="#DejaVuSans-53"/>
     <use xlink:href="#DejaVuSans-79" x="63.476562"/>
     <use xlink:href="#DejaVuSans-6e" x="122.65625"/>
     <use xlink:href="#DejaVuSans-63" x="186.035156"/>
     <use xlink:href="#DejaVuSans-20" x="241.015625"/>
     <use xlink:href="#DejaVuSans-26" x="272.802734"/>
     <use xlink:href="#DejaVuSans-20" x="350.78125"/>
     <use xlink:href="#DejaVuSans-63" x="382.568359"/>
     <use xlink:href="#DejaVuSans-6c" x="437.548828"/>
     <use xlink:href="#DejaVuSans-6f" x="465.332031"/>
     <use xlink:href="#DejaVuSans-75" x="526.513672"/>
     <use xlink:href="#DejaVuSans-64" x="589.892578"/>
    </g>
   </g>
   <g id="text_9">
    <!-- Persistence options by complexity -->
    <g transform="translate(97.832813 15.406313) scale(0.108 -0.108)">
     <defs>
      <path id="DejaVuSans-Bold-50" d="M 588 4666 
L 2584 4666 
Q 3475 4666 3951 4270 
Q 4428 3875 4428 3144 
Q 4428 2409 3951 2014 
Q 3475 1619 2584 1619 
L 1791 1619 
L 1791 0 
L 588 0 
L 588 4666 
z
M 1791 3794 
L 1791 2491 
L 2456 2491 
Q 2806 2491 2997 2661 
Q 3188 2831 3188 3144 
Q 3188 3456 2997 3625 
Q 2806 3794 2456 3794 
L 1791 3794 
z
" transform="scale(0.015625)"/>
      <path id="DejaVuSans-Bold-65" d="M 4031 1759 
L 4031 1441 
L 1416 1441 
Q 1456 1047 1700 850 
Q 1944 653 2381 653 
Q 2734 653 3104 758 
Q 3475 863 3866 1075 
L 3866 213 
Q 3469 63 3072 -14 
Q 2675 -91 2278 -91 
Q 1328 -91 801 392 
Q 275 875 275 1747 
Q 275 2603 792 3093 
Q 1309 3584 2216 3584 
Q 3041 3584 3536 3087 
Q 4031 2591 4031 1759 
z
M 2881 2131 
Q 2881 2450 2695 2645 
Q 2509 2841 2209 2841 
Q 1884 2841 1681 2658 
Q 1478 2475 1428 2131 
L 2881 2131 
z
" transform="scale(0.015625)"/>
      <path id="DejaVuSans-Bold-72" d="M 3138 2547 
Q 2991 2616 2845 2648 
Q 2700 2681 2553 2681 
Q 2122 2681 1889 2404 
Q 1656 2128 1656 1613 
L 1656 0 
L 538 0 
L 538 3500 
L 1656 3500 
L 1656 2925 
Q 1872 3269 2151 3426 
Q 2431 3584 2822 3584 
Q 2878 3584 2943 3579 
Q 3009 3575 3134 3559 
L 3138 2547 
z
" transform="scale(0.015625)"/>
      <path id="DejaVuSans-Bold-73" d="M 3272 3391 
L 3272 2541 
Q 2913 2691 2578 2766 
Q 2244 2841 1947 2841 
Q 1628 2841 1473 2761 
Q 1319 2681 1319 2516 
Q 1319 2381 1436 2309 
Q 1553 2238 1856 2203 
L 2053 2175 
Q 2913 2066 3209 1816 
Q 3506 1566 3506 1031 
Q 3506 472 3093 190 
Q 2681 -91 1863 -91 
Q 1516 -91 1145 -36 
Q 775 19 384 128 
L 384 978 
Q 719 816 1070 734 
Q 1422 653 1784 653 
Q 2113 653 2278 743 
Q 2444 834 2444 1013 
Q 2444 1163 2330 1236 
Q 2216 1309 1875 1350 
L 1678 1375 
Q 931 1469 631 1722 
Q 331 1975 331 2491 
Q 331 3047 712 3315 
Q 1094 3584 1881 3584 
Q 2191 3584 2531 3537 
Q 2872 3491 3272 3391 
z
" transform="scale(0.015625)"/>
      <path id="DejaVuSans-Bold-69" d="M 538 3500 
L 1656 3500 
L 1656 0 
L 538 0 
L 538 3500 
z
M 538 4863 
L 1656 4863 
L 1656 3950 
L 538 3950 
L 538 4863 
z
" transform="scale(0.015625)"/>
      <path id="DejaVuSans-Bold-74" d="M 1759 4494 
L 1759 3500 
L 2913 3500 
L 2913 2700 
L 1759 2700 
L 1759 1216 
Q 1759 972 1856 886 
Q 1953 800 2241 800 
L 2816 800 
L 2816 0 
L 1856 0 
Q 1194 0 917 276 
Q 641 553 641 1216 
L 641 2700 
L 84 2700 
L 84 3500 
L 641 3500 
L 641 4494 
L 1759 4494 
z
" transform="scale(0.015625)"/>
      <path id="DejaVuSans-Bold-6e" d="M 4056 2131 
L 4056 0 
L 2931 0 
L 2931 347 
L 2931 1631 
Q 2931 2084 2911 2256 
Q 2891 2428 2841 2509 
Q 2775 2619 2662 2680 
Q 2550 2741 2406 2741 
Q 2056 2741 1856 2470 
Q 1656 2200 1656 1722 
L 1656 0 
L 538 0 
L 538 3500 
L 1656 3500 
L 1656 2988 
Q 1909 3294 2193 3439 
Q 2478 3584 2822 3584 
Q 3428 3584 3742 3212 
Q 4056 2841 4056 2131 
z
" transform="scale(0.015625)"/>
      <path id="DejaVuSans-Bold-63" d="M 3366 3391 
L 3366 2478 
Q 3138 2634 2908 2709 
Q 2678 2784 2431 2784 
Q 1963 2784 1702 2511 
Q 1441 2238 1441 1747 
Q 1441 1256 1702 982 
Q 1963 709 2431 709 
Q 2694 709 2930 787 
Q 3166 866 3366 1019 
L 3366 103 
Q 3103 6 2833 -42 
Q 2563 -91 2291 -91 
Q 1344 -91 809 395 
Q 275 881 275 1747 
Q 275 2613 809 3098 
Q 1344 3584 2291 3584 
Q 2566 3584 2833 3536 
Q 3100 3488 3366 3391 
z
" transform="scale(0.015625)"/>
      <path id="DejaVuSans-Bold-20" transform="scale(0.015625)"/>
      <path id="DejaVuSans-Bold-6f" d="M 2203 2784 
Q 1831 2784 1636 2517 
Q 1441 2250 1441 1747 
Q 1441 1244 1636 976 
Q 1831 709 2203 709 
Q 2569 709 2762 976 
Q 2956 1244 2956 1747 
Q 2956 2250 2762 2517 
Q 2569 2784 2203 2784 
z
M 2203 3584 
Q 3106 3584 3614 3096 
Q 4122 2609 4122 1747 
Q 4122 884 3614 396 
Q 3106 -91 2203 -91 
Q 1297 -91 786 396 
Q 275 884 275 1747 
Q 275 2609 786 3096 
Q 1297 3584 2203 3584 
z
" transform="scale(0.015625)"/>
      <path id="DejaVuSans-Bold-70" d="M 1656 506 
L 1656 -1331 
L 538 -1331 
L 538 3500 
L 1656 3500 
L 1656 2988 
Q 1888 3294 2169 3439 
Q 2450 3584 2816 3584 
Q 3463 3584 3878 3070 
Q 4294 2556 4294 1747 
Q 4294 938 3878 423 
Q 3463 -91 2816 -91 
Q 2450 -91 2169 54 
Q 1888 200 1656 506 
z
M 2400 2772 
Q 2041 2772 1848 2508 
Q 1656 2244 1656 1747 
Q 1656 1250 1848 986 
Q 2041 722 2400 722 
Q 2759 722 2948 984 
Q 3138 1247 3138 1747 
Q 3138 2247 2948 2509 
Q 2759 2772 2400 2772 
z
" transform="scale(0.015625)"/>
      <path id="DejaVuSans-Bold-62" d="M 2400 722 
Q 2759 722 2948 984 
Q 3138 1247 3138 1747 
Q 3138 2247 2948 2509 
Q 2759 2772 2400 2772 
Q 2041 2772 1848 2508 
Q 1656 2244 1656 1747 
Q 1656 1250 1848 986 
Q 2041 722 2400 722 
z
M 1656 2988 
Q 1888 3294 2169 3439 
Q 2450 3584 2816 3584 
Q 3463 3584 3878 3070 
Q 4294 2556 4294 1747 
Q 4294 938 3878 423 
Q 3463 -91 2816 -91 
Q 2450 -91 2169 54 
Q 1888 200 1656 506 
L 1656 0 
L 538 0 
L 538 4863 
L 1656 4863 
L 1656 2988 
z
" transform="scale(0.015625)"/>
      <path id="DejaVuSans-Bold-79" d="M 78 3500 
L 1197 3500 
L 2138 1125 
L 2938 3500 
L 4056 3500 
L 2584 -331 
Q 2363 -916 2067 -1148 
Q 1772 -1381 1288 -1381 
L 641 -1381 
L 641 -647 
L 991 -647 
Q 1275 -647 1404 -556 
Q 1534 -466 1606 -231 
L 1638 -134 
L 78 3500 
z
" transform="scale(0.015625)"/>
      <path id="DejaVuSans-Bold-6d" d="M 3781 2919 
Q 3994 3244 4286 3414 
Q 4578 3584 4928 3584 
Q 5531 3584 5847 3212 
Q 6163 2841 6163 2131 
L 6163 0 
L 5038 0 
L 5038 1825 
Q 5041 1866 5042 1909 
Q 5044 1953 5044 2034 
Q 5044 2406 4934 2573 
Q 4825 2741 4581 2741 
Q 4263 2741 4089 2478 
Q 3916 2216 3909 1719 
L 3909 0 
L 2784 0 
L 2784 1825 
Q 2784 2406 2684 2573 
Q 2584 2741 2328 2741 
Q 2006 2741 1831 2477 
Q 1656 2213 1656 1722 
L 1656 0 
L 531 0 
L 531 3500 
L 1656 3500 
L 1656 2988 
Q 1863 3284 2130 3434 
Q 2397 3584 2719 3584 
Q 3081 3584 3359 3409 
Q 3638 3234 3781 2919 
z
" transform="scale(0.015625)"/>
      <path id="DejaVuSans-Bold-6c" d="M 538 4863 
L 1656 4863 
L 1656 0 
L 538 0 
L 538 4863 
z
" transform="scale(0.015625)"/>
      <path id="DejaVuSans-Bold-78" d="M 1422 1791 
L 159 3500 
L 1344 3500 
L 2059 2463 
L 2784 3500 
L 3969 3500 
L 2706 1797 
L 4031 0 
L 2847 0 
L 2059 1106 
L 1281 0 
L 97 0 
L 1422 1791 
z
" transform="scale(0.015625)"/>
     </defs>
     <use xlink:href="#DejaVuSans-Bold-50"/>
     <use xlink:href="#DejaVuSans-Bold-65" x="73.291016"/>
     <use xlink:href="#DejaVuSans-Bold-72" x="141.113281"/>
     <use xlink:href="#DejaVuSans-Bold-73" x="190.429688"/>
     <use xlink:href="#DejaVuSans-Bold-69" x="249.951172"/>
     <use xlink:href="#DejaVuSans-Bold-73" x="284.228516"/>
     <use xlink:href="#DejaVuSans-Bold-74" x="343.75"/>
     <use xlink:href="#DejaVuSans-Bold-65" x="391.552734"/>
     <use xlink:href="#DejaVuSans-Bold-6e" x="459.375"/>
     <use xlink:href="#DejaVuSans-Bold-63" x="530.566406"/>
     <use xlink:href="#DejaVuSans-Bold-65" x="589.84375"/>
     <use xlink:href="#DejaVuSans-Bold-20" x="657.666016"/>
     <use xlink:href="#DejaVuSans-Bold-6f" x="692.480469"/>
     <use xlink:href="#DejaVuSans-Bold-70" x="761.181641"/>
     <use xlink:href="#DejaVuSans-Bold-74" x="832.763672"/>
     <use xlink:href="#DejaVuSans-Bold-69" x="880.566406"/>
     <use xlink:href="#DejaVuSans-Bold-6f" x="914.84375"/>
     <use xlink:href="#DejaVuSans-Bold-6e" x="983.544922"/>
     <use xlink:href="#DejaVuSans-Bold-73" x="1054.736328"/>
     <use xlink:href="#DejaVuSans-Bold-20" x="1114.257812"/>
     <use xlink:href="#DejaVuSans-Bold-62" x="1149.072266"/>
     <use xlink:href="#DejaVuSans-Bold-79" x="1220.654297"/>
     <use xlink:href="#DejaVuSans-Bold-20" x="1285.839844"/>
     <use xlink:href="#DejaVuSans-Bold-63" x="1320.654297"/>
     <use xlink:href="#DejaVuSans-Bold-6f" x="1379.931641"/>
     <use xlink:href="#DejaVuSans-Bold-6d" x="1448.632812"/>
     <use xlink:href="#DejaVuSans-Bold-70" x="1552.832031"/>
     <use xlink:href="#DejaVuSans-Bold-6c" x="1624.414062"/>
     <use xlink:href="#DejaVuSans-Bold-65" x="1658.691406"/>
     <use xlink:href="#DejaVuSans-Bold-78" x="1726.513672"/>
     <use xlink:href="#DejaVuSans-Bold-69" x="1791.015625"/>
     <use xlink:href="#DejaVuSans-Bold-74" x="1825.292969"/>
     <use xlink:href="#DejaVuSans-Bold-79" x="1873.095703"/>
    </g>
   </g>
  </g>
 </g>
 <defs>
  <clipPath id="p7b4c53dc0f">
   <rect x="7.2" y="21.406313" width="390.6" height="221.76"/>
  </clipPath>
 </defs>
</svg>
