<?xml version="1.0" encoding="utf-8" standalone="no"?>
<!DOCTYPE svg PUBLIC "-//W3C//DTD SVG 1.1//EN"
  "http://www.w3.org/Graphics/SVG/1.1/DTD/svg11.dtd">
<svg xmlns:xlink="http://www.w3.org/1999/xlink" width="251.56pt" height="222.038438pt" viewBox="0 0 251.56 222.038438" xmlns="http://www.w3.org/2000/svg" version="1.1">
 <metadata>
  <rdf:RDF xmlns:dc="http://purl.org/dc/elements/1.1/" xmlns:cc="http://creativecommons.org/ns#" xmlns:rdf="http://www.w3.org/1999/02/22-rdf-syntax-ns#">
   <cc:Work>
    <dc:type rdf:resource="http://purl.org/dc/dcmitype/StillImage"/>
    <dc:date>2026-06-14T16:20:28.232974</dc:date>
    <dc:format>image/svg+xml</dc:format>
    <dc:creator>
     <cc:Agent>
      <dc:title>Matplotlib v3.9.4, https://matplotlib.org/</dc:title>
     </cc:Agent>
    </dc:creator>
   </cc:Work>
  </rdf:RDF>
 </metadata>
 <defs>
  <style type="text/css">*{stroke-linejoin: round; stroke-linecap: butt}</style>
 </defs>
 <g id="figure_1">
  <g id="patch_1">
   <path d="M 0 222.038438 
L 251.56 222.038438 
L 251.56 0 
L 0 0 
z
" style="fill: #ffffff"/>
  </g>
  <g id="axes_1">
   <g id="patch_2">
    <path d="M 50.32 147.463437 
C 58.181946 147.463437 65.722945 144.339853 71.282181 138.780618 
C 76.841416 133.221383 79.965 125.680383 79.965 117.818438 
C 79.965 109.956492 76.841416 102.415492 71.282181 96.856257 
C 65.722945 91.297022 58.181946 88.173437 50.32 88.173437 
C 42.458054 88.173437 34.917055 91.297022 29.357819 96.856257 
C 23.798584 102.415492 20.675 109.956492 20.675 117.818438 
C 20.675 125.680383 23.798584 133.221383 29.357819 138.780618 
C 34.917055 144.339853 42.458054 147.463437 50.32 147.463437 
z
" clip-path="url(#p65f0427e55)" style="fill: #d6f0ff; stroke: #000000; stroke-linejoin: miter"/>
   </g>
   <g id="patch_3">
    <path d="M 125.78 82.783437 
C 133.641946 82.783437 141.182945 79.659853 146.742181 74.100618 
C 152.301416 68.541383 155.425 61.000383 155.425 53.138437 
C 155.425 45.276492 152.301416 37.735492 146.742181 32.176257 
C 141.182945 26.617022 133.641946 23.493437 125.78 23.493437 
C 117.918054 23.493437 110.377055 26.617022 104.817819 32.176257 
C 99.258584 37.735492 96.135 45.276492 96.135 53.138437 
C 96.135 61.000383 99.258584 68.541383 104.817819 74.100618 
C 110.377055 79.659853 117.918054 82.783437 125.78 82.783437 
z
" clip-path="url(#p65f0427e55)" style="fill: #d6f0ff; stroke: #000000; stroke-linejoin: miter"/>
   </g>
   <g id="patch_4">
    <path d="M 125.78 212.143438 
C 133.641946 212.143438 141.182945 209.019853 146.742181 203.460618 
C 152.301416 197.901383 155.425 190.360383 155.425 182.498438 
C 155.425 174.636492 152.301416 167.095492 146.742181 161.536257 
C 141.182945 155.977022 133.641946 152.853438 125.78 152.853438 
C 117.918054 152.853438 110.377055 155.977022 104.817819 161.536257 
C 99.258584 167.095492 96.135 174.636492 96.135 182.498438 
C 96.135 190.360383 99.258584 197.901383 104.817819 203.460618 
C 110.377055 209.019853 117.918054 212.143438 125.78 212.143438 
z
" clip-path="url(#p65f0427e55)" style="fill: #d6f0ff; stroke: #000000; stroke-linejoin: miter"/>
   </g>
   <g id="patch_5">
    <path d="M 201.24 147.463437 
C 209.101946 147.463437 216.642945 144.339853 222.202181 138.780618 
C 227.761416 133.221383 230.885 125.680383 230.885 117.818438 
C 230.885 109.956492 227.761416 102.415492 222.202181 96.856257 
C 216.642945 91.297022 209.101946 88.173437 201.24 88.173437 
C 193.378054 88.173437 185.837055 91.297022 180.277819 96.856257 
C 174.718584 102.415492 171.595 109.956492 171.595 117.818438 
C 171.595 125.680383 174.718584 133.221383 180.277819 138.780618 
C 185.837055 144.339853 193.378054 147.463437 201.24 147.463437 
z
" clip-path="url(#p65f0427e55)" style="fill: #d6f0ff; stroke: #000000; stroke-linejoin: miter"/>
   </g>
   <g id="text_1">
    <!-- iter() -->
    <g transform="translate(41.652031 119.75) scale(0.07 -0.07)">
     <defs>
      <path id="DejaVuSans-69" d="M 603 3500 
L 1178 3500 
L 1178 0 
L 603 0 
L 603 3500 
z
M 603 4863 
L 1178 4863 
L 1178 4134 
L 603 4134 
L 603 4863 
z
" transform="scale(0.015625)"/>
      <path id="DejaVuSans-74" d="M 1172 4494 
L 1172 3500 
L 2356 3500 
L 2356 3053 
L 1172 3053 
L 1172 1153 
Q 1172 725 1289 603 
Q 1406 481 1766 481 
L 2356 481 
L 2356 0 
L 1766 0 
Q 1100 0 847 248 
Q 594 497 594 1153 
L 594 3053 
L 172 3053 
L 172 3500 
L 594 3500 
L 594 4494 
L 1172 4494 
z
" transform="scale(0.015625)"/>
      <path id="DejaVuSans-65" d="M 3597 1894 
L 3597 1613 
L 953 1613 
Q 991 1019 1311 708 
Q 1631 397 2203 397 
Q 2534 397 2845 478 
Q 3156 559 3463 722 
L 3463 178 
Q 3153 47 2828 -22 
Q 2503 -91 2169 -91 
Q 1331 -91 842 396 
Q 353 884 353 1716 
Q 353 2575 817 3079 
Q 1281 3584 2069 3584 
Q 2775 3584 3186 3129 
Q 3597 2675 3597 1894 
z
M 3022 2063 
Q 3016 2534 2758 2815 
Q 2500 3097 2075 3097 
Q 1594 3097 1305 2825 
Q 1016 2553 972 2059 
L 3022 2063 
z
" transform="scale(0.015625)"/>
      <path id="DejaVuSans-72" d="M 2631 2963 
Q 2534 3019 2420 3045 
Q 2306 3072 2169 3072 
Q 1681 3072 1420 2755 
Q 1159 2438 1159 1844 
L 1159 0 
L 581 0 
L 581 3500 
L 1159 3500 
L 1159 2956 
Q 1341 3275 1631 3429 
Q 1922 3584 2338 3584 
Q 2397 3584 2469 3576 
Q 2541 3569 2628 3553 
L 2631 2963 
z
" transform="scale(0.015625)"/>
      <path id="DejaVuSans-28" d="M 1984 4856 
Q 1566 4138 1362 3434 
Q 1159 2731 1159 2009 
Q 1159 1288 1364 580 
Q 1569 -128 1984 -844 
L 1484 -844 
Q 1016 -109 783 600 
Q 550 1309 550 2009 
Q 550 2706 781 3412 
Q 1013 4119 1484 4856 
L 1984 4856 
z
" transform="scale(0.015625)"/>
      <path id="DejaVuSans-29" d="M 513 4856 
L 1013 4856 
Q 1481 4119 1714 3412 
Q 1947 2706 1947 2009 
Q 1947 1309 1714 600 
Q 1481 -109 1013 -844 
L 513 -844 
Q 928 -128 1133 580 
Q 1338 1288 1338 2009 
Q 1338 2731 1133 3434 
Q 928 4138 513 4856 
z
" transform="scale(0.015625)"/>
     </defs>
     <use xlink:href="#DejaVuSans-69"/>
     <use xlink:href="#DejaVuSans-74" x="27.783203"/>
     <use xlink:href="#DejaVuSans-65" x="66.992188"/>
     <use xlink:href="#DejaVuSans-72" x="128.515625"/>
     <use xlink:href="#DejaVuSans-28" x="169.628906"/>
     <use xlink:href="#DejaVuSans-29" x="208.642578"/>
    </g>
   </g>
   <g id="text_2">
    <!-- __next__ -->
    <g transform="translate(111.025859 50.956078) scale(0.07 -0.07)">
     <defs>
      <path id="DejaVuSans-5f" d="M 3263 -1063 
L 3263 -1509 
L -63 -1509 
L -63 -1063 
L 3263 -1063 
z
" transform="scale(0.015625)"/>
      <path id="DejaVuSans-6e" d="M 3513 2113 
L 3513 0 
L 2938 0 
L 2938 2094 
Q 2938 2591 2744 2837 
Q 2550 3084 2163 3084 
Q 1697 3084 1428 2787 
Q 1159 2491 1159 1978 
L 1159 0 
L 581 0 
L 581 3500 
L 1159 3500 
L 1159 2956 
Q 1366 3272 1645 3428 
Q 1925 3584 2291 3584 
Q 2894 3584 3203 3211 
Q 3513 2838 3513 2113 
z
" transform="scale(0.015625)"/>
      <path id="DejaVuSans-78" d="M 3513 3500 
L 2247 1797 
L 3578 0 
L 2900 0 
L 1881 1375 
L 863 0 
L 184 0 
L 1544 1831 
L 300 3500 
L 978 3500 
L 1906 2253 
L 2834 3500 
L 3513 3500 
z
" transform="scale(0.015625)"/>
     </defs>
     <use xlink:href="#DejaVuSans-5f"/>
     <use xlink:href="#DejaVuSans-5f" x="50"/>
     <use xlink:href="#DejaVuSans-6e" x="100"/>
     <use xlink:href="#DejaVuSans-65" x="163.378906"/>
     <use xlink:href="#DejaVuSans-78" x="223.152344"/>
     <use xlink:href="#DejaVuSans-74" x="282.332031"/>
     <use xlink:href="#DejaVuSans-5f" x="321.541016"/>
     <use xlink:href="#DejaVuSans-5f" x="371.541016"/>
    </g>
    <!-- -&gt; value -->
    <g transform="translate(110.911563 58.989234) scale(0.07 -0.07)">
     <defs>
      <path id="DejaVuSans-2d" d="M 313 2009 
L 1997 2009 
L 1997 1497 
L 313 1497 
L 313 2009 
z
" transform="scale(0.015625)"/>
      <path id="DejaVuSans-3e" d="M 678 3150 
L 678 3719 
L 4684 2266 
L 4684 1747 
L 678 294 
L 678 863 
L 3897 2003 
L 678 3150 
z
" transform="scale(0.015625)"/>
      <path id="DejaVuSans-20" transform="scale(0.015625)"/>
      <path id="DejaVuSans-76" d="M 191 3500 
L 800 3500 
L 1894 563 
L 2988 3500 
L 3597 3500 
L 2284 0 
L 1503 0 
L 191 3500 
z
" transform="scale(0.015625)"/>
      <path id="DejaVuSans-61" d="M 2194 1759 
Q 1497 1759 1228 1600 
Q 959 1441 959 1056 
Q 959 750 1161 570 
Q 1363 391 1709 391 
Q 2188 391 2477 730 
Q 2766 1069 2766 1631 
L 2766 1759 
L 2194 1759 
z
M 3341 1997 
L 3341 0 
L 2766 0 
L 2766 531 
Q 2569 213 2275 61 
Q 1981 -91 1556 -91 
Q 1019 -91 701 211 
Q 384 513 384 1019 
Q 384 1609 779 1909 
Q 1175 2209 1959 2209 
L 2766 2209 
L 2766 2266 
Q 2766 2663 2505 2880 
Q 2244 3097 1772 3097 
Q 1472 3097 1187 3025 
Q 903 2953 641 2809 
L 641 3341 
Q 956 3463 1253 3523 
Q 1550 3584 1831 3584 
Q 2591 3584 2966 3190 
Q 3341 2797 3341 1997 
z
" transform="scale(0.015625)"/>
      <path id="DejaVuSans-6c" d="M 603 4863 
L 1178 4863 
L 1178 0 
L 603 0 
L 603 4863 
z
" transform="scale(0.015625)"/>
      <path id="DejaVuSans-75" d="M 544 1381 
L 544 3500 
L 1119 3500 
L 1119 1403 
Q 1119 906 1312 657 
Q 1506 409 1894 409 
Q 2359 409 2629 706 
Q 2900 1003 2900 1516 
L 2900 3500 
L 3475 3500 
L 3475 0 
L 2900 0 
L 2900 538 
Q 2691 219 2414 64 
Q 2138 -91 1772 -91 
Q 1169 -91 856 284 
Q 544 659 544 1381 
z
M 1991 3584 
L 1991 3584 
z
" transform="scale(0.015625)"/>
     </defs>
     <use xlink:href="#DejaVuSans-2d"/>
     <use xlink:href="#DejaVuSans-3e" x="36.083984"/>
     <use xlink:href="#DejaVuSans-20" x="119.873047"/>
     <use xlink:href="#DejaVuSans-76" x="151.660156"/>
     <use xlink:href="#DejaVuSans-61" x="210.839844"/>
     <use xlink:href="#DejaVuSans-6c" x="272.119141"/>
     <use xlink:href="#DejaVuSans-75" x="299.902344"/>
     <use xlink:href="#DejaVuSans-65" x="363.28125"/>
    </g>
   </g>
   <g id="text_3">
    <!-- __next__ -->
    <g transform="translate(111.025859 180.316078) scale(0.07 -0.07)">
     <use xlink:href="#DejaVuSans-5f"/>
     <use xlink:href="#DejaVuSans-5f" x="50"/>
     <use xlink:href="#DejaVuSans-6e" x="100"/>
     <use xlink:href="#DejaVuSans-65" x="163.378906"/>
     <use xlink:href="#DejaVuSans-78" x="223.152344"/>
     <use xlink:href="#DejaVuSans-74" x="282.332031"/>
     <use xlink:href="#DejaVuSans-5f" x="321.541016"/>
     <use xlink:href="#DejaVuSans-5f" x="371.541016"/>
    </g>
    <!-- -&gt; value -->
    <g transform="translate(110.911563 188.349234) scale(0.07 -0.07)">
     <use xlink:href="#DejaVuSans-2d"/>
     <use xlink:href="#DejaVuSans-3e" x="36.083984"/>
     <use xlink:href="#DejaVuSans-20" x="119.873047"/>
     <use xlink:href="#DejaVuSans-76" x="151.660156"/>
     <use xlink:href="#DejaVuSans-61" x="210.839844"/>
     <use xlink:href="#DejaVuSans-6c" x="272.119141"/>
     <use xlink:href="#DejaVuSans-75" x="299.902344"/>
     <use xlink:href="#DejaVuSans-65" x="363.28125"/>
    </g>
   </g>
   <g id="text_4">
    <!-- StopIteration -->
    <g transform="translate(178.436406 119.75) scale(0.07 -0.07)">
     <defs>
      <path id="DejaVuSans-53" d="M 3425 4513 
L 3425 3897 
Q 3066 4069 2747 4153 
Q 2428 4238 2131 4238 
Q 1616 4238 1336 4038 
Q 1056 3838 1056 3469 
Q 1056 3159 1242 3001 
Q 1428 2844 1947 2747 
L 2328 2669 
Q 3034 2534 3370 2195 
Q 3706 1856 3706 1288 
Q 3706 609 3251 259 
Q 2797 -91 1919 -91 
Q 1588 -91 1214 -16 
Q 841 59 441 206 
L 441 856 
Q 825 641 1194 531 
Q 1563 422 1919 422 
Q 2459 422 2753 634 
Q 3047 847 3047 1241 
Q 3047 1584 2836 1778 
Q 2625 1972 2144 2069 
L 1759 2144 
Q 1053 2284 737 2584 
Q 422 2884 422 3419 
Q 422 4038 858 4394 
Q 1294 4750 2059 4750 
Q 2388 4750 2728 4690 
Q 3069 4631 3425 4513 
z
" transform="scale(0.015625)"/>
      <path id="DejaVuSans-6f" d="M 1959 3097 
Q 1497 3097 1228 2736 
Q 959 2375 959 1747 
Q 959 1119 1226 758 
Q 1494 397 1959 397 
Q 2419 397 2687 759 
Q 2956 1122 2956 1747 
Q 2956 2369 2687 2733 
Q 2419 3097 1959 3097 
z
M 1959 3584 
Q 2709 3584 3137 3096 
Q 3566 2609 3566 1747 
Q 3566 888 3137 398 
Q 2709 -91 1959 -91 
Q 1206 -91 779 398 
Q 353 888 353 1747 
Q 353 2609 779 3096 
Q 1206 3584 1959 3584 
z
" transform="scale(0.015625)"/>
      <path id="DejaVuSans-70" d="M 1159 525 
L 1159 -1331 
L 581 -1331 
L 581 3500 
L 1159 3500 
L 1159 2969 
Q 1341 3281 1617 3432 
Q 1894 3584 2278 3584 
Q 2916 3584 3314 3078 
Q 3713 2572 3713 1747 
Q 3713 922 3314 415 
Q 2916 -91 2278 -91 
Q 1894 -91 1617 61 
Q 1341 213 1159 525 
z
M 3116 1747 
Q 3116 2381 2855 2742 
Q 2594 3103 2138 3103 
Q 1681 3103 1420 2742 
Q 1159 2381 1159 1747 
Q 1159 1113 1420 752 
Q 1681 391 2138 391 
Q 2594 391 2855 752 
Q 3116 1113 3116 1747 
z
" transform="scale(0.015625)"/>
      <path id="DejaVuSans-49" d="M 628 4666 
L 1259 4666 
L 1259 0 
L 628 0 
L 628 4666 
z
" transform="scale(0.015625)"/>
     </defs>
     <use xlink:href="#DejaVuSans-53"/>
     <use xlink:href="#DejaVuSans-74" x="63.476562"/>
     <use xlink:href="#DejaVuSans-6f" x="102.685547"/>
     <use xlink:href="#DejaVuSans-70" x="163.867188"/>
     <use xlink:href="#DejaVuSans-49" x="227.34375"/>
     <use xlink:href="#DejaVuSans-74" x="256.835938"/>
     <use xlink:href="#DejaVuSans-65" x="296.044922"/>
     <use xlink:href="#DejaVuSans-72" x="357.568359"/>
     <use xlink:href="#DejaVuSans-61" x="398.681641"/>
     <use xlink:href="#DejaVuSans-74" x="459.960938"/>
     <use xlink:href="#DejaVuSans-69" x="499.169922"/>
     <use xlink:href="#DejaVuSans-6f" x="526.953125"/>
     <use xlink:href="#DejaVuSans-6e" x="588.134766"/>
    </g>
   </g>
   <g id="patch_6">
    <path d="M 76.384552 106.181281 
Q 100.179326 94.910073 122.96369 84.117479 
" style="fill: none; stroke: #000000; stroke-linecap: round"/>
    <path d="M 118.492566 84.022349 
L 122.96369 84.117479 
L 120.204911 87.6373 
" style="fill: none; stroke: #000000; stroke-linecap: round"/>
   </g>
   <g id="patch_7">
    <path d="M 125.78 84.780672 
Q 125.78 117.817818 125.78 149.736929 
" style="fill: none; stroke: #000000; stroke-linecap: round"/>
    <path d="M 127.78 145.736929 
L 125.78 149.736929 
L 123.78 145.736929 
" style="fill: none; stroke: #000000; stroke-linecap: round"/>
   </g>
   <g id="patch_8">
    <path d="M 127.270771 151.51959 
Q 151.382961 129.945525 174.661946 109.11696 
" style="fill: none; stroke: #000000; stroke-linecap: round"/>
    <path d="M 170.347391 110.293656 
L 174.661946 109.11696 
L 173.01457 113.274622 
" style="fill: none; stroke: #000000; stroke-linecap: round"/>
   </g>
   <g id="text_5">
    <!-- Iterator protocol lifecycle -->
    <g transform="translate(62.963594 14.798438) scale(0.1 -0.1)">
     <defs>
      <path id="DejaVuSans-63" d="M 3122 3366 
L 3122 2828 
Q 2878 2963 2633 3030 
Q 2388 3097 2138 3097 
Q 1578 3097 1268 2742 
Q 959 2388 959 1747 
Q 959 1106 1268 751 
Q 1578 397 2138 397 
Q 2388 397 2633 464 
Q 2878 531 3122 666 
L 3122 134 
Q 2881 22 2623 -34 
Q 2366 -91 2075 -91 
Q 1284 -91 818 406 
Q 353 903 353 1747 
Q 353 2603 823 3093 
Q 1294 3584 2113 3584 
Q 2378 3584 2631 3529 
Q 2884 3475 3122 3366 
z
" transform="scale(0.015625)"/>
      <path id="DejaVuSans-66" d="M 2375 4863 
L 2375 4384 
L 1825 4384 
Q 1516 4384 1395 4259 
Q 1275 4134 1275 3809 
L 1275 3500 
L 2222 3500 
L 2222 3053 
L 1275 3053 
L 1275 0 
L 697 0 
L 697 3053 
L 147 3053 
L 147 3500 
L 697 3500 
L 697 3744 
Q 697 4328 969 4595 
Q 1241 4863 1831 4863 
L 2375 4863 
z
" transform="scale(0.015625)"/>
      <path id="DejaVuSans-79" d="M 2059 -325 
Q 1816 -950 1584 -1140 
Q 1353 -1331 966 -1331 
L 506 -1331 
L 506 -850 
L 844 -850 
Q 1081 -850 1212 -737 
Q 1344 -625 1503 -206 
L 1606 56 
L 191 3500 
L 800 3500 
L 1894 763 
L 2988 3500 
L 3597 3500 
L 2059 -325 
z
" transform="scale(0.015625)"/>
     </defs>
     <use xlink:href="#DejaVuSans-49"/>
     <use xlink:href="#DejaVuSans-74" x="29.492188"/>
     <use xlink:href="#DejaVuSans-65" x="68.701172"/>
     <use xlink:href="#DejaVuSans-72" x="130.224609"/>
     <use xlink:href="#DejaVuSans-61" x="171.337891"/>
     <use xlink:href="#DejaVuSans-74" x="232.617188"/>
     <use xlink:href="#DejaVuSans-6f" x="271.826172"/>
     <use xlink:href="#DejaVuSans-72" x="333.007812"/>
     <use xlink:href="#DejaVuSans-20" x="374.121094"/>
     <use xlink:href="#DejaVuSans-70" x="405.908203"/>
     <use xlink:href="#DejaVuSans-72" x="469.384766"/>
     <use xlink:href="#DejaVuSans-6f" x="508.248047"/>
     <use xlink:href="#DejaVuSans-74" x="569.429688"/>
     <use xlink:href="#DejaVuSans-6f" x="608.638672"/>
     <use xlink:href="#DejaVuSans-63" x="669.820312"/>
     <use xlink:href="#DejaVuSans-6f" x="724.800781"/>
     <use xlink:href="#DejaVuSans-6c" x="785.982422"/>
     <use xlink:href="#DejaVuSans-20" x="813.765625"/>
     <use xlink:href="#DejaVuSans-6c" x="845.552734"/>
     <use xlink:href="#DejaVuSans-69" x="873.335938"/>
     <use xlink:href="#DejaVuSans-66" x="901.119141"/>
     <use xlink:href="#DejaVuSans-65" x="936.324219"/>
     <use xlink:href="#DejaVuSans-63" x="997.847656"/>
     <use xlink:href="#DejaVuSans-79" x="1052.828125"/>
     <use xlink:href="#DejaVuSans-63" x="1112.007812"/>
     <use xlink:href="#DejaVuSans-6c" x="1166.988281"/>
     <use xlink:href="#DejaVuSans-65" x="1194.771484"/>
    </g>
   </g>
  </g>
 </g>
 <defs>
  <clipPath id="p65f0427e55">
   <rect x="7.2" y="20.798438" width="237.16" height="194.04"/>
  </clipPath>
 </defs>
</svg>
