<?xml version="1.0" encoding="UTF-8"?>
<svg xmlns="http://www.w3.org/2000/svg" width="960" height="540" viewBox="0 0 960 540" role="img" aria-labelledby="title desc">
  <title id="title">Swift - Pitfalls</title>
  <desc id="desc">Visual study diagram for the Pitfalls section in 19 - Advanced Testing: Fakes, Async, UI Boundaries, and CI.</desc>
  <defs>
    <marker id="arrow" viewBox="0 0 10 10" refX="8" refY="5" markerWidth="8" markerHeight="8" orient="auto-start-reverse">
      <path d="M 0 0 L 10 5 L 0 10 z" fill="#f97316"/>
    </marker>
    <filter id="shadow" x="-10%" y="-10%" width="120%" height="120%">
      <feDropShadow dx="0" dy="8" stdDeviation="10" flood-color="#0f172a" flood-opacity="0.10"/>
    </filter>
  </defs>
  <rect width="960" height="540" fill="#fffaf5"/>
  <rect x="28" y="28" width="904" height="484" rx="28" fill="#ffffff" stroke="#e2e8f0" filter="url(#shadow)"/>
  <rect x="28" y="28" width="904" height="82" rx="28" fill="#ffedd5"/>
  <rect x="28" y="82" width="904" height="28" fill="#ffedd5"/>
  <text x="60" y="66" font-size="18" font-weight="800" fill="#f97316">Swift visual model</text>
  <text x="60" y="96" text-anchor="start" font-size="28" font-weight="850" fill="#111827"><tspan x="60" dy="0">Pitfalls</tspan></text>
  <text x="900" y="66" text-anchor="end" font-size="14" font-weight="700" fill="#475569">warning</text>
  <rect x="70" y="230" width="365" height="175" rx="18" fill="#fef2f2" stroke="#fca5a5" stroke-width="2"/><rect x="525" y="230" width="365" height="175" rx="18" fill="#ecfdf5" stroke="#86efac" stroke-width="2"/><text x="252" y="278" text-anchor="middle" font-size="23" font-weight="800" fill="#991b1b"><tspan x="252" dy="0">Wrong assumption</tspan></text><text x="252" y="338" text-anchor="middle" font-size="19" font-weight="650" fill="#7f1d1d"><tspan x="252" dy="0">Failure mode</tspan></text><text x="708" y="278" text-anchor="middle" font-size="23" font-weight="800" fill="#166534"><tspan x="708" dy="0">Correct rule</tspan></text><text x="708" y="338" text-anchor="middle" font-size="19" font-weight="650" fill="#14532d"><tspan x="708" dy="0">Quick check</tspan></text><path d="M 440 318 C 480 318, 480 318, 520 318" fill="none" stroke="#dc2626" stroke-width="3" marker-end="url(#arrow)"/><rect x="250" y="430" width="460" height="48" rx="14" fill="#ffffff" stroke="#cbd5e1" stroke-width="2"/><text x="480" y="461" text-anchor="middle" font-size="17" font-weight="650" fill="#334155"><tspan x="480" dy="0">Replace the left-hand belief with the right-hand rule.</tspan></text>
</svg>
