<?xml version="1.0" encoding="utf-8" standalone="no"?>
<!DOCTYPE svg PUBLIC "-//W3C//DTD SVG 1.1//EN"
  "http://www.w3.org/Graphics/SVG/1.1/DTD/svg11.dtd">
<svg xmlns:xlink="http://www.w3.org/1999/xlink" width="405pt" height="222.646312pt" viewBox="0 0 405 222.646312" xmlns="http://www.w3.org/2000/svg" version="1.1">
 <metadata>
  <rdf:RDF xmlns:dc="http://purl.org/dc/elements/1.1/" xmlns:cc="http://creativecommons.org/ns#" xmlns:rdf="http://www.w3.org/1999/02/22-rdf-syntax-ns#">
   <cc:Work>
    <dc:type rdf:resource="http://purl.org/dc/dcmitype/StillImage"/>
    <dc:date>2026-06-16T23:22:11.276976</dc:date>
    <dc:format>image/svg+xml</dc:format>
    <dc:creator>
     <cc:Agent>
      <dc:title>Matplotlib v3.9.4, https://matplotlib.org/</dc:title>
     </cc:Agent>
    </dc:creator>
   </cc:Work>
  </rdf:RDF>
 </metadata>
 <defs>
  <style type="text/css">*{stroke-linejoin: round; stroke-linecap: butt}</style>
 </defs>
 <g id="figure_1">
  <g id="patch_1">
   <path d="M 0 222.646312 
L 405 222.646312 
L 405 0 
L 0 0 
z
" style="fill: #ffffff"/>
  </g>
  <g id="axes_1">
   <g id="patch_2">
    <path d="M 15.663 143.651512 
L 70.347 143.651512 
Q 72.951 143.651512 72.951 139.770712 
L 72.951 97.081912 
Q 72.951 93.201112 70.347 93.201112 
L 15.663 93.201112 
Q 13.059 93.201112 13.059 97.081912 
L 13.059 139.770712 
Q 13.059 143.651512 15.663 143.651512 
z
" clip-path="url(#p8fe7fe9223)" style="fill: #fff59d; stroke: #333333; stroke-width: 1.2; stroke-linejoin: miter"/>
   </g>
   <g id="patch_3">
    <path d="M 87.273 143.651512 
L 141.957 143.651512 
Q 144.561 143.651512 144.561 139.770712 
L 144.561 97.081912 
Q 144.561 93.201112 141.957 93.201112 
L 87.273 93.201112 
Q 84.669 93.201112 84.669 97.081912 
L 84.669 139.770712 
Q 84.669 143.651512 87.273 143.651512 
z
" clip-path="url(#p8fe7fe9223)" style="fill: #fff59d; stroke: #333333; stroke-width: 1.2; stroke-linejoin: miter"/>
   </g>
   <g id="patch_4">
    <path d="M 158.883 143.651512 
L 213.567 143.651512 
Q 216.171 143.651512 216.171 139.770712 
L 216.171 97.081912 
Q 216.171 93.201112 213.567 93.201112 
L 158.883 93.201112 
Q 156.279 93.201112 156.279 97.081912 
L 156.279 139.770712 
Q 156.279 143.651512 158.883 143.651512 
z
" clip-path="url(#p8fe7fe9223)" style="fill: #fff59d; stroke: #333333; stroke-width: 1.2; stroke-linejoin: miter"/>
   </g>
   <g id="patch_5">
    <path d="M 230.493 143.651512 
L 285.177 143.651512 
Q 287.781 143.651512 287.781 139.770712 
L 287.781 97.081912 
Q 287.781 93.201112 285.177 93.201112 
L 230.493 93.201112 
Q 227.889 93.201112 227.889 97.081912 
L 227.889 139.770712 
Q 227.889 143.651512 230.493 143.651512 
z
" clip-path="url(#p8fe7fe9223)" style="fill: #fff59d; stroke: #333333; stroke-width: 1.2; stroke-linejoin: miter"/>
   </g>
   <g id="patch_6">
    <path d="M 302.103 143.651512 
L 356.787 143.651512 
Q 359.391 143.651512 359.391 139.770712 
L 359.391 97.081912 
Q 359.391 93.201112 356.787 93.201112 
L 302.103 93.201112 
Q 299.499 93.201112 299.499 97.081912 
L 299.499 139.770712 
Q 299.499 143.651512 302.103 143.651512 
z
" clip-path="url(#p8fe7fe9223)" style="fill: #fff59d; stroke: #333333; stroke-width: 1.2; stroke-linejoin: miter"/>
   </g>
   <g id="patch_7">
    <path d="M 139.353 206.714512 
L 265.647 206.714512 
Q 268.251 206.714512 268.251 202.833712 
L 268.251 169.846912 
Q 268.251 165.966112 265.647 165.966112 
L 139.353 165.966112 
Q 136.749 165.966112 136.749 169.846912 
L 136.749 202.833712 
Q 136.749 206.714512 139.353 206.714512 
z
" clip-path="url(#p8fe7fe9223)" style="fill: #e1f5fe; stroke: #333333; stroke-width: 1.2; stroke-linejoin: miter"/>
   </g>
   <g id="text_1">
    <!-- if / else -->
    <g transform="translate(28.478125 120.633812) scale(0.08 -0.08)">
     <defs>
      <path id="DejaVuSans-69" d="M 603 3500 
L 1178 3500 
L 1178 0 
L 603 0 
L 603 3500 
z
M 603 4863 
L 1178 4863 
L 1178 4134 
L 603 4134 
L 603 4863 
z
" transform="scale(0.015625)"/>
      <path id="DejaVuSans-66" d="M 2375 4863 
L 2375 4384 
L 1825 4384 
Q 1516 4384 1395 4259 
Q 1275 4134 1275 3809 
L 1275 3500 
L 2222 3500 
L 2222 3053 
L 1275 3053 
L 1275 0 
L 697 0 
L 697 3053 
L 147 3053 
L 147 3500 
L 697 3500 
L 697 3744 
Q 697 4328 969 4595 
Q 1241 4863 1831 4863 
L 2375 4863 
z
" transform="scale(0.015625)"/>
      <path id="DejaVuSans-20" transform="scale(0.015625)"/>
      <path id="DejaVuSans-2f" d="M 1625 4666 
L 2156 4666 
L 531 -594 
L 0 -594 
L 1625 4666 
z
" transform="scale(0.015625)"/>
      <path id="DejaVuSans-65" d="M 3597 1894 
L 3597 1613 
L 953 1613 
Q 991 1019 1311 708 
Q 1631 397 2203 397 
Q 2534 397 2845 478 
Q 3156 559 3463 722 
L 3463 178 
Q 3153 47 2828 -22 
Q 2503 -91 2169 -91 
Q 1331 -91 842 396 
Q 353 884 353 1716 
Q 353 2575 817 3079 
Q 1281 3584 2069 3584 
Q 2775 3584 3186 3129 
Q 3597 2675 3597 1894 
z
M 3022 2063 
Q 3016 2534 2758 2815 
Q 2500 3097 2075 3097 
Q 1594 3097 1305 2825 
Q 1016 2553 972 2059 
L 3022 2063 
z
" transform="scale(0.015625)"/>
      <path id="DejaVuSans-6c" d="M 603 4863 
L 1178 4863 
L 1178 0 
L 603 0 
L 603 4863 
z
" transform="scale(0.015625)"/>
      <path id="DejaVuSans-73" d="M 2834 3397 
L 2834 2853 
Q 2591 2978 2328 3040 
Q 2066 3103 1784 3103 
Q 1356 3103 1142 2972 
Q 928 2841 928 2578 
Q 928 2378 1081 2264 
Q 1234 2150 1697 2047 
L 1894 2003 
Q 2506 1872 2764 1633 
Q 3022 1394 3022 966 
Q 3022 478 2636 193 
Q 2250 -91 1575 -91 
Q 1294 -91 989 -36 
Q 684 19 347 128 
L 347 722 
Q 666 556 975 473 
Q 1284 391 1588 391 
Q 1994 391 2212 530 
Q 2431 669 2431 922 
Q 2431 1156 2273 1281 
Q 2116 1406 1581 1522 
L 1381 1569 
Q 847 1681 609 1914 
Q 372 2147 372 2553 
Q 372 3047 722 3315 
Q 1072 3584 1716 3584 
Q 2034 3584 2315 3537 
Q 2597 3491 2834 3397 
z
" transform="scale(0.015625)"/>
     </defs>
     <use xlink:href="#DejaVuSans-69"/>
     <use xlink:href="#DejaVuSans-66" x="27.783203"/>
     <use xlink:href="#DejaVuSans-20" x="62.988281"/>
     <use xlink:href="#DejaVuSans-2f" x="94.775391"/>
     <use xlink:href="#DejaVuSans-20" x="128.466797"/>
     <use xlink:href="#DejaVuSans-65" x="160.253906"/>
     <use xlink:href="#DejaVuSans-6c" x="221.777344"/>
     <use xlink:href="#DejaVuSans-73" x="249.560547"/>
     <use xlink:href="#DejaVuSans-65" x="301.660156"/>
    </g>
   </g>
   <g id="text_2">
    <!-- switch -->
    <g transform="translate(101.84625 120.633812) scale(0.08 -0.08)">
     <defs>
      <path id="DejaVuSans-77" d="M 269 3500 
L 844 3500 
L 1563 769 
L 2278 3500 
L 2956 3500 
L 3675 769 
L 4391 3500 
L 4966 3500 
L 4050 0 
L 3372 0 
L 2619 2869 
L 1863 0 
L 1184 0 
L 269 3500 
z
" transform="scale(0.015625)"/>
      <path id="DejaVuSans-74" d="M 1172 4494 
L 1172 3500 
L 2356 3500 
L 2356 3053 
L 1172 3053 
L 1172 1153 
Q 1172 725 1289 603 
Q 1406 481 1766 481 
L 2356 481 
L 2356 0 
L 1766 0 
Q 1100 0 847 248 
Q 594 497 594 1153 
L 594 3053 
L 172 3053 
L 172 3500 
L 594 3500 
L 594 4494 
L 1172 4494 
z
" transform="scale(0.015625)"/>
      <path id="DejaVuSans-63" d="M 3122 3366 
L 3122 2828 
Q 2878 2963 2633 3030 
Q 2388 3097 2138 3097 
Q 1578 3097 1268 2742 
Q 959 2388 959 1747 
Q 959 1106 1268 751 
Q 1578 397 2138 397 
Q 2388 397 2633 464 
Q 2878 531 3122 666 
L 3122 134 
Q 2881 22 2623 -34 
Q 2366 -91 2075 -91 
Q 1284 -91 818 406 
Q 353 903 353 1747 
Q 353 2603 823 3093 
Q 1294 3584 2113 3584 
Q 2378 3584 2631 3529 
Q 2884 3475 3122 3366 
z
" transform="scale(0.015625)"/>
      <path id="DejaVuSans-68" d="M 3513 2113 
L 3513 0 
L 2938 0 
L 2938 2094 
Q 2938 2591 2744 2837 
Q 2550 3084 2163 3084 
Q 1697 3084 1428 2787 
Q 1159 2491 1159 1978 
L 1159 0 
L 581 0 
L 581 4863 
L 1159 4863 
L 1159 2956 
Q 1366 3272 1645 3428 
Q 1925 3584 2291 3584 
Q 2894 3584 3203 3211 
Q 3513 2838 3513 2113 
z
" transform="scale(0.015625)"/>
     </defs>
     <use xlink:href="#DejaVuSans-73"/>
     <use xlink:href="#DejaVuSans-77" x="52.099609"/>
     <use xlink:href="#DejaVuSans-69" x="133.886719"/>
     <use xlink:href="#DejaVuSans-74" x="161.669922"/>
     <use xlink:href="#DejaVuSans-63" x="200.878906"/>
     <use xlink:href="#DejaVuSans-68" x="255.859375"/>
    </g>
   </g>
   <g id="text_3">
    <!-- for-in -->
    <g transform="translate(175.890625 120.633812) scale(0.08 -0.08)">
     <defs>
      <path id="DejaVuSans-6f" d="M 1959 3097 
Q 1497 3097 1228 2736 
Q 959 2375 959 1747 
Q 959 1119 1226 758 
Q 1494 397 1959 397 
Q 2419 397 2687 759 
Q 2956 1122 2956 1747 
Q 2956 2369 2687 2733 
Q 2419 3097 1959 3097 
z
M 1959 3584 
Q 2709 3584 3137 3096 
Q 3566 2609 3566 1747 
Q 3566 888 3137 398 
Q 2709 -91 1959 -91 
Q 1206 -91 779 398 
Q 353 888 353 1747 
Q 353 2609 779 3096 
Q 1206 3584 1959 3584 
z
" transform="scale(0.015625)"/>
      <path id="DejaVuSans-72" d="M 2631 2963 
Q 2534 3019 2420 3045 
Q 2306 3072 2169 3072 
Q 1681 3072 1420 2755 
Q 1159 2438 1159 1844 
L 1159 0 
L 581 0 
L 581 3500 
L 1159 3500 
L 1159 2956 
Q 1341 3275 1631 3429 
Q 1922 3584 2338 3584 
Q 2397 3584 2469 3576 
Q 2541 3569 2628 3553 
L 2631 2963 
z
" transform="scale(0.015625)"/>
      <path id="DejaVuSans-2d" d="M 313 2009 
L 1997 2009 
L 1997 1497 
L 313 1497 
L 313 2009 
z
" transform="scale(0.015625)"/>
      <path id="DejaVuSans-6e" d="M 3513 2113 
L 3513 0 
L 2938 0 
L 2938 2094 
Q 2938 2591 2744 2837 
Q 2550 3084 2163 3084 
Q 1697 3084 1428 2787 
Q 1159 2491 1159 1978 
L 1159 0 
L 581 0 
L 581 3500 
L 1159 3500 
L 1159 2956 
Q 1366 3272 1645 3428 
Q 1925 3584 2291 3584 
Q 2894 3584 3203 3211 
Q 3513 2838 3513 2113 
z
" transform="scale(0.015625)"/>
     </defs>
     <use xlink:href="#DejaVuSans-66"/>
     <use xlink:href="#DejaVuSans-6f" x="35.205078"/>
     <use xlink:href="#DejaVuSans-72" x="96.386719"/>
     <use xlink:href="#DejaVuSans-2d" x="131.125"/>
     <use xlink:href="#DejaVuSans-69" x="167.208984"/>
     <use xlink:href="#DejaVuSans-6e" x="194.992188"/>
    </g>
   </g>
   <g id="text_4">
    <!-- while -->
    <g transform="translate(247.345 120.633812) scale(0.08 -0.08)">
     <use xlink:href="#DejaVuSans-77"/>
     <use xlink:href="#DejaVuSans-68" x="81.787109"/>
     <use xlink:href="#DejaVuSans-69" x="145.166016"/>
     <use xlink:href="#DejaVuSans-6c" x="172.949219"/>
     <use xlink:href="#DejaVuSans-65" x="200.732422"/>
    </g>
   </g>
   <g id="text_5">
    <!-- repeat-while -->
    <g transform="translate(304.47625 120.633812) scale(0.08 -0.08)">
     <defs>
      <path id="DejaVuSans-70" d="M 1159 525 
L 1159 -1331 
L 581 -1331 
L 581 3500 
L 1159 3500 
L 1159 2969 
Q 1341 3281 1617 3432 
Q 1894 3584 2278 3584 
Q 2916 3584 3314 3078 
Q 3713 2572 3713 1747 
Q 3713 922 3314 415 
Q 2916 -91 2278 -91 
Q 1894 -91 1617 61 
Q 1341 213 1159 525 
z
M 3116 1747 
Q 3116 2381 2855 2742 
Q 2594 3103 2138 3103 
Q 1681 3103 1420 2742 
Q 1159 2381 1159 1747 
Q 1159 1113 1420 752 
Q 1681 391 2138 391 
Q 2594 391 2855 752 
Q 3116 1113 3116 1747 
z
" transform="scale(0.015625)"/>
      <path id="DejaVuSans-61" d="M 2194 1759 
Q 1497 1759 1228 1600 
Q 959 1441 959 1056 
Q 959 750 1161 570 
Q 1363 391 1709 391 
Q 2188 391 2477 730 
Q 2766 1069 2766 1631 
L 2766 1759 
L 2194 1759 
z
M 3341 1997 
L 3341 0 
L 2766 0 
L 2766 531 
Q 2569 213 2275 61 
Q 1981 -91 1556 -91 
Q 1019 -91 701 211 
Q 384 513 384 1019 
Q 384 1609 779 1909 
Q 1175 2209 1959 2209 
L 2766 2209 
L 2766 2266 
Q 2766 2663 2505 2880 
Q 2244 3097 1772 3097 
Q 1472 3097 1187 3025 
Q 903 2953 641 2809 
L 641 3341 
Q 956 3463 1253 3523 
Q 1550 3584 1831 3584 
Q 2591 3584 2966 3190 
Q 3341 2797 3341 1997 
z
" transform="scale(0.015625)"/>
     </defs>
     <use xlink:href="#DejaVuSans-72"/>
     <use xlink:href="#DejaVuSans-65" x="38.863281"/>
     <use xlink:href="#DejaVuSans-70" x="100.386719"/>
     <use xlink:href="#DejaVuSans-65" x="163.863281"/>
     <use xlink:href="#DejaVuSans-61" x="225.386719"/>
     <use xlink:href="#DejaVuSans-74" x="286.666016"/>
     <use xlink:href="#DejaVuSans-2d" x="325.875"/>
     <use xlink:href="#DejaVuSans-77" x="361.958984"/>
     <use xlink:href="#DejaVuSans-68" x="443.746094"/>
     <use xlink:href="#DejaVuSans-69" x="507.125"/>
     <use xlink:href="#DejaVuSans-6c" x="534.908203"/>
     <use xlink:href="#DejaVuSans-65" x="562.691406"/>
    </g>
   </g>
   <g id="text_6">
    <!-- break / continue exit innermost loop -->
    <g transform="translate(129.885 188.547812) scale(0.08 -0.08)">
     <defs>
      <path id="DejaVuSans-62" d="M 3116 1747 
Q 3116 2381 2855 2742 
Q 2594 3103 2138 3103 
Q 1681 3103 1420 2742 
Q 1159 2381 1159 1747 
Q 1159 1113 1420 752 
Q 1681 391 2138 391 
Q 2594 391 2855 752 
Q 3116 1113 3116 1747 
z
M 1159 2969 
Q 1341 3281 1617 3432 
Q 1894 3584 2278 3584 
Q 2916 3584 3314 3078 
Q 3713 2572 3713 1747 
Q 3713 922 3314 415 
Q 2916 -91 2278 -91 
Q 1894 -91 1617 61 
Q 1341 213 1159 525 
L 1159 0 
L 581 0 
L 581 4863 
L 1159 4863 
L 1159 2969 
z
" transform="scale(0.015625)"/>
      <path id="DejaVuSans-6b" d="M 581 4863 
L 1159 4863 
L 1159 1991 
L 2875 3500 
L 3609 3500 
L 1753 1863 
L 3688 0 
L 2938 0 
L 1159 1709 
L 1159 0 
L 581 0 
L 581 4863 
z
" transform="scale(0.015625)"/>
      <path id="DejaVuSans-75" d="M 544 1381 
L 544 3500 
L 1119 3500 
L 1119 1403 
Q 1119 906 1312 657 
Q 1506 409 1894 409 
Q 2359 409 2629 706 
Q 2900 1003 2900 1516 
L 2900 3500 
L 3475 3500 
L 3475 0 
L 2900 0 
L 2900 538 
Q 2691 219 2414 64 
Q 2138 -91 1772 -91 
Q 1169 -91 856 284 
Q 544 659 544 1381 
z
M 1991 3584 
L 1991 3584 
z
" transform="scale(0.015625)"/>
      <path id="DejaVuSans-78" d="M 3513 3500 
L 2247 1797 
L 3578 0 
L 2900 0 
L 1881 1375 
L 863 0 
L 184 0 
L 1544 1831 
L 300 3500 
L 978 3500 
L 1906 2253 
L 2834 3500 
L 3513 3500 
z
" transform="scale(0.015625)"/>
      <path id="DejaVuSans-6d" d="M 3328 2828 
Q 3544 3216 3844 3400 
Q 4144 3584 4550 3584 
Q 5097 3584 5394 3201 
Q 5691 2819 5691 2113 
L 5691 0 
L 5113 0 
L 5113 2094 
Q 5113 2597 4934 2840 
Q 4756 3084 4391 3084 
Q 3944 3084 3684 2787 
Q 3425 2491 3425 1978 
L 3425 0 
L 2847 0 
L 2847 2094 
Q 2847 2600 2669 2842 
Q 2491 3084 2119 3084 
Q 1678 3084 1418 2786 
Q 1159 2488 1159 1978 
L 1159 0 
L 581 0 
L 581 3500 
L 1159 3500 
L 1159 2956 
Q 1356 3278 1631 3431 
Q 1906 3584 2284 3584 
Q 2666 3584 2933 3390 
Q 3200 3197 3328 2828 
z
" transform="scale(0.015625)"/>
     </defs>
     <use xlink:href="#DejaVuSans-62"/>
     <use xlink:href="#DejaVuSans-72" x="63.476562"/>
     <use xlink:href="#DejaVuSans-65" x="102.339844"/>
     <use xlink:href="#DejaVuSans-61" x="163.863281"/>
     <use xlink:href="#DejaVuSans-6b" x="225.142578"/>
     <use xlink:href="#DejaVuSans-20" x="283.052734"/>
     <use xlink:href="#DejaVuSans-2f" x="314.839844"/>
     <use xlink:href="#DejaVuSans-20" x="348.53125"/>
     <use xlink:href="#DejaVuSans-63" x="380.318359"/>
     <use xlink:href="#DejaVuSans-6f" x="435.298828"/>
     <use xlink:href="#DejaVuSans-6e" x="496.480469"/>
     <use xlink:href="#DejaVuSans-74" x="559.859375"/>
     <use xlink:href="#DejaVuSans-69" x="599.068359"/>
     <use xlink:href="#DejaVuSans-6e" x="626.851562"/>
     <use xlink:href="#DejaVuSans-75" x="690.230469"/>
     <use xlink:href="#DejaVuSans-65" x="753.609375"/>
     <use xlink:href="#DejaVuSans-20" x="815.132812"/>
     <use xlink:href="#DejaVuSans-65" x="846.919922"/>
     <use xlink:href="#DejaVuSans-78" x="906.693359"/>
     <use xlink:href="#DejaVuSans-69" x="965.873047"/>
     <use xlink:href="#DejaVuSans-74" x="993.65625"/>
     <use xlink:href="#DejaVuSans-20" x="1032.865234"/>
     <use xlink:href="#DejaVuSans-69" x="1064.652344"/>
     <use xlink:href="#DejaVuSans-6e" x="1092.435547"/>
     <use xlink:href="#DejaVuSans-6e" x="1155.814453"/>
     <use xlink:href="#DejaVuSans-65" x="1219.193359"/>
     <use xlink:href="#DejaVuSans-72" x="1280.716797"/>
     <use xlink:href="#DejaVuSans-6d" x="1320.080078"/>
     <use xlink:href="#DejaVuSans-6f" x="1417.492188"/>
     <use xlink:href="#DejaVuSans-73" x="1478.673828"/>
     <use xlink:href="#DejaVuSans-74" x="1530.773438"/>
     <use xlink:href="#DejaVuSans-20" x="1569.982422"/>
     <use xlink:href="#DejaVuSans-6c" x="1601.769531"/>
     <use xlink:href="#DejaVuSans-6f" x="1629.552734"/>
     <use xlink:href="#DejaVuSans-6f" x="1690.734375"/>
     <use xlink:href="#DejaVuSans-70" x="1751.916016"/>
    </g>
   </g>
   <g id="patch_8">
    <path d="M 43.005 144.679863 
Q 43.005 154.806928 43.005 163.368745 
" style="fill: none; stroke: #1565c0; stroke-width: 1.4; stroke-linecap: round"/>
    <path d="M 44.805 159.768745 
L 43.005 163.368745 
L 41.205 159.768745 
" style="fill: none; stroke: #1565c0; stroke-width: 1.4; stroke-linecap: round"/>
   </g>
   <g id="patch_9">
    <path d="M 114.615 144.679863 
Q 114.615 154.806928 114.615 163.368745 
" style="fill: none; stroke: #1565c0; stroke-width: 1.4; stroke-linecap: round"/>
    <path d="M 116.415 159.768745 
L 114.615 163.368745 
L 112.815 159.768745 
" style="fill: none; stroke: #1565c0; stroke-width: 1.4; stroke-linecap: round"/>
   </g>
   <g id="patch_10">
    <path d="M 186.225 144.679863 
Q 186.225 154.806928 186.225 163.368745 
" style="fill: none; stroke: #1565c0; stroke-width: 1.4; stroke-linecap: round"/>
    <path d="M 188.025 159.768745 
L 186.225 163.368745 
L 184.425 159.768745 
" style="fill: none; stroke: #1565c0; stroke-width: 1.4; stroke-linecap: round"/>
   </g>
   <g id="patch_11">
    <path d="M 257.835 144.679863 
Q 257.835 154.806928 257.835 163.368745 
" style="fill: none; stroke: #1565c0; stroke-width: 1.4; stroke-linecap: round"/>
    <path d="M 259.635 159.768745 
L 257.835 163.368745 
L 256.035 159.768745 
" style="fill: none; stroke: #1565c0; stroke-width: 1.4; stroke-linecap: round"/>
   </g>
   <g id="patch_12">
    <path d="M 329.445 144.679863 
Q 329.445 154.806928 329.445 163.368745 
" style="fill: none; stroke: #1565c0; stroke-width: 1.4; stroke-linecap: round"/>
    <path d="M 331.245 159.768745 
L 329.445 163.368745 
L 327.645 159.768745 
" style="fill: none; stroke: #1565c0; stroke-width: 1.4; stroke-linecap: round"/>
   </g>
   <g id="text_7">
    <!-- Control flow constructs -->
    <g transform="translate(131.465531 15.406312) scale(0.108 -0.108)">
     <defs>
      <path id="DejaVuSans-Bold-43" d="M 4288 256 
Q 3956 84 3597 -3 
Q 3238 -91 2847 -91 
Q 1681 -91 1000 561 
Q 319 1213 319 2328 
Q 319 3447 1000 4098 
Q 1681 4750 2847 4750 
Q 3238 4750 3597 4662 
Q 3956 4575 4288 4403 
L 4288 3438 
Q 3953 3666 3628 3772 
Q 3303 3878 2944 3878 
Q 2300 3878 1931 3465 
Q 1563 3053 1563 2328 
Q 1563 1606 1931 1193 
Q 2300 781 2944 781 
Q 3303 781 3628 887 
Q 3953 994 4288 1222 
L 4288 256 
z
" transform="scale(0.015625)"/>
      <path id="DejaVuSans-Bold-6f" d="M 2203 2784 
Q 1831 2784 1636 2517 
Q 1441 2250 1441 1747 
Q 1441 1244 1636 976 
Q 1831 709 2203 709 
Q 2569 709 2762 976 
Q 2956 1244 2956 1747 
Q 2956 2250 2762 2517 
Q 2569 2784 2203 2784 
z
M 2203 3584 
Q 3106 3584 3614 3096 
Q 4122 2609 4122 1747 
Q 4122 884 3614 396 
Q 3106 -91 2203 -91 
Q 1297 -91 786 396 
Q 275 884 275 1747 
Q 275 2609 786 3096 
Q 1297 3584 2203 3584 
z
" transform="scale(0.015625)"/>
      <path id="DejaVuSans-Bold-6e" d="M 4056 2131 
L 4056 0 
L 2931 0 
L 2931 347 
L 2931 1631 
Q 2931 2084 2911 2256 
Q 2891 2428 2841 2509 
Q 2775 2619 2662 2680 
Q 2550 2741 2406 2741 
Q 2056 2741 1856 2470 
Q 1656 2200 1656 1722 
L 1656 0 
L 538 0 
L 538 3500 
L 1656 3500 
L 1656 2988 
Q 1909 3294 2193 3439 
Q 2478 3584 2822 3584 
Q 3428 3584 3742 3212 
Q 4056 2841 4056 2131 
z
" transform="scale(0.015625)"/>
      <path id="DejaVuSans-Bold-74" d="M 1759 4494 
L 1759 3500 
L 2913 3500 
L 2913 2700 
L 1759 2700 
L 1759 1216 
Q 1759 972 1856 886 
Q 1953 800 2241 800 
L 2816 800 
L 2816 0 
L 1856 0 
Q 1194 0 917 276 
Q 641 553 641 1216 
L 641 2700 
L 84 2700 
L 84 3500 
L 641 3500 
L 641 4494 
L 1759 4494 
z
" transform="scale(0.015625)"/>
      <path id="DejaVuSans-Bold-72" d="M 3138 2547 
Q 2991 2616 2845 2648 
Q 2700 2681 2553 2681 
Q 2122 2681 1889 2404 
Q 1656 2128 1656 1613 
L 1656 0 
L 538 0 
L 538 3500 
L 1656 3500 
L 1656 2925 
Q 1872 3269 2151 3426 
Q 2431 3584 2822 3584 
Q 2878 3584 2943 3579 
Q 3009 3575 3134 3559 
L 3138 2547 
z
" transform="scale(0.015625)"/>
      <path id="DejaVuSans-Bold-6c" d="M 538 4863 
L 1656 4863 
L 1656 0 
L 538 0 
L 538 4863 
z
" transform="scale(0.015625)"/>
      <path id="DejaVuSans-Bold-20" transform="scale(0.015625)"/>
      <path id="DejaVuSans-Bold-66" d="M 2841 4863 
L 2841 4128 
L 2222 4128 
Q 1984 4128 1890 4042 
Q 1797 3956 1797 3744 
L 1797 3500 
L 2753 3500 
L 2753 2700 
L 1797 2700 
L 1797 0 
L 678 0 
L 678 2700 
L 122 2700 
L 122 3500 
L 678 3500 
L 678 3744 
Q 678 4316 997 4589 
Q 1316 4863 1984 4863 
L 2841 4863 
z
" transform="scale(0.015625)"/>
      <path id="DejaVuSans-Bold-77" d="M 225 3500 
L 1313 3500 
L 1900 1088 
L 2491 3500 
L 3425 3500 
L 4013 1113 
L 4603 3500 
L 5691 3500 
L 4769 0 
L 3547 0 
L 2956 2406 
L 2369 0 
L 1147 0 
L 225 3500 
z
" transform="scale(0.015625)"/>
      <path id="DejaVuSans-Bold-63" d="M 3366 3391 
L 3366 2478 
Q 3138 2634 2908 2709 
Q 2678 2784 2431 2784 
Q 1963 2784 1702 2511 
Q 1441 2238 1441 1747 
Q 1441 1256 1702 982 
Q 1963 709 2431 709 
Q 2694 709 2930 787 
Q 3166 866 3366 1019 
L 3366 103 
Q 3103 6 2833 -42 
Q 2563 -91 2291 -91 
Q 1344 -91 809 395 
Q 275 881 275 1747 
Q 275 2613 809 3098 
Q 1344 3584 2291 3584 
Q 2566 3584 2833 3536 
Q 3100 3488 3366 3391 
z
" transform="scale(0.015625)"/>
      <path id="DejaVuSans-Bold-73" d="M 3272 3391 
L 3272 2541 
Q 2913 2691 2578 2766 
Q 2244 2841 1947 2841 
Q 1628 2841 1473 2761 
Q 1319 2681 1319 2516 
Q 1319 2381 1436 2309 
Q 1553 2238 1856 2203 
L 2053 2175 
Q 2913 2066 3209 1816 
Q 3506 1566 3506 1031 
Q 3506 472 3093 190 
Q 2681 -91 1863 -91 
Q 1516 -91 1145 -36 
Q 775 19 384 128 
L 384 978 
Q 719 816 1070 734 
Q 1422 653 1784 653 
Q 2113 653 2278 743 
Q 2444 834 2444 1013 
Q 2444 1163 2330 1236 
Q 2216 1309 1875 1350 
L 1678 1375 
Q 931 1469 631 1722 
Q 331 1975 331 2491 
Q 331 3047 712 3315 
Q 1094 3584 1881 3584 
Q 2191 3584 2531 3537 
Q 2872 3491 3272 3391 
z
" transform="scale(0.015625)"/>
      <path id="DejaVuSans-Bold-75" d="M 500 1363 
L 500 3500 
L 1625 3500 
L 1625 3150 
Q 1625 2866 1622 2436 
Q 1619 2006 1619 1863 
Q 1619 1441 1641 1255 
Q 1663 1069 1716 984 
Q 1784 875 1895 815 
Q 2006 756 2150 756 
Q 2500 756 2700 1025 
Q 2900 1294 2900 1772 
L 2900 3500 
L 4019 3500 
L 4019 0 
L 2900 0 
L 2900 506 
Q 2647 200 2364 54 
Q 2081 -91 1741 -91 
Q 1134 -91 817 281 
Q 500 653 500 1363 
z
" transform="scale(0.015625)"/>
     </defs>
     <use xlink:href="#DejaVuSans-Bold-43"/>
     <use xlink:href="#DejaVuSans-Bold-6f" x="73.388672"/>
     <use xlink:href="#DejaVuSans-Bold-6e" x="142.089844"/>
     <use xlink:href="#DejaVuSans-Bold-74" x="213.28125"/>
     <use xlink:href="#DejaVuSans-Bold-72" x="261.083984"/>
     <use xlink:href="#DejaVuSans-Bold-6f" x="310.400391"/>
     <use xlink:href="#DejaVuSans-Bold-6c" x="379.101562"/>
     <use xlink:href="#DejaVuSans-Bold-20" x="413.378906"/>
     <use xlink:href="#DejaVuSans-Bold-66" x="448.193359"/>
     <use xlink:href="#DejaVuSans-Bold-6c" x="491.699219"/>
     <use xlink:href="#DejaVuSans-Bold-6f" x="525.976562"/>
     <use xlink:href="#DejaVuSans-Bold-77" x="594.677734"/>
     <use xlink:href="#DejaVuSans-Bold-20" x="687.060547"/>
     <use xlink:href="#DejaVuSans-Bold-63" x="721.875"/>
     <use xlink:href="#DejaVuSans-Bold-6f" x="781.152344"/>
     <use xlink:href="#DejaVuSans-Bold-6e" x="849.853516"/>
     <use xlink:href="#DejaVuSans-Bold-73" x="921.044922"/>
     <use xlink:href="#DejaVuSans-Bold-74" x="980.566406"/>
     <use xlink:href="#DejaVuSans-Bold-72" x="1028.369141"/>
     <use xlink:href="#DejaVuSans-Bold-75" x="1077.685547"/>
     <use xlink:href="#DejaVuSans-Bold-63" x="1148.876953"/>
     <use xlink:href="#DejaVuSans-Bold-74" x="1208.154297"/>
     <use xlink:href="#DejaVuSans-Bold-73" x="1255.957031"/>
    </g>
   </g>
  </g>
 </g>
 <defs>
  <clipPath id="p8fe7fe9223">
   <rect x="7.2" y="21.406312" width="390.6" height="194.04"/>
  </clipPath>
 </defs>
</svg>
