<?xml version="1.0" encoding="utf-8" standalone="no"?>
<!DOCTYPE svg PUBLIC "-//W3C//DTD SVG 1.1//EN"
  "http://www.w3.org/Graphics/SVG/1.1/DTD/svg11.dtd">
<svg xmlns:xlink="http://www.w3.org/1999/xlink" width="516.6pt" height="351.168525pt" viewBox="0 0 516.6 351.168525" xmlns="http://www.w3.org/2000/svg" version="1.1">
 <metadata>
  <rdf:RDF xmlns:dc="http://purl.org/dc/elements/1.1/" xmlns:cc="http://creativecommons.org/ns#" xmlns:rdf="http://www.w3.org/1999/02/22-rdf-syntax-ns#">
   <cc:Work>
    <dc:type rdf:resource="http://purl.org/dc/dcmitype/StillImage"/>
    <dc:date>2026-06-14T16:14:20.250310</dc:date>
    <dc:format>image/svg+xml</dc:format>
    <dc:creator>
     <cc:Agent>
      <dc:title>Matplotlib v3.9.4, https://matplotlib.org/</dc:title>
     </cc:Agent>
    </dc:creator>
   </cc:Work>
  </rdf:RDF>
 </metadata>
 <defs>
  <style type="text/css">*{stroke-linejoin: round; stroke-linecap: butt}</style>
 </defs>
 <g id="figure_1">
  <g id="patch_1">
   <path d="M 0 351.168525 
L 516.6 351.168525 
L 516.6 -0 
L 0 -0 
z
" style="fill: #ffffff"/>
  </g>
  <g id="axes_1">
   <g id="patch_2">
    <path d="M 22.266 73.864845 
L 494.334 73.864845 
Q 498.3516 73.864845 498.3516 71.203725 
L 498.3516 24.634125 
Q 498.3516 21.973005 494.334 21.973005 
L 22.266 21.973005 
Q 18.2484 21.973005 18.2484 24.634125 
L 18.2484 71.203725 
Q 18.2484 73.864845 22.266 73.864845 
z
" clip-path="url(#peba928104b)" style="fill: #cfe2f3; stroke: #333333; stroke-width: 1.5; stroke-linejoin: miter"/>
   </g>
   <g id="patch_3">
    <path d="M 22.266 147.045645 
L 248.256 147.045645 
Q 252.2736 147.045645 252.2736 144.384525 
L 252.2736 91.162125 
Q 252.2736 88.501005 248.256 88.501005 
L 22.266 88.501005 
Q 18.2484 88.501005 18.2484 91.162125 
L 18.2484 144.384525 
Q 18.2484 147.045645 22.266 147.045645 
z
" clip-path="url(#peba928104b)" style="fill: #d9ead3; stroke: #333333; stroke-width: 1.5; stroke-linejoin: miter"/>
   </g>
   <g id="patch_4">
    <path d="M 268.344 147.045645 
L 494.334 147.045645 
Q 498.3516 147.045645 498.3516 144.384525 
L 498.3516 91.162125 
Q 498.3516 88.501005 494.334 88.501005 
L 268.344 88.501005 
Q 264.3264 88.501005 264.3264 91.162125 
L 264.3264 144.384525 
Q 264.3264 147.045645 268.344 147.045645 
z
" clip-path="url(#peba928104b)" style="fill: #fff2cc; stroke: #333333; stroke-width: 1.5; stroke-linejoin: miter"/>
   </g>
   <g id="patch_5">
    <path d="M 22.266 226.879245 
L 494.334 226.879245 
Q 498.3516 226.879245 498.3516 224.218125 
L 498.3516 170.995725 
Q 498.3516 168.334605 494.334 168.334605 
L 22.266 168.334605 
Q 18.2484 168.334605 18.2484 170.995725 
L 18.2484 224.218125 
Q 18.2484 226.879245 22.266 226.879245 
z
" clip-path="url(#peba928104b)" style="fill: #ead1dc; stroke: #333333; stroke-width: 1.5; stroke-linejoin: miter"/>
   </g>
   <g id="patch_6">
    <path d="M 22.266 306.712845 
L 248.256 306.712845 
Q 252.2736 306.712845 252.2736 304.051725 
L 252.2736 244.176525 
Q 252.2736 241.515405 248.256 241.515405 
L 22.266 241.515405 
Q 18.2484 241.515405 18.2484 244.176525 
L 18.2484 304.051725 
Q 18.2484 306.712845 22.266 306.712845 
z
" clip-path="url(#peba928104b)" style="fill: #d9ead3; stroke: #333333; stroke-width: 1.5; stroke-linejoin: miter"/>
   </g>
   <g id="patch_7">
    <path d="M 268.344 306.712845 
L 494.334 306.712845 
Q 498.3516 306.712845 498.3516 304.051725 
L 498.3516 244.176525 
Q 498.3516 241.515405 494.334 241.515405 
L 268.344 241.515405 
Q 264.3264 241.515405 264.3264 244.176525 
L 264.3264 304.051725 
Q 264.3264 306.712845 268.344 306.712845 
z
" clip-path="url(#peba928104b)" style="fill: #f4cccc; stroke: #333333; stroke-width: 1.5; stroke-linejoin: miter"/>
   </g>
   <g id="patch_8">
    <path d="M 256.326787 71.517402 
Q 195.524579 81.182992 136.268208 90.602843 
" clip-path="url(#peba928104b)" style="fill: none; stroke: #555555; stroke-width: 1.4; stroke-linecap: round"/>
    <path d="M 142.238354 92.488941 
L 136.268208 90.602843 
L 141.359174 86.958386 
z
" clip-path="url(#peba928104b)" style="fill: #555555; stroke: #555555; stroke-width: 1.4; stroke-linecap: round"/>
   </g>
   <g id="patch_9">
    <path d="M 132.75 146.382314 
Q 132.75 157.690001 132.75 167.432441 
" clip-path="url(#peba928104b)" style="fill: none; stroke: #555555; stroke-width: 1.4; stroke-linecap: round"/>
    <path d="M 135.55 161.832441 
L 132.75 167.432441 
L 129.95 161.832441 
z
" clip-path="url(#peba928104b)" style="fill: #555555; stroke: #555555; stroke-width: 1.4; stroke-linecap: round"/>
   </g>
   <g id="patch_10">
    <path d="M 256.572002 172.002944 
Q 195.524445 207.586449 135.829181 242.381727 
" clip-path="url(#peba928104b)" style="fill: none; stroke: #555555; stroke-width: 1.4; stroke-linecap: round"/>
    <path d="M 142.077317 241.980735 
L 135.829181 242.381727 
L 139.25727 237.142623 
z
" clip-path="url(#peba928104b)" style="fill: #555555; stroke: #555555; stroke-width: 1.4; stroke-linecap: round"/>
   </g>
   <g id="text_1">
    <!-- System interpreter -->
    <g transform="translate(213.488203 45.22137) scale(0.095 -0.095)">
     <defs>
      <path id="DejaVuSans-53" d="M 3425 4513 
L 3425 3897 
Q 3066 4069 2747 4153 
Q 2428 4238 2131 4238 
Q 1616 4238 1336 4038 
Q 1056 3838 1056 3469 
Q 1056 3159 1242 3001 
Q 1428 2844 1947 2747 
L 2328 2669 
Q 3034 2534 3370 2195 
Q 3706 1856 3706 1288 
Q 3706 609 3251 259 
Q 2797 -91 1919 -91 
Q 1588 -91 1214 -16 
Q 841 59 441 206 
L 441 856 
Q 825 641 1194 531 
Q 1563 422 1919 422 
Q 2459 422 2753 634 
Q 3047 847 3047 1241 
Q 3047 1584 2836 1778 
Q 2625 1972 2144 2069 
L 1759 2144 
Q 1053 2284 737 2584 
Q 422 2884 422 3419 
Q 422 4038 858 4394 
Q 1294 4750 2059 4750 
Q 2388 4750 2728 4690 
Q 3069 4631 3425 4513 
z
" transform="scale(0.015625)"/>
      <path id="DejaVuSans-79" d="M 2059 -325 
Q 1816 -950 1584 -1140 
Q 1353 -1331 966 -1331 
L 506 -1331 
L 506 -850 
L 844 -850 
Q 1081 -850 1212 -737 
Q 1344 -625 1503 -206 
L 1606 56 
L 191 3500 
L 800 3500 
L 1894 763 
L 2988 3500 
L 3597 3500 
L 2059 -325 
z
" transform="scale(0.015625)"/>
      <path id="DejaVuSans-73" d="M 2834 3397 
L 2834 2853 
Q 2591 2978 2328 3040 
Q 2066 3103 1784 3103 
Q 1356 3103 1142 2972 
Q 928 2841 928 2578 
Q 928 2378 1081 2264 
Q 1234 2150 1697 2047 
L 1894 2003 
Q 2506 1872 2764 1633 
Q 3022 1394 3022 966 
Q 3022 478 2636 193 
Q 2250 -91 1575 -91 
Q 1294 -91 989 -36 
Q 684 19 347 128 
L 347 722 
Q 666 556 975 473 
Q 1284 391 1588 391 
Q 1994 391 2212 530 
Q 2431 669 2431 922 
Q 2431 1156 2273 1281 
Q 2116 1406 1581 1522 
L 1381 1569 
Q 847 1681 609 1914 
Q 372 2147 372 2553 
Q 372 3047 722 3315 
Q 1072 3584 1716 3584 
Q 2034 3584 2315 3537 
Q 2597 3491 2834 3397 
z
" transform="scale(0.015625)"/>
      <path id="DejaVuSans-74" d="M 1172 4494 
L 1172 3500 
L 2356 3500 
L 2356 3053 
L 1172 3053 
L 1172 1153 
Q 1172 725 1289 603 
Q 1406 481 1766 481 
L 2356 481 
L 2356 0 
L 1766 0 
Q 1100 0 847 248 
Q 594 497 594 1153 
L 594 3053 
L 172 3053 
L 172 3500 
L 594 3500 
L 594 4494 
L 1172 4494 
z
" transform="scale(0.015625)"/>
      <path id="DejaVuSans-65" d="M 3597 1894 
L 3597 1613 
L 953 1613 
Q 991 1019 1311 708 
Q 1631 397 2203 397 
Q 2534 397 2845 478 
Q 3156 559 3463 722 
L 3463 178 
Q 3153 47 2828 -22 
Q 2503 -91 2169 -91 
Q 1331 -91 842 396 
Q 353 884 353 1716 
Q 353 2575 817 3079 
Q 1281 3584 2069 3584 
Q 2775 3584 3186 3129 
Q 3597 2675 3597 1894 
z
M 3022 2063 
Q 3016 2534 2758 2815 
Q 2500 3097 2075 3097 
Q 1594 3097 1305 2825 
Q 1016 2553 972 2059 
L 3022 2063 
z
" transform="scale(0.015625)"/>
      <path id="DejaVuSans-6d" d="M 3328 2828 
Q 3544 3216 3844 3400 
Q 4144 3584 4550 3584 
Q 5097 3584 5394 3201 
Q 5691 2819 5691 2113 
L 5691 0 
L 5113 0 
L 5113 2094 
Q 5113 2597 4934 2840 
Q 4756 3084 4391 3084 
Q 3944 3084 3684 2787 
Q 3425 2491 3425 1978 
L 3425 0 
L 2847 0 
L 2847 2094 
Q 2847 2600 2669 2842 
Q 2491 3084 2119 3084 
Q 1678 3084 1418 2786 
Q 1159 2488 1159 1978 
L 1159 0 
L 581 0 
L 581 3500 
L 1159 3500 
L 1159 2956 
Q 1356 3278 1631 3431 
Q 1906 3584 2284 3584 
Q 2666 3584 2933 3390 
Q 3200 3197 3328 2828 
z
" transform="scale(0.015625)"/>
      <path id="DejaVuSans-20" transform="scale(0.015625)"/>
      <path id="DejaVuSans-69" d="M 603 3500 
L 1178 3500 
L 1178 0 
L 603 0 
L 603 3500 
z
M 603 4863 
L 1178 4863 
L 1178 4134 
L 603 4134 
L 603 4863 
z
" transform="scale(0.015625)"/>
      <path id="DejaVuSans-6e" d="M 3513 2113 
L 3513 0 
L 2938 0 
L 2938 2094 
Q 2938 2591 2744 2837 
Q 2550 3084 2163 3084 
Q 1697 3084 1428 2787 
Q 1159 2491 1159 1978 
L 1159 0 
L 581 0 
L 581 3500 
L 1159 3500 
L 1159 2956 
Q 1366 3272 1645 3428 
Q 1925 3584 2291 3584 
Q 2894 3584 3203 3211 
Q 3513 2838 3513 2113 
z
" transform="scale(0.015625)"/>
      <path id="DejaVuSans-72" d="M 2631 2963 
Q 2534 3019 2420 3045 
Q 2306 3072 2169 3072 
Q 1681 3072 1420 2755 
Q 1159 2438 1159 1844 
L 1159 0 
L 581 0 
L 581 3500 
L 1159 3500 
L 1159 2956 
Q 1341 3275 1631 3429 
Q 1922 3584 2338 3584 
Q 2397 3584 2469 3576 
Q 2541 3569 2628 3553 
L 2631 2963 
z
" transform="scale(0.015625)"/>
      <path id="DejaVuSans-70" d="M 1159 525 
L 1159 -1331 
L 581 -1331 
L 581 3500 
L 1159 3500 
L 1159 2969 
Q 1341 3281 1617 3432 
Q 1894 3584 2278 3584 
Q 2916 3584 3314 3078 
Q 3713 2572 3713 1747 
Q 3713 922 3314 415 
Q 2916 -91 2278 -91 
Q 1894 -91 1617 61 
Q 1341 213 1159 525 
z
M 3116 1747 
Q 3116 2381 2855 2742 
Q 2594 3103 2138 3103 
Q 1681 3103 1420 2742 
Q 1159 2381 1159 1747 
Q 1159 1113 1420 752 
Q 1681 391 2138 391 
Q 2594 391 2855 752 
Q 3116 1113 3116 1747 
z
" transform="scale(0.015625)"/>
     </defs>
     <use xlink:href="#DejaVuSans-53"/>
     <use xlink:href="#DejaVuSans-79" x="63.476562"/>
     <use xlink:href="#DejaVuSans-73" x="122.65625"/>
     <use xlink:href="#DejaVuSans-74" x="174.755859"/>
     <use xlink:href="#DejaVuSans-65" x="213.964844"/>
     <use xlink:href="#DejaVuSans-6d" x="275.488281"/>
     <use xlink:href="#DejaVuSans-20" x="372.900391"/>
     <use xlink:href="#DejaVuSans-69" x="404.6875"/>
     <use xlink:href="#DejaVuSans-6e" x="432.470703"/>
     <use xlink:href="#DejaVuSans-74" x="495.849609"/>
     <use xlink:href="#DejaVuSans-65" x="535.058594"/>
     <use xlink:href="#DejaVuSans-72" x="596.582031"/>
     <use xlink:href="#DejaVuSans-70" x="637.695312"/>
     <use xlink:href="#DejaVuSans-72" x="701.171875"/>
     <use xlink:href="#DejaVuSans-65" x="740.035156"/>
     <use xlink:href="#DejaVuSans-74" x="801.558594"/>
     <use xlink:href="#DejaVuSans-65" x="840.767578"/>
     <use xlink:href="#DejaVuSans-72" x="902.291016"/>
    </g>
    <!-- /usr/bin/python3  (shared, untouched) -->
    <g transform="translate(167.793945 55.859292) scale(0.095 -0.095)">
     <defs>
      <path id="DejaVuSans-2f" d="M 1625 4666 
L 2156 4666 
L 531 -594 
L 0 -594 
L 1625 4666 
z
" transform="scale(0.015625)"/>
      <path id="DejaVuSans-75" d="M 544 1381 
L 544 3500 
L 1119 3500 
L 1119 1403 
Q 1119 906 1312 657 
Q 1506 409 1894 409 
Q 2359 409 2629 706 
Q 2900 1003 2900 1516 
L 2900 3500 
L 3475 3500 
L 3475 0 
L 2900 0 
L 2900 538 
Q 2691 219 2414 64 
Q 2138 -91 1772 -91 
Q 1169 -91 856 284 
Q 544 659 544 1381 
z
M 1991 3584 
L 1991 3584 
z
" transform="scale(0.015625)"/>
      <path id="DejaVuSans-62" d="M 3116 1747 
Q 3116 2381 2855 2742 
Q 2594 3103 2138 3103 
Q 1681 3103 1420 2742 
Q 1159 2381 1159 1747 
Q 1159 1113 1420 752 
Q 1681 391 2138 391 
Q 2594 391 2855 752 
Q 3116 1113 3116 1747 
z
M 1159 2969 
Q 1341 3281 1617 3432 
Q 1894 3584 2278 3584 
Q 2916 3584 3314 3078 
Q 3713 2572 3713 1747 
Q 3713 922 3314 415 
Q 2916 -91 2278 -91 
Q 1894 -91 1617 61 
Q 1341 213 1159 525 
L 1159 0 
L 581 0 
L 581 4863 
L 1159 4863 
L 1159 2969 
z
" transform="scale(0.015625)"/>
      <path id="DejaVuSans-68" d="M 3513 2113 
L 3513 0 
L 2938 0 
L 2938 2094 
Q 2938 2591 2744 2837 
Q 2550 3084 2163 3084 
Q 1697 3084 1428 2787 
Q 1159 2491 1159 1978 
L 1159 0 
L 581 0 
L 581 4863 
L 1159 4863 
L 1159 2956 
Q 1366 3272 1645 3428 
Q 1925 3584 2291 3584 
Q 2894 3584 3203 3211 
Q 3513 2838 3513 2113 
z
" transform="scale(0.015625)"/>
      <path id="DejaVuSans-6f" d="M 1959 3097 
Q 1497 3097 1228 2736 
Q 959 2375 959 1747 
Q 959 1119 1226 758 
Q 1494 397 1959 397 
Q 2419 397 2687 759 
Q 2956 1122 2956 1747 
Q 2956 2369 2687 2733 
Q 2419 3097 1959 3097 
z
M 1959 3584 
Q 2709 3584 3137 3096 
Q 3566 2609 3566 1747 
Q 3566 888 3137 398 
Q 2709 -91 1959 -91 
Q 1206 -91 779 398 
Q 353 888 353 1747 
Q 353 2609 779 3096 
Q 1206 3584 1959 3584 
z
" transform="scale(0.015625)"/>
      <path id="DejaVuSans-33" d="M 2597 2516 
Q 3050 2419 3304 2112 
Q 3559 1806 3559 1356 
Q 3559 666 3084 287 
Q 2609 -91 1734 -91 
Q 1441 -91 1130 -33 
Q 819 25 488 141 
L 488 750 
Q 750 597 1062 519 
Q 1375 441 1716 441 
Q 2309 441 2620 675 
Q 2931 909 2931 1356 
Q 2931 1769 2642 2001 
Q 2353 2234 1838 2234 
L 1294 2234 
L 1294 2753 
L 1863 2753 
Q 2328 2753 2575 2939 
Q 2822 3125 2822 3475 
Q 2822 3834 2567 4026 
Q 2313 4219 1838 4219 
Q 1578 4219 1281 4162 
Q 984 4106 628 3988 
L 628 4550 
Q 988 4650 1302 4700 
Q 1616 4750 1894 4750 
Q 2613 4750 3031 4423 
Q 3450 4097 3450 3541 
Q 3450 3153 3228 2886 
Q 3006 2619 2597 2516 
z
" transform="scale(0.015625)"/>
      <path id="DejaVuSans-28" d="M 1984 4856 
Q 1566 4138 1362 3434 
Q 1159 2731 1159 2009 
Q 1159 1288 1364 580 
Q 1569 -128 1984 -844 
L 1484 -844 
Q 1016 -109 783 600 
Q 550 1309 550 2009 
Q 550 2706 781 3412 
Q 1013 4119 1484 4856 
L 1984 4856 
z
" transform="scale(0.015625)"/>
      <path id="DejaVuSans-61" d="M 2194 1759 
Q 1497 1759 1228 1600 
Q 959 1441 959 1056 
Q 959 750 1161 570 
Q 1363 391 1709 391 
Q 2188 391 2477 730 
Q 2766 1069 2766 1631 
L 2766 1759 
L 2194 1759 
z
M 3341 1997 
L 3341 0 
L 2766 0 
L 2766 531 
Q 2569 213 2275 61 
Q 1981 -91 1556 -91 
Q 1019 -91 701 211 
Q 384 513 384 1019 
Q 384 1609 779 1909 
Q 1175 2209 1959 2209 
L 2766 2209 
L 2766 2266 
Q 2766 2663 2505 2880 
Q 2244 3097 1772 3097 
Q 1472 3097 1187 3025 
Q 903 2953 641 2809 
L 641 3341 
Q 956 3463 1253 3523 
Q 1550 3584 1831 3584 
Q 2591 3584 2966 3190 
Q 3341 2797 3341 1997 
z
" transform="scale(0.015625)"/>
      <path id="DejaVuSans-64" d="M 2906 2969 
L 2906 4863 
L 3481 4863 
L 3481 0 
L 2906 0 
L 2906 525 
Q 2725 213 2448 61 
Q 2172 -91 1784 -91 
Q 1150 -91 751 415 
Q 353 922 353 1747 
Q 353 2572 751 3078 
Q 1150 3584 1784 3584 
Q 2172 3584 2448 3432 
Q 2725 3281 2906 2969 
z
M 947 1747 
Q 947 1113 1208 752 
Q 1469 391 1925 391 
Q 2381 391 2643 752 
Q 2906 1113 2906 1747 
Q 2906 2381 2643 2742 
Q 2381 3103 1925 3103 
Q 1469 3103 1208 2742 
Q 947 2381 947 1747 
z
" transform="scale(0.015625)"/>
      <path id="DejaVuSans-2c" d="M 750 794 
L 1409 794 
L 1409 256 
L 897 -744 
L 494 -744 
L 750 256 
L 750 794 
z
" transform="scale(0.015625)"/>
      <path id="DejaVuSans-63" d="M 3122 3366 
L 3122 2828 
Q 2878 2963 2633 3030 
Q 2388 3097 2138 3097 
Q 1578 3097 1268 2742 
Q 959 2388 959 1747 
Q 959 1106 1268 751 
Q 1578 397 2138 397 
Q 2388 397 2633 464 
Q 2878 531 3122 666 
L 3122 134 
Q 2881 22 2623 -34 
Q 2366 -91 2075 -91 
Q 1284 -91 818 406 
Q 353 903 353 1747 
Q 353 2603 823 3093 
Q 1294 3584 2113 3584 
Q 2378 3584 2631 3529 
Q 2884 3475 3122 3366 
z
" transform="scale(0.015625)"/>
      <path id="DejaVuSans-29" d="M 513 4856 
L 1013 4856 
Q 1481 4119 1714 3412 
Q 1947 2706 1947 2009 
Q 1947 1309 1714 600 
Q 1481 -109 1013 -844 
L 513 -844 
Q 928 -128 1133 580 
Q 1338 1288 1338 2009 
Q 1338 2731 1133 3434 
Q 928 4138 513 4856 
z
" transform="scale(0.015625)"/>
     </defs>
     <use xlink:href="#DejaVuSans-2f"/>
     <use xlink:href="#DejaVuSans-75" x="33.691406"/>
     <use xlink:href="#DejaVuSans-73" x="97.070312"/>
     <use xlink:href="#DejaVuSans-72" x="149.169922"/>
     <use xlink:href="#DejaVuSans-2f" x="190.283203"/>
     <use xlink:href="#DejaVuSans-62" x="223.974609"/>
     <use xlink:href="#DejaVuSans-69" x="287.451172"/>
     <use xlink:href="#DejaVuSans-6e" x="315.234375"/>
     <use xlink:href="#DejaVuSans-2f" x="378.613281"/>
     <use xlink:href="#DejaVuSans-70" x="412.304688"/>
     <use xlink:href="#DejaVuSans-79" x="475.78125"/>
     <use xlink:href="#DejaVuSans-74" x="534.960938"/>
     <use xlink:href="#DejaVuSans-68" x="574.169922"/>
     <use xlink:href="#DejaVuSans-6f" x="637.548828"/>
     <use xlink:href="#DejaVuSans-6e" x="698.730469"/>
     <use xlink:href="#DejaVuSans-33" x="762.109375"/>
     <use xlink:href="#DejaVuSans-20" x="825.732422"/>
     <use xlink:href="#DejaVuSans-20" x="857.519531"/>
     <use xlink:href="#DejaVuSans-28" x="889.306641"/>
     <use xlink:href="#DejaVuSans-73" x="928.320312"/>
     <use xlink:href="#DejaVuSans-68" x="980.419922"/>
     <use xlink:href="#DejaVuSans-61" x="1043.798828"/>
     <use xlink:href="#DejaVuSans-72" x="1105.078125"/>
     <use xlink:href="#DejaVuSans-65" x="1143.941406"/>
     <use xlink:href="#DejaVuSans-64" x="1205.464844"/>
     <use xlink:href="#DejaVuSans-2c" x="1268.941406"/>
     <use xlink:href="#DejaVuSans-20" x="1300.728516"/>
     <use xlink:href="#DejaVuSans-75" x="1332.515625"/>
     <use xlink:href="#DejaVuSans-6e" x="1395.894531"/>
     <use xlink:href="#DejaVuSans-74" x="1459.273438"/>
     <use xlink:href="#DejaVuSans-6f" x="1498.482422"/>
     <use xlink:href="#DejaVuSans-75" x="1559.664062"/>
     <use xlink:href="#DejaVuSans-63" x="1623.042969"/>
     <use xlink:href="#DejaVuSans-68" x="1678.023438"/>
     <use xlink:href="#DejaVuSans-65" x="1741.402344"/>
     <use xlink:href="#DejaVuSans-64" x="1802.925781"/>
     <use xlink:href="#DejaVuSans-29" x="1866.402344"/>
    </g>
   </g>
   <g id="text_2">
    <!-- venv/bin/python -->
    <g transform="translate(96.543305 109.756809) scale(0.095 -0.095)">
     <defs>
      <path id="DejaVuSans-76" d="M 191 3500 
L 800 3500 
L 1894 563 
L 2988 3500 
L 3597 3500 
L 2284 0 
L 1503 0 
L 191 3500 
z
" transform="scale(0.015625)"/>
     </defs>
     <use xlink:href="#DejaVuSans-76"/>
     <use xlink:href="#DejaVuSans-65" x="59.179688"/>
     <use xlink:href="#DejaVuSans-6e" x="120.703125"/>
     <use xlink:href="#DejaVuSans-76" x="184.082031"/>
     <use xlink:href="#DejaVuSans-2f" x="243.261719"/>
     <use xlink:href="#DejaVuSans-62" x="276.953125"/>
     <use xlink:href="#DejaVuSans-69" x="340.429688"/>
     <use xlink:href="#DejaVuSans-6e" x="368.212891"/>
     <use xlink:href="#DejaVuSans-2f" x="431.591797"/>
     <use xlink:href="#DejaVuSans-70" x="465.283203"/>
     <use xlink:href="#DejaVuSans-79" x="528.759766"/>
     <use xlink:href="#DejaVuSans-74" x="587.939453"/>
     <use xlink:href="#DejaVuSans-68" x="627.148438"/>
     <use xlink:href="#DejaVuSans-6f" x="690.527344"/>
     <use xlink:href="#DejaVuSans-6e" x="751.708984"/>
    </g>
    <!-- (copy or symlink) -->
    <g transform="translate(94.018383 120.394731) scale(0.095 -0.095)">
     <defs>
      <path id="DejaVuSans-6c" d="M 603 4863 
L 1178 4863 
L 1178 0 
L 603 0 
L 603 4863 
z
" transform="scale(0.015625)"/>
      <path id="DejaVuSans-6b" d="M 581 4863 
L 1159 4863 
L 1159 1991 
L 2875 3500 
L 3609 3500 
L 1753 1863 
L 3688 0 
L 2938 0 
L 1159 1709 
L 1159 0 
L 581 0 
L 581 4863 
z
" transform="scale(0.015625)"/>
     </defs>
     <use xlink:href="#DejaVuSans-28"/>
     <use xlink:href="#DejaVuSans-63" x="39.013672"/>
     <use xlink:href="#DejaVuSans-6f" x="93.994141"/>
     <use xlink:href="#DejaVuSans-70" x="155.175781"/>
     <use xlink:href="#DejaVuSans-79" x="218.652344"/>
     <use xlink:href="#DejaVuSans-20" x="277.832031"/>
     <use xlink:href="#DejaVuSans-6f" x="309.619141"/>
     <use xlink:href="#DejaVuSans-72" x="370.800781"/>
     <use xlink:href="#DejaVuSans-20" x="411.914062"/>
     <use xlink:href="#DejaVuSans-73" x="443.701172"/>
     <use xlink:href="#DejaVuSans-79" x="495.800781"/>
     <use xlink:href="#DejaVuSans-6d" x="554.980469"/>
     <use xlink:href="#DejaVuSans-6c" x="652.392578"/>
     <use xlink:href="#DejaVuSans-69" x="680.175781"/>
     <use xlink:href="#DejaVuSans-6e" x="707.958984"/>
     <use xlink:href="#DejaVuSans-6b" x="771.337891"/>
     <use xlink:href="#DejaVuSans-29" x="829.248047"/>
    </g>
    <!-- sets sys.prefix = venv -->
    <g transform="translate(82.605023 131.032653) scale(0.095 -0.095)">
     <defs>
      <path id="DejaVuSans-2e" d="M 684 794 
L 1344 794 
L 1344 0 
L 684 0 
L 684 794 
z
" transform="scale(0.015625)"/>
      <path id="DejaVuSans-66" d="M 2375 4863 
L 2375 4384 
L 1825 4384 
Q 1516 4384 1395 4259 
Q 1275 4134 1275 3809 
L 1275 3500 
L 2222 3500 
L 2222 3053 
L 1275 3053 
L 1275 0 
L 697 0 
L 697 3053 
L 147 3053 
L 147 3500 
L 697 3500 
L 697 3744 
Q 697 4328 969 4595 
Q 1241 4863 1831 4863 
L 2375 4863 
z
" transform="scale(0.015625)"/>
      <path id="DejaVuSans-78" d="M 3513 3500 
L 2247 1797 
L 3578 0 
L 2900 0 
L 1881 1375 
L 863 0 
L 184 0 
L 1544 1831 
L 300 3500 
L 978 3500 
L 1906 2253 
L 2834 3500 
L 3513 3500 
z
" transform="scale(0.015625)"/>
      <path id="DejaVuSans-3d" d="M 678 2906 
L 4684 2906 
L 4684 2381 
L 678 2381 
L 678 2906 
z
M 678 1631 
L 4684 1631 
L 4684 1100 
L 678 1100 
L 678 1631 
z
" transform="scale(0.015625)"/>
     </defs>
     <use xlink:href="#DejaVuSans-73"/>
     <use xlink:href="#DejaVuSans-65" x="52.099609"/>
     <use xlink:href="#DejaVuSans-74" x="113.623047"/>
     <use xlink:href="#DejaVuSans-73" x="152.832031"/>
     <use xlink:href="#DejaVuSans-20" x="204.931641"/>
     <use xlink:href="#DejaVuSans-73" x="236.71875"/>
     <use xlink:href="#DejaVuSans-79" x="288.818359"/>
     <use xlink:href="#DejaVuSans-73" x="347.998047"/>
     <use xlink:href="#DejaVuSans-2e" x="400.097656"/>
     <use xlink:href="#DejaVuSans-70" x="431.884766"/>
     <use xlink:href="#DejaVuSans-72" x="495.361328"/>
     <use xlink:href="#DejaVuSans-65" x="534.224609"/>
     <use xlink:href="#DejaVuSans-66" x="595.748047"/>
     <use xlink:href="#DejaVuSans-69" x="630.953125"/>
     <use xlink:href="#DejaVuSans-78" x="658.736328"/>
     <use xlink:href="#DejaVuSans-20" x="717.916016"/>
     <use xlink:href="#DejaVuSans-3d" x="749.703125"/>
     <use xlink:href="#DejaVuSans-20" x="833.492188"/>
     <use xlink:href="#DejaVuSans-76" x="865.279297"/>
     <use xlink:href="#DejaVuSans-65" x="924.458984"/>
     <use xlink:href="#DejaVuSans-6e" x="985.982422"/>
     <use xlink:href="#DejaVuSans-76" x="1049.361328"/>
    </g>
   </g>
   <g id="text_3">
    <!-- pyvenv.cfg -->
    <g transform="translate(355.515328 109.756809) scale(0.095 -0.095)">
     <defs>
      <path id="DejaVuSans-67" d="M 2906 1791 
Q 2906 2416 2648 2759 
Q 2391 3103 1925 3103 
Q 1463 3103 1205 2759 
Q 947 2416 947 1791 
Q 947 1169 1205 825 
Q 1463 481 1925 481 
Q 2391 481 2648 825 
Q 2906 1169 2906 1791 
z
M 3481 434 
Q 3481 -459 3084 -895 
Q 2688 -1331 1869 -1331 
Q 1566 -1331 1297 -1286 
Q 1028 -1241 775 -1147 
L 775 -588 
Q 1028 -725 1275 -790 
Q 1522 -856 1778 -856 
Q 2344 -856 2625 -561 
Q 2906 -266 2906 331 
L 2906 616 
Q 2728 306 2450 153 
Q 2172 0 1784 0 
Q 1141 0 747 490 
Q 353 981 353 1791 
Q 353 2603 747 3093 
Q 1141 3584 1784 3584 
Q 2172 3584 2450 3431 
Q 2728 3278 2906 2969 
L 2906 3500 
L 3481 3500 
L 3481 434 
z
" transform="scale(0.015625)"/>
     </defs>
     <use xlink:href="#DejaVuSans-70"/>
     <use xlink:href="#DejaVuSans-79" x="63.476562"/>
     <use xlink:href="#DejaVuSans-76" x="122.65625"/>
     <use xlink:href="#DejaVuSans-65" x="181.835938"/>
     <use xlink:href="#DejaVuSans-6e" x="243.359375"/>
     <use xlink:href="#DejaVuSans-76" x="306.738281"/>
     <use xlink:href="#DejaVuSans-2e" x="358.167969"/>
     <use xlink:href="#DejaVuSans-63" x="389.955078"/>
     <use xlink:href="#DejaVuSans-66" x="444.935547"/>
     <use xlink:href="#DejaVuSans-67" x="480.140625"/>
    </g>
    <!-- home = system bin -->
    <g transform="translate(334.846148 120.394731) scale(0.095 -0.095)">
     <use xlink:href="#DejaVuSans-68"/>
     <use xlink:href="#DejaVuSans-6f" x="63.378906"/>
     <use xlink:href="#DejaVuSans-6d" x="124.560547"/>
     <use xlink:href="#DejaVuSans-65" x="221.972656"/>
     <use xlink:href="#DejaVuSans-20" x="283.496094"/>
     <use xlink:href="#DejaVuSans-3d" x="315.283203"/>
     <use xlink:href="#DejaVuSans-20" x="399.072266"/>
     <use xlink:href="#DejaVuSans-73" x="430.859375"/>
     <use xlink:href="#DejaVuSans-79" x="482.958984"/>
     <use xlink:href="#DejaVuSans-73" x="542.138672"/>
     <use xlink:href="#DejaVuSans-74" x="594.238281"/>
     <use xlink:href="#DejaVuSans-65" x="633.447266"/>
     <use xlink:href="#DejaVuSans-6d" x="694.970703"/>
     <use xlink:href="#DejaVuSans-20" x="792.382812"/>
     <use xlink:href="#DejaVuSans-62" x="824.169922"/>
     <use xlink:href="#DejaVuSans-69" x="887.646484"/>
     <use xlink:href="#DejaVuSans-6e" x="915.429688"/>
    </g>
    <!-- include-system-site = false -->
    <g transform="translate(316.651422 131.032653) scale(0.095 -0.095)">
     <defs>
      <path id="DejaVuSans-2d" d="M 313 2009 
L 1997 2009 
L 1997 1497 
L 313 1497 
L 313 2009 
z
" transform="scale(0.015625)"/>
     </defs>
     <use xlink:href="#DejaVuSans-69"/>
     <use xlink:href="#DejaVuSans-6e" x="27.783203"/>
     <use xlink:href="#DejaVuSans-63" x="91.162109"/>
     <use xlink:href="#DejaVuSans-6c" x="146.142578"/>
     <use xlink:href="#DejaVuSans-75" x="173.925781"/>
     <use xlink:href="#DejaVuSans-64" x="237.304688"/>
     <use xlink:href="#DejaVuSans-65" x="300.78125"/>
     <use xlink:href="#DejaVuSans-2d" x="362.304688"/>
     <use xlink:href="#DejaVuSans-73" x="398.388672"/>
     <use xlink:href="#DejaVuSans-79" x="450.488281"/>
     <use xlink:href="#DejaVuSans-73" x="509.667969"/>
     <use xlink:href="#DejaVuSans-74" x="561.767578"/>
     <use xlink:href="#DejaVuSans-65" x="600.976562"/>
     <use xlink:href="#DejaVuSans-6d" x="662.5"/>
     <use xlink:href="#DejaVuSans-2d" x="759.912109"/>
     <use xlink:href="#DejaVuSans-73" x="795.996094"/>
     <use xlink:href="#DejaVuSans-69" x="848.095703"/>
     <use xlink:href="#DejaVuSans-74" x="875.878906"/>
     <use xlink:href="#DejaVuSans-65" x="915.087891"/>
     <use xlink:href="#DejaVuSans-20" x="976.611328"/>
     <use xlink:href="#DejaVuSans-3d" x="1008.398438"/>
     <use xlink:href="#DejaVuSans-20" x="1092.1875"/>
     <use xlink:href="#DejaVuSans-66" x="1123.974609"/>
     <use xlink:href="#DejaVuSans-61" x="1159.179688"/>
     <use xlink:href="#DejaVuSans-6c" x="1220.458984"/>
     <use xlink:href="#DejaVuSans-73" x="1248.242188"/>
     <use xlink:href="#DejaVuSans-65" x="1300.341797"/>
    </g>
   </g>
   <g id="text_4">
    <!-- sys.path resolution -->
    <g transform="translate(213.143828 194.90937) scale(0.095 -0.095)">
     <use xlink:href="#DejaVuSans-73"/>
     <use xlink:href="#DejaVuSans-79" x="52.099609"/>
     <use xlink:href="#DejaVuSans-73" x="111.279297"/>
     <use xlink:href="#DejaVuSans-2e" x="163.378906"/>
     <use xlink:href="#DejaVuSans-70" x="195.166016"/>
     <use xlink:href="#DejaVuSans-61" x="258.642578"/>
     <use xlink:href="#DejaVuSans-74" x="319.921875"/>
     <use xlink:href="#DejaVuSans-68" x="359.130859"/>
     <use xlink:href="#DejaVuSans-20" x="422.509766"/>
     <use xlink:href="#DejaVuSans-72" x="454.296875"/>
     <use xlink:href="#DejaVuSans-65" x="493.160156"/>
     <use xlink:href="#DejaVuSans-73" x="554.683594"/>
     <use xlink:href="#DejaVuSans-6f" x="606.783203"/>
     <use xlink:href="#DejaVuSans-6c" x="667.964844"/>
     <use xlink:href="#DejaVuSans-75" x="695.748047"/>
     <use xlink:href="#DejaVuSans-74" x="759.126953"/>
     <use xlink:href="#DejaVuSans-69" x="798.335938"/>
     <use xlink:href="#DejaVuSans-6f" x="826.119141"/>
     <use xlink:href="#DejaVuSans-6e" x="887.300781"/>
    </g>
    <!-- -&gt; stdlib from system  +  venv/lib/python3.X/site-packages -->
    <g transform="translate(117.593867 205.547292) scale(0.095 -0.095)">
     <defs>
      <path id="DejaVuSans-3e" d="M 678 3150 
L 678 3719 
L 4684 2266 
L 4684 1747 
L 678 294 
L 678 863 
L 3897 2003 
L 678 3150 
z
" transform="scale(0.015625)"/>
      <path id="DejaVuSans-2b" d="M 2944 4013 
L 2944 2272 
L 4684 2272 
L 4684 1741 
L 2944 1741 
L 2944 0 
L 2419 0 
L 2419 1741 
L 678 1741 
L 678 2272 
L 2419 2272 
L 2419 4013 
L 2944 4013 
z
" transform="scale(0.015625)"/>
      <path id="DejaVuSans-58" d="M 403 4666 
L 1081 4666 
L 2241 2931 
L 3406 4666 
L 4084 4666 
L 2584 2425 
L 4184 0 
L 3506 0 
L 2194 1984 
L 872 0 
L 191 0 
L 1856 2491 
L 403 4666 
z
" transform="scale(0.015625)"/>
     </defs>
     <use xlink:href="#DejaVuSans-2d"/>
     <use xlink:href="#DejaVuSans-3e" x="36.083984"/>
     <use xlink:href="#DejaVuSans-20" x="119.873047"/>
     <use xlink:href="#DejaVuSans-73" x="151.660156"/>
     <use xlink:href="#DejaVuSans-74" x="203.759766"/>
     <use xlink:href="#DejaVuSans-64" x="242.96875"/>
     <use xlink:href="#DejaVuSans-6c" x="306.445312"/>
     <use xlink:href="#DejaVuSans-69" x="334.228516"/>
     <use xlink:href="#DejaVuSans-62" x="362.011719"/>
     <use xlink:href="#DejaVuSans-20" x="425.488281"/>
     <use xlink:href="#DejaVuSans-66" x="457.275391"/>
     <use xlink:href="#DejaVuSans-72" x="492.480469"/>
     <use xlink:href="#DejaVuSans-6f" x="531.34375"/>
     <use xlink:href="#DejaVuSans-6d" x="592.525391"/>
     <use xlink:href="#DejaVuSans-20" x="689.9375"/>
     <use xlink:href="#DejaVuSans-73" x="721.724609"/>
     <use xlink:href="#DejaVuSans-79" x="773.824219"/>
     <use xlink:href="#DejaVuSans-73" x="833.003906"/>
     <use xlink:href="#DejaVuSans-74" x="885.103516"/>
     <use xlink:href="#DejaVuSans-65" x="924.3125"/>
     <use xlink:href="#DejaVuSans-6d" x="985.835938"/>
     <use xlink:href="#DejaVuSans-20" x="1083.248047"/>
     <use xlink:href="#DejaVuSans-20" x="1115.035156"/>
     <use xlink:href="#DejaVuSans-2b" x="1146.822266"/>
     <use xlink:href="#DejaVuSans-20" x="1230.611328"/>
     <use xlink:href="#DejaVuSans-20" x="1262.398438"/>
     <use xlink:href="#DejaVuSans-76" x="1294.185547"/>
     <use xlink:href="#DejaVuSans-65" x="1353.365234"/>
     <use xlink:href="#DejaVuSans-6e" x="1414.888672"/>
     <use xlink:href="#DejaVuSans-76" x="1478.267578"/>
     <use xlink:href="#DejaVuSans-2f" x="1537.447266"/>
     <use xlink:href="#DejaVuSans-6c" x="1571.138672"/>
     <use xlink:href="#DejaVuSans-69" x="1598.921875"/>
     <use xlink:href="#DejaVuSans-62" x="1626.705078"/>
     <use xlink:href="#DejaVuSans-2f" x="1690.181641"/>
     <use xlink:href="#DejaVuSans-70" x="1723.873047"/>
     <use xlink:href="#DejaVuSans-79" x="1787.349609"/>
     <use xlink:href="#DejaVuSans-74" x="1846.529297"/>
     <use xlink:href="#DejaVuSans-68" x="1885.738281"/>
     <use xlink:href="#DejaVuSans-6f" x="1949.117188"/>
     <use xlink:href="#DejaVuSans-6e" x="2010.298828"/>
     <use xlink:href="#DejaVuSans-33" x="2073.677734"/>
     <use xlink:href="#DejaVuSans-2e" x="2137.300781"/>
     <use xlink:href="#DejaVuSans-58" x="2169.087891"/>
     <use xlink:href="#DejaVuSans-2f" x="2237.59375"/>
     <use xlink:href="#DejaVuSans-73" x="2271.285156"/>
     <use xlink:href="#DejaVuSans-69" x="2323.384766"/>
     <use xlink:href="#DejaVuSans-74" x="2351.167969"/>
     <use xlink:href="#DejaVuSans-65" x="2390.376953"/>
     <use xlink:href="#DejaVuSans-2d" x="2451.900391"/>
     <use xlink:href="#DejaVuSans-70" x="2487.984375"/>
     <use xlink:href="#DejaVuSans-61" x="2551.460938"/>
     <use xlink:href="#DejaVuSans-63" x="2612.740234"/>
     <use xlink:href="#DejaVuSans-6b" x="2667.720703"/>
     <use xlink:href="#DejaVuSans-61" x="2723.880859"/>
     <use xlink:href="#DejaVuSans-67" x="2785.160156"/>
     <use xlink:href="#DejaVuSans-65" x="2848.636719"/>
     <use xlink:href="#DejaVuSans-73" x="2910.160156"/>
    </g>
   </g>
   <g id="text_5">
    <!-- venv site-packages -->
    <g transform="translate(89.373773 266.097609) scale(0.095 -0.095)">
     <use xlink:href="#DejaVuSans-76"/>
     <use xlink:href="#DejaVuSans-65" x="59.179688"/>
     <use xlink:href="#DejaVuSans-6e" x="120.703125"/>
     <use xlink:href="#DejaVuSans-76" x="184.082031"/>
     <use xlink:href="#DejaVuSans-20" x="243.261719"/>
     <use xlink:href="#DejaVuSans-73" x="275.048828"/>
     <use xlink:href="#DejaVuSans-69" x="327.148438"/>
     <use xlink:href="#DejaVuSans-74" x="354.931641"/>
     <use xlink:href="#DejaVuSans-65" x="394.140625"/>
     <use xlink:href="#DejaVuSans-2d" x="455.664062"/>
     <use xlink:href="#DejaVuSans-70" x="491.748047"/>
     <use xlink:href="#DejaVuSans-61" x="555.224609"/>
     <use xlink:href="#DejaVuSans-63" x="616.503906"/>
     <use xlink:href="#DejaVuSans-6b" x="671.484375"/>
     <use xlink:href="#DejaVuSans-61" x="727.644531"/>
     <use xlink:href="#DejaVuSans-67" x="788.923828"/>
     <use xlink:href="#DejaVuSans-65" x="852.400391"/>
     <use xlink:href="#DejaVuSans-73" x="913.923828"/>
    </g>
    <!-- requests==2.31 -->
    <g transform="translate(96.195961 276.735531) scale(0.095 -0.095)">
     <defs>
      <path id="DejaVuSans-71" d="M 947 1747 
Q 947 1113 1208 752 
Q 1469 391 1925 391 
Q 2381 391 2643 752 
Q 2906 1113 2906 1747 
Q 2906 2381 2643 2742 
Q 2381 3103 1925 3103 
Q 1469 3103 1208 2742 
Q 947 2381 947 1747 
z
M 2906 525 
Q 2725 213 2448 61 
Q 2172 -91 1784 -91 
Q 1150 -91 751 415 
Q 353 922 353 1747 
Q 353 2572 751 3078 
Q 1150 3584 1784 3584 
Q 2172 3584 2448 3432 
Q 2725 3281 2906 2969 
L 2906 3500 
L 3481 3500 
L 3481 -1331 
L 2906 -1331 
L 2906 525 
z
" transform="scale(0.015625)"/>
      <path id="DejaVuSans-32" d="M 1228 531 
L 3431 531 
L 3431 0 
L 469 0 
L 469 531 
Q 828 903 1448 1529 
Q 2069 2156 2228 2338 
Q 2531 2678 2651 2914 
Q 2772 3150 2772 3378 
Q 2772 3750 2511 3984 
Q 2250 4219 1831 4219 
Q 1534 4219 1204 4116 
Q 875 4013 500 3803 
L 500 4441 
Q 881 4594 1212 4672 
Q 1544 4750 1819 4750 
Q 2544 4750 2975 4387 
Q 3406 4025 3406 3419 
Q 3406 3131 3298 2873 
Q 3191 2616 2906 2266 
Q 2828 2175 2409 1742 
Q 1991 1309 1228 531 
z
" transform="scale(0.015625)"/>
      <path id="DejaVuSans-31" d="M 794 531 
L 1825 531 
L 1825 4091 
L 703 3866 
L 703 4441 
L 1819 4666 
L 2450 4666 
L 2450 531 
L 3481 531 
L 3481 0 
L 794 0 
L 794 531 
z
" transform="scale(0.015625)"/>
     </defs>
     <use xlink:href="#DejaVuSans-72"/>
     <use xlink:href="#DejaVuSans-65" x="38.863281"/>
     <use xlink:href="#DejaVuSans-71" x="100.386719"/>
     <use xlink:href="#DejaVuSans-75" x="163.863281"/>
     <use xlink:href="#DejaVuSans-65" x="227.242188"/>
     <use xlink:href="#DejaVuSans-73" x="288.765625"/>
     <use xlink:href="#DejaVuSans-74" x="340.865234"/>
     <use xlink:href="#DejaVuSans-73" x="380.074219"/>
     <use xlink:href="#DejaVuSans-3d" x="432.173828"/>
     <use xlink:href="#DejaVuSans-3d" x="515.962891"/>
     <use xlink:href="#DejaVuSans-32" x="599.751953"/>
     <use xlink:href="#DejaVuSans-2e" x="663.375"/>
     <use xlink:href="#DejaVuSans-33" x="695.162109"/>
     <use xlink:href="#DejaVuSans-31" x="758.785156"/>
    </g>
    <!-- flask==3.0  (ISOLATED) -->
    <g transform="translate(78.542289 287.373453) scale(0.095 -0.095)">
     <defs>
      <path id="DejaVuSans-30" d="M 2034 4250 
Q 1547 4250 1301 3770 
Q 1056 3291 1056 2328 
Q 1056 1369 1301 889 
Q 1547 409 2034 409 
Q 2525 409 2770 889 
Q 3016 1369 3016 2328 
Q 3016 3291 2770 3770 
Q 2525 4250 2034 4250 
z
M 2034 4750 
Q 2819 4750 3233 4129 
Q 3647 3509 3647 2328 
Q 3647 1150 3233 529 
Q 2819 -91 2034 -91 
Q 1250 -91 836 529 
Q 422 1150 422 2328 
Q 422 3509 836 4129 
Q 1250 4750 2034 4750 
z
" transform="scale(0.015625)"/>
      <path id="DejaVuSans-49" d="M 628 4666 
L 1259 4666 
L 1259 0 
L 628 0 
L 628 4666 
z
" transform="scale(0.015625)"/>
      <path id="DejaVuSans-4f" d="M 2522 4238 
Q 1834 4238 1429 3725 
Q 1025 3213 1025 2328 
Q 1025 1447 1429 934 
Q 1834 422 2522 422 
Q 3209 422 3611 934 
Q 4013 1447 4013 2328 
Q 4013 3213 3611 3725 
Q 3209 4238 2522 4238 
z
M 2522 4750 
Q 3503 4750 4090 4092 
Q 4678 3434 4678 2328 
Q 4678 1225 4090 567 
Q 3503 -91 2522 -91 
Q 1538 -91 948 565 
Q 359 1222 359 2328 
Q 359 3434 948 4092 
Q 1538 4750 2522 4750 
z
" transform="scale(0.015625)"/>
      <path id="DejaVuSans-4c" d="M 628 4666 
L 1259 4666 
L 1259 531 
L 3531 531 
L 3531 0 
L 628 0 
L 628 4666 
z
" transform="scale(0.015625)"/>
      <path id="DejaVuSans-41" d="M 2188 4044 
L 1331 1722 
L 3047 1722 
L 2188 4044 
z
M 1831 4666 
L 2547 4666 
L 4325 0 
L 3669 0 
L 3244 1197 
L 1141 1197 
L 716 0 
L 50 0 
L 1831 4666 
z
" transform="scale(0.015625)"/>
      <path id="DejaVuSans-54" d="M -19 4666 
L 3928 4666 
L 3928 4134 
L 2272 4134 
L 2272 0 
L 1638 0 
L 1638 4134 
L -19 4134 
L -19 4666 
z
" transform="scale(0.015625)"/>
      <path id="DejaVuSans-45" d="M 628 4666 
L 3578 4666 
L 3578 4134 
L 1259 4134 
L 1259 2753 
L 3481 2753 
L 3481 2222 
L 1259 2222 
L 1259 531 
L 3634 531 
L 3634 0 
L 628 0 
L 628 4666 
z
" transform="scale(0.015625)"/>
      <path id="DejaVuSans-44" d="M 1259 4147 
L 1259 519 
L 2022 519 
Q 2988 519 3436 956 
Q 3884 1394 3884 2338 
Q 3884 3275 3436 3711 
Q 2988 4147 2022 4147 
L 1259 4147 
z
M 628 4666 
L 1925 4666 
Q 3281 4666 3915 4102 
Q 4550 3538 4550 2338 
Q 4550 1131 3912 565 
Q 3275 0 1925 0 
L 628 0 
L 628 4666 
z
" transform="scale(0.015625)"/>
     </defs>
     <use xlink:href="#DejaVuSans-66"/>
     <use xlink:href="#DejaVuSans-6c" x="35.205078"/>
     <use xlink:href="#DejaVuSans-61" x="62.988281"/>
     <use xlink:href="#DejaVuSans-73" x="124.267578"/>
     <use xlink:href="#DejaVuSans-6b" x="176.367188"/>
     <use xlink:href="#DejaVuSans-3d" x="234.277344"/>
     <use xlink:href="#DejaVuSans-3d" x="318.066406"/>
     <use xlink:href="#DejaVuSans-33" x="401.855469"/>
     <use xlink:href="#DejaVuSans-2e" x="465.478516"/>
     <use xlink:href="#DejaVuSans-30" x="497.265625"/>
     <use xlink:href="#DejaVuSans-20" x="560.888672"/>
     <use xlink:href="#DejaVuSans-20" x="592.675781"/>
     <use xlink:href="#DejaVuSans-28" x="624.462891"/>
     <use xlink:href="#DejaVuSans-49" x="663.476562"/>
     <use xlink:href="#DejaVuSans-53" x="692.96875"/>
     <use xlink:href="#DejaVuSans-4f" x="756.445312"/>
     <use xlink:href="#DejaVuSans-4c" x="835.15625"/>
     <use xlink:href="#DejaVuSans-41" x="893.119141"/>
     <use xlink:href="#DejaVuSans-54" x="953.777344"/>
     <use xlink:href="#DejaVuSans-45" x="1014.861328"/>
     <use xlink:href="#DejaVuSans-44" x="1078.044922"/>
     <use xlink:href="#DejaVuSans-29" x="1155.046875"/>
    </g>
   </g>
   <g id="text_6">
    <!-- System site-packages -->
    <g transform="translate(329.294586 266.097609) scale(0.095 -0.095)">
     <use xlink:href="#DejaVuSans-53"/>
     <use xlink:href="#DejaVuSans-79" x="63.476562"/>
     <use xlink:href="#DejaVuSans-73" x="122.65625"/>
     <use xlink:href="#DejaVuSans-74" x="174.755859"/>
     <use xlink:href="#DejaVuSans-65" x="213.964844"/>
     <use xlink:href="#DejaVuSans-6d" x="275.488281"/>
     <use xlink:href="#DejaVuSans-20" x="372.900391"/>
     <use xlink:href="#DejaVuSans-73" x="404.6875"/>
     <use xlink:href="#DejaVuSans-69" x="456.787109"/>
     <use xlink:href="#DejaVuSans-74" x="484.570312"/>
     <use xlink:href="#DejaVuSans-65" x="523.779297"/>
     <use xlink:href="#DejaVuSans-2d" x="585.302734"/>
     <use xlink:href="#DejaVuSans-70" x="621.386719"/>
     <use xlink:href="#DejaVuSans-61" x="684.863281"/>
     <use xlink:href="#DejaVuSans-63" x="746.142578"/>
     <use xlink:href="#DejaVuSans-6b" x="801.123047"/>
     <use xlink:href="#DejaVuSans-61" x="857.283203"/>
     <use xlink:href="#DejaVuSans-67" x="918.5625"/>
     <use xlink:href="#DejaVuSans-65" x="982.039062"/>
     <use xlink:href="#DejaVuSans-73" x="1043.5625"/>
    </g>
    <!-- NOT on path -->
    <g transform="translate(351.410289 276.735531) scale(0.095 -0.095)">
     <defs>
      <path id="DejaVuSans-4e" d="M 628 4666 
L 1478 4666 
L 3547 763 
L 3547 4666 
L 4159 4666 
L 4159 0 
L 3309 0 
L 1241 3903 
L 1241 0 
L 628 0 
L 628 4666 
z
" transform="scale(0.015625)"/>
     </defs>
     <use xlink:href="#DejaVuSans-4e"/>
     <use xlink:href="#DejaVuSans-4f" x="74.804688"/>
     <use xlink:href="#DejaVuSans-54" x="153.515625"/>
     <use xlink:href="#DejaVuSans-20" x="214.599609"/>
     <use xlink:href="#DejaVuSans-6f" x="246.386719"/>
     <use xlink:href="#DejaVuSans-6e" x="307.568359"/>
     <use xlink:href="#DejaVuSans-20" x="370.947266"/>
     <use xlink:href="#DejaVuSans-70" x="402.734375"/>
     <use xlink:href="#DejaVuSans-61" x="466.210938"/>
     <use xlink:href="#DejaVuSans-74" x="527.490234"/>
     <use xlink:href="#DejaVuSans-68" x="566.699219"/>
    </g>
    <!-- (unless - -system-site-packages) -->
    <g transform="translate(305.776148 287.373453) scale(0.095 -0.095)">
     <use xlink:href="#DejaVuSans-28"/>
     <use xlink:href="#DejaVuSans-75" x="39.013672"/>
     <use xlink:href="#DejaVuSans-6e" x="102.392578"/>
     <use xlink:href="#DejaVuSans-6c" x="165.771484"/>
     <use xlink:href="#DejaVuSans-65" x="193.554688"/>
     <use xlink:href="#DejaVuSans-73" x="255.078125"/>
     <use xlink:href="#DejaVuSans-73" x="307.177734"/>
     <use xlink:href="#DejaVuSans-20" x="359.277344"/>
     <use xlink:href="#DejaVuSans-2d" x="391.064453"/>
     <use xlink:href="#DejaVuSans-2d" x="427.148438"/>
     <use xlink:href="#DejaVuSans-73" x="463.232422"/>
     <use xlink:href="#DejaVuSans-79" x="515.332031"/>
     <use xlink:href="#DejaVuSans-73" x="574.511719"/>
     <use xlink:href="#DejaVuSans-74" x="626.611328"/>
     <use xlink:href="#DejaVuSans-65" x="665.820312"/>
     <use xlink:href="#DejaVuSans-6d" x="727.34375"/>
     <use xlink:href="#DejaVuSans-2d" x="824.755859"/>
     <use xlink:href="#DejaVuSans-73" x="860.839844"/>
     <use xlink:href="#DejaVuSans-69" x="912.939453"/>
     <use xlink:href="#DejaVuSans-74" x="940.722656"/>
     <use xlink:href="#DejaVuSans-65" x="979.931641"/>
     <use xlink:href="#DejaVuSans-2d" x="1041.455078"/>
     <use xlink:href="#DejaVuSans-70" x="1077.539062"/>
     <use xlink:href="#DejaVuSans-61" x="1141.015625"/>
     <use xlink:href="#DejaVuSans-63" x="1202.294922"/>
     <use xlink:href="#DejaVuSans-6b" x="1257.275391"/>
     <use xlink:href="#DejaVuSans-61" x="1313.435547"/>
     <use xlink:href="#DejaVuSans-67" x="1374.714844"/>
     <use xlink:href="#DejaVuSans-65" x="1438.191406"/>
     <use xlink:href="#DejaVuSans-73" x="1499.714844"/>
     <use xlink:href="#DejaVuSans-29" x="1551.814453"/>
    </g>
   </g>
   <g id="text_7">
    <!-- virtualenv: package isolation, one interpreter version -->
    <g transform="translate(76.408125 16.318125) scale(0.12 -0.12)">
     <defs>
      <path id="DejaVuSans-Bold-76" d="M 97 3500 
L 1216 3500 
L 2088 1081 
L 2956 3500 
L 4078 3500 
L 2700 0 
L 1472 0 
L 97 3500 
z
" transform="scale(0.015625)"/>
      <path id="DejaVuSans-Bold-69" d="M 538 3500 
L 1656 3500 
L 1656 0 
L 538 0 
L 538 3500 
z
M 538 4863 
L 1656 4863 
L 1656 3950 
L 538 3950 
L 538 4863 
z
" transform="scale(0.015625)"/>
      <path id="DejaVuSans-Bold-72" d="M 3138 2547 
Q 2991 2616 2845 2648 
Q 2700 2681 2553 2681 
Q 2122 2681 1889 2404 
Q 1656 2128 1656 1613 
L 1656 0 
L 538 0 
L 538 3500 
L 1656 3500 
L 1656 2925 
Q 1872 3269 2151 3426 
Q 2431 3584 2822 3584 
Q 2878 3584 2943 3579 
Q 3009 3575 3134 3559 
L 3138 2547 
z
" transform="scale(0.015625)"/>
      <path id="DejaVuSans-Bold-74" d="M 1759 4494 
L 1759 3500 
L 2913 3500 
L 2913 2700 
L 1759 2700 
L 1759 1216 
Q 1759 972 1856 886 
Q 1953 800 2241 800 
L 2816 800 
L 2816 0 
L 1856 0 
Q 1194 0 917 276 
Q 641 553 641 1216 
L 641 2700 
L 84 2700 
L 84 3500 
L 641 3500 
L 641 4494 
L 1759 4494 
z
" transform="scale(0.015625)"/>
      <path id="DejaVuSans-Bold-75" d="M 500 1363 
L 500 3500 
L 1625 3500 
L 1625 3150 
Q 1625 2866 1622 2436 
Q 1619 2006 1619 1863 
Q 1619 1441 1641 1255 
Q 1663 1069 1716 984 
Q 1784 875 1895 815 
Q 2006 756 2150 756 
Q 2500 756 2700 1025 
Q 2900 1294 2900 1772 
L 2900 3500 
L 4019 3500 
L 4019 0 
L 2900 0 
L 2900 506 
Q 2647 200 2364 54 
Q 2081 -91 1741 -91 
Q 1134 -91 817 281 
Q 500 653 500 1363 
z
" transform="scale(0.015625)"/>
      <path id="DejaVuSans-Bold-61" d="M 2106 1575 
Q 1756 1575 1579 1456 
Q 1403 1338 1403 1106 
Q 1403 894 1545 773 
Q 1688 653 1941 653 
Q 2256 653 2472 879 
Q 2688 1106 2688 1447 
L 2688 1575 
L 2106 1575 
z
M 3816 1997 
L 3816 0 
L 2688 0 
L 2688 519 
Q 2463 200 2181 54 
Q 1900 -91 1497 -91 
Q 953 -91 614 226 
Q 275 544 275 1050 
Q 275 1666 698 1953 
Q 1122 2241 2028 2241 
L 2688 2241 
L 2688 2328 
Q 2688 2594 2478 2717 
Q 2269 2841 1825 2841 
Q 1466 2841 1156 2769 
Q 847 2697 581 2553 
L 581 3406 
Q 941 3494 1303 3539 
Q 1666 3584 2028 3584 
Q 2975 3584 3395 3211 
Q 3816 2838 3816 1997 
z
" transform="scale(0.015625)"/>
      <path id="DejaVuSans-Bold-6c" d="M 538 4863 
L 1656 4863 
L 1656 0 
L 538 0 
L 538 4863 
z
" transform="scale(0.015625)"/>
      <path id="DejaVuSans-Bold-65" d="M 4031 1759 
L 4031 1441 
L 1416 1441 
Q 1456 1047 1700 850 
Q 1944 653 2381 653 
Q 2734 653 3104 758 
Q 3475 863 3866 1075 
L 3866 213 
Q 3469 63 3072 -14 
Q 2675 -91 2278 -91 
Q 1328 -91 801 392 
Q 275 875 275 1747 
Q 275 2603 792 3093 
Q 1309 3584 2216 3584 
Q 3041 3584 3536 3087 
Q 4031 2591 4031 1759 
z
M 2881 2131 
Q 2881 2450 2695 2645 
Q 2509 2841 2209 2841 
Q 1884 2841 1681 2658 
Q 1478 2475 1428 2131 
L 2881 2131 
z
" transform="scale(0.015625)"/>
      <path id="DejaVuSans-Bold-6e" d="M 4056 2131 
L 4056 0 
L 2931 0 
L 2931 347 
L 2931 1631 
Q 2931 2084 2911 2256 
Q 2891 2428 2841 2509 
Q 2775 2619 2662 2680 
Q 2550 2741 2406 2741 
Q 2056 2741 1856 2470 
Q 1656 2200 1656 1722 
L 1656 0 
L 538 0 
L 538 3500 
L 1656 3500 
L 1656 2988 
Q 1909 3294 2193 3439 
Q 2478 3584 2822 3584 
Q 3428 3584 3742 3212 
Q 4056 2841 4056 2131 
z
" transform="scale(0.015625)"/>
      <path id="DejaVuSans-Bold-3a" d="M 716 3500 
L 1844 3500 
L 1844 2291 
L 716 2291 
L 716 3500 
z
M 716 1209 
L 1844 1209 
L 1844 0 
L 716 0 
L 716 1209 
z
" transform="scale(0.015625)"/>
      <path id="DejaVuSans-Bold-20" transform="scale(0.015625)"/>
      <path id="DejaVuSans-Bold-70" d="M 1656 506 
L 1656 -1331 
L 538 -1331 
L 538 3500 
L 1656 3500 
L 1656 2988 
Q 1888 3294 2169 3439 
Q 2450 3584 2816 3584 
Q 3463 3584 3878 3070 
Q 4294 2556 4294 1747 
Q 4294 938 3878 423 
Q 3463 -91 2816 -91 
Q 2450 -91 2169 54 
Q 1888 200 1656 506 
z
M 2400 2772 
Q 2041 2772 1848 2508 
Q 1656 2244 1656 1747 
Q 1656 1250 1848 986 
Q 2041 722 2400 722 
Q 2759 722 2948 984 
Q 3138 1247 3138 1747 
Q 3138 2247 2948 2509 
Q 2759 2772 2400 2772 
z
" transform="scale(0.015625)"/>
      <path id="DejaVuSans-Bold-63" d="M 3366 3391 
L 3366 2478 
Q 3138 2634 2908 2709 
Q 2678 2784 2431 2784 
Q 1963 2784 1702 2511 
Q 1441 2238 1441 1747 
Q 1441 1256 1702 982 
Q 1963 709 2431 709 
Q 2694 709 2930 787 
Q 3166 866 3366 1019 
L 3366 103 
Q 3103 6 2833 -42 
Q 2563 -91 2291 -91 
Q 1344 -91 809 395 
Q 275 881 275 1747 
Q 275 2613 809 3098 
Q 1344 3584 2291 3584 
Q 2566 3584 2833 3536 
Q 3100 3488 3366 3391 
z
" transform="scale(0.015625)"/>
      <path id="DejaVuSans-Bold-6b" d="M 538 4863 
L 1656 4863 
L 1656 2216 
L 2944 3500 
L 4244 3500 
L 2534 1894 
L 4378 0 
L 3022 0 
L 1656 1459 
L 1656 0 
L 538 0 
L 538 4863 
z
" transform="scale(0.015625)"/>
      <path id="DejaVuSans-Bold-67" d="M 2919 594 
Q 2688 288 2409 144 
Q 2131 0 1766 0 
Q 1125 0 706 504 
Q 288 1009 288 1791 
Q 288 2575 706 3076 
Q 1125 3578 1766 3578 
Q 2131 3578 2409 3434 
Q 2688 3291 2919 2981 
L 2919 3500 
L 4044 3500 
L 4044 353 
Q 4044 -491 3511 -936 
Q 2978 -1381 1966 -1381 
Q 1638 -1381 1331 -1331 
Q 1025 -1281 716 -1178 
L 716 -306 
Q 1009 -475 1290 -558 
Q 1572 -641 1856 -641 
Q 2406 -641 2662 -400 
Q 2919 -159 2919 353 
L 2919 594 
z
M 2181 2772 
Q 1834 2772 1640 2515 
Q 1447 2259 1447 1791 
Q 1447 1309 1634 1061 
Q 1822 813 2181 813 
Q 2531 813 2725 1069 
Q 2919 1325 2919 1791 
Q 2919 2259 2725 2515 
Q 2531 2772 2181 2772 
z
" transform="scale(0.015625)"/>
      <path id="DejaVuSans-Bold-73" d="M 3272 3391 
L 3272 2541 
Q 2913 2691 2578 2766 
Q 2244 2841 1947 2841 
Q 1628 2841 1473 2761 
Q 1319 2681 1319 2516 
Q 1319 2381 1436 2309 
Q 1553 2238 1856 2203 
L 2053 2175 
Q 2913 2066 3209 1816 
Q 3506 1566 3506 1031 
Q 3506 472 3093 190 
Q 2681 -91 1863 -91 
Q 1516 -91 1145 -36 
Q 775 19 384 128 
L 384 978 
Q 719 816 1070 734 
Q 1422 653 1784 653 
Q 2113 653 2278 743 
Q 2444 834 2444 1013 
Q 2444 1163 2330 1236 
Q 2216 1309 1875 1350 
L 1678 1375 
Q 931 1469 631 1722 
Q 331 1975 331 2491 
Q 331 3047 712 3315 
Q 1094 3584 1881 3584 
Q 2191 3584 2531 3537 
Q 2872 3491 3272 3391 
z
" transform="scale(0.015625)"/>
      <path id="DejaVuSans-Bold-6f" d="M 2203 2784 
Q 1831 2784 1636 2517 
Q 1441 2250 1441 1747 
Q 1441 1244 1636 976 
Q 1831 709 2203 709 
Q 2569 709 2762 976 
Q 2956 1244 2956 1747 
Q 2956 2250 2762 2517 
Q 2569 2784 2203 2784 
z
M 2203 3584 
Q 3106 3584 3614 3096 
Q 4122 2609 4122 1747 
Q 4122 884 3614 396 
Q 3106 -91 2203 -91 
Q 1297 -91 786 396 
Q 275 884 275 1747 
Q 275 2609 786 3096 
Q 1297 3584 2203 3584 
z
" transform="scale(0.015625)"/>
      <path id="DejaVuSans-Bold-2c" d="M 653 1209 
L 1778 1209 
L 1778 256 
L 1006 -909 
L 341 -909 
L 653 256 
L 653 1209 
z
" transform="scale(0.015625)"/>
     </defs>
     <use xlink:href="#DejaVuSans-Bold-76"/>
     <use xlink:href="#DejaVuSans-Bold-69" x="65.185547"/>
     <use xlink:href="#DejaVuSans-Bold-72" x="99.462891"/>
     <use xlink:href="#DejaVuSans-Bold-74" x="148.779297"/>
     <use xlink:href="#DejaVuSans-Bold-75" x="196.582031"/>
     <use xlink:href="#DejaVuSans-Bold-61" x="267.773438"/>
     <use xlink:href="#DejaVuSans-Bold-6c" x="335.253906"/>
     <use xlink:href="#DejaVuSans-Bold-65" x="369.53125"/>
     <use xlink:href="#DejaVuSans-Bold-6e" x="437.353516"/>
     <use xlink:href="#DejaVuSans-Bold-76" x="508.544922"/>
     <use xlink:href="#DejaVuSans-Bold-3a" x="573.730469"/>
     <use xlink:href="#DejaVuSans-Bold-20" x="613.720703"/>
     <use xlink:href="#DejaVuSans-Bold-70" x="648.535156"/>
     <use xlink:href="#DejaVuSans-Bold-61" x="720.117188"/>
     <use xlink:href="#DejaVuSans-Bold-63" x="787.597656"/>
     <use xlink:href="#DejaVuSans-Bold-6b" x="846.875"/>
     <use xlink:href="#DejaVuSans-Bold-61" x="913.378906"/>
     <use xlink:href="#DejaVuSans-Bold-67" x="980.859375"/>
     <use xlink:href="#DejaVuSans-Bold-65" x="1052.441406"/>
     <use xlink:href="#DejaVuSans-Bold-20" x="1120.263672"/>
     <use xlink:href="#DejaVuSans-Bold-69" x="1155.078125"/>
     <use xlink:href="#DejaVuSans-Bold-73" x="1189.355469"/>
     <use xlink:href="#DejaVuSans-Bold-6f" x="1248.876953"/>
     <use xlink:href="#DejaVuSans-Bold-6c" x="1317.578125"/>
     <use xlink:href="#DejaVuSans-Bold-61" x="1351.855469"/>
     <use xlink:href="#DejaVuSans-Bold-74" x="1419.335938"/>
     <use xlink:href="#DejaVuSans-Bold-69" x="1467.138672"/>
     <use xlink:href="#DejaVuSans-Bold-6f" x="1501.416016"/>
     <use xlink:href="#DejaVuSans-Bold-6e" x="1570.117188"/>
     <use xlink:href="#DejaVuSans-Bold-2c" x="1641.308594"/>
     <use xlink:href="#DejaVuSans-Bold-20" x="1679.296875"/>
     <use xlink:href="#DejaVuSans-Bold-6f" x="1714.111328"/>
     <use xlink:href="#DejaVuSans-Bold-6e" x="1782.8125"/>
     <use xlink:href="#DejaVuSans-Bold-65" x="1854.003906"/>
     <use xlink:href="#DejaVuSans-Bold-20" x="1921.826172"/>
     <use xlink:href="#DejaVuSans-Bold-69" x="1956.640625"/>
     <use xlink:href="#DejaVuSans-Bold-6e" x="1990.917969"/>
     <use xlink:href="#DejaVuSans-Bold-74" x="2062.109375"/>
     <use xlink:href="#DejaVuSans-Bold-65" x="2109.912109"/>
     <use xlink:href="#DejaVuSans-Bold-72" x="2177.734375"/>
     <use xlink:href="#DejaVuSans-Bold-70" x="2227.050781"/>
     <use xlink:href="#DejaVuSans-Bold-72" x="2298.632812"/>
     <use xlink:href="#DejaVuSans-Bold-65" x="2347.949219"/>
     <use xlink:href="#DejaVuSans-Bold-74" x="2415.771484"/>
     <use xlink:href="#DejaVuSans-Bold-65" x="2463.574219"/>
     <use xlink:href="#DejaVuSans-Bold-72" x="2531.396484"/>
     <use xlink:href="#DejaVuSans-Bold-20" x="2580.712891"/>
     <use xlink:href="#DejaVuSans-Bold-76" x="2615.527344"/>
     <use xlink:href="#DejaVuSans-Bold-65" x="2680.712891"/>
     <use xlink:href="#DejaVuSans-Bold-72" x="2748.535156"/>
     <use xlink:href="#DejaVuSans-Bold-73" x="2797.851562"/>
     <use xlink:href="#DejaVuSans-Bold-69" x="2857.373047"/>
     <use xlink:href="#DejaVuSans-Bold-6f" x="2891.650391"/>
     <use xlink:href="#DejaVuSans-Bold-6e" x="2960.351562"/>
    </g>
   </g>
  </g>
 </g>
 <defs>
  <clipPath id="peba928104b">
   <rect x="7.2" y="11.328525" width="502.2" height="332.64"/>
  </clipPath>
 </defs>
</svg>
