<svg xmlns="http://www.w3.org/2000/svg" viewBox="0 0 400 400" width="400" height="400" font-family="-apple-system, BlinkMacSystemFont, 'Segoe UI', Helvetica, Arial, sans-serif" font-size="14">
  <rect width="400" height="400" fill="#ffffff"/>

  <!-- Grid (50px = 1 unit; origin at (50, 350)) -->
  <g stroke="#e0e0e0" stroke-width="1">
    <line x1="100" y1="50"  x2="100" y2="350"/>
    <line x1="150" y1="50"  x2="150" y2="350"/>
    <line x1="200" y1="50"  x2="200" y2="350"/>
    <line x1="250" y1="50"  x2="250" y2="350"/>
    <line x1="300" y1="50"  x2="300" y2="350"/>
    <line x1="350" y1="50"  x2="350" y2="350"/>
    <line x1="50" y1="300" x2="380" y2="300"/>
    <line x1="50" y1="250" x2="380" y2="250"/>
    <line x1="50" y1="200" x2="380" y2="200"/>
    <line x1="50" y1="150" x2="380" y2="150"/>
    <line x1="50" y1="100" x2="380" y2="100"/>
    <line x1="50" y1="50"  x2="380" y2="50"/>
  </g>

  <defs>
    <marker id="ah-axis" viewBox="0 0 10 10" refX="9" refY="5"
            markerWidth="8" markerHeight="8" orient="auto-start-reverse">
      <path d="M 0 0 L 10 5 L 0 10 z" fill="#333"/>
    </marker>
  </defs>

  <!-- Axes -->
  <line x1="50" y1="350" x2="380" y2="350" stroke="#333" stroke-width="2" marker-end="url(#ah-axis)"/>
  <line x1="50" y1="350" x2="50"  y2="20"  stroke="#333" stroke-width="2" marker-end="url(#ah-axis)"/>
  <text x="388" y="355" font-style="italic" fill="#333">x₁</text>
  <text x="35"  y="22"  font-style="italic" fill="#333">x₂</text>

  <!-- Tick numbers -->
  <g fill="#555">
    <text x="46"  y="368" text-anchor="middle">0</text>
    <text x="100" y="368" text-anchor="middle">1</text>
    <text x="150" y="368" text-anchor="middle">2</text>
    <text x="200" y="368" text-anchor="middle">3</text>
    <text x="250" y="368" text-anchor="middle">4</text>
    <text x="300" y="368" text-anchor="middle">5</text>
    <text x="350" y="368" text-anchor="middle">6</text>
    <text x="40"  y="304" text-anchor="end">1</text>
    <text x="40"  y="254" text-anchor="end">2</text>
    <text x="40"  y="204" text-anchor="end">3</text>
    <text x="40"  y="154" text-anchor="end">4</text>
    <text x="40"  y="104" text-anchor="end">5</text>
    <text x="40"  y="54"  text-anchor="end">6</text>
  </g>

  <!-- Line 1: 2 x_1 + x_2 = 5  →  x_2 = 5 − 2 x_1.  At x_1 = 0: x_2 = 5 (y=100). At x_1 = 3: x_2 = -1 (off-screen). -->
  <!-- Plot from x_1 = -0.2 (off-screen) to x_1 = 3 (y = -50→off). Use clipped endpoints: x_1=0,x_2=5 (50, 100) and x_1=2.6,x_2=-0.2 (180,360). Actually plot full range over the visible region: x_1∈[0, 2.6] gives x_2 ∈ [5, -0.2]. -->
  <line x1="50" y1="100" x2="180" y2="360" stroke="#1f6feb" stroke-width="2.5"/>
  <text x="188" y="364" fill="#1f6feb" font-weight="bold">2 x₁ + x₂ = 5</text>

  <!-- Line 2: x_1 - x_2 = 1  →  x_2 = x_1 - 1. At x_1 = 1: x_2 = 0 (100, 350). At x_1 = 6: x_2 = 5 (350, 100). -->
  <line x1="100" y1="350" x2="350" y2="100" stroke="#d97706" stroke-width="2.5"/>
  <text x="358" y="92" fill="#d97706" font-weight="bold">x₁ − x₂ = 1</text>

  <!-- Intersection at (2, 1) → (150, 300) -->
  <circle cx="150" cy="300" r="6" fill="#059669" stroke="#fff" stroke-width="2"/>
  <text x="160" y="295" fill="#059669" font-weight="bold">Solution (2, 1)</text>

  <!-- Origin -->
  <text x="36" y="365" fill="#555" font-style="italic">O</text>

  <!-- Title -->
  <text x="200" y="35" text-anchor="middle" fill="#333" font-weight="bold" font-size="15">Two lines crossing → unique solution</text>
</svg>
