<?xml version="1.0" encoding="utf-8" standalone="no"?>
<!DOCTYPE svg PUBLIC "-//W3C//DTD SVG 1.1//EN"
  "http://www.w3.org/Graphics/SVG/1.1/DTD/svg11.dtd">
<svg xmlns:xlink="http://www.w3.org/1999/xlink" width="349.2pt" height="263.88pt" viewBox="0 0 349.2 263.88" xmlns="http://www.w3.org/2000/svg" version="1.1">
 <metadata>
  <rdf:RDF xmlns:dc="http://purl.org/dc/elements/1.1/" xmlns:cc="http://creativecommons.org/ns#" xmlns:rdf="http://www.w3.org/1999/02/22-rdf-syntax-ns#">
   <cc:Work>
    <dc:type rdf:resource="http://purl.org/dc/dcmitype/StillImage"/>
    <dc:date>2026-06-14T16:20:11.218226</dc:date>
    <dc:format>image/svg+xml</dc:format>
    <dc:creator>
     <cc:Agent>
      <dc:title>Matplotlib v3.9.4, https://matplotlib.org/</dc:title>
     </cc:Agent>
    </dc:creator>
   </cc:Work>
  </rdf:RDF>
 </metadata>
 <defs>
  <style type="text/css">*{stroke-linejoin: round; stroke-linecap: butt}</style>
 </defs>
 <g id="figure_1">
  <g id="patch_1">
   <path d="M 0 263.88 
L 349.2 263.88 
L 349.2 0 
L 0 0 
z
" style="fill: #ffffff"/>
  </g>
  <g id="axes_1">
   <g id="patch_2">
    <path d="M 17.244 249.69456 
L 331.956 249.69456 
Q 332.6256 249.69456 332.6256 249.1956 
L 332.6256 14.6844 
Q 332.6256 14.18544 331.956 14.18544 
L 17.244 14.18544 
Q 16.5744 14.18544 16.5744 14.6844 
L 16.5744 249.1956 
Q 16.5744 249.69456 17.244 249.69456 
z
" clip-path="url(#pabadc76660)" style="fill: #e8f0fe; stroke: #1967d2; stroke-width: 1.5; stroke-linejoin: miter"/>
   </g>
   <g id="patch_3">
    <path d="M 47.376 227.24136 
L 301.824 227.24136 
Q 302.4936 227.24136 302.4936 226.7424 
L 302.4936 52.1064 
Q 302.4936 51.60744 301.824 51.60744 
L 47.376 51.60744 
Q 46.7064 51.60744 46.7064 52.1064 
L 46.7064 226.7424 
Q 46.7064 227.24136 47.376 227.24136 
z
" clip-path="url(#pabadc76660)" style="fill: #d2e3fc; stroke: #1967d2; stroke-width: 1.5; stroke-linejoin: miter"/>
   </g>
   <g id="patch_4">
    <path d="M 80.856 202.29336 
L 268.344 202.29336 
Q 269.0136 202.29336 269.0136 201.7944 
L 269.0136 87.0336 
Q 269.0136 86.53464 268.344 86.53464 
L 80.856 86.53464 
Q 80.1864 86.53464 80.1864 87.0336 
L 80.1864 201.7944 
Q 80.1864 202.29336 80.856 202.29336 
z
" clip-path="url(#pabadc76660)" style="fill: #aecbfa; stroke: #1967d2; stroke-width: 1.5; stroke-linejoin: miter"/>
   </g>
   <g id="patch_5">
    <path d="M 121.032 172.35576 
L 228.168 172.35576 
Q 228.8376 172.35576 228.8376 171.8568 
L 228.8376 116.9712 
Q 228.8376 116.47224 228.168 116.47224 
L 121.032 116.47224 
Q 120.3624 116.47224 120.3624 116.9712 
L 120.3624 171.8568 
Q 120.3624 172.35576 121.032 172.35576 
z
" clip-path="url(#pabadc76660)" style="fill: #669df6; stroke: #1967d2; stroke-width: 1.5; stroke-linejoin: miter"/>
   </g>
   <g id="text_1">
    <!-- Built-in (B) -->
    <g transform="translate(23.94 24.6636) scale(0.1 -0.1)">
     <defs>
      <path id="DejaVuSans-Bold-42" d="M 2456 2859 
Q 2741 2859 2887 2984 
Q 3034 3109 3034 3353 
Q 3034 3594 2887 3720 
Q 2741 3847 2456 3847 
L 1791 3847 
L 1791 2859 
L 2456 2859 
z
M 2497 819 
Q 2859 819 3042 972 
Q 3225 1125 3225 1434 
Q 3225 1738 3044 1889 
Q 2863 2041 2497 2041 
L 1791 2041 
L 1791 819 
L 2497 819 
z
M 3616 2497 
Q 4003 2384 4215 2081 
Q 4428 1778 4428 1338 
Q 4428 663 3972 331 
Q 3516 0 2584 0 
L 588 0 
L 588 4666 
L 2394 4666 
Q 3366 4666 3802 4372 
Q 4238 4078 4238 3431 
Q 4238 3091 4078 2852 
Q 3919 2613 3616 2497 
z
" transform="scale(0.015625)"/>
      <path id="DejaVuSans-Bold-75" d="M 500 1363 
L 500 3500 
L 1625 3500 
L 1625 3150 
Q 1625 2866 1622 2436 
Q 1619 2006 1619 1863 
Q 1619 1441 1641 1255 
Q 1663 1069 1716 984 
Q 1784 875 1895 815 
Q 2006 756 2150 756 
Q 2500 756 2700 1025 
Q 2900 1294 2900 1772 
L 2900 3500 
L 4019 3500 
L 4019 0 
L 2900 0 
L 2900 506 
Q 2647 200 2364 54 
Q 2081 -91 1741 -91 
Q 1134 -91 817 281 
Q 500 653 500 1363 
z
" transform="scale(0.015625)"/>
      <path id="DejaVuSans-Bold-69" d="M 538 3500 
L 1656 3500 
L 1656 0 
L 538 0 
L 538 3500 
z
M 538 4863 
L 1656 4863 
L 1656 3950 
L 538 3950 
L 538 4863 
z
" transform="scale(0.015625)"/>
      <path id="DejaVuSans-Bold-6c" d="M 538 4863 
L 1656 4863 
L 1656 0 
L 538 0 
L 538 4863 
z
" transform="scale(0.015625)"/>
      <path id="DejaVuSans-Bold-74" d="M 1759 4494 
L 1759 3500 
L 2913 3500 
L 2913 2700 
L 1759 2700 
L 1759 1216 
Q 1759 972 1856 886 
Q 1953 800 2241 800 
L 2816 800 
L 2816 0 
L 1856 0 
Q 1194 0 917 276 
Q 641 553 641 1216 
L 641 2700 
L 84 2700 
L 84 3500 
L 641 3500 
L 641 4494 
L 1759 4494 
z
" transform="scale(0.015625)"/>
      <path id="DejaVuSans-Bold-2d" d="M 347 2297 
L 2309 2297 
L 2309 1388 
L 347 1388 
L 347 2297 
z
" transform="scale(0.015625)"/>
      <path id="DejaVuSans-Bold-6e" d="M 4056 2131 
L 4056 0 
L 2931 0 
L 2931 347 
L 2931 1631 
Q 2931 2084 2911 2256 
Q 2891 2428 2841 2509 
Q 2775 2619 2662 2680 
Q 2550 2741 2406 2741 
Q 2056 2741 1856 2470 
Q 1656 2200 1656 1722 
L 1656 0 
L 538 0 
L 538 3500 
L 1656 3500 
L 1656 2988 
Q 1909 3294 2193 3439 
Q 2478 3584 2822 3584 
Q 3428 3584 3742 3212 
Q 4056 2841 4056 2131 
z
" transform="scale(0.015625)"/>
      <path id="DejaVuSans-Bold-20" transform="scale(0.015625)"/>
      <path id="DejaVuSans-Bold-28" d="M 2413 -844 
L 1484 -844 
Q 1006 -72 778 623 
Q 550 1319 550 2003 
Q 550 2688 779 3389 
Q 1009 4091 1484 4856 
L 2413 4856 
Q 2013 4116 1813 3408 
Q 1613 2700 1613 2009 
Q 1613 1319 1811 609 
Q 2009 -100 2413 -844 
z
" transform="scale(0.015625)"/>
      <path id="DejaVuSans-Bold-29" d="M 513 -844 
Q 913 -100 1113 609 
Q 1313 1319 1313 2009 
Q 1313 2700 1113 3408 
Q 913 4116 513 4856 
L 1441 4856 
Q 1916 4091 2145 3389 
Q 2375 2688 2375 2003 
Q 2375 1319 2147 623 
Q 1919 -72 1441 -844 
L 513 -844 
z
" transform="scale(0.015625)"/>
     </defs>
     <use xlink:href="#DejaVuSans-Bold-42"/>
     <use xlink:href="#DejaVuSans-Bold-75" x="76.220703"/>
     <use xlink:href="#DejaVuSans-Bold-69" x="147.412109"/>
     <use xlink:href="#DejaVuSans-Bold-6c" x="181.689453"/>
     <use xlink:href="#DejaVuSans-Bold-74" x="215.966797"/>
     <use xlink:href="#DejaVuSans-Bold-2d" x="263.769531"/>
     <use xlink:href="#DejaVuSans-Bold-69" x="305.273438"/>
     <use xlink:href="#DejaVuSans-Bold-6e" x="339.550781"/>
     <use xlink:href="#DejaVuSans-Bold-20" x="410.742188"/>
     <use xlink:href="#DejaVuSans-Bold-28" x="445.556641"/>
     <use xlink:href="#DejaVuSans-Bold-42" x="491.259766"/>
     <use xlink:href="#DejaVuSans-Bold-29" x="567.480469"/>
    </g>
   </g>
   <g id="text_2">
    <!-- Global / Module (G) -->
    <g transform="translate(54.072 62.0856) scale(0.1 -0.1)">
     <defs>
      <path id="DejaVuSans-Bold-47" d="M 4781 347 
Q 4331 128 3847 18 
Q 3363 -91 2847 -91 
Q 1681 -91 1000 561 
Q 319 1213 319 2328 
Q 319 3456 1012 4103 
Q 1706 4750 2913 4750 
Q 3378 4750 3804 4662 
Q 4231 4575 4609 4403 
L 4609 3438 
Q 4219 3659 3833 3768 
Q 3447 3878 3059 3878 
Q 2341 3878 1952 3476 
Q 1563 3075 1563 2328 
Q 1563 1588 1938 1184 
Q 2313 781 3003 781 
Q 3191 781 3352 804 
Q 3513 828 3641 878 
L 3641 1784 
L 2906 1784 
L 2906 2591 
L 4781 2591 
L 4781 347 
z
" transform="scale(0.015625)"/>
      <path id="DejaVuSans-Bold-6f" d="M 2203 2784 
Q 1831 2784 1636 2517 
Q 1441 2250 1441 1747 
Q 1441 1244 1636 976 
Q 1831 709 2203 709 
Q 2569 709 2762 976 
Q 2956 1244 2956 1747 
Q 2956 2250 2762 2517 
Q 2569 2784 2203 2784 
z
M 2203 3584 
Q 3106 3584 3614 3096 
Q 4122 2609 4122 1747 
Q 4122 884 3614 396 
Q 3106 -91 2203 -91 
Q 1297 -91 786 396 
Q 275 884 275 1747 
Q 275 2609 786 3096 
Q 1297 3584 2203 3584 
z
" transform="scale(0.015625)"/>
      <path id="DejaVuSans-Bold-62" d="M 2400 722 
Q 2759 722 2948 984 
Q 3138 1247 3138 1747 
Q 3138 2247 2948 2509 
Q 2759 2772 2400 2772 
Q 2041 2772 1848 2508 
Q 1656 2244 1656 1747 
Q 1656 1250 1848 986 
Q 2041 722 2400 722 
z
M 1656 2988 
Q 1888 3294 2169 3439 
Q 2450 3584 2816 3584 
Q 3463 3584 3878 3070 
Q 4294 2556 4294 1747 
Q 4294 938 3878 423 
Q 3463 -91 2816 -91 
Q 2450 -91 2169 54 
Q 1888 200 1656 506 
L 1656 0 
L 538 0 
L 538 4863 
L 1656 4863 
L 1656 2988 
z
" transform="scale(0.015625)"/>
      <path id="DejaVuSans-Bold-61" d="M 2106 1575 
Q 1756 1575 1579 1456 
Q 1403 1338 1403 1106 
Q 1403 894 1545 773 
Q 1688 653 1941 653 
Q 2256 653 2472 879 
Q 2688 1106 2688 1447 
L 2688 1575 
L 2106 1575 
z
M 3816 1997 
L 3816 0 
L 2688 0 
L 2688 519 
Q 2463 200 2181 54 
Q 1900 -91 1497 -91 
Q 953 -91 614 226 
Q 275 544 275 1050 
Q 275 1666 698 1953 
Q 1122 2241 2028 2241 
L 2688 2241 
L 2688 2328 
Q 2688 2594 2478 2717 
Q 2269 2841 1825 2841 
Q 1466 2841 1156 2769 
Q 847 2697 581 2553 
L 581 3406 
Q 941 3494 1303 3539 
Q 1666 3584 2028 3584 
Q 2975 3584 3395 3211 
Q 3816 2838 3816 1997 
z
" transform="scale(0.015625)"/>
      <path id="DejaVuSans-Bold-2f" d="M 1644 4666 
L 2338 4666 
L 691 -594 
L 0 -594 
L 1644 4666 
z
" transform="scale(0.015625)"/>
      <path id="DejaVuSans-Bold-4d" d="M 588 4666 
L 2119 4666 
L 3181 2169 
L 4250 4666 
L 5778 4666 
L 5778 0 
L 4641 0 
L 4641 3413 
L 3566 897 
L 2803 897 
L 1728 3413 
L 1728 0 
L 588 0 
L 588 4666 
z
" transform="scale(0.015625)"/>
      <path id="DejaVuSans-Bold-64" d="M 2919 2988 
L 2919 4863 
L 4044 4863 
L 4044 0 
L 2919 0 
L 2919 506 
Q 2688 197 2409 53 
Q 2131 -91 1766 -91 
Q 1119 -91 703 423 
Q 288 938 288 1747 
Q 288 2556 703 3070 
Q 1119 3584 1766 3584 
Q 2128 3584 2408 3439 
Q 2688 3294 2919 2988 
z
M 2181 722 
Q 2541 722 2730 984 
Q 2919 1247 2919 1747 
Q 2919 2247 2730 2509 
Q 2541 2772 2181 2772 
Q 1825 2772 1636 2509 
Q 1447 2247 1447 1747 
Q 1447 1247 1636 984 
Q 1825 722 2181 722 
z
" transform="scale(0.015625)"/>
      <path id="DejaVuSans-Bold-65" d="M 4031 1759 
L 4031 1441 
L 1416 1441 
Q 1456 1047 1700 850 
Q 1944 653 2381 653 
Q 2734 653 3104 758 
Q 3475 863 3866 1075 
L 3866 213 
Q 3469 63 3072 -14 
Q 2675 -91 2278 -91 
Q 1328 -91 801 392 
Q 275 875 275 1747 
Q 275 2603 792 3093 
Q 1309 3584 2216 3584 
Q 3041 3584 3536 3087 
Q 4031 2591 4031 1759 
z
M 2881 2131 
Q 2881 2450 2695 2645 
Q 2509 2841 2209 2841 
Q 1884 2841 1681 2658 
Q 1478 2475 1428 2131 
L 2881 2131 
z
" transform="scale(0.015625)"/>
     </defs>
     <use xlink:href="#DejaVuSans-Bold-47"/>
     <use xlink:href="#DejaVuSans-Bold-6c" x="82.080078"/>
     <use xlink:href="#DejaVuSans-Bold-6f" x="116.357422"/>
     <use xlink:href="#DejaVuSans-Bold-62" x="185.058594"/>
     <use xlink:href="#DejaVuSans-Bold-61" x="256.640625"/>
     <use xlink:href="#DejaVuSans-Bold-6c" x="324.121094"/>
     <use xlink:href="#DejaVuSans-Bold-20" x="358.398438"/>
     <use xlink:href="#DejaVuSans-Bold-2f" x="393.212891"/>
     <use xlink:href="#DejaVuSans-Bold-20" x="429.736328"/>
     <use xlink:href="#DejaVuSans-Bold-4d" x="464.550781"/>
     <use xlink:href="#DejaVuSans-Bold-6f" x="564.0625"/>
     <use xlink:href="#DejaVuSans-Bold-64" x="632.763672"/>
     <use xlink:href="#DejaVuSans-Bold-75" x="704.345703"/>
     <use xlink:href="#DejaVuSans-Bold-6c" x="775.537109"/>
     <use xlink:href="#DejaVuSans-Bold-65" x="809.814453"/>
     <use xlink:href="#DejaVuSans-Bold-20" x="877.636719"/>
     <use xlink:href="#DejaVuSans-Bold-28" x="912.451172"/>
     <use xlink:href="#DejaVuSans-Bold-47" x="958.154297"/>
     <use xlink:href="#DejaVuSans-Bold-29" x="1040.234375"/>
    </g>
   </g>
   <g id="text_3">
    <!-- Enclosing (E) -->
    <g transform="translate(87.552 97.0128) scale(0.1 -0.1)">
     <defs>
      <path id="DejaVuSans-Bold-45" d="M 588 4666 
L 3834 4666 
L 3834 3756 
L 1791 3756 
L 1791 2888 
L 3713 2888 
L 3713 1978 
L 1791 1978 
L 1791 909 
L 3903 909 
L 3903 0 
L 588 0 
L 588 4666 
z
" transform="scale(0.015625)"/>
      <path id="DejaVuSans-Bold-63" d="M 3366 3391 
L 3366 2478 
Q 3138 2634 2908 2709 
Q 2678 2784 2431 2784 
Q 1963 2784 1702 2511 
Q 1441 2238 1441 1747 
Q 1441 1256 1702 982 
Q 1963 709 2431 709 
Q 2694 709 2930 787 
Q 3166 866 3366 1019 
L 3366 103 
Q 3103 6 2833 -42 
Q 2563 -91 2291 -91 
Q 1344 -91 809 395 
Q 275 881 275 1747 
Q 275 2613 809 3098 
Q 1344 3584 2291 3584 
Q 2566 3584 2833 3536 
Q 3100 3488 3366 3391 
z
" transform="scale(0.015625)"/>
      <path id="DejaVuSans-Bold-73" d="M 3272 3391 
L 3272 2541 
Q 2913 2691 2578 2766 
Q 2244 2841 1947 2841 
Q 1628 2841 1473 2761 
Q 1319 2681 1319 2516 
Q 1319 2381 1436 2309 
Q 1553 2238 1856 2203 
L 2053 2175 
Q 2913 2066 3209 1816 
Q 3506 1566 3506 1031 
Q 3506 472 3093 190 
Q 2681 -91 1863 -91 
Q 1516 -91 1145 -36 
Q 775 19 384 128 
L 384 978 
Q 719 816 1070 734 
Q 1422 653 1784 653 
Q 2113 653 2278 743 
Q 2444 834 2444 1013 
Q 2444 1163 2330 1236 
Q 2216 1309 1875 1350 
L 1678 1375 
Q 931 1469 631 1722 
Q 331 1975 331 2491 
Q 331 3047 712 3315 
Q 1094 3584 1881 3584 
Q 2191 3584 2531 3537 
Q 2872 3491 3272 3391 
z
" transform="scale(0.015625)"/>
      <path id="DejaVuSans-Bold-67" d="M 2919 594 
Q 2688 288 2409 144 
Q 2131 0 1766 0 
Q 1125 0 706 504 
Q 288 1009 288 1791 
Q 288 2575 706 3076 
Q 1125 3578 1766 3578 
Q 2131 3578 2409 3434 
Q 2688 3291 2919 2981 
L 2919 3500 
L 4044 3500 
L 4044 353 
Q 4044 -491 3511 -936 
Q 2978 -1381 1966 -1381 
Q 1638 -1381 1331 -1331 
Q 1025 -1281 716 -1178 
L 716 -306 
Q 1009 -475 1290 -558 
Q 1572 -641 1856 -641 
Q 2406 -641 2662 -400 
Q 2919 -159 2919 353 
L 2919 594 
z
M 2181 2772 
Q 1834 2772 1640 2515 
Q 1447 2259 1447 1791 
Q 1447 1309 1634 1061 
Q 1822 813 2181 813 
Q 2531 813 2725 1069 
Q 2919 1325 2919 1791 
Q 2919 2259 2725 2515 
Q 2531 2772 2181 2772 
z
" transform="scale(0.015625)"/>
     </defs>
     <use xlink:href="#DejaVuSans-Bold-45"/>
     <use xlink:href="#DejaVuSans-Bold-6e" x="68.310547"/>
     <use xlink:href="#DejaVuSans-Bold-63" x="139.501953"/>
     <use xlink:href="#DejaVuSans-Bold-6c" x="198.779297"/>
     <use xlink:href="#DejaVuSans-Bold-6f" x="233.056641"/>
     <use xlink:href="#DejaVuSans-Bold-73" x="301.757812"/>
     <use xlink:href="#DejaVuSans-Bold-69" x="361.279297"/>
     <use xlink:href="#DejaVuSans-Bold-6e" x="395.556641"/>
     <use xlink:href="#DejaVuSans-Bold-67" x="466.748047"/>
     <use xlink:href="#DejaVuSans-Bold-20" x="538.330078"/>
     <use xlink:href="#DejaVuSans-Bold-28" x="573.144531"/>
     <use xlink:href="#DejaVuSans-Bold-45" x="618.847656"/>
     <use xlink:href="#DejaVuSans-Bold-29" x="687.158203"/>
    </g>
   </g>
   <g id="text_4">
    <!-- Local (L) -->
    <g transform="translate(127.728 126.9504) scale(0.1 -0.1)">
     <defs>
      <path id="DejaVuSans-Bold-4c" d="M 588 4666 
L 1791 4666 
L 1791 909 
L 3903 909 
L 3903 0 
L 588 0 
L 588 4666 
z
" transform="scale(0.015625)"/>
     </defs>
     <use xlink:href="#DejaVuSans-Bold-4c"/>
     <use xlink:href="#DejaVuSans-Bold-6f" x="63.720703"/>
     <use xlink:href="#DejaVuSans-Bold-63" x="132.421875"/>
     <use xlink:href="#DejaVuSans-Bold-61" x="191.699219"/>
     <use xlink:href="#DejaVuSans-Bold-6c" x="259.179688"/>
     <use xlink:href="#DejaVuSans-Bold-20" x="293.457031"/>
     <use xlink:href="#DejaVuSans-Bold-28" x="328.271484"/>
     <use xlink:href="#DejaVuSans-Bold-4c" x="373.974609"/>
     <use xlink:href="#DejaVuSans-Bold-29" x="437.695312"/>
    </g>
   </g>
   <g id="text_5">
    <!-- LEGB lookup order: L -&gt; E -&gt; G -&gt; B -->
    <g transform="translate(74.723438 47.1168) scale(0.1 -0.1)">
     <defs>
      <path id="DejaVuSans-Bold-6b" d="M 538 4863 
L 1656 4863 
L 1656 2216 
L 2944 3500 
L 4244 3500 
L 2534 1894 
L 4378 0 
L 3022 0 
L 1656 1459 
L 1656 0 
L 538 0 
L 538 4863 
z
" transform="scale(0.015625)"/>
      <path id="DejaVuSans-Bold-70" d="M 1656 506 
L 1656 -1331 
L 538 -1331 
L 538 3500 
L 1656 3500 
L 1656 2988 
Q 1888 3294 2169 3439 
Q 2450 3584 2816 3584 
Q 3463 3584 3878 3070 
Q 4294 2556 4294 1747 
Q 4294 938 3878 423 
Q 3463 -91 2816 -91 
Q 2450 -91 2169 54 
Q 1888 200 1656 506 
z
M 2400 2772 
Q 2041 2772 1848 2508 
Q 1656 2244 1656 1747 
Q 1656 1250 1848 986 
Q 2041 722 2400 722 
Q 2759 722 2948 984 
Q 3138 1247 3138 1747 
Q 3138 2247 2948 2509 
Q 2759 2772 2400 2772 
z
" transform="scale(0.015625)"/>
      <path id="DejaVuSans-Bold-72" d="M 3138 2547 
Q 2991 2616 2845 2648 
Q 2700 2681 2553 2681 
Q 2122 2681 1889 2404 
Q 1656 2128 1656 1613 
L 1656 0 
L 538 0 
L 538 3500 
L 1656 3500 
L 1656 2925 
Q 1872 3269 2151 3426 
Q 2431 3584 2822 3584 
Q 2878 3584 2943 3579 
Q 3009 3575 3134 3559 
L 3138 2547 
z
" transform="scale(0.015625)"/>
      <path id="DejaVuSans-Bold-3a" d="M 716 3500 
L 1844 3500 
L 1844 2291 
L 716 2291 
L 716 3500 
z
M 716 1209 
L 1844 1209 
L 1844 0 
L 716 0 
L 716 1209 
z
" transform="scale(0.015625)"/>
      <path id="DejaVuSans-Bold-3e" d="M 678 3041 
L 678 3822 
L 4684 2375 
L 4684 1638 
L 678 191 
L 678 972 
L 3694 2003 
L 678 3041 
z
" transform="scale(0.015625)"/>
     </defs>
     <use xlink:href="#DejaVuSans-Bold-4c"/>
     <use xlink:href="#DejaVuSans-Bold-45" x="63.720703"/>
     <use xlink:href="#DejaVuSans-Bold-47" x="132.03125"/>
     <use xlink:href="#DejaVuSans-Bold-42" x="214.111328"/>
     <use xlink:href="#DejaVuSans-Bold-20" x="290.332031"/>
     <use xlink:href="#DejaVuSans-Bold-6c" x="325.146484"/>
     <use xlink:href="#DejaVuSans-Bold-6f" x="359.423828"/>
     <use xlink:href="#DejaVuSans-Bold-6f" x="428.125"/>
     <use xlink:href="#DejaVuSans-Bold-6b" x="496.826172"/>
     <use xlink:href="#DejaVuSans-Bold-75" x="563.330078"/>
     <use xlink:href="#DejaVuSans-Bold-70" x="634.521484"/>
     <use xlink:href="#DejaVuSans-Bold-20" x="706.103516"/>
     <use xlink:href="#DejaVuSans-Bold-6f" x="740.917969"/>
     <use xlink:href="#DejaVuSans-Bold-72" x="809.619141"/>
     <use xlink:href="#DejaVuSans-Bold-64" x="858.935547"/>
     <use xlink:href="#DejaVuSans-Bold-65" x="930.517578"/>
     <use xlink:href="#DejaVuSans-Bold-72" x="998.339844"/>
     <use xlink:href="#DejaVuSans-Bold-3a" x="1047.65625"/>
     <use xlink:href="#DejaVuSans-Bold-20" x="1087.646484"/>
     <use xlink:href="#DejaVuSans-Bold-4c" x="1122.460938"/>
     <use xlink:href="#DejaVuSans-Bold-20" x="1186.181641"/>
     <use xlink:href="#DejaVuSans-Bold-2d" x="1220.996094"/>
     <use xlink:href="#DejaVuSans-Bold-3e" x="1262.5"/>
     <use xlink:href="#DejaVuSans-Bold-20" x="1346.289062"/>
     <use xlink:href="#DejaVuSans-Bold-45" x="1381.103516"/>
     <use xlink:href="#DejaVuSans-Bold-20" x="1449.414062"/>
     <use xlink:href="#DejaVuSans-Bold-2d" x="1484.228516"/>
     <use xlink:href="#DejaVuSans-Bold-3e" x="1525.732422"/>
     <use xlink:href="#DejaVuSans-Bold-20" x="1609.521484"/>
     <use xlink:href="#DejaVuSans-Bold-47" x="1644.335938"/>
     <use xlink:href="#DejaVuSans-Bold-20" x="1726.416016"/>
     <use xlink:href="#DejaVuSans-Bold-2d" x="1761.230469"/>
     <use xlink:href="#DejaVuSans-Bold-3e" x="1802.734375"/>
     <use xlink:href="#DejaVuSans-Bold-20" x="1886.523438"/>
     <use xlink:href="#DejaVuSans-Bold-42" x="1921.337891"/>
    </g>
   </g>
  </g>
 </g>
 <defs>
  <clipPath id="pabadc76660">
   <rect x="7.2" y="7.2" width="334.8" height="249.48"/>
  </clipPath>
 </defs>
</svg>
